%TF.GenerationSoftware,KiCad,Pcbnew,7.0.9*%
%TF.CreationDate,2024-01-18T21:39:17-03:00*%
%TF.ProjectId,HB3600-Cart,48423336-3030-42d4-9361-72742e6b6963,V1.0*%
%TF.SameCoordinates,Original*%
%TF.FileFunction,AssemblyDrawing,Bot*%
%FSLAX46Y46*%
G04 Gerber Fmt 4.6, Leading zero omitted, Abs format (unit mm)*
G04 Created by KiCad (PCBNEW 7.0.9) date 2024-01-18 21:39:17*
%MOMM*%
%LPD*%
G01*
G04 APERTURE LIST*
%ADD10C,0.150000*%
G04 APERTURE END LIST*
D10*
X229664897Y-128062069D02*
X229664897Y-127062069D01*
X229664897Y-127062069D02*
X229331564Y-127776354D01*
X229331564Y-127776354D02*
X228998231Y-127062069D01*
X228998231Y-127062069D02*
X228998231Y-128062069D01*
X228379183Y-128062069D02*
X228474421Y-128014450D01*
X228474421Y-128014450D02*
X228522040Y-127966830D01*
X228522040Y-127966830D02*
X228569659Y-127871592D01*
X228569659Y-127871592D02*
X228569659Y-127585878D01*
X228569659Y-127585878D02*
X228522040Y-127490640D01*
X228522040Y-127490640D02*
X228474421Y-127443021D01*
X228474421Y-127443021D02*
X228379183Y-127395402D01*
X228379183Y-127395402D02*
X228236326Y-127395402D01*
X228236326Y-127395402D02*
X228141088Y-127443021D01*
X228141088Y-127443021D02*
X228093469Y-127490640D01*
X228093469Y-127490640D02*
X228045850Y-127585878D01*
X228045850Y-127585878D02*
X228045850Y-127871592D01*
X228045850Y-127871592D02*
X228093469Y-127966830D01*
X228093469Y-127966830D02*
X228141088Y-128014450D01*
X228141088Y-128014450D02*
X228236326Y-128062069D01*
X228236326Y-128062069D02*
X228379183Y-128062069D01*
X227188707Y-127395402D02*
X227188707Y-128062069D01*
X227617278Y-127395402D02*
X227617278Y-127919211D01*
X227617278Y-127919211D02*
X227569659Y-128014450D01*
X227569659Y-128014450D02*
X227474421Y-128062069D01*
X227474421Y-128062069D02*
X227331564Y-128062069D01*
X227331564Y-128062069D02*
X227236326Y-128014450D01*
X227236326Y-128014450D02*
X227188707Y-127966830D01*
X226712516Y-127395402D02*
X226712516Y-128062069D01*
X226712516Y-127490640D02*
X226664897Y-127443021D01*
X226664897Y-127443021D02*
X226569659Y-127395402D01*
X226569659Y-127395402D02*
X226426802Y-127395402D01*
X226426802Y-127395402D02*
X226331564Y-127443021D01*
X226331564Y-127443021D02*
X226283945Y-127538259D01*
X226283945Y-127538259D02*
X226283945Y-128062069D01*
X225950611Y-127395402D02*
X225569659Y-127395402D01*
X225807754Y-127062069D02*
X225807754Y-127919211D01*
X225807754Y-127919211D02*
X225760135Y-128014450D01*
X225760135Y-128014450D02*
X225664897Y-128062069D01*
X225664897Y-128062069D02*
X225569659Y-128062069D01*
X225236325Y-128062069D02*
X225236325Y-127395402D01*
X225236325Y-127062069D02*
X225283944Y-127109688D01*
X225283944Y-127109688D02*
X225236325Y-127157307D01*
X225236325Y-127157307D02*
X225188706Y-127109688D01*
X225188706Y-127109688D02*
X225236325Y-127062069D01*
X225236325Y-127062069D02*
X225236325Y-127157307D01*
X224760135Y-127395402D02*
X224760135Y-128062069D01*
X224760135Y-127490640D02*
X224712516Y-127443021D01*
X224712516Y-127443021D02*
X224617278Y-127395402D01*
X224617278Y-127395402D02*
X224474421Y-127395402D01*
X224474421Y-127395402D02*
X224379183Y-127443021D01*
X224379183Y-127443021D02*
X224331564Y-127538259D01*
X224331564Y-127538259D02*
X224331564Y-128062069D01*
X223426802Y-127395402D02*
X223426802Y-128204926D01*
X223426802Y-128204926D02*
X223474421Y-128300164D01*
X223474421Y-128300164D02*
X223522040Y-128347783D01*
X223522040Y-128347783D02*
X223617278Y-128395402D01*
X223617278Y-128395402D02*
X223760135Y-128395402D01*
X223760135Y-128395402D02*
X223855373Y-128347783D01*
X223426802Y-128014450D02*
X223522040Y-128062069D01*
X223522040Y-128062069D02*
X223712516Y-128062069D01*
X223712516Y-128062069D02*
X223807754Y-128014450D01*
X223807754Y-128014450D02*
X223855373Y-127966830D01*
X223855373Y-127966830D02*
X223902992Y-127871592D01*
X223902992Y-127871592D02*
X223902992Y-127585878D01*
X223902992Y-127585878D02*
X223855373Y-127490640D01*
X223855373Y-127490640D02*
X223807754Y-127443021D01*
X223807754Y-127443021D02*
X223712516Y-127395402D01*
X223712516Y-127395402D02*
X223522040Y-127395402D01*
X223522040Y-127395402D02*
X223426802Y-127443021D01*
X222950611Y-128062069D02*
X222950611Y-127062069D01*
X222950611Y-127538259D02*
X222379183Y-127538259D01*
X222379183Y-128062069D02*
X222379183Y-127062069D01*
X221760135Y-128062069D02*
X221855373Y-128014450D01*
X221855373Y-128014450D02*
X221902992Y-127966830D01*
X221902992Y-127966830D02*
X221950611Y-127871592D01*
X221950611Y-127871592D02*
X221950611Y-127585878D01*
X221950611Y-127585878D02*
X221902992Y-127490640D01*
X221902992Y-127490640D02*
X221855373Y-127443021D01*
X221855373Y-127443021D02*
X221760135Y-127395402D01*
X221760135Y-127395402D02*
X221617278Y-127395402D01*
X221617278Y-127395402D02*
X221522040Y-127443021D01*
X221522040Y-127443021D02*
X221474421Y-127490640D01*
X221474421Y-127490640D02*
X221426802Y-127585878D01*
X221426802Y-127585878D02*
X221426802Y-127871592D01*
X221426802Y-127871592D02*
X221474421Y-127966830D01*
X221474421Y-127966830D02*
X221522040Y-128014450D01*
X221522040Y-128014450D02*
X221617278Y-128062069D01*
X221617278Y-128062069D02*
X221760135Y-128062069D01*
X220855373Y-128062069D02*
X220950611Y-128014450D01*
X220950611Y-128014450D02*
X220998230Y-127919211D01*
X220998230Y-127919211D02*
X220998230Y-127062069D01*
X220093468Y-128014450D02*
X220188706Y-128062069D01*
X220188706Y-128062069D02*
X220379182Y-128062069D01*
X220379182Y-128062069D02*
X220474420Y-128014450D01*
X220474420Y-128014450D02*
X220522039Y-127919211D01*
X220522039Y-127919211D02*
X220522039Y-127538259D01*
X220522039Y-127538259D02*
X220474420Y-127443021D01*
X220474420Y-127443021D02*
X220379182Y-127395402D01*
X220379182Y-127395402D02*
X220188706Y-127395402D01*
X220188706Y-127395402D02*
X220093468Y-127443021D01*
X220093468Y-127443021D02*
X220045849Y-127538259D01*
X220045849Y-127538259D02*
X220045849Y-127633497D01*
X220045849Y-127633497D02*
X220522039Y-127728735D01*
X219855373Y-128157307D02*
X219093468Y-128157307D01*
X218426801Y-127062069D02*
X218617277Y-127062069D01*
X218617277Y-127062069D02*
X218712515Y-127109688D01*
X218712515Y-127109688D02*
X218760134Y-127157307D01*
X218760134Y-127157307D02*
X218855372Y-127300164D01*
X218855372Y-127300164D02*
X218902991Y-127490640D01*
X218902991Y-127490640D02*
X218902991Y-127871592D01*
X218902991Y-127871592D02*
X218855372Y-127966830D01*
X218855372Y-127966830D02*
X218807753Y-128014450D01*
X218807753Y-128014450D02*
X218712515Y-128062069D01*
X218712515Y-128062069D02*
X218522039Y-128062069D01*
X218522039Y-128062069D02*
X218426801Y-128014450D01*
X218426801Y-128014450D02*
X218379182Y-127966830D01*
X218379182Y-127966830D02*
X218331563Y-127871592D01*
X218331563Y-127871592D02*
X218331563Y-127633497D01*
X218331563Y-127633497D02*
X218379182Y-127538259D01*
X218379182Y-127538259D02*
X218426801Y-127490640D01*
X218426801Y-127490640D02*
X218522039Y-127443021D01*
X218522039Y-127443021D02*
X218712515Y-127443021D01*
X218712515Y-127443021D02*
X218807753Y-127490640D01*
X218807753Y-127490640D02*
X218855372Y-127538259D01*
X218855372Y-127538259D02*
X218902991Y-127633497D01*
X217902991Y-127966830D02*
X217855372Y-128014450D01*
X217855372Y-128014450D02*
X217902991Y-128062069D01*
X217902991Y-128062069D02*
X217950610Y-128014450D01*
X217950610Y-128014450D02*
X217902991Y-127966830D01*
X217902991Y-127966830D02*
X217902991Y-128062069D01*
X216998230Y-127395402D02*
X216998230Y-128062069D01*
X217236325Y-127014450D02*
X217474420Y-127728735D01*
X217474420Y-127728735D02*
X216855373Y-127728735D01*
X216474420Y-128062069D02*
X216474420Y-127395402D01*
X216474420Y-127490640D02*
X216426801Y-127443021D01*
X216426801Y-127443021D02*
X216331563Y-127395402D01*
X216331563Y-127395402D02*
X216188706Y-127395402D01*
X216188706Y-127395402D02*
X216093468Y-127443021D01*
X216093468Y-127443021D02*
X216045849Y-127538259D01*
X216045849Y-127538259D02*
X216045849Y-128062069D01*
X216045849Y-127538259D02*
X215998230Y-127443021D01*
X215998230Y-127443021D02*
X215902992Y-127395402D01*
X215902992Y-127395402D02*
X215760135Y-127395402D01*
X215760135Y-127395402D02*
X215664896Y-127443021D01*
X215664896Y-127443021D02*
X215617277Y-127538259D01*
X215617277Y-127538259D02*
X215617277Y-128062069D01*
X215141087Y-128062069D02*
X215141087Y-127395402D01*
X215141087Y-127490640D02*
X215093468Y-127443021D01*
X215093468Y-127443021D02*
X214998230Y-127395402D01*
X214998230Y-127395402D02*
X214855373Y-127395402D01*
X214855373Y-127395402D02*
X214760135Y-127443021D01*
X214760135Y-127443021D02*
X214712516Y-127538259D01*
X214712516Y-127538259D02*
X214712516Y-128062069D01*
X214712516Y-127538259D02*
X214664897Y-127443021D01*
X214664897Y-127443021D02*
X214569659Y-127395402D01*
X214569659Y-127395402D02*
X214426802Y-127395402D01*
X214426802Y-127395402D02*
X214331563Y-127443021D01*
X214331563Y-127443021D02*
X214283944Y-127538259D01*
X214283944Y-127538259D02*
X214283944Y-128062069D01*
X214045850Y-128157307D02*
X213283945Y-128157307D01*
X213045849Y-128062069D02*
X213045849Y-127062069D01*
X213045849Y-127062069D02*
X212712516Y-127776354D01*
X212712516Y-127776354D02*
X212379183Y-127062069D01*
X212379183Y-127062069D02*
X212379183Y-128062069D01*
X211474421Y-127062069D02*
X211664897Y-127062069D01*
X211664897Y-127062069D02*
X211760135Y-127109688D01*
X211760135Y-127109688D02*
X211807754Y-127157307D01*
X211807754Y-127157307D02*
X211902992Y-127300164D01*
X211902992Y-127300164D02*
X211950611Y-127490640D01*
X211950611Y-127490640D02*
X211950611Y-127871592D01*
X211950611Y-127871592D02*
X211902992Y-127966830D01*
X211902992Y-127966830D02*
X211855373Y-128014450D01*
X211855373Y-128014450D02*
X211760135Y-128062069D01*
X211760135Y-128062069D02*
X211569659Y-128062069D01*
X211569659Y-128062069D02*
X211474421Y-128014450D01*
X211474421Y-128014450D02*
X211426802Y-127966830D01*
X211426802Y-127966830D02*
X211379183Y-127871592D01*
X211379183Y-127871592D02*
X211379183Y-127633497D01*
X211379183Y-127633497D02*
X211426802Y-127538259D01*
X211426802Y-127538259D02*
X211474421Y-127490640D01*
X211474421Y-127490640D02*
X211569659Y-127443021D01*
X211569659Y-127443021D02*
X211760135Y-127443021D01*
X211760135Y-127443021D02*
X211855373Y-127490640D01*
X211855373Y-127490640D02*
X211902992Y-127538259D01*
X211902992Y-127538259D02*
X211950611Y-127633497D01*
X222688706Y-120662069D02*
X222688706Y-119662069D01*
X222688706Y-120138259D02*
X222117278Y-120138259D01*
X222117278Y-120662069D02*
X222117278Y-119662069D01*
X221450611Y-119662069D02*
X221260135Y-119662069D01*
X221260135Y-119662069D02*
X221164897Y-119709688D01*
X221164897Y-119709688D02*
X221069659Y-119804926D01*
X221069659Y-119804926D02*
X221022040Y-119995402D01*
X221022040Y-119995402D02*
X221022040Y-120328735D01*
X221022040Y-120328735D02*
X221069659Y-120519211D01*
X221069659Y-120519211D02*
X221164897Y-120614450D01*
X221164897Y-120614450D02*
X221260135Y-120662069D01*
X221260135Y-120662069D02*
X221450611Y-120662069D01*
X221450611Y-120662069D02*
X221545849Y-120614450D01*
X221545849Y-120614450D02*
X221641087Y-120519211D01*
X221641087Y-120519211D02*
X221688706Y-120328735D01*
X221688706Y-120328735D02*
X221688706Y-119995402D01*
X221688706Y-119995402D02*
X221641087Y-119804926D01*
X221641087Y-119804926D02*
X221545849Y-119709688D01*
X221545849Y-119709688D02*
X221450611Y-119662069D01*
X220117278Y-120662069D02*
X220593468Y-120662069D01*
X220593468Y-120662069D02*
X220593468Y-119662069D01*
X219783944Y-120138259D02*
X219450611Y-120138259D01*
X219307754Y-120662069D02*
X219783944Y-120662069D01*
X219783944Y-120662069D02*
X219783944Y-119662069D01*
X219783944Y-119662069D02*
X219307754Y-119662069D01*
X218450611Y-119995402D02*
X218450611Y-120662069D01*
X218688706Y-119614450D02*
X218926801Y-120328735D01*
X218926801Y-120328735D02*
X218307754Y-120328735D01*
M02*
