%TF.GenerationSoftware,KiCad,Pcbnew,7.0.9*%
%TF.CreationDate,2024-01-18T21:39:17-03:00*%
%TF.ProjectId,HB3600-Cart,48423336-3030-42d4-9361-72742e6b6963,V1.0*%
%TF.SameCoordinates,Original*%
%TF.FileFunction,Legend,Top*%
%TF.FilePolarity,Positive*%
%FSLAX46Y46*%
G04 Gerber Fmt 4.6, Leading zero omitted, Abs format (unit mm)*
G04 Created by KiCad (PCBNEW 7.0.9) date 2024-01-18 21:39:17*
%MOMM*%
%LPD*%
G01*
G04 APERTURE LIST*
%ADD10C,0.200000*%
%ADD11C,0.150000*%
%ADD12C,0.300000*%
%ADD13C,0.120000*%
G04 APERTURE END LIST*
D10*
X219987606Y-92343342D02*
X220730463Y-92343342D01*
X220730463Y-92343342D02*
X220330463Y-92800485D01*
X220330463Y-92800485D02*
X220501892Y-92800485D01*
X220501892Y-92800485D02*
X220616178Y-92857628D01*
X220616178Y-92857628D02*
X220673320Y-92914771D01*
X220673320Y-92914771D02*
X220730463Y-93029057D01*
X220730463Y-93029057D02*
X220730463Y-93314771D01*
X220730463Y-93314771D02*
X220673320Y-93429057D01*
X220673320Y-93429057D02*
X220616178Y-93486200D01*
X220616178Y-93486200D02*
X220501892Y-93543342D01*
X220501892Y-93543342D02*
X220159035Y-93543342D01*
X220159035Y-93543342D02*
X220044749Y-93486200D01*
X220044749Y-93486200D02*
X219987606Y-93429057D01*
X217453949Y-92457628D02*
X217511092Y-92400485D01*
X217511092Y-92400485D02*
X217625378Y-92343342D01*
X217625378Y-92343342D02*
X217911092Y-92343342D01*
X217911092Y-92343342D02*
X218025378Y-92400485D01*
X218025378Y-92400485D02*
X218082520Y-92457628D01*
X218082520Y-92457628D02*
X218139663Y-92571914D01*
X218139663Y-92571914D02*
X218139663Y-92686200D01*
X218139663Y-92686200D02*
X218082520Y-92857628D01*
X218082520Y-92857628D02*
X217396806Y-93543342D01*
X217396806Y-93543342D02*
X218139663Y-93543342D01*
X215625063Y-93543342D02*
X214939349Y-93543342D01*
X215282206Y-93543342D02*
X215282206Y-92343342D01*
X215282206Y-92343342D02*
X215167920Y-92514771D01*
X215167920Y-92514771D02*
X215053635Y-92629057D01*
X215053635Y-92629057D02*
X214939349Y-92686200D01*
D11*
X165031150Y-140752752D02*
X165031150Y-141419419D01*
X164793055Y-140371800D02*
X164554960Y-141086085D01*
X164554960Y-141086085D02*
X165174007Y-141086085D01*
X165745436Y-140419419D02*
X165840674Y-140419419D01*
X165840674Y-140419419D02*
X165935912Y-140467038D01*
X165935912Y-140467038D02*
X165983531Y-140514657D01*
X165983531Y-140514657D02*
X166031150Y-140609895D01*
X166031150Y-140609895D02*
X166078769Y-140800371D01*
X166078769Y-140800371D02*
X166078769Y-141038466D01*
X166078769Y-141038466D02*
X166031150Y-141228942D01*
X166031150Y-141228942D02*
X165983531Y-141324180D01*
X165983531Y-141324180D02*
X165935912Y-141371800D01*
X165935912Y-141371800D02*
X165840674Y-141419419D01*
X165840674Y-141419419D02*
X165745436Y-141419419D01*
X165745436Y-141419419D02*
X165650198Y-141371800D01*
X165650198Y-141371800D02*
X165602579Y-141324180D01*
X165602579Y-141324180D02*
X165554960Y-141228942D01*
X165554960Y-141228942D02*
X165507341Y-141038466D01*
X165507341Y-141038466D02*
X165507341Y-140800371D01*
X165507341Y-140800371D02*
X165554960Y-140609895D01*
X165554960Y-140609895D02*
X165602579Y-140514657D01*
X165602579Y-140514657D02*
X165650198Y-140467038D01*
X165650198Y-140467038D02*
X165745436Y-140419419D01*
X177156541Y-140368619D02*
X177775588Y-140368619D01*
X177775588Y-140368619D02*
X177442255Y-140749571D01*
X177442255Y-140749571D02*
X177585112Y-140749571D01*
X177585112Y-140749571D02*
X177680350Y-140797190D01*
X177680350Y-140797190D02*
X177727969Y-140844809D01*
X177727969Y-140844809D02*
X177775588Y-140940047D01*
X177775588Y-140940047D02*
X177775588Y-141178142D01*
X177775588Y-141178142D02*
X177727969Y-141273380D01*
X177727969Y-141273380D02*
X177680350Y-141321000D01*
X177680350Y-141321000D02*
X177585112Y-141368619D01*
X177585112Y-141368619D02*
X177299398Y-141368619D01*
X177299398Y-141368619D02*
X177204160Y-141321000D01*
X177204160Y-141321000D02*
X177156541Y-141273380D01*
X178394636Y-140368619D02*
X178489874Y-140368619D01*
X178489874Y-140368619D02*
X178585112Y-140416238D01*
X178585112Y-140416238D02*
X178632731Y-140463857D01*
X178632731Y-140463857D02*
X178680350Y-140559095D01*
X178680350Y-140559095D02*
X178727969Y-140749571D01*
X178727969Y-140749571D02*
X178727969Y-140987666D01*
X178727969Y-140987666D02*
X178680350Y-141178142D01*
X178680350Y-141178142D02*
X178632731Y-141273380D01*
X178632731Y-141273380D02*
X178585112Y-141321000D01*
X178585112Y-141321000D02*
X178489874Y-141368619D01*
X178489874Y-141368619D02*
X178394636Y-141368619D01*
X178394636Y-141368619D02*
X178299398Y-141321000D01*
X178299398Y-141321000D02*
X178251779Y-141273380D01*
X178251779Y-141273380D02*
X178204160Y-141178142D01*
X178204160Y-141178142D02*
X178156541Y-140987666D01*
X178156541Y-140987666D02*
X178156541Y-140749571D01*
X178156541Y-140749571D02*
X178204160Y-140559095D01*
X178204160Y-140559095D02*
X178251779Y-140463857D01*
X178251779Y-140463857D02*
X178299398Y-140416238D01*
X178299398Y-140416238D02*
X178394636Y-140368619D01*
X203023188Y-141317819D02*
X202451760Y-141317819D01*
X202737474Y-141317819D02*
X202737474Y-140317819D01*
X202737474Y-140317819D02*
X202642236Y-140460676D01*
X202642236Y-140460676D02*
X202546998Y-140555914D01*
X202546998Y-140555914D02*
X202451760Y-140603533D01*
X203642236Y-140317819D02*
X203737474Y-140317819D01*
X203737474Y-140317819D02*
X203832712Y-140365438D01*
X203832712Y-140365438D02*
X203880331Y-140413057D01*
X203880331Y-140413057D02*
X203927950Y-140508295D01*
X203927950Y-140508295D02*
X203975569Y-140698771D01*
X203975569Y-140698771D02*
X203975569Y-140936866D01*
X203975569Y-140936866D02*
X203927950Y-141127342D01*
X203927950Y-141127342D02*
X203880331Y-141222580D01*
X203880331Y-141222580D02*
X203832712Y-141270200D01*
X203832712Y-141270200D02*
X203737474Y-141317819D01*
X203737474Y-141317819D02*
X203642236Y-141317819D01*
X203642236Y-141317819D02*
X203546998Y-141270200D01*
X203546998Y-141270200D02*
X203499379Y-141222580D01*
X203499379Y-141222580D02*
X203451760Y-141127342D01*
X203451760Y-141127342D02*
X203404141Y-140936866D01*
X203404141Y-140936866D02*
X203404141Y-140698771D01*
X203404141Y-140698771D02*
X203451760Y-140508295D01*
X203451760Y-140508295D02*
X203499379Y-140413057D01*
X203499379Y-140413057D02*
X203546998Y-140365438D01*
X203546998Y-140365438D02*
X203642236Y-140317819D01*
X152327969Y-140521019D02*
X151851779Y-140521019D01*
X151851779Y-140521019D02*
X151804160Y-140997209D01*
X151804160Y-140997209D02*
X151851779Y-140949590D01*
X151851779Y-140949590D02*
X151947017Y-140901971D01*
X151947017Y-140901971D02*
X152185112Y-140901971D01*
X152185112Y-140901971D02*
X152280350Y-140949590D01*
X152280350Y-140949590D02*
X152327969Y-140997209D01*
X152327969Y-140997209D02*
X152375588Y-141092447D01*
X152375588Y-141092447D02*
X152375588Y-141330542D01*
X152375588Y-141330542D02*
X152327969Y-141425780D01*
X152327969Y-141425780D02*
X152280350Y-141473400D01*
X152280350Y-141473400D02*
X152185112Y-141521019D01*
X152185112Y-141521019D02*
X151947017Y-141521019D01*
X151947017Y-141521019D02*
X151851779Y-141473400D01*
X151851779Y-141473400D02*
X151804160Y-141425780D01*
X152994636Y-140521019D02*
X153089874Y-140521019D01*
X153089874Y-140521019D02*
X153185112Y-140568638D01*
X153185112Y-140568638D02*
X153232731Y-140616257D01*
X153232731Y-140616257D02*
X153280350Y-140711495D01*
X153280350Y-140711495D02*
X153327969Y-140901971D01*
X153327969Y-140901971D02*
X153327969Y-141140066D01*
X153327969Y-141140066D02*
X153280350Y-141330542D01*
X153280350Y-141330542D02*
X153232731Y-141425780D01*
X153232731Y-141425780D02*
X153185112Y-141473400D01*
X153185112Y-141473400D02*
X153089874Y-141521019D01*
X153089874Y-141521019D02*
X152994636Y-141521019D01*
X152994636Y-141521019D02*
X152899398Y-141473400D01*
X152899398Y-141473400D02*
X152851779Y-141425780D01*
X152851779Y-141425780D02*
X152804160Y-141330542D01*
X152804160Y-141330542D02*
X152756541Y-141140066D01*
X152756541Y-141140066D02*
X152756541Y-140901971D01*
X152756541Y-140901971D02*
X152804160Y-140711495D01*
X152804160Y-140711495D02*
X152851779Y-140616257D01*
X152851779Y-140616257D02*
X152899398Y-140568638D01*
X152899398Y-140568638D02*
X152994636Y-140521019D01*
X213221360Y-140413057D02*
X213268979Y-140365438D01*
X213268979Y-140365438D02*
X213364217Y-140317819D01*
X213364217Y-140317819D02*
X213602312Y-140317819D01*
X213602312Y-140317819D02*
X213697550Y-140365438D01*
X213697550Y-140365438D02*
X213745169Y-140413057D01*
X213745169Y-140413057D02*
X213792788Y-140508295D01*
X213792788Y-140508295D02*
X213792788Y-140603533D01*
X213792788Y-140603533D02*
X213745169Y-140746390D01*
X213745169Y-140746390D02*
X213173741Y-141317819D01*
X213173741Y-141317819D02*
X213792788Y-141317819D01*
D10*
X192908685Y-89589192D02*
X192908685Y-90446335D01*
X192908685Y-90446335D02*
X192851542Y-90617764D01*
X192851542Y-90617764D02*
X192737256Y-90732050D01*
X192737256Y-90732050D02*
X192565828Y-90789192D01*
X192565828Y-90789192D02*
X192451542Y-90789192D01*
X193422971Y-89703478D02*
X193480114Y-89646335D01*
X193480114Y-89646335D02*
X193594400Y-89589192D01*
X193594400Y-89589192D02*
X193880114Y-89589192D01*
X193880114Y-89589192D02*
X193994400Y-89646335D01*
X193994400Y-89646335D02*
X194051542Y-89703478D01*
X194051542Y-89703478D02*
X194108685Y-89817764D01*
X194108685Y-89817764D02*
X194108685Y-89932050D01*
X194108685Y-89932050D02*
X194051542Y-90103478D01*
X194051542Y-90103478D02*
X193365828Y-90789192D01*
X193365828Y-90789192D02*
X194108685Y-90789192D01*
X196165828Y-90789192D02*
X195480114Y-90789192D01*
X195822971Y-90789192D02*
X195822971Y-89589192D01*
X195822971Y-89589192D02*
X195708685Y-89760621D01*
X195708685Y-89760621D02*
X195594400Y-89874907D01*
X195594400Y-89874907D02*
X195480114Y-89932050D01*
X196680114Y-90332050D02*
X197594400Y-90332050D01*
X198108685Y-89703478D02*
X198165828Y-89646335D01*
X198165828Y-89646335D02*
X198280114Y-89589192D01*
X198280114Y-89589192D02*
X198565828Y-89589192D01*
X198565828Y-89589192D02*
X198680114Y-89646335D01*
X198680114Y-89646335D02*
X198737256Y-89703478D01*
X198737256Y-89703478D02*
X198794399Y-89817764D01*
X198794399Y-89817764D02*
X198794399Y-89932050D01*
X198794399Y-89932050D02*
X198737256Y-90103478D01*
X198737256Y-90103478D02*
X198051542Y-90789192D01*
X198051542Y-90789192D02*
X198794399Y-90789192D01*
X200222971Y-90789192D02*
X200222971Y-89989192D01*
X200222971Y-89589192D02*
X200165828Y-89646335D01*
X200165828Y-89646335D02*
X200222971Y-89703478D01*
X200222971Y-89703478D02*
X200280114Y-89646335D01*
X200280114Y-89646335D02*
X200222971Y-89589192D01*
X200222971Y-89589192D02*
X200222971Y-89703478D01*
X200622971Y-89989192D02*
X201080114Y-89989192D01*
X200794400Y-90789192D02*
X200794400Y-89760621D01*
X200794400Y-89760621D02*
X200851543Y-89646335D01*
X200851543Y-89646335D02*
X200965828Y-89589192D01*
X200965828Y-89589192D02*
X201080114Y-89589192D01*
X202394400Y-89589192D02*
X202394400Y-90560621D01*
X202394400Y-90560621D02*
X202451543Y-90674907D01*
X202451543Y-90674907D02*
X202508686Y-90732050D01*
X202508686Y-90732050D02*
X202622971Y-90789192D01*
X202622971Y-90789192D02*
X202851543Y-90789192D01*
X202851543Y-90789192D02*
X202965828Y-90732050D01*
X202965828Y-90732050D02*
X203022971Y-90674907D01*
X203022971Y-90674907D02*
X203080114Y-90560621D01*
X203080114Y-90560621D02*
X203080114Y-89589192D01*
X204222971Y-89589192D02*
X203651543Y-89589192D01*
X203651543Y-89589192D02*
X203594400Y-90160621D01*
X203594400Y-90160621D02*
X203651543Y-90103478D01*
X203651543Y-90103478D02*
X203765829Y-90046335D01*
X203765829Y-90046335D02*
X204051543Y-90046335D01*
X204051543Y-90046335D02*
X204165829Y-90103478D01*
X204165829Y-90103478D02*
X204222971Y-90160621D01*
X204222971Y-90160621D02*
X204280114Y-90274907D01*
X204280114Y-90274907D02*
X204280114Y-90560621D01*
X204280114Y-90560621D02*
X204222971Y-90674907D01*
X204222971Y-90674907D02*
X204165829Y-90732050D01*
X204165829Y-90732050D02*
X204051543Y-90789192D01*
X204051543Y-90789192D02*
X203765829Y-90789192D01*
X203765829Y-90789192D02*
X203651543Y-90732050D01*
X203651543Y-90732050D02*
X203594400Y-90674907D01*
X205708686Y-90160621D02*
X206622972Y-90160621D01*
X206622972Y-90503478D02*
X205708686Y-90503478D01*
X208051543Y-89703478D02*
X208108686Y-89646335D01*
X208108686Y-89646335D02*
X208222972Y-89589192D01*
X208222972Y-89589192D02*
X208508686Y-89589192D01*
X208508686Y-89589192D02*
X208622972Y-89646335D01*
X208622972Y-89646335D02*
X208680114Y-89703478D01*
X208680114Y-89703478D02*
X208737257Y-89817764D01*
X208737257Y-89817764D02*
X208737257Y-89932050D01*
X208737257Y-89932050D02*
X208680114Y-90103478D01*
X208680114Y-90103478D02*
X207994400Y-90789192D01*
X207994400Y-90789192D02*
X208737257Y-90789192D01*
X209137257Y-89589192D02*
X209937257Y-89589192D01*
X209937257Y-89589192D02*
X209422971Y-90789192D01*
X211022971Y-90789192D02*
X210337257Y-90789192D01*
X210680114Y-90789192D02*
X210680114Y-89589192D01*
X210680114Y-89589192D02*
X210565828Y-89760621D01*
X210565828Y-89760621D02*
X210451543Y-89874907D01*
X210451543Y-89874907D02*
X210337257Y-89932050D01*
X211480114Y-89703478D02*
X211537257Y-89646335D01*
X211537257Y-89646335D02*
X211651543Y-89589192D01*
X211651543Y-89589192D02*
X211937257Y-89589192D01*
X211937257Y-89589192D02*
X212051543Y-89646335D01*
X212051543Y-89646335D02*
X212108685Y-89703478D01*
X212108685Y-89703478D02*
X212165828Y-89817764D01*
X212165828Y-89817764D02*
X212165828Y-89932050D01*
X212165828Y-89932050D02*
X212108685Y-90103478D01*
X212108685Y-90103478D02*
X211422971Y-90789192D01*
X211422971Y-90789192D02*
X212165828Y-90789192D01*
X212851542Y-90103478D02*
X212737257Y-90046335D01*
X212737257Y-90046335D02*
X212680114Y-89989192D01*
X212680114Y-89989192D02*
X212622971Y-89874907D01*
X212622971Y-89874907D02*
X212622971Y-89817764D01*
X212622971Y-89817764D02*
X212680114Y-89703478D01*
X212680114Y-89703478D02*
X212737257Y-89646335D01*
X212737257Y-89646335D02*
X212851542Y-89589192D01*
X212851542Y-89589192D02*
X213080114Y-89589192D01*
X213080114Y-89589192D02*
X213194400Y-89646335D01*
X213194400Y-89646335D02*
X213251542Y-89703478D01*
X213251542Y-89703478D02*
X213308685Y-89817764D01*
X213308685Y-89817764D02*
X213308685Y-89874907D01*
X213308685Y-89874907D02*
X213251542Y-89989192D01*
X213251542Y-89989192D02*
X213194400Y-90046335D01*
X213194400Y-90046335D02*
X213080114Y-90103478D01*
X213080114Y-90103478D02*
X212851542Y-90103478D01*
X212851542Y-90103478D02*
X212737257Y-90160621D01*
X212737257Y-90160621D02*
X212680114Y-90217764D01*
X212680114Y-90217764D02*
X212622971Y-90332050D01*
X212622971Y-90332050D02*
X212622971Y-90560621D01*
X212622971Y-90560621D02*
X212680114Y-90674907D01*
X212680114Y-90674907D02*
X212737257Y-90732050D01*
X212737257Y-90732050D02*
X212851542Y-90789192D01*
X212851542Y-90789192D02*
X213080114Y-90789192D01*
X213080114Y-90789192D02*
X213194400Y-90732050D01*
X213194400Y-90732050D02*
X213251542Y-90674907D01*
X213251542Y-90674907D02*
X213308685Y-90560621D01*
X213308685Y-90560621D02*
X213308685Y-90332050D01*
X213308685Y-90332050D02*
X213251542Y-90217764D01*
X213251542Y-90217764D02*
X213194400Y-90160621D01*
X213194400Y-90160621D02*
X213080114Y-90103478D01*
D12*
X151483087Y-135100828D02*
X151983087Y-136600828D01*
X151983087Y-136600828D02*
X152483087Y-135100828D01*
X153554515Y-136529400D02*
X153411658Y-136600828D01*
X153411658Y-136600828D02*
X153125944Y-136600828D01*
X153125944Y-136600828D02*
X152983086Y-136529400D01*
X152983086Y-136529400D02*
X152911658Y-136386542D01*
X152911658Y-136386542D02*
X152911658Y-135815114D01*
X152911658Y-135815114D02*
X152983086Y-135672257D01*
X152983086Y-135672257D02*
X153125944Y-135600828D01*
X153125944Y-135600828D02*
X153411658Y-135600828D01*
X153411658Y-135600828D02*
X153554515Y-135672257D01*
X153554515Y-135672257D02*
X153625944Y-135815114D01*
X153625944Y-135815114D02*
X153625944Y-135957971D01*
X153625944Y-135957971D02*
X152911658Y-136100828D01*
X154268800Y-136600828D02*
X154268800Y-135600828D01*
X154268800Y-135886542D02*
X154340229Y-135743685D01*
X154340229Y-135743685D02*
X154411658Y-135672257D01*
X154411658Y-135672257D02*
X154554515Y-135600828D01*
X154554515Y-135600828D02*
X154697372Y-135600828D01*
X157125943Y-136600828D02*
X156268800Y-136600828D01*
X156697371Y-136600828D02*
X156697371Y-135100828D01*
X156697371Y-135100828D02*
X156554514Y-135315114D01*
X156554514Y-135315114D02*
X156411657Y-135457971D01*
X156411657Y-135457971D02*
X156268800Y-135529400D01*
X157768799Y-136457971D02*
X157840228Y-136529400D01*
X157840228Y-136529400D02*
X157768799Y-136600828D01*
X157768799Y-136600828D02*
X157697371Y-136529400D01*
X157697371Y-136529400D02*
X157768799Y-136457971D01*
X157768799Y-136457971D02*
X157768799Y-136600828D01*
X158768800Y-135100828D02*
X158911657Y-135100828D01*
X158911657Y-135100828D02*
X159054514Y-135172257D01*
X159054514Y-135172257D02*
X159125943Y-135243685D01*
X159125943Y-135243685D02*
X159197371Y-135386542D01*
X159197371Y-135386542D02*
X159268800Y-135672257D01*
X159268800Y-135672257D02*
X159268800Y-136029400D01*
X159268800Y-136029400D02*
X159197371Y-136315114D01*
X159197371Y-136315114D02*
X159125943Y-136457971D01*
X159125943Y-136457971D02*
X159054514Y-136529400D01*
X159054514Y-136529400D02*
X158911657Y-136600828D01*
X158911657Y-136600828D02*
X158768800Y-136600828D01*
X158768800Y-136600828D02*
X158625943Y-136529400D01*
X158625943Y-136529400D02*
X158554514Y-136457971D01*
X158554514Y-136457971D02*
X158483085Y-136315114D01*
X158483085Y-136315114D02*
X158411657Y-136029400D01*
X158411657Y-136029400D02*
X158411657Y-135672257D01*
X158411657Y-135672257D02*
X158483085Y-135386542D01*
X158483085Y-135386542D02*
X158554514Y-135243685D01*
X158554514Y-135243685D02*
X158625943Y-135172257D01*
X158625943Y-135172257D02*
X158768800Y-135100828D01*
X159911656Y-136457971D02*
X159983085Y-136529400D01*
X159983085Y-136529400D02*
X159911656Y-136600828D01*
X159911656Y-136600828D02*
X159840228Y-136529400D01*
X159840228Y-136529400D02*
X159911656Y-136457971D01*
X159911656Y-136457971D02*
X159911656Y-136600828D01*
X160911657Y-135100828D02*
X161054514Y-135100828D01*
X161054514Y-135100828D02*
X161197371Y-135172257D01*
X161197371Y-135172257D02*
X161268800Y-135243685D01*
X161268800Y-135243685D02*
X161340228Y-135386542D01*
X161340228Y-135386542D02*
X161411657Y-135672257D01*
X161411657Y-135672257D02*
X161411657Y-136029400D01*
X161411657Y-136029400D02*
X161340228Y-136315114D01*
X161340228Y-136315114D02*
X161268800Y-136457971D01*
X161268800Y-136457971D02*
X161197371Y-136529400D01*
X161197371Y-136529400D02*
X161054514Y-136600828D01*
X161054514Y-136600828D02*
X160911657Y-136600828D01*
X160911657Y-136600828D02*
X160768800Y-136529400D01*
X160768800Y-136529400D02*
X160697371Y-136457971D01*
X160697371Y-136457971D02*
X160625942Y-136315114D01*
X160625942Y-136315114D02*
X160554514Y-136029400D01*
X160554514Y-136029400D02*
X160554514Y-135672257D01*
X160554514Y-135672257D02*
X160625942Y-135386542D01*
X160625942Y-135386542D02*
X160697371Y-135243685D01*
X160697371Y-135243685D02*
X160768800Y-135172257D01*
X160768800Y-135172257D02*
X160911657Y-135100828D01*
X154483086Y-139015828D02*
X153983086Y-138301542D01*
X153625943Y-139015828D02*
X153625943Y-137515828D01*
X153625943Y-137515828D02*
X154197372Y-137515828D01*
X154197372Y-137515828D02*
X154340229Y-137587257D01*
X154340229Y-137587257D02*
X154411658Y-137658685D01*
X154411658Y-137658685D02*
X154483086Y-137801542D01*
X154483086Y-137801542D02*
X154483086Y-138015828D01*
X154483086Y-138015828D02*
X154411658Y-138158685D01*
X154411658Y-138158685D02*
X154340229Y-138230114D01*
X154340229Y-138230114D02*
X154197372Y-138301542D01*
X154197372Y-138301542D02*
X153625943Y-138301542D01*
X155697372Y-138944400D02*
X155554515Y-139015828D01*
X155554515Y-139015828D02*
X155268801Y-139015828D01*
X155268801Y-139015828D02*
X155125943Y-138944400D01*
X155125943Y-138944400D02*
X155054515Y-138801542D01*
X155054515Y-138801542D02*
X155054515Y-138230114D01*
X155054515Y-138230114D02*
X155125943Y-138087257D01*
X155125943Y-138087257D02*
X155268801Y-138015828D01*
X155268801Y-138015828D02*
X155554515Y-138015828D01*
X155554515Y-138015828D02*
X155697372Y-138087257D01*
X155697372Y-138087257D02*
X155768801Y-138230114D01*
X155768801Y-138230114D02*
X155768801Y-138372971D01*
X155768801Y-138372971D02*
X155054515Y-138515828D01*
X156268800Y-138015828D02*
X156625943Y-139015828D01*
X156625943Y-139015828D02*
X156983086Y-138015828D01*
X158983086Y-137515828D02*
X159125943Y-137515828D01*
X159125943Y-137515828D02*
X159268800Y-137587257D01*
X159268800Y-137587257D02*
X159340229Y-137658685D01*
X159340229Y-137658685D02*
X159411657Y-137801542D01*
X159411657Y-137801542D02*
X159483086Y-138087257D01*
X159483086Y-138087257D02*
X159483086Y-138444400D01*
X159483086Y-138444400D02*
X159411657Y-138730114D01*
X159411657Y-138730114D02*
X159340229Y-138872971D01*
X159340229Y-138872971D02*
X159268800Y-138944400D01*
X159268800Y-138944400D02*
X159125943Y-139015828D01*
X159125943Y-139015828D02*
X158983086Y-139015828D01*
X158983086Y-139015828D02*
X158840229Y-138944400D01*
X158840229Y-138944400D02*
X158768800Y-138872971D01*
X158768800Y-138872971D02*
X158697371Y-138730114D01*
X158697371Y-138730114D02*
X158625943Y-138444400D01*
X158625943Y-138444400D02*
X158625943Y-138087257D01*
X158625943Y-138087257D02*
X158697371Y-137801542D01*
X158697371Y-137801542D02*
X158768800Y-137658685D01*
X158768800Y-137658685D02*
X158840229Y-137587257D01*
X158840229Y-137587257D02*
X158983086Y-137515828D01*
X176829751Y-131096603D02*
X176829751Y-129396603D01*
X176829751Y-129396603D02*
X177163084Y-129396603D01*
X177163084Y-129396603D02*
X177363084Y-129477555D01*
X177363084Y-129477555D02*
X177496418Y-129639460D01*
X177496418Y-129639460D02*
X177563084Y-129801365D01*
X177563084Y-129801365D02*
X177629751Y-130125174D01*
X177629751Y-130125174D02*
X177629751Y-130368031D01*
X177629751Y-130368031D02*
X177563084Y-130691841D01*
X177563084Y-130691841D02*
X177496418Y-130853746D01*
X177496418Y-130853746D02*
X177363084Y-131015651D01*
X177363084Y-131015651D02*
X177163084Y-131096603D01*
X177163084Y-131096603D02*
X176829751Y-131096603D01*
X178829751Y-129963270D02*
X178829751Y-131096603D01*
X178229751Y-129963270D02*
X178229751Y-130853746D01*
X178229751Y-130853746D02*
X178296418Y-131015651D01*
X178296418Y-131015651D02*
X178429751Y-131096603D01*
X178429751Y-131096603D02*
X178629751Y-131096603D01*
X178629751Y-131096603D02*
X178763084Y-131015651D01*
X178763084Y-131015651D02*
X178829751Y-130934698D01*
X180096418Y-131096603D02*
X180096418Y-130206127D01*
X180096418Y-130206127D02*
X180029751Y-130044222D01*
X180029751Y-130044222D02*
X179896418Y-129963270D01*
X179896418Y-129963270D02*
X179629751Y-129963270D01*
X179629751Y-129963270D02*
X179496418Y-130044222D01*
X180096418Y-131015651D02*
X179963085Y-131096603D01*
X179963085Y-131096603D02*
X179629751Y-131096603D01*
X179629751Y-131096603D02*
X179496418Y-131015651D01*
X179496418Y-131015651D02*
X179429751Y-130853746D01*
X179429751Y-130853746D02*
X179429751Y-130691841D01*
X179429751Y-130691841D02*
X179496418Y-130529936D01*
X179496418Y-130529936D02*
X179629751Y-130448984D01*
X179629751Y-130448984D02*
X179963085Y-130448984D01*
X179963085Y-130448984D02*
X180096418Y-130368031D01*
X180963085Y-131096603D02*
X180829752Y-131015651D01*
X180829752Y-131015651D02*
X180763085Y-130853746D01*
X180763085Y-130853746D02*
X180763085Y-129396603D01*
X182563085Y-131096603D02*
X182563085Y-129396603D01*
X182563085Y-129396603D02*
X182896418Y-129396603D01*
X182896418Y-129396603D02*
X183096418Y-129477555D01*
X183096418Y-129477555D02*
X183229752Y-129639460D01*
X183229752Y-129639460D02*
X183296418Y-129801365D01*
X183296418Y-129801365D02*
X183363085Y-130125174D01*
X183363085Y-130125174D02*
X183363085Y-130368031D01*
X183363085Y-130368031D02*
X183296418Y-130691841D01*
X183296418Y-130691841D02*
X183229752Y-130853746D01*
X183229752Y-130853746D02*
X183096418Y-131015651D01*
X183096418Y-131015651D02*
X182896418Y-131096603D01*
X182896418Y-131096603D02*
X182563085Y-131096603D01*
X183963085Y-131096603D02*
X183963085Y-129963270D01*
X183963085Y-129396603D02*
X183896418Y-129477555D01*
X183896418Y-129477555D02*
X183963085Y-129558508D01*
X183963085Y-129558508D02*
X184029752Y-129477555D01*
X184029752Y-129477555D02*
X183963085Y-129396603D01*
X183963085Y-129396603D02*
X183963085Y-129558508D01*
X184563085Y-131015651D02*
X184696419Y-131096603D01*
X184696419Y-131096603D02*
X184963085Y-131096603D01*
X184963085Y-131096603D02*
X185096419Y-131015651D01*
X185096419Y-131015651D02*
X185163085Y-130853746D01*
X185163085Y-130853746D02*
X185163085Y-130772793D01*
X185163085Y-130772793D02*
X185096419Y-130610889D01*
X185096419Y-130610889D02*
X184963085Y-130529936D01*
X184963085Y-130529936D02*
X184763085Y-130529936D01*
X184763085Y-130529936D02*
X184629752Y-130448984D01*
X184629752Y-130448984D02*
X184563085Y-130287079D01*
X184563085Y-130287079D02*
X184563085Y-130206127D01*
X184563085Y-130206127D02*
X184629752Y-130044222D01*
X184629752Y-130044222D02*
X184763085Y-129963270D01*
X184763085Y-129963270D02*
X184963085Y-129963270D01*
X184963085Y-129963270D02*
X185096419Y-130044222D01*
X185763085Y-131096603D02*
X185763085Y-129396603D01*
X185896418Y-130448984D02*
X186296418Y-131096603D01*
X186296418Y-129963270D02*
X185763085Y-130610889D01*
X187963085Y-131096603D02*
X187963085Y-129396603D01*
X187963085Y-129396603D02*
X188296418Y-129396603D01*
X188296418Y-129396603D02*
X188496418Y-129477555D01*
X188496418Y-129477555D02*
X188629752Y-129639460D01*
X188629752Y-129639460D02*
X188696418Y-129801365D01*
X188696418Y-129801365D02*
X188763085Y-130125174D01*
X188763085Y-130125174D02*
X188763085Y-130368031D01*
X188763085Y-130368031D02*
X188696418Y-130691841D01*
X188696418Y-130691841D02*
X188629752Y-130853746D01*
X188629752Y-130853746D02*
X188496418Y-131015651D01*
X188496418Y-131015651D02*
X188296418Y-131096603D01*
X188296418Y-131096603D02*
X187963085Y-131096603D01*
X189363085Y-131096603D02*
X189363085Y-129963270D01*
X189363085Y-130287079D02*
X189429752Y-130125174D01*
X189429752Y-130125174D02*
X189496418Y-130044222D01*
X189496418Y-130044222D02*
X189629752Y-129963270D01*
X189629752Y-129963270D02*
X189763085Y-129963270D01*
X190229752Y-131096603D02*
X190229752Y-129963270D01*
X190229752Y-129396603D02*
X190163085Y-129477555D01*
X190163085Y-129477555D02*
X190229752Y-129558508D01*
X190229752Y-129558508D02*
X190296419Y-129477555D01*
X190296419Y-129477555D02*
X190229752Y-129396603D01*
X190229752Y-129396603D02*
X190229752Y-129558508D01*
X190763086Y-129963270D02*
X191096419Y-131096603D01*
X191096419Y-131096603D02*
X191429752Y-129963270D01*
X192496419Y-131015651D02*
X192363086Y-131096603D01*
X192363086Y-131096603D02*
X192096419Y-131096603D01*
X192096419Y-131096603D02*
X191963086Y-131015651D01*
X191963086Y-131015651D02*
X191896419Y-130853746D01*
X191896419Y-130853746D02*
X191896419Y-130206127D01*
X191896419Y-130206127D02*
X191963086Y-130044222D01*
X191963086Y-130044222D02*
X192096419Y-129963270D01*
X192096419Y-129963270D02*
X192363086Y-129963270D01*
X192363086Y-129963270D02*
X192496419Y-130044222D01*
X192496419Y-130044222D02*
X192563086Y-130206127D01*
X192563086Y-130206127D02*
X192563086Y-130368031D01*
X192563086Y-130368031D02*
X191896419Y-130529936D01*
X195029753Y-130934698D02*
X194963086Y-131015651D01*
X194963086Y-131015651D02*
X194763086Y-131096603D01*
X194763086Y-131096603D02*
X194629753Y-131096603D01*
X194629753Y-131096603D02*
X194429753Y-131015651D01*
X194429753Y-131015651D02*
X194296420Y-130853746D01*
X194296420Y-130853746D02*
X194229753Y-130691841D01*
X194229753Y-130691841D02*
X194163086Y-130368031D01*
X194163086Y-130368031D02*
X194163086Y-130125174D01*
X194163086Y-130125174D02*
X194229753Y-129801365D01*
X194229753Y-129801365D02*
X194296420Y-129639460D01*
X194296420Y-129639460D02*
X194429753Y-129477555D01*
X194429753Y-129477555D02*
X194629753Y-129396603D01*
X194629753Y-129396603D02*
X194763086Y-129396603D01*
X194763086Y-129396603D02*
X194963086Y-129477555D01*
X194963086Y-129477555D02*
X195029753Y-129558508D01*
X195829753Y-131096603D02*
X195696420Y-131015651D01*
X195696420Y-131015651D02*
X195629753Y-130934698D01*
X195629753Y-130934698D02*
X195563086Y-130772793D01*
X195563086Y-130772793D02*
X195563086Y-130287079D01*
X195563086Y-130287079D02*
X195629753Y-130125174D01*
X195629753Y-130125174D02*
X195696420Y-130044222D01*
X195696420Y-130044222D02*
X195829753Y-129963270D01*
X195829753Y-129963270D02*
X196029753Y-129963270D01*
X196029753Y-129963270D02*
X196163086Y-130044222D01*
X196163086Y-130044222D02*
X196229753Y-130125174D01*
X196229753Y-130125174D02*
X196296420Y-130287079D01*
X196296420Y-130287079D02*
X196296420Y-130772793D01*
X196296420Y-130772793D02*
X196229753Y-130934698D01*
X196229753Y-130934698D02*
X196163086Y-131015651D01*
X196163086Y-131015651D02*
X196029753Y-131096603D01*
X196029753Y-131096603D02*
X195829753Y-131096603D01*
X196896420Y-129963270D02*
X196896420Y-131096603D01*
X196896420Y-130125174D02*
X196963087Y-130044222D01*
X196963087Y-130044222D02*
X197096420Y-129963270D01*
X197096420Y-129963270D02*
X197296420Y-129963270D01*
X197296420Y-129963270D02*
X197429753Y-130044222D01*
X197429753Y-130044222D02*
X197496420Y-130206127D01*
X197496420Y-130206127D02*
X197496420Y-131096603D01*
X197963087Y-129963270D02*
X198496420Y-129963270D01*
X198163087Y-129396603D02*
X198163087Y-130853746D01*
X198163087Y-130853746D02*
X198229754Y-131015651D01*
X198229754Y-131015651D02*
X198363087Y-131096603D01*
X198363087Y-131096603D02*
X198496420Y-131096603D01*
X198963087Y-131096603D02*
X198963087Y-129963270D01*
X198963087Y-130287079D02*
X199029754Y-130125174D01*
X199029754Y-130125174D02*
X199096420Y-130044222D01*
X199096420Y-130044222D02*
X199229754Y-129963270D01*
X199229754Y-129963270D02*
X199363087Y-129963270D01*
X200029754Y-131096603D02*
X199896421Y-131015651D01*
X199896421Y-131015651D02*
X199829754Y-130934698D01*
X199829754Y-130934698D02*
X199763087Y-130772793D01*
X199763087Y-130772793D02*
X199763087Y-130287079D01*
X199763087Y-130287079D02*
X199829754Y-130125174D01*
X199829754Y-130125174D02*
X199896421Y-130044222D01*
X199896421Y-130044222D02*
X200029754Y-129963270D01*
X200029754Y-129963270D02*
X200229754Y-129963270D01*
X200229754Y-129963270D02*
X200363087Y-130044222D01*
X200363087Y-130044222D02*
X200429754Y-130125174D01*
X200429754Y-130125174D02*
X200496421Y-130287079D01*
X200496421Y-130287079D02*
X200496421Y-130772793D01*
X200496421Y-130772793D02*
X200429754Y-130934698D01*
X200429754Y-130934698D02*
X200363087Y-131015651D01*
X200363087Y-131015651D02*
X200229754Y-131096603D01*
X200229754Y-131096603D02*
X200029754Y-131096603D01*
X201296421Y-131096603D02*
X201163088Y-131015651D01*
X201163088Y-131015651D02*
X201096421Y-130853746D01*
X201096421Y-130853746D02*
X201096421Y-129396603D01*
X202029754Y-131096603D02*
X201896421Y-131015651D01*
X201896421Y-131015651D02*
X201829754Y-130853746D01*
X201829754Y-130853746D02*
X201829754Y-129396603D01*
X203096420Y-131015651D02*
X202963087Y-131096603D01*
X202963087Y-131096603D02*
X202696420Y-131096603D01*
X202696420Y-131096603D02*
X202563087Y-131015651D01*
X202563087Y-131015651D02*
X202496420Y-130853746D01*
X202496420Y-130853746D02*
X202496420Y-130206127D01*
X202496420Y-130206127D02*
X202563087Y-130044222D01*
X202563087Y-130044222D02*
X202696420Y-129963270D01*
X202696420Y-129963270D02*
X202963087Y-129963270D01*
X202963087Y-129963270D02*
X203096420Y-130044222D01*
X203096420Y-130044222D02*
X203163087Y-130206127D01*
X203163087Y-130206127D02*
X203163087Y-130368031D01*
X203163087Y-130368031D02*
X202496420Y-130529936D01*
X203763087Y-131096603D02*
X203763087Y-129963270D01*
X203763087Y-130287079D02*
X203829754Y-130125174D01*
X203829754Y-130125174D02*
X203896420Y-130044222D01*
X203896420Y-130044222D02*
X204029754Y-129963270D01*
X204029754Y-129963270D02*
X204163087Y-129963270D01*
X205496421Y-129963270D02*
X206029754Y-129963270D01*
X205696421Y-131096603D02*
X205696421Y-129639460D01*
X205696421Y-129639460D02*
X205763088Y-129477555D01*
X205763088Y-129477555D02*
X205896421Y-129396603D01*
X205896421Y-129396603D02*
X206029754Y-129396603D01*
X206696421Y-131096603D02*
X206563088Y-131015651D01*
X206563088Y-131015651D02*
X206496421Y-130934698D01*
X206496421Y-130934698D02*
X206429754Y-130772793D01*
X206429754Y-130772793D02*
X206429754Y-130287079D01*
X206429754Y-130287079D02*
X206496421Y-130125174D01*
X206496421Y-130125174D02*
X206563088Y-130044222D01*
X206563088Y-130044222D02*
X206696421Y-129963270D01*
X206696421Y-129963270D02*
X206896421Y-129963270D01*
X206896421Y-129963270D02*
X207029754Y-130044222D01*
X207029754Y-130044222D02*
X207096421Y-130125174D01*
X207096421Y-130125174D02*
X207163088Y-130287079D01*
X207163088Y-130287079D02*
X207163088Y-130772793D01*
X207163088Y-130772793D02*
X207096421Y-130934698D01*
X207096421Y-130934698D02*
X207029754Y-131015651D01*
X207029754Y-131015651D02*
X206896421Y-131096603D01*
X206896421Y-131096603D02*
X206696421Y-131096603D01*
X207763088Y-131096603D02*
X207763088Y-129963270D01*
X207763088Y-130287079D02*
X207829755Y-130125174D01*
X207829755Y-130125174D02*
X207896421Y-130044222D01*
X207896421Y-130044222D02*
X208029755Y-129963270D01*
X208029755Y-129963270D02*
X208163088Y-129963270D01*
X209696422Y-131096603D02*
X209696422Y-129396603D01*
X209696422Y-129396603D02*
X210163089Y-130610889D01*
X210163089Y-130610889D02*
X210629755Y-129396603D01*
X210629755Y-129396603D02*
X210629755Y-131096603D01*
X211229755Y-131015651D02*
X211429755Y-131096603D01*
X211429755Y-131096603D02*
X211763089Y-131096603D01*
X211763089Y-131096603D02*
X211896422Y-131015651D01*
X211896422Y-131015651D02*
X211963089Y-130934698D01*
X211963089Y-130934698D02*
X212029755Y-130772793D01*
X212029755Y-130772793D02*
X212029755Y-130610889D01*
X212029755Y-130610889D02*
X211963089Y-130448984D01*
X211963089Y-130448984D02*
X211896422Y-130368031D01*
X211896422Y-130368031D02*
X211763089Y-130287079D01*
X211763089Y-130287079D02*
X211496422Y-130206127D01*
X211496422Y-130206127D02*
X211363089Y-130125174D01*
X211363089Y-130125174D02*
X211296422Y-130044222D01*
X211296422Y-130044222D02*
X211229755Y-129882317D01*
X211229755Y-129882317D02*
X211229755Y-129720412D01*
X211229755Y-129720412D02*
X211296422Y-129558508D01*
X211296422Y-129558508D02*
X211363089Y-129477555D01*
X211363089Y-129477555D02*
X211496422Y-129396603D01*
X211496422Y-129396603D02*
X211829755Y-129396603D01*
X211829755Y-129396603D02*
X212029755Y-129477555D01*
X212496422Y-129396603D02*
X213429755Y-131096603D01*
X213429755Y-129396603D02*
X212496422Y-131096603D01*
X214963088Y-131015651D02*
X215163088Y-131096603D01*
X215163088Y-131096603D02*
X215496422Y-131096603D01*
X215496422Y-131096603D02*
X215629755Y-131015651D01*
X215629755Y-131015651D02*
X215696422Y-130934698D01*
X215696422Y-130934698D02*
X215763088Y-130772793D01*
X215763088Y-130772793D02*
X215763088Y-130610889D01*
X215763088Y-130610889D02*
X215696422Y-130448984D01*
X215696422Y-130448984D02*
X215629755Y-130368031D01*
X215629755Y-130368031D02*
X215496422Y-130287079D01*
X215496422Y-130287079D02*
X215229755Y-130206127D01*
X215229755Y-130206127D02*
X215096422Y-130125174D01*
X215096422Y-130125174D02*
X215029755Y-130044222D01*
X215029755Y-130044222D02*
X214963088Y-129882317D01*
X214963088Y-129882317D02*
X214963088Y-129720412D01*
X214963088Y-129720412D02*
X215029755Y-129558508D01*
X215029755Y-129558508D02*
X215096422Y-129477555D01*
X215096422Y-129477555D02*
X215229755Y-129396603D01*
X215229755Y-129396603D02*
X215563088Y-129396603D01*
X215563088Y-129396603D02*
X215763088Y-129477555D01*
X216229755Y-129963270D02*
X216563088Y-131096603D01*
X216896421Y-129963270D02*
X216563088Y-131096603D01*
X216563088Y-131096603D02*
X216429755Y-131501365D01*
X216429755Y-131501365D02*
X216363088Y-131582317D01*
X216363088Y-131582317D02*
X216229755Y-131663270D01*
X217363088Y-131015651D02*
X217496422Y-131096603D01*
X217496422Y-131096603D02*
X217763088Y-131096603D01*
X217763088Y-131096603D02*
X217896422Y-131015651D01*
X217896422Y-131015651D02*
X217963088Y-130853746D01*
X217963088Y-130853746D02*
X217963088Y-130772793D01*
X217963088Y-130772793D02*
X217896422Y-130610889D01*
X217896422Y-130610889D02*
X217763088Y-130529936D01*
X217763088Y-130529936D02*
X217563088Y-130529936D01*
X217563088Y-130529936D02*
X217429755Y-130448984D01*
X217429755Y-130448984D02*
X217363088Y-130287079D01*
X217363088Y-130287079D02*
X217363088Y-130206127D01*
X217363088Y-130206127D02*
X217429755Y-130044222D01*
X217429755Y-130044222D02*
X217563088Y-129963270D01*
X217563088Y-129963270D02*
X217763088Y-129963270D01*
X217763088Y-129963270D02*
X217896422Y-130044222D01*
X218363088Y-129963270D02*
X218896421Y-129963270D01*
X218563088Y-129396603D02*
X218563088Y-130853746D01*
X218563088Y-130853746D02*
X218629755Y-131015651D01*
X218629755Y-131015651D02*
X218763088Y-131096603D01*
X218763088Y-131096603D02*
X218896421Y-131096603D01*
X219896421Y-131015651D02*
X219763088Y-131096603D01*
X219763088Y-131096603D02*
X219496421Y-131096603D01*
X219496421Y-131096603D02*
X219363088Y-131015651D01*
X219363088Y-131015651D02*
X219296421Y-130853746D01*
X219296421Y-130853746D02*
X219296421Y-130206127D01*
X219296421Y-130206127D02*
X219363088Y-130044222D01*
X219363088Y-130044222D02*
X219496421Y-129963270D01*
X219496421Y-129963270D02*
X219763088Y-129963270D01*
X219763088Y-129963270D02*
X219896421Y-130044222D01*
X219896421Y-130044222D02*
X219963088Y-130206127D01*
X219963088Y-130206127D02*
X219963088Y-130368031D01*
X219963088Y-130368031D02*
X219296421Y-130529936D01*
X220563088Y-131096603D02*
X220563088Y-129963270D01*
X220563088Y-130125174D02*
X220629755Y-130044222D01*
X220629755Y-130044222D02*
X220763088Y-129963270D01*
X220763088Y-129963270D02*
X220963088Y-129963270D01*
X220963088Y-129963270D02*
X221096421Y-130044222D01*
X221096421Y-130044222D02*
X221163088Y-130206127D01*
X221163088Y-130206127D02*
X221163088Y-131096603D01*
X221163088Y-130206127D02*
X221229755Y-130044222D01*
X221229755Y-130044222D02*
X221363088Y-129963270D01*
X221363088Y-129963270D02*
X221563088Y-129963270D01*
X221563088Y-129963270D02*
X221696421Y-130044222D01*
X221696421Y-130044222D02*
X221763088Y-130206127D01*
X221763088Y-130206127D02*
X221763088Y-131096603D01*
X222363088Y-131015651D02*
X222496422Y-131096603D01*
X222496422Y-131096603D02*
X222763088Y-131096603D01*
X222763088Y-131096603D02*
X222896422Y-131015651D01*
X222896422Y-131015651D02*
X222963088Y-130853746D01*
X222963088Y-130853746D02*
X222963088Y-130772793D01*
X222963088Y-130772793D02*
X222896422Y-130610889D01*
X222896422Y-130610889D02*
X222763088Y-130529936D01*
X222763088Y-130529936D02*
X222563088Y-130529936D01*
X222563088Y-130529936D02*
X222429755Y-130448984D01*
X222429755Y-130448984D02*
X222363088Y-130287079D01*
X222363088Y-130287079D02*
X222363088Y-130206127D01*
X222363088Y-130206127D02*
X222429755Y-130044222D01*
X222429755Y-130044222D02*
X222563088Y-129963270D01*
X222563088Y-129963270D02*
X222763088Y-129963270D01*
X222763088Y-129963270D02*
X222896422Y-130044222D01*
X176829751Y-133833603D02*
X176829751Y-132133603D01*
X176829751Y-132943127D02*
X177629751Y-132943127D01*
X177629751Y-133833603D02*
X177629751Y-132133603D01*
X178763085Y-132943127D02*
X178963085Y-133024079D01*
X178963085Y-133024079D02*
X179029751Y-133105031D01*
X179029751Y-133105031D02*
X179096418Y-133266936D01*
X179096418Y-133266936D02*
X179096418Y-133509793D01*
X179096418Y-133509793D02*
X179029751Y-133671698D01*
X179029751Y-133671698D02*
X178963085Y-133752651D01*
X178963085Y-133752651D02*
X178829751Y-133833603D01*
X178829751Y-133833603D02*
X178296418Y-133833603D01*
X178296418Y-133833603D02*
X178296418Y-132133603D01*
X178296418Y-132133603D02*
X178763085Y-132133603D01*
X178763085Y-132133603D02*
X178896418Y-132214555D01*
X178896418Y-132214555D02*
X178963085Y-132295508D01*
X178963085Y-132295508D02*
X179029751Y-132457412D01*
X179029751Y-132457412D02*
X179029751Y-132619317D01*
X179029751Y-132619317D02*
X178963085Y-132781222D01*
X178963085Y-132781222D02*
X178896418Y-132862174D01*
X178896418Y-132862174D02*
X178763085Y-132943127D01*
X178763085Y-132943127D02*
X178296418Y-132943127D01*
X179696418Y-133185984D02*
X180763085Y-133185984D01*
X181296418Y-132133603D02*
X182163084Y-132133603D01*
X182163084Y-132133603D02*
X181696418Y-132781222D01*
X181696418Y-132781222D02*
X181896418Y-132781222D01*
X181896418Y-132781222D02*
X182029751Y-132862174D01*
X182029751Y-132862174D02*
X182096418Y-132943127D01*
X182096418Y-132943127D02*
X182163084Y-133105031D01*
X182163084Y-133105031D02*
X182163084Y-133509793D01*
X182163084Y-133509793D02*
X182096418Y-133671698D01*
X182096418Y-133671698D02*
X182029751Y-133752651D01*
X182029751Y-133752651D02*
X181896418Y-133833603D01*
X181896418Y-133833603D02*
X181496418Y-133833603D01*
X181496418Y-133833603D02*
X181363084Y-133752651D01*
X181363084Y-133752651D02*
X181296418Y-133671698D01*
X183363084Y-132133603D02*
X183096417Y-132133603D01*
X183096417Y-132133603D02*
X182963084Y-132214555D01*
X182963084Y-132214555D02*
X182896417Y-132295508D01*
X182896417Y-132295508D02*
X182763084Y-132538365D01*
X182763084Y-132538365D02*
X182696417Y-132862174D01*
X182696417Y-132862174D02*
X182696417Y-133509793D01*
X182696417Y-133509793D02*
X182763084Y-133671698D01*
X182763084Y-133671698D02*
X182829751Y-133752651D01*
X182829751Y-133752651D02*
X182963084Y-133833603D01*
X182963084Y-133833603D02*
X183229751Y-133833603D01*
X183229751Y-133833603D02*
X183363084Y-133752651D01*
X183363084Y-133752651D02*
X183429751Y-133671698D01*
X183429751Y-133671698D02*
X183496417Y-133509793D01*
X183496417Y-133509793D02*
X183496417Y-133105031D01*
X183496417Y-133105031D02*
X183429751Y-132943127D01*
X183429751Y-132943127D02*
X183363084Y-132862174D01*
X183363084Y-132862174D02*
X183229751Y-132781222D01*
X183229751Y-132781222D02*
X182963084Y-132781222D01*
X182963084Y-132781222D02*
X182829751Y-132862174D01*
X182829751Y-132862174D02*
X182763084Y-132943127D01*
X182763084Y-132943127D02*
X182696417Y-133105031D01*
X184363084Y-132133603D02*
X184496417Y-132133603D01*
X184496417Y-132133603D02*
X184629750Y-132214555D01*
X184629750Y-132214555D02*
X184696417Y-132295508D01*
X184696417Y-132295508D02*
X184763084Y-132457412D01*
X184763084Y-132457412D02*
X184829750Y-132781222D01*
X184829750Y-132781222D02*
X184829750Y-133185984D01*
X184829750Y-133185984D02*
X184763084Y-133509793D01*
X184763084Y-133509793D02*
X184696417Y-133671698D01*
X184696417Y-133671698D02*
X184629750Y-133752651D01*
X184629750Y-133752651D02*
X184496417Y-133833603D01*
X184496417Y-133833603D02*
X184363084Y-133833603D01*
X184363084Y-133833603D02*
X184229750Y-133752651D01*
X184229750Y-133752651D02*
X184163084Y-133671698D01*
X184163084Y-133671698D02*
X184096417Y-133509793D01*
X184096417Y-133509793D02*
X184029750Y-133185984D01*
X184029750Y-133185984D02*
X184029750Y-132781222D01*
X184029750Y-132781222D02*
X184096417Y-132457412D01*
X184096417Y-132457412D02*
X184163084Y-132295508D01*
X184163084Y-132295508D02*
X184229750Y-132214555D01*
X184229750Y-132214555D02*
X184363084Y-132133603D01*
X185696417Y-132133603D02*
X185829750Y-132133603D01*
X185829750Y-132133603D02*
X185963083Y-132214555D01*
X185963083Y-132214555D02*
X186029750Y-132295508D01*
X186029750Y-132295508D02*
X186096417Y-132457412D01*
X186096417Y-132457412D02*
X186163083Y-132781222D01*
X186163083Y-132781222D02*
X186163083Y-133185984D01*
X186163083Y-133185984D02*
X186096417Y-133509793D01*
X186096417Y-133509793D02*
X186029750Y-133671698D01*
X186029750Y-133671698D02*
X185963083Y-133752651D01*
X185963083Y-133752651D02*
X185829750Y-133833603D01*
X185829750Y-133833603D02*
X185696417Y-133833603D01*
X185696417Y-133833603D02*
X185563083Y-133752651D01*
X185563083Y-133752651D02*
X185496417Y-133671698D01*
X185496417Y-133671698D02*
X185429750Y-133509793D01*
X185429750Y-133509793D02*
X185363083Y-133185984D01*
X185363083Y-133185984D02*
X185363083Y-132781222D01*
X185363083Y-132781222D02*
X185429750Y-132457412D01*
X185429750Y-132457412D02*
X185496417Y-132295508D01*
X185496417Y-132295508D02*
X185563083Y-132214555D01*
X185563083Y-132214555D02*
X185696417Y-132133603D01*
X188963083Y-133833603D02*
X188896417Y-133833603D01*
X188896417Y-133833603D02*
X188763083Y-133752651D01*
X188763083Y-133752651D02*
X188563083Y-133509793D01*
X188563083Y-133509793D02*
X188229750Y-133024079D01*
X188229750Y-133024079D02*
X188096417Y-132781222D01*
X188096417Y-132781222D02*
X188029750Y-132538365D01*
X188029750Y-132538365D02*
X188029750Y-132376460D01*
X188029750Y-132376460D02*
X188096417Y-132214555D01*
X188096417Y-132214555D02*
X188229750Y-132133603D01*
X188229750Y-132133603D02*
X188296417Y-132133603D01*
X188296417Y-132133603D02*
X188429750Y-132214555D01*
X188429750Y-132214555D02*
X188496417Y-132376460D01*
X188496417Y-132376460D02*
X188496417Y-132457412D01*
X188496417Y-132457412D02*
X188429750Y-132619317D01*
X188429750Y-132619317D02*
X188363083Y-132700270D01*
X188363083Y-132700270D02*
X187963083Y-133024079D01*
X187963083Y-133024079D02*
X187896417Y-133105031D01*
X187896417Y-133105031D02*
X187829750Y-133266936D01*
X187829750Y-133266936D02*
X187829750Y-133509793D01*
X187829750Y-133509793D02*
X187896417Y-133671698D01*
X187896417Y-133671698D02*
X187963083Y-133752651D01*
X187963083Y-133752651D02*
X188096417Y-133833603D01*
X188096417Y-133833603D02*
X188296417Y-133833603D01*
X188296417Y-133833603D02*
X188429750Y-133752651D01*
X188429750Y-133752651D02*
X188496417Y-133671698D01*
X188496417Y-133671698D02*
X188696417Y-133347889D01*
X188696417Y-133347889D02*
X188763083Y-133105031D01*
X188763083Y-133105031D02*
X188763083Y-132943127D01*
X190629750Y-133833603D02*
X190629750Y-132133603D01*
X190629750Y-132943127D02*
X191429750Y-132943127D01*
X191429750Y-133833603D02*
X191429750Y-132133603D01*
X192563084Y-132943127D02*
X192763084Y-133024079D01*
X192763084Y-133024079D02*
X192829750Y-133105031D01*
X192829750Y-133105031D02*
X192896417Y-133266936D01*
X192896417Y-133266936D02*
X192896417Y-133509793D01*
X192896417Y-133509793D02*
X192829750Y-133671698D01*
X192829750Y-133671698D02*
X192763084Y-133752651D01*
X192763084Y-133752651D02*
X192629750Y-133833603D01*
X192629750Y-133833603D02*
X192096417Y-133833603D01*
X192096417Y-133833603D02*
X192096417Y-132133603D01*
X192096417Y-132133603D02*
X192563084Y-132133603D01*
X192563084Y-132133603D02*
X192696417Y-132214555D01*
X192696417Y-132214555D02*
X192763084Y-132295508D01*
X192763084Y-132295508D02*
X192829750Y-132457412D01*
X192829750Y-132457412D02*
X192829750Y-132619317D01*
X192829750Y-132619317D02*
X192763084Y-132781222D01*
X192763084Y-132781222D02*
X192696417Y-132862174D01*
X192696417Y-132862174D02*
X192563084Y-132943127D01*
X192563084Y-132943127D02*
X192096417Y-132943127D01*
X193496417Y-133833603D02*
X193496417Y-132133603D01*
X193496417Y-132133603D02*
X193829750Y-132133603D01*
X193829750Y-132133603D02*
X194029750Y-132214555D01*
X194029750Y-132214555D02*
X194163084Y-132376460D01*
X194163084Y-132376460D02*
X194229750Y-132538365D01*
X194229750Y-132538365D02*
X194296417Y-132862174D01*
X194296417Y-132862174D02*
X194296417Y-133105031D01*
X194296417Y-133105031D02*
X194229750Y-133428841D01*
X194229750Y-133428841D02*
X194163084Y-133590746D01*
X194163084Y-133590746D02*
X194029750Y-133752651D01*
X194029750Y-133752651D02*
X193829750Y-133833603D01*
X193829750Y-133833603D02*
X193496417Y-133833603D01*
X194896417Y-133185984D02*
X195963084Y-133185984D01*
X197296417Y-132133603D02*
X196629750Y-132133603D01*
X196629750Y-132133603D02*
X196563083Y-132943127D01*
X196563083Y-132943127D02*
X196629750Y-132862174D01*
X196629750Y-132862174D02*
X196763083Y-132781222D01*
X196763083Y-132781222D02*
X197096417Y-132781222D01*
X197096417Y-132781222D02*
X197229750Y-132862174D01*
X197229750Y-132862174D02*
X197296417Y-132943127D01*
X197296417Y-132943127D02*
X197363083Y-133105031D01*
X197363083Y-133105031D02*
X197363083Y-133509793D01*
X197363083Y-133509793D02*
X197296417Y-133671698D01*
X197296417Y-133671698D02*
X197229750Y-133752651D01*
X197229750Y-133752651D02*
X197096417Y-133833603D01*
X197096417Y-133833603D02*
X196763083Y-133833603D01*
X196763083Y-133833603D02*
X196629750Y-133752651D01*
X196629750Y-133752651D02*
X196563083Y-133671698D01*
X198229750Y-132133603D02*
X198363083Y-132133603D01*
X198363083Y-132133603D02*
X198496416Y-132214555D01*
X198496416Y-132214555D02*
X198563083Y-132295508D01*
X198563083Y-132295508D02*
X198629750Y-132457412D01*
X198629750Y-132457412D02*
X198696416Y-132781222D01*
X198696416Y-132781222D02*
X198696416Y-133185984D01*
X198696416Y-133185984D02*
X198629750Y-133509793D01*
X198629750Y-133509793D02*
X198563083Y-133671698D01*
X198563083Y-133671698D02*
X198496416Y-133752651D01*
X198496416Y-133752651D02*
X198363083Y-133833603D01*
X198363083Y-133833603D02*
X198229750Y-133833603D01*
X198229750Y-133833603D02*
X198096416Y-133752651D01*
X198096416Y-133752651D02*
X198029750Y-133671698D01*
X198029750Y-133671698D02*
X197963083Y-133509793D01*
X197963083Y-133509793D02*
X197896416Y-133185984D01*
X197896416Y-133185984D02*
X197896416Y-132781222D01*
X197896416Y-132781222D02*
X197963083Y-132457412D01*
X197963083Y-132457412D02*
X198029750Y-132295508D01*
X198029750Y-132295508D02*
X198096416Y-132214555D01*
X198096416Y-132214555D02*
X198229750Y-132133603D01*
X200963083Y-133752651D02*
X200829750Y-133833603D01*
X200829750Y-133833603D02*
X200563083Y-133833603D01*
X200563083Y-133833603D02*
X200429750Y-133752651D01*
X200429750Y-133752651D02*
X200363083Y-133671698D01*
X200363083Y-133671698D02*
X200296416Y-133509793D01*
X200296416Y-133509793D02*
X200296416Y-133024079D01*
X200296416Y-133024079D02*
X200363083Y-132862174D01*
X200363083Y-132862174D02*
X200429750Y-132781222D01*
X200429750Y-132781222D02*
X200563083Y-132700270D01*
X200563083Y-132700270D02*
X200829750Y-132700270D01*
X200829750Y-132700270D02*
X200963083Y-132781222D01*
X201763083Y-133833603D02*
X201629750Y-133752651D01*
X201629750Y-133752651D02*
X201563083Y-133671698D01*
X201563083Y-133671698D02*
X201496416Y-133509793D01*
X201496416Y-133509793D02*
X201496416Y-133024079D01*
X201496416Y-133024079D02*
X201563083Y-132862174D01*
X201563083Y-132862174D02*
X201629750Y-132781222D01*
X201629750Y-132781222D02*
X201763083Y-132700270D01*
X201763083Y-132700270D02*
X201963083Y-132700270D01*
X201963083Y-132700270D02*
X202096416Y-132781222D01*
X202096416Y-132781222D02*
X202163083Y-132862174D01*
X202163083Y-132862174D02*
X202229750Y-133024079D01*
X202229750Y-133024079D02*
X202229750Y-133509793D01*
X202229750Y-133509793D02*
X202163083Y-133671698D01*
X202163083Y-133671698D02*
X202096416Y-133752651D01*
X202096416Y-133752651D02*
X201963083Y-133833603D01*
X201963083Y-133833603D02*
X201763083Y-133833603D01*
X202829750Y-133833603D02*
X202829750Y-132700270D01*
X202829750Y-132862174D02*
X202896417Y-132781222D01*
X202896417Y-132781222D02*
X203029750Y-132700270D01*
X203029750Y-132700270D02*
X203229750Y-132700270D01*
X203229750Y-132700270D02*
X203363083Y-132781222D01*
X203363083Y-132781222D02*
X203429750Y-132943127D01*
X203429750Y-132943127D02*
X203429750Y-133833603D01*
X203429750Y-132943127D02*
X203496417Y-132781222D01*
X203496417Y-132781222D02*
X203629750Y-132700270D01*
X203629750Y-132700270D02*
X203829750Y-132700270D01*
X203829750Y-132700270D02*
X203963083Y-132781222D01*
X203963083Y-132781222D02*
X204029750Y-132943127D01*
X204029750Y-132943127D02*
X204029750Y-133833603D01*
X204696417Y-132700270D02*
X204696417Y-134400270D01*
X204696417Y-132781222D02*
X204829750Y-132700270D01*
X204829750Y-132700270D02*
X205096417Y-132700270D01*
X205096417Y-132700270D02*
X205229750Y-132781222D01*
X205229750Y-132781222D02*
X205296417Y-132862174D01*
X205296417Y-132862174D02*
X205363084Y-133024079D01*
X205363084Y-133024079D02*
X205363084Y-133509793D01*
X205363084Y-133509793D02*
X205296417Y-133671698D01*
X205296417Y-133671698D02*
X205229750Y-133752651D01*
X205229750Y-133752651D02*
X205096417Y-133833603D01*
X205096417Y-133833603D02*
X204829750Y-133833603D01*
X204829750Y-133833603D02*
X204696417Y-133752651D01*
X206563084Y-133833603D02*
X206563084Y-132943127D01*
X206563084Y-132943127D02*
X206496417Y-132781222D01*
X206496417Y-132781222D02*
X206363084Y-132700270D01*
X206363084Y-132700270D02*
X206096417Y-132700270D01*
X206096417Y-132700270D02*
X205963084Y-132781222D01*
X206563084Y-133752651D02*
X206429751Y-133833603D01*
X206429751Y-133833603D02*
X206096417Y-133833603D01*
X206096417Y-133833603D02*
X205963084Y-133752651D01*
X205963084Y-133752651D02*
X205896417Y-133590746D01*
X205896417Y-133590746D02*
X205896417Y-133428841D01*
X205896417Y-133428841D02*
X205963084Y-133266936D01*
X205963084Y-133266936D02*
X206096417Y-133185984D01*
X206096417Y-133185984D02*
X206429751Y-133185984D01*
X206429751Y-133185984D02*
X206563084Y-133105031D01*
X207029751Y-132700270D02*
X207563084Y-132700270D01*
X207229751Y-132133603D02*
X207229751Y-133590746D01*
X207229751Y-133590746D02*
X207296418Y-133752651D01*
X207296418Y-133752651D02*
X207429751Y-133833603D01*
X207429751Y-133833603D02*
X207563084Y-133833603D01*
X208029751Y-133833603D02*
X208029751Y-132700270D01*
X208029751Y-132133603D02*
X207963084Y-132214555D01*
X207963084Y-132214555D02*
X208029751Y-132295508D01*
X208029751Y-132295508D02*
X208096418Y-132214555D01*
X208096418Y-132214555D02*
X208029751Y-132133603D01*
X208029751Y-132133603D02*
X208029751Y-132295508D01*
X208696418Y-133833603D02*
X208696418Y-132133603D01*
X208696418Y-132781222D02*
X208829751Y-132700270D01*
X208829751Y-132700270D02*
X209096418Y-132700270D01*
X209096418Y-132700270D02*
X209229751Y-132781222D01*
X209229751Y-132781222D02*
X209296418Y-132862174D01*
X209296418Y-132862174D02*
X209363085Y-133024079D01*
X209363085Y-133024079D02*
X209363085Y-133509793D01*
X209363085Y-133509793D02*
X209296418Y-133671698D01*
X209296418Y-133671698D02*
X209229751Y-133752651D01*
X209229751Y-133752651D02*
X209096418Y-133833603D01*
X209096418Y-133833603D02*
X208829751Y-133833603D01*
X208829751Y-133833603D02*
X208696418Y-133752651D01*
X210163085Y-133833603D02*
X210029752Y-133752651D01*
X210029752Y-133752651D02*
X209963085Y-133590746D01*
X209963085Y-133590746D02*
X209963085Y-132133603D01*
X211229751Y-133752651D02*
X211096418Y-133833603D01*
X211096418Y-133833603D02*
X210829751Y-133833603D01*
X210829751Y-133833603D02*
X210696418Y-133752651D01*
X210696418Y-133752651D02*
X210629751Y-133590746D01*
X210629751Y-133590746D02*
X210629751Y-132943127D01*
X210629751Y-132943127D02*
X210696418Y-132781222D01*
X210696418Y-132781222D02*
X210829751Y-132700270D01*
X210829751Y-132700270D02*
X211096418Y-132700270D01*
X211096418Y-132700270D02*
X211229751Y-132781222D01*
X211229751Y-132781222D02*
X211296418Y-132943127D01*
X211296418Y-132943127D02*
X211296418Y-133105031D01*
X211296418Y-133105031D02*
X210629751Y-133266936D01*
X177296418Y-135680127D02*
X176829751Y-135680127D01*
X176829751Y-136570603D02*
X176829751Y-134870603D01*
X176829751Y-134870603D02*
X177496418Y-134870603D01*
X178029751Y-136570603D02*
X178029751Y-135437270D01*
X178029751Y-134870603D02*
X177963084Y-134951555D01*
X177963084Y-134951555D02*
X178029751Y-135032508D01*
X178029751Y-135032508D02*
X178096418Y-134951555D01*
X178096418Y-134951555D02*
X178029751Y-134870603D01*
X178029751Y-134870603D02*
X178029751Y-135032508D01*
X178696418Y-136570603D02*
X178696418Y-135437270D01*
X178696418Y-135761079D02*
X178763085Y-135599174D01*
X178763085Y-135599174D02*
X178829751Y-135518222D01*
X178829751Y-135518222D02*
X178963085Y-135437270D01*
X178963085Y-135437270D02*
X179096418Y-135437270D01*
X179496418Y-136489651D02*
X179629752Y-136570603D01*
X179629752Y-136570603D02*
X179896418Y-136570603D01*
X179896418Y-136570603D02*
X180029752Y-136489651D01*
X180029752Y-136489651D02*
X180096418Y-136327746D01*
X180096418Y-136327746D02*
X180096418Y-136246793D01*
X180096418Y-136246793D02*
X180029752Y-136084889D01*
X180029752Y-136084889D02*
X179896418Y-136003936D01*
X179896418Y-136003936D02*
X179696418Y-136003936D01*
X179696418Y-136003936D02*
X179563085Y-135922984D01*
X179563085Y-135922984D02*
X179496418Y-135761079D01*
X179496418Y-135761079D02*
X179496418Y-135680127D01*
X179496418Y-135680127D02*
X179563085Y-135518222D01*
X179563085Y-135518222D02*
X179696418Y-135437270D01*
X179696418Y-135437270D02*
X179896418Y-135437270D01*
X179896418Y-135437270D02*
X180029752Y-135518222D01*
X180496418Y-135437270D02*
X181029751Y-135437270D01*
X180696418Y-134870603D02*
X180696418Y-136327746D01*
X180696418Y-136327746D02*
X180763085Y-136489651D01*
X180763085Y-136489651D02*
X180896418Y-136570603D01*
X180896418Y-136570603D02*
X181029751Y-136570603D01*
X182763085Y-136570603D02*
X182629752Y-136489651D01*
X182629752Y-136489651D02*
X182563085Y-136408698D01*
X182563085Y-136408698D02*
X182496418Y-136246793D01*
X182496418Y-136246793D02*
X182496418Y-135761079D01*
X182496418Y-135761079D02*
X182563085Y-135599174D01*
X182563085Y-135599174D02*
X182629752Y-135518222D01*
X182629752Y-135518222D02*
X182763085Y-135437270D01*
X182763085Y-135437270D02*
X182963085Y-135437270D01*
X182963085Y-135437270D02*
X183096418Y-135518222D01*
X183096418Y-135518222D02*
X183163085Y-135599174D01*
X183163085Y-135599174D02*
X183229752Y-135761079D01*
X183229752Y-135761079D02*
X183229752Y-136246793D01*
X183229752Y-136246793D02*
X183163085Y-136408698D01*
X183163085Y-136408698D02*
X183096418Y-136489651D01*
X183096418Y-136489651D02*
X182963085Y-136570603D01*
X182963085Y-136570603D02*
X182763085Y-136570603D01*
X183629752Y-135437270D02*
X184163085Y-135437270D01*
X183829752Y-136570603D02*
X183829752Y-135113460D01*
X183829752Y-135113460D02*
X183896419Y-134951555D01*
X183896419Y-134951555D02*
X184029752Y-134870603D01*
X184029752Y-134870603D02*
X184163085Y-134870603D01*
X185629752Y-135032508D02*
X185696419Y-134951555D01*
X185696419Y-134951555D02*
X185829752Y-134870603D01*
X185829752Y-134870603D02*
X186163086Y-134870603D01*
X186163086Y-134870603D02*
X186296419Y-134951555D01*
X186296419Y-134951555D02*
X186363086Y-135032508D01*
X186363086Y-135032508D02*
X186429752Y-135194412D01*
X186429752Y-135194412D02*
X186429752Y-135356317D01*
X186429752Y-135356317D02*
X186363086Y-135599174D01*
X186363086Y-135599174D02*
X185563086Y-136570603D01*
X185563086Y-136570603D02*
X186429752Y-136570603D01*
X188096419Y-136570603D02*
X188096419Y-134870603D01*
X188096419Y-135518222D02*
X188229752Y-135437270D01*
X188229752Y-135437270D02*
X188496419Y-135437270D01*
X188496419Y-135437270D02*
X188629752Y-135518222D01*
X188629752Y-135518222D02*
X188696419Y-135599174D01*
X188696419Y-135599174D02*
X188763086Y-135761079D01*
X188763086Y-135761079D02*
X188763086Y-136246793D01*
X188763086Y-136246793D02*
X188696419Y-136408698D01*
X188696419Y-136408698D02*
X188629752Y-136489651D01*
X188629752Y-136489651D02*
X188496419Y-136570603D01*
X188496419Y-136570603D02*
X188229752Y-136570603D01*
X188229752Y-136570603D02*
X188096419Y-136489651D01*
X189563086Y-136570603D02*
X189429753Y-136489651D01*
X189429753Y-136489651D02*
X189363086Y-136408698D01*
X189363086Y-136408698D02*
X189296419Y-136246793D01*
X189296419Y-136246793D02*
X189296419Y-135761079D01*
X189296419Y-135761079D02*
X189363086Y-135599174D01*
X189363086Y-135599174D02*
X189429753Y-135518222D01*
X189429753Y-135518222D02*
X189563086Y-135437270D01*
X189563086Y-135437270D02*
X189763086Y-135437270D01*
X189763086Y-135437270D02*
X189896419Y-135518222D01*
X189896419Y-135518222D02*
X189963086Y-135599174D01*
X189963086Y-135599174D02*
X190029753Y-135761079D01*
X190029753Y-135761079D02*
X190029753Y-136246793D01*
X190029753Y-136246793D02*
X189963086Y-136408698D01*
X189963086Y-136408698D02*
X189896419Y-136489651D01*
X189896419Y-136489651D02*
X189763086Y-136570603D01*
X189763086Y-136570603D02*
X189563086Y-136570603D01*
X191229753Y-136570603D02*
X191229753Y-135680127D01*
X191229753Y-135680127D02*
X191163086Y-135518222D01*
X191163086Y-135518222D02*
X191029753Y-135437270D01*
X191029753Y-135437270D02*
X190763086Y-135437270D01*
X190763086Y-135437270D02*
X190629753Y-135518222D01*
X191229753Y-136489651D02*
X191096420Y-136570603D01*
X191096420Y-136570603D02*
X190763086Y-136570603D01*
X190763086Y-136570603D02*
X190629753Y-136489651D01*
X190629753Y-136489651D02*
X190563086Y-136327746D01*
X190563086Y-136327746D02*
X190563086Y-136165841D01*
X190563086Y-136165841D02*
X190629753Y-136003936D01*
X190629753Y-136003936D02*
X190763086Y-135922984D01*
X190763086Y-135922984D02*
X191096420Y-135922984D01*
X191096420Y-135922984D02*
X191229753Y-135842031D01*
X191896420Y-136570603D02*
X191896420Y-135437270D01*
X191896420Y-135761079D02*
X191963087Y-135599174D01*
X191963087Y-135599174D02*
X192029753Y-135518222D01*
X192029753Y-135518222D02*
X192163087Y-135437270D01*
X192163087Y-135437270D02*
X192296420Y-135437270D01*
X193363087Y-136570603D02*
X193363087Y-134870603D01*
X193363087Y-136489651D02*
X193229754Y-136570603D01*
X193229754Y-136570603D02*
X192963087Y-136570603D01*
X192963087Y-136570603D02*
X192829754Y-136489651D01*
X192829754Y-136489651D02*
X192763087Y-136408698D01*
X192763087Y-136408698D02*
X192696420Y-136246793D01*
X192696420Y-136246793D02*
X192696420Y-135761079D01*
X192696420Y-135761079D02*
X192763087Y-135599174D01*
X192763087Y-135599174D02*
X192829754Y-135518222D01*
X192829754Y-135518222D02*
X192963087Y-135437270D01*
X192963087Y-135437270D02*
X193229754Y-135437270D01*
X193229754Y-135437270D02*
X193363087Y-135518222D01*
X193963087Y-136489651D02*
X194096421Y-136570603D01*
X194096421Y-136570603D02*
X194363087Y-136570603D01*
X194363087Y-136570603D02*
X194496421Y-136489651D01*
X194496421Y-136489651D02*
X194563087Y-136327746D01*
X194563087Y-136327746D02*
X194563087Y-136246793D01*
X194563087Y-136246793D02*
X194496421Y-136084889D01*
X194496421Y-136084889D02*
X194363087Y-136003936D01*
X194363087Y-136003936D02*
X194163087Y-136003936D01*
X194163087Y-136003936D02*
X194029754Y-135922984D01*
X194029754Y-135922984D02*
X193963087Y-135761079D01*
X193963087Y-135761079D02*
X193963087Y-135680127D01*
X193963087Y-135680127D02*
X194029754Y-135518222D01*
X194029754Y-135518222D02*
X194163087Y-135437270D01*
X194163087Y-135437270D02*
X194363087Y-135437270D01*
X194363087Y-135437270D02*
X194496421Y-135518222D01*
X196229754Y-135437270D02*
X196229754Y-137137270D01*
X196229754Y-135518222D02*
X196363087Y-135437270D01*
X196363087Y-135437270D02*
X196629754Y-135437270D01*
X196629754Y-135437270D02*
X196763087Y-135518222D01*
X196763087Y-135518222D02*
X196829754Y-135599174D01*
X196829754Y-135599174D02*
X196896421Y-135761079D01*
X196896421Y-135761079D02*
X196896421Y-136246793D01*
X196896421Y-136246793D02*
X196829754Y-136408698D01*
X196829754Y-136408698D02*
X196763087Y-136489651D01*
X196763087Y-136489651D02*
X196629754Y-136570603D01*
X196629754Y-136570603D02*
X196363087Y-136570603D01*
X196363087Y-136570603D02*
X196229754Y-136489651D01*
X197496421Y-136570603D02*
X197496421Y-135437270D01*
X197496421Y-135761079D02*
X197563088Y-135599174D01*
X197563088Y-135599174D02*
X197629754Y-135518222D01*
X197629754Y-135518222D02*
X197763088Y-135437270D01*
X197763088Y-135437270D02*
X197896421Y-135437270D01*
X198563088Y-136570603D02*
X198429755Y-136489651D01*
X198429755Y-136489651D02*
X198363088Y-136408698D01*
X198363088Y-136408698D02*
X198296421Y-136246793D01*
X198296421Y-136246793D02*
X198296421Y-135761079D01*
X198296421Y-135761079D02*
X198363088Y-135599174D01*
X198363088Y-135599174D02*
X198429755Y-135518222D01*
X198429755Y-135518222D02*
X198563088Y-135437270D01*
X198563088Y-135437270D02*
X198763088Y-135437270D01*
X198763088Y-135437270D02*
X198896421Y-135518222D01*
X198896421Y-135518222D02*
X198963088Y-135599174D01*
X198963088Y-135599174D02*
X199029755Y-135761079D01*
X199029755Y-135761079D02*
X199029755Y-136246793D01*
X199029755Y-136246793D02*
X198963088Y-136408698D01*
X198963088Y-136408698D02*
X198896421Y-136489651D01*
X198896421Y-136489651D02*
X198763088Y-136570603D01*
X198763088Y-136570603D02*
X198563088Y-136570603D01*
X200229755Y-136570603D02*
X200229755Y-134870603D01*
X200229755Y-136489651D02*
X200096422Y-136570603D01*
X200096422Y-136570603D02*
X199829755Y-136570603D01*
X199829755Y-136570603D02*
X199696422Y-136489651D01*
X199696422Y-136489651D02*
X199629755Y-136408698D01*
X199629755Y-136408698D02*
X199563088Y-136246793D01*
X199563088Y-136246793D02*
X199563088Y-135761079D01*
X199563088Y-135761079D02*
X199629755Y-135599174D01*
X199629755Y-135599174D02*
X199696422Y-135518222D01*
X199696422Y-135518222D02*
X199829755Y-135437270D01*
X199829755Y-135437270D02*
X200096422Y-135437270D01*
X200096422Y-135437270D02*
X200229755Y-135518222D01*
X201496422Y-135437270D02*
X201496422Y-136570603D01*
X200896422Y-135437270D02*
X200896422Y-136327746D01*
X200896422Y-136327746D02*
X200963089Y-136489651D01*
X200963089Y-136489651D02*
X201096422Y-136570603D01*
X201096422Y-136570603D02*
X201296422Y-136570603D01*
X201296422Y-136570603D02*
X201429755Y-136489651D01*
X201429755Y-136489651D02*
X201496422Y-136408698D01*
X202763089Y-136489651D02*
X202629756Y-136570603D01*
X202629756Y-136570603D02*
X202363089Y-136570603D01*
X202363089Y-136570603D02*
X202229756Y-136489651D01*
X202229756Y-136489651D02*
X202163089Y-136408698D01*
X202163089Y-136408698D02*
X202096422Y-136246793D01*
X202096422Y-136246793D02*
X202096422Y-135761079D01*
X202096422Y-135761079D02*
X202163089Y-135599174D01*
X202163089Y-135599174D02*
X202229756Y-135518222D01*
X202229756Y-135518222D02*
X202363089Y-135437270D01*
X202363089Y-135437270D02*
X202629756Y-135437270D01*
X202629756Y-135437270D02*
X202763089Y-135518222D01*
X203163089Y-135437270D02*
X203696422Y-135437270D01*
X203363089Y-134870603D02*
X203363089Y-136327746D01*
X203363089Y-136327746D02*
X203429756Y-136489651D01*
X203429756Y-136489651D02*
X203563089Y-136570603D01*
X203563089Y-136570603D02*
X203696422Y-136570603D01*
X177629751Y-139145698D02*
X177563084Y-139226651D01*
X177563084Y-139226651D02*
X177363084Y-139307603D01*
X177363084Y-139307603D02*
X177229751Y-139307603D01*
X177229751Y-139307603D02*
X177029751Y-139226651D01*
X177029751Y-139226651D02*
X176896418Y-139064746D01*
X176896418Y-139064746D02*
X176829751Y-138902841D01*
X176829751Y-138902841D02*
X176763084Y-138579031D01*
X176763084Y-138579031D02*
X176763084Y-138336174D01*
X176763084Y-138336174D02*
X176829751Y-138012365D01*
X176829751Y-138012365D02*
X176896418Y-137850460D01*
X176896418Y-137850460D02*
X177029751Y-137688555D01*
X177029751Y-137688555D02*
X177229751Y-137607603D01*
X177229751Y-137607603D02*
X177363084Y-137607603D01*
X177363084Y-137607603D02*
X177563084Y-137688555D01*
X177563084Y-137688555D02*
X177629751Y-137769508D01*
X178429751Y-139307603D02*
X178296418Y-139226651D01*
X178296418Y-139226651D02*
X178229751Y-139145698D01*
X178229751Y-139145698D02*
X178163084Y-138983793D01*
X178163084Y-138983793D02*
X178163084Y-138498079D01*
X178163084Y-138498079D02*
X178229751Y-138336174D01*
X178229751Y-138336174D02*
X178296418Y-138255222D01*
X178296418Y-138255222D02*
X178429751Y-138174270D01*
X178429751Y-138174270D02*
X178629751Y-138174270D01*
X178629751Y-138174270D02*
X178763084Y-138255222D01*
X178763084Y-138255222D02*
X178829751Y-138336174D01*
X178829751Y-138336174D02*
X178896418Y-138498079D01*
X178896418Y-138498079D02*
X178896418Y-138983793D01*
X178896418Y-138983793D02*
X178829751Y-139145698D01*
X178829751Y-139145698D02*
X178763084Y-139226651D01*
X178763084Y-139226651D02*
X178629751Y-139307603D01*
X178629751Y-139307603D02*
X178429751Y-139307603D01*
X179496418Y-138174270D02*
X179496418Y-139874270D01*
X179496418Y-138255222D02*
X179629751Y-138174270D01*
X179629751Y-138174270D02*
X179896418Y-138174270D01*
X179896418Y-138174270D02*
X180029751Y-138255222D01*
X180029751Y-138255222D02*
X180096418Y-138336174D01*
X180096418Y-138336174D02*
X180163085Y-138498079D01*
X180163085Y-138498079D02*
X180163085Y-138983793D01*
X180163085Y-138983793D02*
X180096418Y-139145698D01*
X180096418Y-139145698D02*
X180029751Y-139226651D01*
X180029751Y-139226651D02*
X179896418Y-139307603D01*
X179896418Y-139307603D02*
X179629751Y-139307603D01*
X179629751Y-139307603D02*
X179496418Y-139226651D01*
X180629752Y-138174270D02*
X180963085Y-139307603D01*
X181296418Y-138174270D02*
X180963085Y-139307603D01*
X180963085Y-139307603D02*
X180829752Y-139712365D01*
X180829752Y-139712365D02*
X180763085Y-139793317D01*
X180763085Y-139793317D02*
X180629752Y-139874270D01*
X181829752Y-139307603D02*
X181829752Y-138174270D01*
X181829752Y-138498079D02*
X181896419Y-138336174D01*
X181896419Y-138336174D02*
X181963085Y-138255222D01*
X181963085Y-138255222D02*
X182096419Y-138174270D01*
X182096419Y-138174270D02*
X182229752Y-138174270D01*
X182696419Y-139307603D02*
X182696419Y-138174270D01*
X182696419Y-137607603D02*
X182629752Y-137688555D01*
X182629752Y-137688555D02*
X182696419Y-137769508D01*
X182696419Y-137769508D02*
X182763086Y-137688555D01*
X182763086Y-137688555D02*
X182696419Y-137607603D01*
X182696419Y-137607603D02*
X182696419Y-137769508D01*
X183963086Y-138174270D02*
X183963086Y-139550460D01*
X183963086Y-139550460D02*
X183896419Y-139712365D01*
X183896419Y-139712365D02*
X183829753Y-139793317D01*
X183829753Y-139793317D02*
X183696419Y-139874270D01*
X183696419Y-139874270D02*
X183496419Y-139874270D01*
X183496419Y-139874270D02*
X183363086Y-139793317D01*
X183963086Y-139226651D02*
X183829753Y-139307603D01*
X183829753Y-139307603D02*
X183563086Y-139307603D01*
X183563086Y-139307603D02*
X183429753Y-139226651D01*
X183429753Y-139226651D02*
X183363086Y-139145698D01*
X183363086Y-139145698D02*
X183296419Y-138983793D01*
X183296419Y-138983793D02*
X183296419Y-138498079D01*
X183296419Y-138498079D02*
X183363086Y-138336174D01*
X183363086Y-138336174D02*
X183429753Y-138255222D01*
X183429753Y-138255222D02*
X183563086Y-138174270D01*
X183563086Y-138174270D02*
X183829753Y-138174270D01*
X183829753Y-138174270D02*
X183963086Y-138255222D01*
X184629753Y-139307603D02*
X184629753Y-137607603D01*
X185229753Y-139307603D02*
X185229753Y-138417127D01*
X185229753Y-138417127D02*
X185163086Y-138255222D01*
X185163086Y-138255222D02*
X185029753Y-138174270D01*
X185029753Y-138174270D02*
X184829753Y-138174270D01*
X184829753Y-138174270D02*
X184696420Y-138255222D01*
X184696420Y-138255222D02*
X184629753Y-138336174D01*
X185696420Y-138174270D02*
X186229753Y-138174270D01*
X185896420Y-137607603D02*
X185896420Y-139064746D01*
X185896420Y-139064746D02*
X185963087Y-139226651D01*
X185963087Y-139226651D02*
X186096420Y-139307603D01*
X186096420Y-139307603D02*
X186229753Y-139307603D01*
X188163087Y-139955222D02*
X188096420Y-139874270D01*
X188096420Y-139874270D02*
X187963087Y-139631412D01*
X187963087Y-139631412D02*
X187896420Y-139469508D01*
X187896420Y-139469508D02*
X187829754Y-139226651D01*
X187829754Y-139226651D02*
X187763087Y-138821889D01*
X187763087Y-138821889D02*
X187763087Y-138498079D01*
X187763087Y-138498079D02*
X187829754Y-138093317D01*
X187829754Y-138093317D02*
X187896420Y-137850460D01*
X187896420Y-137850460D02*
X187963087Y-137688555D01*
X187963087Y-137688555D02*
X188096420Y-137445698D01*
X188096420Y-137445698D02*
X188163087Y-137364746D01*
X189296420Y-139226651D02*
X189163087Y-139307603D01*
X189163087Y-139307603D02*
X188896420Y-139307603D01*
X188896420Y-139307603D02*
X188763087Y-139226651D01*
X188763087Y-139226651D02*
X188696420Y-139145698D01*
X188696420Y-139145698D02*
X188629753Y-138983793D01*
X188629753Y-138983793D02*
X188629753Y-138498079D01*
X188629753Y-138498079D02*
X188696420Y-138336174D01*
X188696420Y-138336174D02*
X188763087Y-138255222D01*
X188763087Y-138255222D02*
X188896420Y-138174270D01*
X188896420Y-138174270D02*
X189163087Y-138174270D01*
X189163087Y-138174270D02*
X189296420Y-138255222D01*
X189763087Y-139955222D02*
X189829753Y-139874270D01*
X189829753Y-139874270D02*
X189963087Y-139631412D01*
X189963087Y-139631412D02*
X190029753Y-139469508D01*
X190029753Y-139469508D02*
X190096420Y-139226651D01*
X190096420Y-139226651D02*
X190163087Y-138821889D01*
X190163087Y-138821889D02*
X190163087Y-138498079D01*
X190163087Y-138498079D02*
X190096420Y-138093317D01*
X190096420Y-138093317D02*
X190029753Y-137850460D01*
X190029753Y-137850460D02*
X189963087Y-137688555D01*
X189963087Y-137688555D02*
X189829753Y-137445698D01*
X189829753Y-137445698D02*
X189763087Y-137364746D01*
X191829753Y-137769508D02*
X191896420Y-137688555D01*
X191896420Y-137688555D02*
X192029753Y-137607603D01*
X192029753Y-137607603D02*
X192363087Y-137607603D01*
X192363087Y-137607603D02*
X192496420Y-137688555D01*
X192496420Y-137688555D02*
X192563087Y-137769508D01*
X192563087Y-137769508D02*
X192629753Y-137931412D01*
X192629753Y-137931412D02*
X192629753Y-138093317D01*
X192629753Y-138093317D02*
X192563087Y-138336174D01*
X192563087Y-138336174D02*
X191763087Y-139307603D01*
X191763087Y-139307603D02*
X192629753Y-139307603D01*
X193496420Y-137607603D02*
X193629753Y-137607603D01*
X193629753Y-137607603D02*
X193763086Y-137688555D01*
X193763086Y-137688555D02*
X193829753Y-137769508D01*
X193829753Y-137769508D02*
X193896420Y-137931412D01*
X193896420Y-137931412D02*
X193963086Y-138255222D01*
X193963086Y-138255222D02*
X193963086Y-138659984D01*
X193963086Y-138659984D02*
X193896420Y-138983793D01*
X193896420Y-138983793D02*
X193829753Y-139145698D01*
X193829753Y-139145698D02*
X193763086Y-139226651D01*
X193763086Y-139226651D02*
X193629753Y-139307603D01*
X193629753Y-139307603D02*
X193496420Y-139307603D01*
X193496420Y-139307603D02*
X193363086Y-139226651D01*
X193363086Y-139226651D02*
X193296420Y-139145698D01*
X193296420Y-139145698D02*
X193229753Y-138983793D01*
X193229753Y-138983793D02*
X193163086Y-138659984D01*
X193163086Y-138659984D02*
X193163086Y-138255222D01*
X193163086Y-138255222D02*
X193229753Y-137931412D01*
X193229753Y-137931412D02*
X193296420Y-137769508D01*
X193296420Y-137769508D02*
X193363086Y-137688555D01*
X193363086Y-137688555D02*
X193496420Y-137607603D01*
X194496419Y-137769508D02*
X194563086Y-137688555D01*
X194563086Y-137688555D02*
X194696419Y-137607603D01*
X194696419Y-137607603D02*
X195029753Y-137607603D01*
X195029753Y-137607603D02*
X195163086Y-137688555D01*
X195163086Y-137688555D02*
X195229753Y-137769508D01*
X195229753Y-137769508D02*
X195296419Y-137931412D01*
X195296419Y-137931412D02*
X195296419Y-138093317D01*
X195296419Y-138093317D02*
X195229753Y-138336174D01*
X195229753Y-138336174D02*
X194429753Y-139307603D01*
X194429753Y-139307603D02*
X195296419Y-139307603D01*
X196496419Y-138174270D02*
X196496419Y-139307603D01*
X196163086Y-137526651D02*
X195829752Y-138740936D01*
X195829752Y-138740936D02*
X196696419Y-138740936D01*
X198296419Y-138417127D02*
X198763086Y-138417127D01*
X198963086Y-139307603D02*
X198296419Y-139307603D01*
X198296419Y-139307603D02*
X198296419Y-137607603D01*
X198296419Y-137607603D02*
X198963086Y-137607603D01*
X199429753Y-138174270D02*
X199763086Y-139307603D01*
X199763086Y-139307603D02*
X200096419Y-138174270D01*
X201229753Y-139307603D02*
X201229753Y-138417127D01*
X201229753Y-138417127D02*
X201163086Y-138255222D01*
X201163086Y-138255222D02*
X201029753Y-138174270D01*
X201029753Y-138174270D02*
X200763086Y-138174270D01*
X200763086Y-138174270D02*
X200629753Y-138255222D01*
X201229753Y-139226651D02*
X201096420Y-139307603D01*
X201096420Y-139307603D02*
X200763086Y-139307603D01*
X200763086Y-139307603D02*
X200629753Y-139226651D01*
X200629753Y-139226651D02*
X200563086Y-139064746D01*
X200563086Y-139064746D02*
X200563086Y-138902841D01*
X200563086Y-138902841D02*
X200629753Y-138740936D01*
X200629753Y-138740936D02*
X200763086Y-138659984D01*
X200763086Y-138659984D02*
X201096420Y-138659984D01*
X201096420Y-138659984D02*
X201229753Y-138579031D01*
X201896420Y-138174270D02*
X201896420Y-139307603D01*
X201896420Y-138336174D02*
X201963087Y-138255222D01*
X201963087Y-138255222D02*
X202096420Y-138174270D01*
X202096420Y-138174270D02*
X202296420Y-138174270D01*
X202296420Y-138174270D02*
X202429753Y-138255222D01*
X202429753Y-138255222D02*
X202496420Y-138417127D01*
X202496420Y-138417127D02*
X202496420Y-139307603D01*
X203763087Y-139307603D02*
X203763087Y-137607603D01*
X203763087Y-139226651D02*
X203629754Y-139307603D01*
X203629754Y-139307603D02*
X203363087Y-139307603D01*
X203363087Y-139307603D02*
X203229754Y-139226651D01*
X203229754Y-139226651D02*
X203163087Y-139145698D01*
X203163087Y-139145698D02*
X203096420Y-138983793D01*
X203096420Y-138983793D02*
X203096420Y-138498079D01*
X203096420Y-138498079D02*
X203163087Y-138336174D01*
X203163087Y-138336174D02*
X203229754Y-138255222D01*
X203229754Y-138255222D02*
X203363087Y-138174270D01*
X203363087Y-138174270D02*
X203629754Y-138174270D01*
X203629754Y-138174270D02*
X203763087Y-138255222D01*
X204429754Y-139307603D02*
X204429754Y-138174270D01*
X204429754Y-138498079D02*
X204496421Y-138336174D01*
X204496421Y-138336174D02*
X204563087Y-138255222D01*
X204563087Y-138255222D02*
X204696421Y-138174270D01*
X204696421Y-138174270D02*
X204829754Y-138174270D01*
X205496421Y-139307603D02*
X205363088Y-139226651D01*
X205363088Y-139226651D02*
X205296421Y-139145698D01*
X205296421Y-139145698D02*
X205229754Y-138983793D01*
X205229754Y-138983793D02*
X205229754Y-138498079D01*
X205229754Y-138498079D02*
X205296421Y-138336174D01*
X205296421Y-138336174D02*
X205363088Y-138255222D01*
X205363088Y-138255222D02*
X205496421Y-138174270D01*
X205496421Y-138174270D02*
X205696421Y-138174270D01*
X205696421Y-138174270D02*
X205829754Y-138255222D01*
X205829754Y-138255222D02*
X205896421Y-138336174D01*
X205896421Y-138336174D02*
X205963088Y-138498079D01*
X205963088Y-138498079D02*
X205963088Y-138983793D01*
X205963088Y-138983793D02*
X205896421Y-139145698D01*
X205896421Y-139145698D02*
X205829754Y-139226651D01*
X205829754Y-139226651D02*
X205696421Y-139307603D01*
X205696421Y-139307603D02*
X205496421Y-139307603D01*
X207563088Y-139226651D02*
X207763088Y-139307603D01*
X207763088Y-139307603D02*
X208096422Y-139307603D01*
X208096422Y-139307603D02*
X208229755Y-139226651D01*
X208229755Y-139226651D02*
X208296422Y-139145698D01*
X208296422Y-139145698D02*
X208363088Y-138983793D01*
X208363088Y-138983793D02*
X208363088Y-138821889D01*
X208363088Y-138821889D02*
X208296422Y-138659984D01*
X208296422Y-138659984D02*
X208229755Y-138579031D01*
X208229755Y-138579031D02*
X208096422Y-138498079D01*
X208096422Y-138498079D02*
X207829755Y-138417127D01*
X207829755Y-138417127D02*
X207696422Y-138336174D01*
X207696422Y-138336174D02*
X207629755Y-138255222D01*
X207629755Y-138255222D02*
X207563088Y-138093317D01*
X207563088Y-138093317D02*
X207563088Y-137931412D01*
X207563088Y-137931412D02*
X207629755Y-137769508D01*
X207629755Y-137769508D02*
X207696422Y-137688555D01*
X207696422Y-137688555D02*
X207829755Y-137607603D01*
X207829755Y-137607603D02*
X208163088Y-137607603D01*
X208163088Y-137607603D02*
X208363088Y-137688555D01*
X209163088Y-139307603D02*
X209029755Y-139226651D01*
X209029755Y-139226651D02*
X208963088Y-139145698D01*
X208963088Y-139145698D02*
X208896421Y-138983793D01*
X208896421Y-138983793D02*
X208896421Y-138498079D01*
X208896421Y-138498079D02*
X208963088Y-138336174D01*
X208963088Y-138336174D02*
X209029755Y-138255222D01*
X209029755Y-138255222D02*
X209163088Y-138174270D01*
X209163088Y-138174270D02*
X209363088Y-138174270D01*
X209363088Y-138174270D02*
X209496421Y-138255222D01*
X209496421Y-138255222D02*
X209563088Y-138336174D01*
X209563088Y-138336174D02*
X209629755Y-138498079D01*
X209629755Y-138498079D02*
X209629755Y-138983793D01*
X209629755Y-138983793D02*
X209563088Y-139145698D01*
X209563088Y-139145698D02*
X209496421Y-139226651D01*
X209496421Y-139226651D02*
X209363088Y-139307603D01*
X209363088Y-139307603D02*
X209163088Y-139307603D01*
X210829755Y-138174270D02*
X210829755Y-139307603D01*
X210229755Y-138174270D02*
X210229755Y-139064746D01*
X210229755Y-139064746D02*
X210296422Y-139226651D01*
X210296422Y-139226651D02*
X210429755Y-139307603D01*
X210429755Y-139307603D02*
X210629755Y-139307603D01*
X210629755Y-139307603D02*
X210763088Y-139226651D01*
X210763088Y-139226651D02*
X210829755Y-139145698D01*
X211363089Y-138174270D02*
X212096422Y-138174270D01*
X212096422Y-138174270D02*
X211363089Y-139307603D01*
X211363089Y-139307603D02*
X212096422Y-139307603D01*
X213229755Y-139307603D02*
X213229755Y-138417127D01*
X213229755Y-138417127D02*
X213163088Y-138255222D01*
X213163088Y-138255222D02*
X213029755Y-138174270D01*
X213029755Y-138174270D02*
X212763088Y-138174270D01*
X212763088Y-138174270D02*
X212629755Y-138255222D01*
X213229755Y-139226651D02*
X213096422Y-139307603D01*
X213096422Y-139307603D02*
X212763088Y-139307603D01*
X212763088Y-139307603D02*
X212629755Y-139226651D01*
X212629755Y-139226651D02*
X212563088Y-139064746D01*
X212563088Y-139064746D02*
X212563088Y-138902841D01*
X212563088Y-138902841D02*
X212629755Y-138740936D01*
X212629755Y-138740936D02*
X212763088Y-138659984D01*
X212763088Y-138659984D02*
X213096422Y-138659984D01*
X213096422Y-138659984D02*
X213229755Y-138579031D01*
D11*
X190005760Y-140514657D02*
X190053379Y-140467038D01*
X190053379Y-140467038D02*
X190148617Y-140419419D01*
X190148617Y-140419419D02*
X190386712Y-140419419D01*
X190386712Y-140419419D02*
X190481950Y-140467038D01*
X190481950Y-140467038D02*
X190529569Y-140514657D01*
X190529569Y-140514657D02*
X190577188Y-140609895D01*
X190577188Y-140609895D02*
X190577188Y-140705133D01*
X190577188Y-140705133D02*
X190529569Y-140847990D01*
X190529569Y-140847990D02*
X189958141Y-141419419D01*
X189958141Y-141419419D02*
X190577188Y-141419419D01*
X191196236Y-140419419D02*
X191291474Y-140419419D01*
X191291474Y-140419419D02*
X191386712Y-140467038D01*
X191386712Y-140467038D02*
X191434331Y-140514657D01*
X191434331Y-140514657D02*
X191481950Y-140609895D01*
X191481950Y-140609895D02*
X191529569Y-140800371D01*
X191529569Y-140800371D02*
X191529569Y-141038466D01*
X191529569Y-141038466D02*
X191481950Y-141228942D01*
X191481950Y-141228942D02*
X191434331Y-141324180D01*
X191434331Y-141324180D02*
X191386712Y-141371800D01*
X191386712Y-141371800D02*
X191291474Y-141419419D01*
X191291474Y-141419419D02*
X191196236Y-141419419D01*
X191196236Y-141419419D02*
X191100998Y-141371800D01*
X191100998Y-141371800D02*
X191053379Y-141324180D01*
X191053379Y-141324180D02*
X191005760Y-141228942D01*
X191005760Y-141228942D02*
X190958141Y-141038466D01*
X190958141Y-141038466D02*
X190958141Y-140800371D01*
X190958141Y-140800371D02*
X191005760Y-140609895D01*
X191005760Y-140609895D02*
X191053379Y-140514657D01*
X191053379Y-140514657D02*
X191100998Y-140467038D01*
X191100998Y-140467038D02*
X191196236Y-140419419D01*
X192293133Y-103351980D02*
X192245514Y-103399600D01*
X192245514Y-103399600D02*
X192102657Y-103447219D01*
X192102657Y-103447219D02*
X192007419Y-103447219D01*
X192007419Y-103447219D02*
X191864562Y-103399600D01*
X191864562Y-103399600D02*
X191769324Y-103304361D01*
X191769324Y-103304361D02*
X191721705Y-103209123D01*
X191721705Y-103209123D02*
X191674086Y-103018647D01*
X191674086Y-103018647D02*
X191674086Y-102875790D01*
X191674086Y-102875790D02*
X191721705Y-102685314D01*
X191721705Y-102685314D02*
X191769324Y-102590076D01*
X191769324Y-102590076D02*
X191864562Y-102494838D01*
X191864562Y-102494838D02*
X192007419Y-102447219D01*
X192007419Y-102447219D02*
X192102657Y-102447219D01*
X192102657Y-102447219D02*
X192245514Y-102494838D01*
X192245514Y-102494838D02*
X192293133Y-102542457D01*
X193197895Y-102447219D02*
X192721705Y-102447219D01*
X192721705Y-102447219D02*
X192674086Y-102923409D01*
X192674086Y-102923409D02*
X192721705Y-102875790D01*
X192721705Y-102875790D02*
X192816943Y-102828171D01*
X192816943Y-102828171D02*
X193055038Y-102828171D01*
X193055038Y-102828171D02*
X193150276Y-102875790D01*
X193150276Y-102875790D02*
X193197895Y-102923409D01*
X193197895Y-102923409D02*
X193245514Y-103018647D01*
X193245514Y-103018647D02*
X193245514Y-103256742D01*
X193245514Y-103256742D02*
X193197895Y-103351980D01*
X193197895Y-103351980D02*
X193150276Y-103399600D01*
X193150276Y-103399600D02*
X193055038Y-103447219D01*
X193055038Y-103447219D02*
X192816943Y-103447219D01*
X192816943Y-103447219D02*
X192721705Y-103399600D01*
X192721705Y-103399600D02*
X192674086Y-103351980D01*
X139454783Y-129348869D02*
X139121450Y-128872678D01*
X138883355Y-129348869D02*
X138883355Y-128348869D01*
X138883355Y-128348869D02*
X139264307Y-128348869D01*
X139264307Y-128348869D02*
X139359545Y-128396488D01*
X139359545Y-128396488D02*
X139407164Y-128444107D01*
X139407164Y-128444107D02*
X139454783Y-128539345D01*
X139454783Y-128539345D02*
X139454783Y-128682202D01*
X139454783Y-128682202D02*
X139407164Y-128777440D01*
X139407164Y-128777440D02*
X139359545Y-128825059D01*
X139359545Y-128825059D02*
X139264307Y-128872678D01*
X139264307Y-128872678D02*
X138883355Y-128872678D01*
X140311926Y-128682202D02*
X140311926Y-129348869D01*
X140073831Y-128301250D02*
X139835736Y-129015535D01*
X139835736Y-129015535D02*
X140454783Y-129015535D01*
X142167895Y-121243219D02*
X142167895Y-122052742D01*
X142167895Y-122052742D02*
X142215514Y-122147980D01*
X142215514Y-122147980D02*
X142263133Y-122195600D01*
X142263133Y-122195600D02*
X142358371Y-122243219D01*
X142358371Y-122243219D02*
X142548847Y-122243219D01*
X142548847Y-122243219D02*
X142644085Y-122195600D01*
X142644085Y-122195600D02*
X142691704Y-122147980D01*
X142691704Y-122147980D02*
X142739323Y-122052742D01*
X142739323Y-122052742D02*
X142739323Y-121243219D01*
X143120276Y-121243219D02*
X143786942Y-121243219D01*
X143786942Y-121243219D02*
X143358371Y-122243219D01*
X201953145Y-91798269D02*
X201953145Y-92607792D01*
X201953145Y-92607792D02*
X202000764Y-92703030D01*
X202000764Y-92703030D02*
X202048383Y-92750650D01*
X202048383Y-92750650D02*
X202143621Y-92798269D01*
X202143621Y-92798269D02*
X202334097Y-92798269D01*
X202334097Y-92798269D02*
X202429335Y-92750650D01*
X202429335Y-92750650D02*
X202476954Y-92703030D01*
X202476954Y-92703030D02*
X202524573Y-92607792D01*
X202524573Y-92607792D02*
X202524573Y-91798269D01*
X203476954Y-91798269D02*
X203000764Y-91798269D01*
X203000764Y-91798269D02*
X202953145Y-92274459D01*
X202953145Y-92274459D02*
X203000764Y-92226840D01*
X203000764Y-92226840D02*
X203096002Y-92179221D01*
X203096002Y-92179221D02*
X203334097Y-92179221D01*
X203334097Y-92179221D02*
X203429335Y-92226840D01*
X203429335Y-92226840D02*
X203476954Y-92274459D01*
X203476954Y-92274459D02*
X203524573Y-92369697D01*
X203524573Y-92369697D02*
X203524573Y-92607792D01*
X203524573Y-92607792D02*
X203476954Y-92703030D01*
X203476954Y-92703030D02*
X203429335Y-92750650D01*
X203429335Y-92750650D02*
X203334097Y-92798269D01*
X203334097Y-92798269D02*
X203096002Y-92798269D01*
X203096002Y-92798269D02*
X203000764Y-92750650D01*
X203000764Y-92750650D02*
X202953145Y-92703030D01*
X159349333Y-109492419D02*
X159016000Y-109016228D01*
X158777905Y-109492419D02*
X158777905Y-108492419D01*
X158777905Y-108492419D02*
X159158857Y-108492419D01*
X159158857Y-108492419D02*
X159254095Y-108540038D01*
X159254095Y-108540038D02*
X159301714Y-108587657D01*
X159301714Y-108587657D02*
X159349333Y-108682895D01*
X159349333Y-108682895D02*
X159349333Y-108825752D01*
X159349333Y-108825752D02*
X159301714Y-108920990D01*
X159301714Y-108920990D02*
X159254095Y-108968609D01*
X159254095Y-108968609D02*
X159158857Y-109016228D01*
X159158857Y-109016228D02*
X158777905Y-109016228D01*
X160301714Y-109492419D02*
X159730286Y-109492419D01*
X160016000Y-109492419D02*
X160016000Y-108492419D01*
X160016000Y-108492419D02*
X159920762Y-108635276D01*
X159920762Y-108635276D02*
X159825524Y-108730514D01*
X159825524Y-108730514D02*
X159730286Y-108778133D01*
X167567895Y-96789819D02*
X167567895Y-97599342D01*
X167567895Y-97599342D02*
X167615514Y-97694580D01*
X167615514Y-97694580D02*
X167663133Y-97742200D01*
X167663133Y-97742200D02*
X167758371Y-97789819D01*
X167758371Y-97789819D02*
X167948847Y-97789819D01*
X167948847Y-97789819D02*
X168044085Y-97742200D01*
X168044085Y-97742200D02*
X168091704Y-97694580D01*
X168091704Y-97694580D02*
X168139323Y-97599342D01*
X168139323Y-97599342D02*
X168139323Y-96789819D01*
X168520276Y-96789819D02*
X169139323Y-96789819D01*
X169139323Y-96789819D02*
X168805990Y-97170771D01*
X168805990Y-97170771D02*
X168948847Y-97170771D01*
X168948847Y-97170771D02*
X169044085Y-97218390D01*
X169044085Y-97218390D02*
X169091704Y-97266009D01*
X169091704Y-97266009D02*
X169139323Y-97361247D01*
X169139323Y-97361247D02*
X169139323Y-97599342D01*
X169139323Y-97599342D02*
X169091704Y-97694580D01*
X169091704Y-97694580D02*
X169044085Y-97742200D01*
X169044085Y-97742200D02*
X168948847Y-97789819D01*
X168948847Y-97789819D02*
X168663133Y-97789819D01*
X168663133Y-97789819D02*
X168567895Y-97742200D01*
X168567895Y-97742200D02*
X168520276Y-97694580D01*
X146471533Y-107187380D02*
X146423914Y-107235000D01*
X146423914Y-107235000D02*
X146281057Y-107282619D01*
X146281057Y-107282619D02*
X146185819Y-107282619D01*
X146185819Y-107282619D02*
X146042962Y-107235000D01*
X146042962Y-107235000D02*
X145947724Y-107139761D01*
X145947724Y-107139761D02*
X145900105Y-107044523D01*
X145900105Y-107044523D02*
X145852486Y-106854047D01*
X145852486Y-106854047D02*
X145852486Y-106711190D01*
X145852486Y-106711190D02*
X145900105Y-106520714D01*
X145900105Y-106520714D02*
X145947724Y-106425476D01*
X145947724Y-106425476D02*
X146042962Y-106330238D01*
X146042962Y-106330238D02*
X146185819Y-106282619D01*
X146185819Y-106282619D02*
X146281057Y-106282619D01*
X146281057Y-106282619D02*
X146423914Y-106330238D01*
X146423914Y-106330238D02*
X146471533Y-106377857D01*
X146852486Y-106377857D02*
X146900105Y-106330238D01*
X146900105Y-106330238D02*
X146995343Y-106282619D01*
X146995343Y-106282619D02*
X147233438Y-106282619D01*
X147233438Y-106282619D02*
X147328676Y-106330238D01*
X147328676Y-106330238D02*
X147376295Y-106377857D01*
X147376295Y-106377857D02*
X147423914Y-106473095D01*
X147423914Y-106473095D02*
X147423914Y-106568333D01*
X147423914Y-106568333D02*
X147376295Y-106711190D01*
X147376295Y-106711190D02*
X146804867Y-107282619D01*
X146804867Y-107282619D02*
X147423914Y-107282619D01*
X145811133Y-118337980D02*
X145763514Y-118385600D01*
X145763514Y-118385600D02*
X145620657Y-118433219D01*
X145620657Y-118433219D02*
X145525419Y-118433219D01*
X145525419Y-118433219D02*
X145382562Y-118385600D01*
X145382562Y-118385600D02*
X145287324Y-118290361D01*
X145287324Y-118290361D02*
X145239705Y-118195123D01*
X145239705Y-118195123D02*
X145192086Y-118004647D01*
X145192086Y-118004647D02*
X145192086Y-117861790D01*
X145192086Y-117861790D02*
X145239705Y-117671314D01*
X145239705Y-117671314D02*
X145287324Y-117576076D01*
X145287324Y-117576076D02*
X145382562Y-117480838D01*
X145382562Y-117480838D02*
X145525419Y-117433219D01*
X145525419Y-117433219D02*
X145620657Y-117433219D01*
X145620657Y-117433219D02*
X145763514Y-117480838D01*
X145763514Y-117480838D02*
X145811133Y-117528457D01*
X146144467Y-117433219D02*
X146811133Y-117433219D01*
X146811133Y-117433219D02*
X146382562Y-118433219D01*
X189803933Y-105809419D02*
X189470600Y-105333228D01*
X189232505Y-105809419D02*
X189232505Y-104809419D01*
X189232505Y-104809419D02*
X189613457Y-104809419D01*
X189613457Y-104809419D02*
X189708695Y-104857038D01*
X189708695Y-104857038D02*
X189756314Y-104904657D01*
X189756314Y-104904657D02*
X189803933Y-104999895D01*
X189803933Y-104999895D02*
X189803933Y-105142752D01*
X189803933Y-105142752D02*
X189756314Y-105237990D01*
X189756314Y-105237990D02*
X189708695Y-105285609D01*
X189708695Y-105285609D02*
X189613457Y-105333228D01*
X189613457Y-105333228D02*
X189232505Y-105333228D01*
X190137267Y-104809419D02*
X190756314Y-104809419D01*
X190756314Y-104809419D02*
X190422981Y-105190371D01*
X190422981Y-105190371D02*
X190565838Y-105190371D01*
X190565838Y-105190371D02*
X190661076Y-105237990D01*
X190661076Y-105237990D02*
X190708695Y-105285609D01*
X190708695Y-105285609D02*
X190756314Y-105380847D01*
X190756314Y-105380847D02*
X190756314Y-105618942D01*
X190756314Y-105618942D02*
X190708695Y-105714180D01*
X190708695Y-105714180D02*
X190661076Y-105761800D01*
X190661076Y-105761800D02*
X190565838Y-105809419D01*
X190565838Y-105809419D02*
X190280124Y-105809419D01*
X190280124Y-105809419D02*
X190184886Y-105761800D01*
X190184886Y-105761800D02*
X190137267Y-105714180D01*
X139486533Y-131946019D02*
X139153200Y-131469828D01*
X138915105Y-131946019D02*
X138915105Y-130946019D01*
X138915105Y-130946019D02*
X139296057Y-130946019D01*
X139296057Y-130946019D02*
X139391295Y-130993638D01*
X139391295Y-130993638D02*
X139438914Y-131041257D01*
X139438914Y-131041257D02*
X139486533Y-131136495D01*
X139486533Y-131136495D02*
X139486533Y-131279352D01*
X139486533Y-131279352D02*
X139438914Y-131374590D01*
X139438914Y-131374590D02*
X139391295Y-131422209D01*
X139391295Y-131422209D02*
X139296057Y-131469828D01*
X139296057Y-131469828D02*
X138915105Y-131469828D01*
X140391295Y-130946019D02*
X139915105Y-130946019D01*
X139915105Y-130946019D02*
X139867486Y-131422209D01*
X139867486Y-131422209D02*
X139915105Y-131374590D01*
X139915105Y-131374590D02*
X140010343Y-131326971D01*
X140010343Y-131326971D02*
X140248438Y-131326971D01*
X140248438Y-131326971D02*
X140343676Y-131374590D01*
X140343676Y-131374590D02*
X140391295Y-131422209D01*
X140391295Y-131422209D02*
X140438914Y-131517447D01*
X140438914Y-131517447D02*
X140438914Y-131755542D01*
X140438914Y-131755542D02*
X140391295Y-131850780D01*
X140391295Y-131850780D02*
X140343676Y-131898400D01*
X140343676Y-131898400D02*
X140248438Y-131946019D01*
X140248438Y-131946019D02*
X140010343Y-131946019D01*
X140010343Y-131946019D02*
X139915105Y-131898400D01*
X139915105Y-131898400D02*
X139867486Y-131850780D01*
X138357895Y-94275219D02*
X138357895Y-95084742D01*
X138357895Y-95084742D02*
X138405514Y-95179980D01*
X138405514Y-95179980D02*
X138453133Y-95227600D01*
X138453133Y-95227600D02*
X138548371Y-95275219D01*
X138548371Y-95275219D02*
X138738847Y-95275219D01*
X138738847Y-95275219D02*
X138834085Y-95227600D01*
X138834085Y-95227600D02*
X138881704Y-95179980D01*
X138881704Y-95179980D02*
X138929323Y-95084742D01*
X138929323Y-95084742D02*
X138929323Y-94275219D01*
X139929323Y-95275219D02*
X139357895Y-95275219D01*
X139643609Y-95275219D02*
X139643609Y-94275219D01*
X139643609Y-94275219D02*
X139548371Y-94418076D01*
X139548371Y-94418076D02*
X139453133Y-94513314D01*
X139453133Y-94513314D02*
X139357895Y-94560933D01*
X132222133Y-104865180D02*
X132174514Y-104912800D01*
X132174514Y-104912800D02*
X132031657Y-104960419D01*
X132031657Y-104960419D02*
X131936419Y-104960419D01*
X131936419Y-104960419D02*
X131793562Y-104912800D01*
X131793562Y-104912800D02*
X131698324Y-104817561D01*
X131698324Y-104817561D02*
X131650705Y-104722323D01*
X131650705Y-104722323D02*
X131603086Y-104531847D01*
X131603086Y-104531847D02*
X131603086Y-104388990D01*
X131603086Y-104388990D02*
X131650705Y-104198514D01*
X131650705Y-104198514D02*
X131698324Y-104103276D01*
X131698324Y-104103276D02*
X131793562Y-104008038D01*
X131793562Y-104008038D02*
X131936419Y-103960419D01*
X131936419Y-103960419D02*
X132031657Y-103960419D01*
X132031657Y-103960419D02*
X132174514Y-104008038D01*
X132174514Y-104008038D02*
X132222133Y-104055657D01*
X133174514Y-104960419D02*
X132603086Y-104960419D01*
X132888800Y-104960419D02*
X132888800Y-103960419D01*
X132888800Y-103960419D02*
X132793562Y-104103276D01*
X132793562Y-104103276D02*
X132698324Y-104198514D01*
X132698324Y-104198514D02*
X132603086Y-104246133D01*
X182807895Y-96815219D02*
X182807895Y-97624742D01*
X182807895Y-97624742D02*
X182855514Y-97719980D01*
X182855514Y-97719980D02*
X182903133Y-97767600D01*
X182903133Y-97767600D02*
X182998371Y-97815219D01*
X182998371Y-97815219D02*
X183188847Y-97815219D01*
X183188847Y-97815219D02*
X183284085Y-97767600D01*
X183284085Y-97767600D02*
X183331704Y-97719980D01*
X183331704Y-97719980D02*
X183379323Y-97624742D01*
X183379323Y-97624742D02*
X183379323Y-96815219D01*
X184284085Y-97148552D02*
X184284085Y-97815219D01*
X184045990Y-96767600D02*
X183807895Y-97481885D01*
X183807895Y-97481885D02*
X184426942Y-97481885D01*
X174436933Y-109695619D02*
X174103600Y-109219428D01*
X173865505Y-109695619D02*
X173865505Y-108695619D01*
X173865505Y-108695619D02*
X174246457Y-108695619D01*
X174246457Y-108695619D02*
X174341695Y-108743238D01*
X174341695Y-108743238D02*
X174389314Y-108790857D01*
X174389314Y-108790857D02*
X174436933Y-108886095D01*
X174436933Y-108886095D02*
X174436933Y-109028952D01*
X174436933Y-109028952D02*
X174389314Y-109124190D01*
X174389314Y-109124190D02*
X174341695Y-109171809D01*
X174341695Y-109171809D02*
X174246457Y-109219428D01*
X174246457Y-109219428D02*
X173865505Y-109219428D01*
X174817886Y-108790857D02*
X174865505Y-108743238D01*
X174865505Y-108743238D02*
X174960743Y-108695619D01*
X174960743Y-108695619D02*
X175198838Y-108695619D01*
X175198838Y-108695619D02*
X175294076Y-108743238D01*
X175294076Y-108743238D02*
X175341695Y-108790857D01*
X175341695Y-108790857D02*
X175389314Y-108886095D01*
X175389314Y-108886095D02*
X175389314Y-108981333D01*
X175389314Y-108981333D02*
X175341695Y-109124190D01*
X175341695Y-109124190D02*
X174770267Y-109695619D01*
X174770267Y-109695619D02*
X175389314Y-109695619D01*
X140818466Y-91271219D02*
X140818466Y-91985504D01*
X140818466Y-91985504D02*
X140770847Y-92128361D01*
X140770847Y-92128361D02*
X140675609Y-92223600D01*
X140675609Y-92223600D02*
X140532752Y-92271219D01*
X140532752Y-92271219D02*
X140437514Y-92271219D01*
X141818466Y-92271219D02*
X141247038Y-92271219D01*
X141532752Y-92271219D02*
X141532752Y-91271219D01*
X141532752Y-91271219D02*
X141437514Y-91414076D01*
X141437514Y-91414076D02*
X141342276Y-91509314D01*
X141342276Y-91509314D02*
X141247038Y-91556933D01*
X152327895Y-96815219D02*
X152327895Y-97624742D01*
X152327895Y-97624742D02*
X152375514Y-97719980D01*
X152375514Y-97719980D02*
X152423133Y-97767600D01*
X152423133Y-97767600D02*
X152518371Y-97815219D01*
X152518371Y-97815219D02*
X152708847Y-97815219D01*
X152708847Y-97815219D02*
X152804085Y-97767600D01*
X152804085Y-97767600D02*
X152851704Y-97719980D01*
X152851704Y-97719980D02*
X152899323Y-97624742D01*
X152899323Y-97624742D02*
X152899323Y-96815219D01*
X153327895Y-96910457D02*
X153375514Y-96862838D01*
X153375514Y-96862838D02*
X153470752Y-96815219D01*
X153470752Y-96815219D02*
X153708847Y-96815219D01*
X153708847Y-96815219D02*
X153804085Y-96862838D01*
X153804085Y-96862838D02*
X153851704Y-96910457D01*
X153851704Y-96910457D02*
X153899323Y-97005695D01*
X153899323Y-97005695D02*
X153899323Y-97100933D01*
X153899323Y-97100933D02*
X153851704Y-97243790D01*
X153851704Y-97243790D02*
X153280276Y-97815219D01*
X153280276Y-97815219D02*
X153899323Y-97815219D01*
X224383695Y-95416019D02*
X224383695Y-96225542D01*
X224383695Y-96225542D02*
X224431314Y-96320780D01*
X224431314Y-96320780D02*
X224478933Y-96368400D01*
X224478933Y-96368400D02*
X224574171Y-96416019D01*
X224574171Y-96416019D02*
X224764647Y-96416019D01*
X224764647Y-96416019D02*
X224859885Y-96368400D01*
X224859885Y-96368400D02*
X224907504Y-96320780D01*
X224907504Y-96320780D02*
X224955123Y-96225542D01*
X224955123Y-96225542D02*
X224955123Y-95416019D01*
X225859885Y-95416019D02*
X225669409Y-95416019D01*
X225669409Y-95416019D02*
X225574171Y-95463638D01*
X225574171Y-95463638D02*
X225526552Y-95511257D01*
X225526552Y-95511257D02*
X225431314Y-95654114D01*
X225431314Y-95654114D02*
X225383695Y-95844590D01*
X225383695Y-95844590D02*
X225383695Y-96225542D01*
X225383695Y-96225542D02*
X225431314Y-96320780D01*
X225431314Y-96320780D02*
X225478933Y-96368400D01*
X225478933Y-96368400D02*
X225574171Y-96416019D01*
X225574171Y-96416019D02*
X225764647Y-96416019D01*
X225764647Y-96416019D02*
X225859885Y-96368400D01*
X225859885Y-96368400D02*
X225907504Y-96320780D01*
X225907504Y-96320780D02*
X225955123Y-96225542D01*
X225955123Y-96225542D02*
X225955123Y-95987447D01*
X225955123Y-95987447D02*
X225907504Y-95892209D01*
X225907504Y-95892209D02*
X225859885Y-95844590D01*
X225859885Y-95844590D02*
X225764647Y-95796971D01*
X225764647Y-95796971D02*
X225574171Y-95796971D01*
X225574171Y-95796971D02*
X225478933Y-95844590D01*
X225478933Y-95844590D02*
X225431314Y-95892209D01*
X225431314Y-95892209D02*
X225383695Y-95987447D01*
X212409933Y-102295980D02*
X212362314Y-102343600D01*
X212362314Y-102343600D02*
X212219457Y-102391219D01*
X212219457Y-102391219D02*
X212124219Y-102391219D01*
X212124219Y-102391219D02*
X211981362Y-102343600D01*
X211981362Y-102343600D02*
X211886124Y-102248361D01*
X211886124Y-102248361D02*
X211838505Y-102153123D01*
X211838505Y-102153123D02*
X211790886Y-101962647D01*
X211790886Y-101962647D02*
X211790886Y-101819790D01*
X211790886Y-101819790D02*
X211838505Y-101629314D01*
X211838505Y-101629314D02*
X211886124Y-101534076D01*
X211886124Y-101534076D02*
X211981362Y-101438838D01*
X211981362Y-101438838D02*
X212124219Y-101391219D01*
X212124219Y-101391219D02*
X212219457Y-101391219D01*
X212219457Y-101391219D02*
X212362314Y-101438838D01*
X212362314Y-101438838D02*
X212409933Y-101486457D01*
X213267076Y-101391219D02*
X213076600Y-101391219D01*
X213076600Y-101391219D02*
X212981362Y-101438838D01*
X212981362Y-101438838D02*
X212933743Y-101486457D01*
X212933743Y-101486457D02*
X212838505Y-101629314D01*
X212838505Y-101629314D02*
X212790886Y-101819790D01*
X212790886Y-101819790D02*
X212790886Y-102200742D01*
X212790886Y-102200742D02*
X212838505Y-102295980D01*
X212838505Y-102295980D02*
X212886124Y-102343600D01*
X212886124Y-102343600D02*
X212981362Y-102391219D01*
X212981362Y-102391219D02*
X213171838Y-102391219D01*
X213171838Y-102391219D02*
X213267076Y-102343600D01*
X213267076Y-102343600D02*
X213314695Y-102295980D01*
X213314695Y-102295980D02*
X213362314Y-102200742D01*
X213362314Y-102200742D02*
X213362314Y-101962647D01*
X213362314Y-101962647D02*
X213314695Y-101867409D01*
X213314695Y-101867409D02*
X213267076Y-101819790D01*
X213267076Y-101819790D02*
X213171838Y-101772171D01*
X213171838Y-101772171D02*
X212981362Y-101772171D01*
X212981362Y-101772171D02*
X212886124Y-101819790D01*
X212886124Y-101819790D02*
X212838505Y-101867409D01*
X212838505Y-101867409D02*
X212790886Y-101962647D01*
X176922133Y-107310580D02*
X176874514Y-107358200D01*
X176874514Y-107358200D02*
X176731657Y-107405819D01*
X176731657Y-107405819D02*
X176636419Y-107405819D01*
X176636419Y-107405819D02*
X176493562Y-107358200D01*
X176493562Y-107358200D02*
X176398324Y-107262961D01*
X176398324Y-107262961D02*
X176350705Y-107167723D01*
X176350705Y-107167723D02*
X176303086Y-106977247D01*
X176303086Y-106977247D02*
X176303086Y-106834390D01*
X176303086Y-106834390D02*
X176350705Y-106643914D01*
X176350705Y-106643914D02*
X176398324Y-106548676D01*
X176398324Y-106548676D02*
X176493562Y-106453438D01*
X176493562Y-106453438D02*
X176636419Y-106405819D01*
X176636419Y-106405819D02*
X176731657Y-106405819D01*
X176731657Y-106405819D02*
X176874514Y-106453438D01*
X176874514Y-106453438D02*
X176922133Y-106501057D01*
X177779276Y-106739152D02*
X177779276Y-107405819D01*
X177541181Y-106358200D02*
X177303086Y-107072485D01*
X177303086Y-107072485D02*
X177922133Y-107072485D01*
X167561545Y-117103469D02*
X167561545Y-117912992D01*
X167561545Y-117912992D02*
X167609164Y-118008230D01*
X167609164Y-118008230D02*
X167656783Y-118055850D01*
X167656783Y-118055850D02*
X167752021Y-118103469D01*
X167752021Y-118103469D02*
X167942497Y-118103469D01*
X167942497Y-118103469D02*
X168037735Y-118055850D01*
X168037735Y-118055850D02*
X168085354Y-118008230D01*
X168085354Y-118008230D02*
X168132973Y-117912992D01*
X168132973Y-117912992D02*
X168132973Y-117103469D01*
X168752021Y-117532040D02*
X168656783Y-117484421D01*
X168656783Y-117484421D02*
X168609164Y-117436802D01*
X168609164Y-117436802D02*
X168561545Y-117341564D01*
X168561545Y-117341564D02*
X168561545Y-117293945D01*
X168561545Y-117293945D02*
X168609164Y-117198707D01*
X168609164Y-117198707D02*
X168656783Y-117151088D01*
X168656783Y-117151088D02*
X168752021Y-117103469D01*
X168752021Y-117103469D02*
X168942497Y-117103469D01*
X168942497Y-117103469D02*
X169037735Y-117151088D01*
X169037735Y-117151088D02*
X169085354Y-117198707D01*
X169085354Y-117198707D02*
X169132973Y-117293945D01*
X169132973Y-117293945D02*
X169132973Y-117341564D01*
X169132973Y-117341564D02*
X169085354Y-117436802D01*
X169085354Y-117436802D02*
X169037735Y-117484421D01*
X169037735Y-117484421D02*
X168942497Y-117532040D01*
X168942497Y-117532040D02*
X168752021Y-117532040D01*
X168752021Y-117532040D02*
X168656783Y-117579659D01*
X168656783Y-117579659D02*
X168609164Y-117627278D01*
X168609164Y-117627278D02*
X168561545Y-117722516D01*
X168561545Y-117722516D02*
X168561545Y-117912992D01*
X168561545Y-117912992D02*
X168609164Y-118008230D01*
X168609164Y-118008230D02*
X168656783Y-118055850D01*
X168656783Y-118055850D02*
X168752021Y-118103469D01*
X168752021Y-118103469D02*
X168942497Y-118103469D01*
X168942497Y-118103469D02*
X169037735Y-118055850D01*
X169037735Y-118055850D02*
X169085354Y-118008230D01*
X169085354Y-118008230D02*
X169132973Y-117912992D01*
X169132973Y-117912992D02*
X169132973Y-117722516D01*
X169132973Y-117722516D02*
X169085354Y-117627278D01*
X169085354Y-117627278D02*
X169037735Y-117579659D01*
X169037735Y-117579659D02*
X168942497Y-117532040D01*
X222473116Y-90502869D02*
X222473116Y-91217154D01*
X222473116Y-91217154D02*
X222425497Y-91360011D01*
X222425497Y-91360011D02*
X222330259Y-91455250D01*
X222330259Y-91455250D02*
X222187402Y-91502869D01*
X222187402Y-91502869D02*
X222092164Y-91502869D01*
X222901688Y-90598107D02*
X222949307Y-90550488D01*
X222949307Y-90550488D02*
X223044545Y-90502869D01*
X223044545Y-90502869D02*
X223282640Y-90502869D01*
X223282640Y-90502869D02*
X223377878Y-90550488D01*
X223377878Y-90550488D02*
X223425497Y-90598107D01*
X223425497Y-90598107D02*
X223473116Y-90693345D01*
X223473116Y-90693345D02*
X223473116Y-90788583D01*
X223473116Y-90788583D02*
X223425497Y-90931440D01*
X223425497Y-90931440D02*
X222854069Y-91502869D01*
X222854069Y-91502869D02*
X223473116Y-91502869D01*
X161762333Y-107161980D02*
X161714714Y-107209600D01*
X161714714Y-107209600D02*
X161571857Y-107257219D01*
X161571857Y-107257219D02*
X161476619Y-107257219D01*
X161476619Y-107257219D02*
X161333762Y-107209600D01*
X161333762Y-107209600D02*
X161238524Y-107114361D01*
X161238524Y-107114361D02*
X161190905Y-107019123D01*
X161190905Y-107019123D02*
X161143286Y-106828647D01*
X161143286Y-106828647D02*
X161143286Y-106685790D01*
X161143286Y-106685790D02*
X161190905Y-106495314D01*
X161190905Y-106495314D02*
X161238524Y-106400076D01*
X161238524Y-106400076D02*
X161333762Y-106304838D01*
X161333762Y-106304838D02*
X161476619Y-106257219D01*
X161476619Y-106257219D02*
X161571857Y-106257219D01*
X161571857Y-106257219D02*
X161714714Y-106304838D01*
X161714714Y-106304838D02*
X161762333Y-106352457D01*
X162095667Y-106257219D02*
X162714714Y-106257219D01*
X162714714Y-106257219D02*
X162381381Y-106638171D01*
X162381381Y-106638171D02*
X162524238Y-106638171D01*
X162524238Y-106638171D02*
X162619476Y-106685790D01*
X162619476Y-106685790D02*
X162667095Y-106733409D01*
X162667095Y-106733409D02*
X162714714Y-106828647D01*
X162714714Y-106828647D02*
X162714714Y-107066742D01*
X162714714Y-107066742D02*
X162667095Y-107161980D01*
X162667095Y-107161980D02*
X162619476Y-107209600D01*
X162619476Y-107209600D02*
X162524238Y-107257219D01*
X162524238Y-107257219D02*
X162238524Y-107257219D01*
X162238524Y-107257219D02*
X162143286Y-107209600D01*
X162143286Y-107209600D02*
X162095667Y-107161980D01*
X161654383Y-127856630D02*
X161606764Y-127904250D01*
X161606764Y-127904250D02*
X161463907Y-127951869D01*
X161463907Y-127951869D02*
X161368669Y-127951869D01*
X161368669Y-127951869D02*
X161225812Y-127904250D01*
X161225812Y-127904250D02*
X161130574Y-127809011D01*
X161130574Y-127809011D02*
X161082955Y-127713773D01*
X161082955Y-127713773D02*
X161035336Y-127523297D01*
X161035336Y-127523297D02*
X161035336Y-127380440D01*
X161035336Y-127380440D02*
X161082955Y-127189964D01*
X161082955Y-127189964D02*
X161130574Y-127094726D01*
X161130574Y-127094726D02*
X161225812Y-126999488D01*
X161225812Y-126999488D02*
X161368669Y-126951869D01*
X161368669Y-126951869D02*
X161463907Y-126951869D01*
X161463907Y-126951869D02*
X161606764Y-126999488D01*
X161606764Y-126999488D02*
X161654383Y-127047107D01*
X162225812Y-127380440D02*
X162130574Y-127332821D01*
X162130574Y-127332821D02*
X162082955Y-127285202D01*
X162082955Y-127285202D02*
X162035336Y-127189964D01*
X162035336Y-127189964D02*
X162035336Y-127142345D01*
X162035336Y-127142345D02*
X162082955Y-127047107D01*
X162082955Y-127047107D02*
X162130574Y-126999488D01*
X162130574Y-126999488D02*
X162225812Y-126951869D01*
X162225812Y-126951869D02*
X162416288Y-126951869D01*
X162416288Y-126951869D02*
X162511526Y-126999488D01*
X162511526Y-126999488D02*
X162559145Y-127047107D01*
X162559145Y-127047107D02*
X162606764Y-127142345D01*
X162606764Y-127142345D02*
X162606764Y-127189964D01*
X162606764Y-127189964D02*
X162559145Y-127285202D01*
X162559145Y-127285202D02*
X162511526Y-127332821D01*
X162511526Y-127332821D02*
X162416288Y-127380440D01*
X162416288Y-127380440D02*
X162225812Y-127380440D01*
X162225812Y-127380440D02*
X162130574Y-127428059D01*
X162130574Y-127428059D02*
X162082955Y-127475678D01*
X162082955Y-127475678D02*
X162035336Y-127570916D01*
X162035336Y-127570916D02*
X162035336Y-127761392D01*
X162035336Y-127761392D02*
X162082955Y-127856630D01*
X162082955Y-127856630D02*
X162130574Y-127904250D01*
X162130574Y-127904250D02*
X162225812Y-127951869D01*
X162225812Y-127951869D02*
X162416288Y-127951869D01*
X162416288Y-127951869D02*
X162511526Y-127904250D01*
X162511526Y-127904250D02*
X162559145Y-127856630D01*
X162559145Y-127856630D02*
X162606764Y-127761392D01*
X162606764Y-127761392D02*
X162606764Y-127570916D01*
X162606764Y-127570916D02*
X162559145Y-127475678D01*
X162559145Y-127475678D02*
X162511526Y-127428059D01*
X162511526Y-127428059D02*
X162416288Y-127380440D01*
D13*
%TO.C,C5*%
X193529800Y-96110400D02*
X193514800Y-96110400D01*
X193529800Y-96110400D02*
X193529800Y-100650400D01*
X191404800Y-96110400D02*
X191389800Y-96110400D01*
X191389800Y-96110400D02*
X191389800Y-100650400D01*
X193529800Y-100650400D02*
X193514800Y-100650400D01*
X191404800Y-100650400D02*
X191389800Y-100650400D01*
%TO.C,R4*%
X131341050Y-128894050D02*
X132113450Y-128894050D01*
X132113450Y-127974050D02*
X132113450Y-129814050D01*
X132113450Y-129814050D02*
X135953450Y-129814050D01*
X135953450Y-127974050D02*
X132113450Y-127974050D01*
X135953450Y-129814050D02*
X135953450Y-127974050D01*
X136700450Y-128894050D02*
X135953450Y-128894050D01*
%TO.C,U7*%
X142819800Y-122490400D02*
X142819800Y-140390400D01*
X142819800Y-140390400D02*
X148119800Y-140390400D01*
X144469800Y-122490400D02*
X142819800Y-122490400D01*
X148119800Y-122490400D02*
X146469800Y-122490400D01*
X148119800Y-140390400D02*
X148119800Y-122490400D01*
X144469800Y-122490400D02*
G75*
G03*
X146469800Y-122490400I1000000J0D01*
G01*
%TO.C,U5*%
X196159800Y-93280400D02*
X196159800Y-128960400D01*
X196159800Y-128960400D02*
X209079800Y-128960400D01*
X201619800Y-93280400D02*
X196159800Y-93280400D01*
X209079800Y-93280400D02*
X203619800Y-93280400D01*
X209079800Y-128960400D02*
X209079800Y-93280400D01*
X201619800Y-93280400D02*
G75*
G03*
X203619800Y-93280400I1000000J0D01*
G01*
%TO.C,R1*%
X159439800Y-100808000D02*
X159439800Y-101580400D01*
X160359800Y-101580400D02*
X158519800Y-101580400D01*
X158519800Y-101580400D02*
X158519800Y-105420400D01*
X160359800Y-105420400D02*
X160359800Y-101580400D01*
X158519800Y-105420400D02*
X160359800Y-105420400D01*
X159439800Y-106167400D02*
X159439800Y-105420400D01*
%TO.C,U3*%
X165679800Y-98335000D02*
X165679800Y-116235000D01*
X165679800Y-116235000D02*
X170979800Y-116235000D01*
X167329800Y-98335000D02*
X165679800Y-98335000D01*
X170979800Y-98335000D02*
X169329800Y-98335000D01*
X170979800Y-116235000D02*
X170979800Y-98335000D01*
X167329800Y-98335000D02*
G75*
G03*
X169329800Y-98335000I1000000J0D01*
G01*
%TO.C,C2*%
X147809800Y-99920400D02*
X147794800Y-99920400D01*
X147809800Y-99920400D02*
X147809800Y-104460400D01*
X145684800Y-99920400D02*
X145669800Y-99920400D01*
X145669800Y-99920400D02*
X145669800Y-104460400D01*
X147809800Y-104460400D02*
X147794800Y-104460400D01*
X145684800Y-104460400D02*
X145669800Y-104460400D01*
%TO.C,C7*%
X149009800Y-121080400D02*
X149009800Y-121065400D01*
X149009800Y-121080400D02*
X144469800Y-121080400D01*
X149009800Y-118955400D02*
X149009800Y-118940400D01*
X149009800Y-118940400D02*
X144469800Y-118940400D01*
X144469800Y-121080400D02*
X144469800Y-121065400D01*
X144469800Y-118955400D02*
X144469800Y-118940400D01*
%TO.C,R3*%
X189970600Y-96998000D02*
X189970600Y-97770400D01*
X190890600Y-97770400D02*
X189050600Y-97770400D01*
X189050600Y-97770400D02*
X189050600Y-101610400D01*
X190890600Y-101610400D02*
X190890600Y-97770400D01*
X189050600Y-101610400D02*
X190890600Y-101610400D01*
X189970600Y-102357400D02*
X189970600Y-101610400D01*
%TO.C,R5*%
X131347400Y-131465800D02*
X132119800Y-131465800D01*
X132119800Y-130545800D02*
X132119800Y-132385800D01*
X132119800Y-132385800D02*
X135959800Y-132385800D01*
X135959800Y-130545800D02*
X132119800Y-130545800D01*
X135959800Y-132385800D02*
X135959800Y-130545800D01*
X136706800Y-131465800D02*
X135959800Y-131465800D01*
%TO.C,U1*%
X136469800Y-95820400D02*
X136469800Y-113720400D01*
X136469800Y-113720400D02*
X141769800Y-113720400D01*
X138119800Y-95820400D02*
X136469800Y-95820400D01*
X141769800Y-95820400D02*
X140119800Y-95820400D01*
X141769800Y-113720400D02*
X141769800Y-95820400D01*
X138119800Y-95820400D02*
G75*
G03*
X140119800Y-95820400I1000000J0D01*
G01*
%TO.C,C1*%
X133839800Y-97369600D02*
X133824800Y-97369600D01*
X133839800Y-97369600D02*
X133839800Y-101909600D01*
X131714800Y-97369600D02*
X131699800Y-97369600D01*
X131699800Y-97369600D02*
X131699800Y-101909600D01*
X133839800Y-101909600D02*
X133824800Y-101909600D01*
X131714800Y-101909600D02*
X131699800Y-101909600D01*
%TO.C,U4*%
X180919800Y-98360400D02*
X180919800Y-123880400D01*
X180919800Y-123880400D02*
X186219800Y-123880400D01*
X182569800Y-98360400D02*
X180919800Y-98360400D01*
X186219800Y-98360400D02*
X184569800Y-98360400D01*
X186219800Y-123880400D02*
X186219800Y-98360400D01*
X182569800Y-98360400D02*
G75*
G03*
X184569800Y-98360400I1000000J0D01*
G01*
%TO.C,R2*%
X174679800Y-100808000D02*
X174679800Y-101580400D01*
X175599800Y-101580400D02*
X173759800Y-101580400D01*
X173759800Y-101580400D02*
X173759800Y-105420400D01*
X175599800Y-105420400D02*
X175599800Y-101580400D01*
X173759800Y-105420400D02*
X175599800Y-105420400D01*
X174679800Y-106167400D02*
X174679800Y-105420400D01*
%TO.C,J1*%
X142869800Y-94670400D02*
X142869800Y-93340400D01*
X144199800Y-94670400D02*
X142869800Y-94670400D01*
X145469800Y-94670400D02*
X186169800Y-94670400D01*
X145469800Y-94670400D02*
X145469800Y-92070400D01*
X186169800Y-94670400D02*
X186169800Y-89470400D01*
X142869800Y-92070400D02*
X142869800Y-89470400D01*
X145469800Y-92070400D02*
X142869800Y-92070400D01*
X142869800Y-89470400D02*
X186169800Y-89470400D01*
%TO.C,U2*%
X150439800Y-98360400D02*
X150439800Y-116260400D01*
X150439800Y-116260400D02*
X155739800Y-116260400D01*
X152089800Y-98360400D02*
X150439800Y-98360400D01*
X155739800Y-98360400D02*
X154089800Y-98360400D01*
X155739800Y-116260400D02*
X155739800Y-98360400D01*
X152089800Y-98360400D02*
G75*
G03*
X154089800Y-98360400I1000000J0D01*
G01*
%TO.C,U6*%
X216479800Y-94550400D02*
X216479800Y-114990400D01*
X216479800Y-114990400D02*
X221779800Y-114990400D01*
X218129800Y-94550400D02*
X216479800Y-94550400D01*
X221779800Y-94550400D02*
X220129800Y-94550400D01*
X221779800Y-114990400D02*
X221779800Y-94550400D01*
X218129800Y-94550400D02*
G75*
G03*
X220129800Y-94550400I1000000J0D01*
G01*
%TO.C,C6*%
X213849800Y-94840400D02*
X213834800Y-94840400D01*
X213849800Y-94840400D02*
X213849800Y-99380400D01*
X211724800Y-94840400D02*
X211709800Y-94840400D01*
X211709800Y-94840400D02*
X211709800Y-99380400D01*
X213849800Y-99380400D02*
X213834800Y-99380400D01*
X211724800Y-99380400D02*
X211709800Y-99380400D01*
%TO.C,C4*%
X178285800Y-99920400D02*
X178270800Y-99920400D01*
X178285800Y-99920400D02*
X178285800Y-104460400D01*
X176160800Y-99920400D02*
X176145800Y-99920400D01*
X176145800Y-99920400D02*
X176145800Y-104460400D01*
X178285800Y-104460400D02*
X178270800Y-104460400D01*
X176160800Y-104460400D02*
X176145800Y-104460400D01*
%TO.C,U8*%
X165673450Y-118648650D02*
X165673450Y-136548650D01*
X165673450Y-136548650D02*
X170973450Y-136548650D01*
X167323450Y-118648650D02*
X165673450Y-118648650D01*
X170973450Y-118648650D02*
X169323450Y-118648650D01*
X170973450Y-136548650D02*
X170973450Y-118648650D01*
X167323450Y-118648650D02*
G75*
G03*
X169323450Y-118648650I1000000J0D01*
G01*
%TO.C,J2*%
X213983450Y-92124050D02*
X213983450Y-90794050D01*
X215313450Y-92124050D02*
X213983450Y-92124050D01*
X216583450Y-92124050D02*
X221723450Y-92124050D01*
X216583450Y-92124050D02*
X216583450Y-89464050D01*
X221723450Y-92124050D02*
X221723450Y-89464050D01*
X216583450Y-89464050D02*
X221723450Y-89464050D01*
%TO.C,C3*%
X163049800Y-99895000D02*
X163034800Y-99895000D01*
X163049800Y-99895000D02*
X163049800Y-104435000D01*
X160924800Y-99895000D02*
X160909800Y-99895000D01*
X160909800Y-99895000D02*
X160909800Y-104435000D01*
X163049800Y-104435000D02*
X163034800Y-104435000D01*
X160924800Y-104435000D02*
X160909800Y-104435000D01*
%TO.C,C8*%
X163043450Y-120234050D02*
X163028450Y-120234050D01*
X163043450Y-120234050D02*
X163043450Y-124774050D01*
X160918450Y-120234050D02*
X160903450Y-120234050D01*
X160903450Y-120234050D02*
X160903450Y-124774050D01*
X163043450Y-124774050D02*
X163028450Y-124774050D01*
X160918450Y-124774050D02*
X160903450Y-124774050D01*
%TD*%
M02*
