<?xml version="1.0" standalone="no"?>
 <!DOCTYPE svg PUBLIC "-//W3C//DTD SVG 1.1//EN" 
 "http://www.w3.org/Graphics/SVG/1.1/DTD/svg11.dtd"> 
<svg
  xmlns:svg="http://www.w3.org/2000/svg"
  xmlns="http://www.w3.org/2000/svg"
  xmlns:xlink="http://www.w3.org/1999/xlink"
  version="1.1"
  width="297.002200mm" height="210.007200mm" viewBox="0.000000 0.000000 297.002200 210.007200">
<title>SVG Image created as HB3600-Cart-Edge_Cuts.svg date 2024/02/03 08:46:27 </title>
  <desc>Image generated by PCBNEW </desc>
<g style="fill:#000000; fill-opacity:1.000000;stroke:#000000; stroke-opacity:1.000000;
stroke-linecap:round; stroke-linejoin:round;"
 transform="translate(0 0) scale(1 1)">
</g>
<g style="fill:#000000; fill-opacity:0.0; 
stroke:#000000; stroke-width:0.000000; stroke-opacity:1; 
stroke-linecap:round; stroke-linejoin:round;">
</g>
<g style="fill:#000000; fill-opacity:0.0; 
stroke:#000000; stroke-width:0.150000; stroke-opacity:1; 
stroke-linecap:round; stroke-linejoin:round;">
<path d="M228.140800 88.589200
L228.140800 142.259400
" />
<circle cx="134.010000" cy="120.491200" r="3.400000" /> 
<path d="M215.825400 142.259400
L228.140800 142.259400
" />
<path d="M150.285400 152.027400
L150.285400 142.259400
" />
<circle cx="220.597000" cy="120.123000" r="3.400000" /> 
<circle cx="210.440000" cy="135.851200" r="1.600000" /> 
<path d="M150.285400 142.259400
L137.970800 142.259400
" />
<path d="M150.285400 152.027400
L151.630800 153.410000
" />
<path d="M137.970800 142.259400
L137.970800 133.166200
" />
<path d="M128.090200 133.166200
L137.970800 133.166200
" />
<path d="M215.825400 142.259400
L215.825400 152.027400
" />
<circle cx="154.176000" cy="131.491200" r="1.600000" /> 
<path d="M214.451463 153.410000
L215.825400 152.027400
" />
<path d="M214.451463 153.410000
L151.630800 153.410000
" />
<path d="M128.090200 88.589200
L228.140800 88.589200
" />
<path d="M128.090200 133.166200
L128.090200 88.589200
" />
<g >
</g>
<g >
</g>
<g >
</g>
<g >
</g>
<g >
</g>
<g >
</g>
<g >
</g>
<g >
</g>
<g >
</g>
<g >
</g>
<g >
</g>
<g >
</g>
<g >
</g>
<g >
</g>
<g >
</g>
<g >
</g>
<g >
</g>
<g >
</g>
<g >
</g>
<g >
</g>
<g >
</g>
<g >
</g>
<g >
</g>
<g >
</g>
<g >
</g>
<g >
</g>
<g >
</g>
<g >
</g>
<g >
</g>
<g >
</g>
<g >
</g>
</g> 
</svg>
