%TF.GenerationSoftware,KiCad,Pcbnew,7.0.9*%
%TF.CreationDate,2024-01-19T22:05:45-03:00*%
%TF.ProjectId,HB720-Cart_dos2,48423732-302d-4436-9172-745f646f7332,V1.0.0*%
%TF.SameCoordinates,Original*%
%TF.FileFunction,AssemblyDrawing,Top*%
%FSLAX46Y46*%
G04 Gerber Fmt 4.6, Leading zero omitted, Abs format (unit mm)*
G04 Created by KiCad (PCBNEW 7.0.9) date 2024-01-19 22:05:45*
%MOMM*%
%LPD*%
G01*
G04 APERTURE LIST*
%ADD10C,0.150000*%
%ADD11C,0.129000*%
%ADD12C,0.108000*%
%ADD13C,0.100000*%
G04 APERTURE END LIST*
D10*
X148452390Y-119079180D02*
X148404771Y-119126800D01*
X148404771Y-119126800D02*
X148261914Y-119174419D01*
X148261914Y-119174419D02*
X148166676Y-119174419D01*
X148166676Y-119174419D02*
X148023819Y-119126800D01*
X148023819Y-119126800D02*
X147928581Y-119031561D01*
X147928581Y-119031561D02*
X147880962Y-118936323D01*
X147880962Y-118936323D02*
X147833343Y-118745847D01*
X147833343Y-118745847D02*
X147833343Y-118602990D01*
X147833343Y-118602990D02*
X147880962Y-118412514D01*
X147880962Y-118412514D02*
X147928581Y-118317276D01*
X147928581Y-118317276D02*
X148023819Y-118222038D01*
X148023819Y-118222038D02*
X148166676Y-118174419D01*
X148166676Y-118174419D02*
X148261914Y-118174419D01*
X148261914Y-118174419D02*
X148404771Y-118222038D01*
X148404771Y-118222038D02*
X148452390Y-118269657D01*
X149071438Y-118174419D02*
X149261914Y-118174419D01*
X149261914Y-118174419D02*
X149357152Y-118222038D01*
X149357152Y-118222038D02*
X149452390Y-118317276D01*
X149452390Y-118317276D02*
X149500009Y-118507752D01*
X149500009Y-118507752D02*
X149500009Y-118841085D01*
X149500009Y-118841085D02*
X149452390Y-119031561D01*
X149452390Y-119031561D02*
X149357152Y-119126800D01*
X149357152Y-119126800D02*
X149261914Y-119174419D01*
X149261914Y-119174419D02*
X149071438Y-119174419D01*
X149071438Y-119174419D02*
X148976200Y-119126800D01*
X148976200Y-119126800D02*
X148880962Y-119031561D01*
X148880962Y-119031561D02*
X148833343Y-118841085D01*
X148833343Y-118841085D02*
X148833343Y-118507752D01*
X148833343Y-118507752D02*
X148880962Y-118317276D01*
X148880962Y-118317276D02*
X148976200Y-118222038D01*
X148976200Y-118222038D02*
X149071438Y-118174419D01*
X149928581Y-119174419D02*
X149928581Y-118174419D01*
X149928581Y-118174419D02*
X150500009Y-119174419D01*
X150500009Y-119174419D02*
X150500009Y-118174419D01*
X150976200Y-119174419D02*
X150976200Y-118174419D01*
X150976200Y-118174419D02*
X151547628Y-119174419D01*
X151547628Y-119174419D02*
X151547628Y-118174419D01*
X151785724Y-119269657D02*
X152547628Y-119269657D01*
X152976200Y-118174419D02*
X153071438Y-118174419D01*
X153071438Y-118174419D02*
X153166676Y-118222038D01*
X153166676Y-118222038D02*
X153214295Y-118269657D01*
X153214295Y-118269657D02*
X153261914Y-118364895D01*
X153261914Y-118364895D02*
X153309533Y-118555371D01*
X153309533Y-118555371D02*
X153309533Y-118793466D01*
X153309533Y-118793466D02*
X153261914Y-118983942D01*
X153261914Y-118983942D02*
X153214295Y-119079180D01*
X153214295Y-119079180D02*
X153166676Y-119126800D01*
X153166676Y-119126800D02*
X153071438Y-119174419D01*
X153071438Y-119174419D02*
X152976200Y-119174419D01*
X152976200Y-119174419D02*
X152880962Y-119126800D01*
X152880962Y-119126800D02*
X152833343Y-119079180D01*
X152833343Y-119079180D02*
X152785724Y-118983942D01*
X152785724Y-118983942D02*
X152738105Y-118793466D01*
X152738105Y-118793466D02*
X152738105Y-118555371D01*
X152738105Y-118555371D02*
X152785724Y-118364895D01*
X152785724Y-118364895D02*
X152833343Y-118269657D01*
X152833343Y-118269657D02*
X152880962Y-118222038D01*
X152880962Y-118222038D02*
X152976200Y-118174419D01*
X153690486Y-118269657D02*
X153738105Y-118222038D01*
X153738105Y-118222038D02*
X153833343Y-118174419D01*
X153833343Y-118174419D02*
X154071438Y-118174419D01*
X154071438Y-118174419D02*
X154166676Y-118222038D01*
X154166676Y-118222038D02*
X154214295Y-118269657D01*
X154214295Y-118269657D02*
X154261914Y-118364895D01*
X154261914Y-118364895D02*
X154261914Y-118460133D01*
X154261914Y-118460133D02*
X154214295Y-118602990D01*
X154214295Y-118602990D02*
X153642867Y-119174419D01*
X153642867Y-119174419D02*
X154261914Y-119174419D01*
X154595248Y-118174419D02*
X155261914Y-119174419D01*
X155261914Y-118174419D02*
X154595248Y-119174419D01*
X155595248Y-118269657D02*
X155642867Y-118222038D01*
X155642867Y-118222038D02*
X155738105Y-118174419D01*
X155738105Y-118174419D02*
X155976200Y-118174419D01*
X155976200Y-118174419D02*
X156071438Y-118222038D01*
X156071438Y-118222038D02*
X156119057Y-118269657D01*
X156119057Y-118269657D02*
X156166676Y-118364895D01*
X156166676Y-118364895D02*
X156166676Y-118460133D01*
X156166676Y-118460133D02*
X156119057Y-118602990D01*
X156119057Y-118602990D02*
X155547629Y-119174419D01*
X155547629Y-119174419D02*
X156166676Y-119174419D01*
X157071438Y-118174419D02*
X156595248Y-118174419D01*
X156595248Y-118174419D02*
X156547629Y-118650609D01*
X156547629Y-118650609D02*
X156595248Y-118602990D01*
X156595248Y-118602990D02*
X156690486Y-118555371D01*
X156690486Y-118555371D02*
X156928581Y-118555371D01*
X156928581Y-118555371D02*
X157023819Y-118602990D01*
X157023819Y-118602990D02*
X157071438Y-118650609D01*
X157071438Y-118650609D02*
X157119057Y-118745847D01*
X157119057Y-118745847D02*
X157119057Y-118983942D01*
X157119057Y-118983942D02*
X157071438Y-119079180D01*
X157071438Y-119079180D02*
X157023819Y-119126800D01*
X157023819Y-119126800D02*
X156928581Y-119174419D01*
X156928581Y-119174419D02*
X156690486Y-119174419D01*
X156690486Y-119174419D02*
X156595248Y-119126800D01*
X156595248Y-119126800D02*
X156547629Y-119079180D01*
X172670980Y-73987819D02*
X172099552Y-73987819D01*
X172385266Y-73987819D02*
X172385266Y-72987819D01*
X172385266Y-72987819D02*
X172290028Y-73130676D01*
X172290028Y-73130676D02*
X172194790Y-73225914D01*
X172194790Y-73225914D02*
X172099552Y-73273533D01*
X173290028Y-72987819D02*
X173385266Y-72987819D01*
X173385266Y-72987819D02*
X173480504Y-73035438D01*
X173480504Y-73035438D02*
X173528123Y-73083057D01*
X173528123Y-73083057D02*
X173575742Y-73178295D01*
X173575742Y-73178295D02*
X173623361Y-73368771D01*
X173623361Y-73368771D02*
X173623361Y-73606866D01*
X173623361Y-73606866D02*
X173575742Y-73797342D01*
X173575742Y-73797342D02*
X173528123Y-73892580D01*
X173528123Y-73892580D02*
X173480504Y-73940200D01*
X173480504Y-73940200D02*
X173385266Y-73987819D01*
X173385266Y-73987819D02*
X173290028Y-73987819D01*
X173290028Y-73987819D02*
X173194790Y-73940200D01*
X173194790Y-73940200D02*
X173147171Y-73892580D01*
X173147171Y-73892580D02*
X173099552Y-73797342D01*
X173099552Y-73797342D02*
X173051933Y-73606866D01*
X173051933Y-73606866D02*
X173051933Y-73368771D01*
X173051933Y-73368771D02*
X173099552Y-73178295D01*
X173099552Y-73178295D02*
X173147171Y-73083057D01*
X173147171Y-73083057D02*
X173194790Y-73035438D01*
X173194790Y-73035438D02*
X173290028Y-72987819D01*
X174242409Y-72987819D02*
X174337647Y-72987819D01*
X174337647Y-72987819D02*
X174432885Y-73035438D01*
X174432885Y-73035438D02*
X174480504Y-73083057D01*
X174480504Y-73083057D02*
X174528123Y-73178295D01*
X174528123Y-73178295D02*
X174575742Y-73368771D01*
X174575742Y-73368771D02*
X174575742Y-73606866D01*
X174575742Y-73606866D02*
X174528123Y-73797342D01*
X174528123Y-73797342D02*
X174480504Y-73892580D01*
X174480504Y-73892580D02*
X174432885Y-73940200D01*
X174432885Y-73940200D02*
X174337647Y-73987819D01*
X174337647Y-73987819D02*
X174242409Y-73987819D01*
X174242409Y-73987819D02*
X174147171Y-73940200D01*
X174147171Y-73940200D02*
X174099552Y-73892580D01*
X174099552Y-73892580D02*
X174051933Y-73797342D01*
X174051933Y-73797342D02*
X174004314Y-73606866D01*
X174004314Y-73606866D02*
X174004314Y-73368771D01*
X174004314Y-73368771D02*
X174051933Y-73178295D01*
X174051933Y-73178295D02*
X174099552Y-73083057D01*
X174099552Y-73083057D02*
X174147171Y-73035438D01*
X174147171Y-73035438D02*
X174242409Y-72987819D01*
X175004314Y-73321152D02*
X175004314Y-73987819D01*
X175004314Y-73416390D02*
X175051933Y-73368771D01*
X175051933Y-73368771D02*
X175147171Y-73321152D01*
X175147171Y-73321152D02*
X175290028Y-73321152D01*
X175290028Y-73321152D02*
X175385266Y-73368771D01*
X175385266Y-73368771D02*
X175432885Y-73464009D01*
X175432885Y-73464009D02*
X175432885Y-73987819D01*
X176242409Y-73464009D02*
X175909076Y-73464009D01*
X175909076Y-73987819D02*
X175909076Y-72987819D01*
X175909076Y-72987819D02*
X176385266Y-72987819D01*
D11*
X169698040Y-73727133D02*
X169738993Y-73768085D01*
X169738993Y-73768085D02*
X169779945Y-73890943D01*
X169779945Y-73890943D02*
X169779945Y-73972847D01*
X169779945Y-73972847D02*
X169738993Y-74095704D01*
X169738993Y-74095704D02*
X169657088Y-74177609D01*
X169657088Y-74177609D02*
X169575183Y-74218562D01*
X169575183Y-74218562D02*
X169411373Y-74259514D01*
X169411373Y-74259514D02*
X169288516Y-74259514D01*
X169288516Y-74259514D02*
X169124707Y-74218562D01*
X169124707Y-74218562D02*
X169042802Y-74177609D01*
X169042802Y-74177609D02*
X168960897Y-74095704D01*
X168960897Y-74095704D02*
X168919945Y-73972847D01*
X168919945Y-73972847D02*
X168919945Y-73890943D01*
X168919945Y-73890943D02*
X168960897Y-73768085D01*
X168960897Y-73768085D02*
X169001850Y-73727133D01*
X168919945Y-73440466D02*
X168919945Y-72867133D01*
X168919945Y-72867133D02*
X169779945Y-73235704D01*
D10*
X171850324Y-111735057D02*
X171897943Y-111687438D01*
X171897943Y-111687438D02*
X171993181Y-111639819D01*
X171993181Y-111639819D02*
X172231276Y-111639819D01*
X172231276Y-111639819D02*
X172326514Y-111687438D01*
X172326514Y-111687438D02*
X172374133Y-111735057D01*
X172374133Y-111735057D02*
X172421752Y-111830295D01*
X172421752Y-111830295D02*
X172421752Y-111925533D01*
X172421752Y-111925533D02*
X172374133Y-112068390D01*
X172374133Y-112068390D02*
X171802705Y-112639819D01*
X171802705Y-112639819D02*
X172421752Y-112639819D01*
X172755086Y-111639819D02*
X173421752Y-111639819D01*
X173421752Y-111639819D02*
X172993181Y-112639819D01*
X174278895Y-111639819D02*
X173802705Y-111639819D01*
X173802705Y-111639819D02*
X173755086Y-112116009D01*
X173755086Y-112116009D02*
X173802705Y-112068390D01*
X173802705Y-112068390D02*
X173897943Y-112020771D01*
X173897943Y-112020771D02*
X174136038Y-112020771D01*
X174136038Y-112020771D02*
X174231276Y-112068390D01*
X174231276Y-112068390D02*
X174278895Y-112116009D01*
X174278895Y-112116009D02*
X174326514Y-112211247D01*
X174326514Y-112211247D02*
X174326514Y-112449342D01*
X174326514Y-112449342D02*
X174278895Y-112544580D01*
X174278895Y-112544580D02*
X174231276Y-112592200D01*
X174231276Y-112592200D02*
X174136038Y-112639819D01*
X174136038Y-112639819D02*
X173897943Y-112639819D01*
X173897943Y-112639819D02*
X173802705Y-112592200D01*
X173802705Y-112592200D02*
X173755086Y-112544580D01*
X175278895Y-112639819D02*
X174707467Y-112639819D01*
X174993181Y-112639819D02*
X174993181Y-111639819D01*
X174993181Y-111639819D02*
X174897943Y-111782676D01*
X174897943Y-111782676D02*
X174802705Y-111877914D01*
X174802705Y-111877914D02*
X174707467Y-111925533D01*
X175659848Y-111735057D02*
X175707467Y-111687438D01*
X175707467Y-111687438D02*
X175802705Y-111639819D01*
X175802705Y-111639819D02*
X176040800Y-111639819D01*
X176040800Y-111639819D02*
X176136038Y-111687438D01*
X176136038Y-111687438D02*
X176183657Y-111735057D01*
X176183657Y-111735057D02*
X176231276Y-111830295D01*
X176231276Y-111830295D02*
X176231276Y-111925533D01*
X176231276Y-111925533D02*
X176183657Y-112068390D01*
X176183657Y-112068390D02*
X175612229Y-112639819D01*
X175612229Y-112639819D02*
X176231276Y-112639819D01*
X173278895Y-92799819D02*
X173278895Y-93609342D01*
X173278895Y-93609342D02*
X173326514Y-93704580D01*
X173326514Y-93704580D02*
X173374133Y-93752200D01*
X173374133Y-93752200D02*
X173469371Y-93799819D01*
X173469371Y-93799819D02*
X173659847Y-93799819D01*
X173659847Y-93799819D02*
X173755085Y-93752200D01*
X173755085Y-93752200D02*
X173802704Y-93704580D01*
X173802704Y-93704580D02*
X173850323Y-93609342D01*
X173850323Y-93609342D02*
X173850323Y-92799819D01*
X174231276Y-92799819D02*
X174897942Y-92799819D01*
X174897942Y-92799819D02*
X174469371Y-93799819D01*
X102357433Y-108419819D02*
X101786005Y-108419819D01*
X102071719Y-108419819D02*
X102071719Y-107419819D01*
X102071719Y-107419819D02*
X101976481Y-107562676D01*
X101976481Y-107562676D02*
X101881243Y-107657914D01*
X101881243Y-107657914D02*
X101786005Y-107705533D01*
X103262195Y-107419819D02*
X102786005Y-107419819D01*
X102786005Y-107419819D02*
X102738386Y-107896009D01*
X102738386Y-107896009D02*
X102786005Y-107848390D01*
X102786005Y-107848390D02*
X102881243Y-107800771D01*
X102881243Y-107800771D02*
X103119338Y-107800771D01*
X103119338Y-107800771D02*
X103214576Y-107848390D01*
X103214576Y-107848390D02*
X103262195Y-107896009D01*
X103262195Y-107896009D02*
X103309814Y-107991247D01*
X103309814Y-107991247D02*
X103309814Y-108229342D01*
X103309814Y-108229342D02*
X103262195Y-108324580D01*
X103262195Y-108324580D02*
X103214576Y-108372200D01*
X103214576Y-108372200D02*
X103119338Y-108419819D01*
X103119338Y-108419819D02*
X102881243Y-108419819D01*
X102881243Y-108419819D02*
X102786005Y-108372200D01*
X102786005Y-108372200D02*
X102738386Y-108324580D01*
X103928862Y-107419819D02*
X104024100Y-107419819D01*
X104024100Y-107419819D02*
X104119338Y-107467438D01*
X104119338Y-107467438D02*
X104166957Y-107515057D01*
X104166957Y-107515057D02*
X104214576Y-107610295D01*
X104214576Y-107610295D02*
X104262195Y-107800771D01*
X104262195Y-107800771D02*
X104262195Y-108038866D01*
X104262195Y-108038866D02*
X104214576Y-108229342D01*
X104214576Y-108229342D02*
X104166957Y-108324580D01*
X104166957Y-108324580D02*
X104119338Y-108372200D01*
X104119338Y-108372200D02*
X104024100Y-108419819D01*
X104024100Y-108419819D02*
X103928862Y-108419819D01*
X103928862Y-108419819D02*
X103833624Y-108372200D01*
X103833624Y-108372200D02*
X103786005Y-108324580D01*
X103786005Y-108324580D02*
X103738386Y-108229342D01*
X103738386Y-108229342D02*
X103690767Y-108038866D01*
X103690767Y-108038866D02*
X103690767Y-107800771D01*
X103690767Y-107800771D02*
X103738386Y-107610295D01*
X103738386Y-107610295D02*
X103786005Y-107515057D01*
X103786005Y-107515057D02*
X103833624Y-107467438D01*
X103833624Y-107467438D02*
X103928862Y-107419819D01*
X105262195Y-108419819D02*
X104928862Y-107943628D01*
X104690767Y-108419819D02*
X104690767Y-107419819D01*
X104690767Y-107419819D02*
X105071719Y-107419819D01*
X105071719Y-107419819D02*
X105166957Y-107467438D01*
X105166957Y-107467438D02*
X105214576Y-107515057D01*
X105214576Y-107515057D02*
X105262195Y-107610295D01*
X105262195Y-107610295D02*
X105262195Y-107753152D01*
X105262195Y-107753152D02*
X105214576Y-107848390D01*
X105214576Y-107848390D02*
X105166957Y-107896009D01*
X105166957Y-107896009D02*
X105071719Y-107943628D01*
X105071719Y-107943628D02*
X104690767Y-107943628D01*
D12*
X103404100Y-106372469D02*
X103164100Y-106029612D01*
X102992671Y-106372469D02*
X102992671Y-105652469D01*
X102992671Y-105652469D02*
X103266957Y-105652469D01*
X103266957Y-105652469D02*
X103335528Y-105686755D01*
X103335528Y-105686755D02*
X103369814Y-105721041D01*
X103369814Y-105721041D02*
X103404100Y-105789612D01*
X103404100Y-105789612D02*
X103404100Y-105892469D01*
X103404100Y-105892469D02*
X103369814Y-105961041D01*
X103369814Y-105961041D02*
X103335528Y-105995326D01*
X103335528Y-105995326D02*
X103266957Y-106029612D01*
X103266957Y-106029612D02*
X102992671Y-106029612D01*
X104021243Y-105892469D02*
X104021243Y-106372469D01*
X103849814Y-105618184D02*
X103678385Y-106132469D01*
X103678385Y-106132469D02*
X104124100Y-106132469D01*
D10*
X120140619Y-90908095D02*
X120140619Y-91384285D01*
X120140619Y-91384285D02*
X120616809Y-91431904D01*
X120616809Y-91431904D02*
X120569190Y-91384285D01*
X120569190Y-91384285D02*
X120521571Y-91289047D01*
X120521571Y-91289047D02*
X120521571Y-91050952D01*
X120521571Y-91050952D02*
X120569190Y-90955714D01*
X120569190Y-90955714D02*
X120616809Y-90908095D01*
X120616809Y-90908095D02*
X120712047Y-90860476D01*
X120712047Y-90860476D02*
X120950142Y-90860476D01*
X120950142Y-90860476D02*
X121045380Y-90908095D01*
X121045380Y-90908095D02*
X121093000Y-90955714D01*
X121093000Y-90955714D02*
X121140619Y-91050952D01*
X121140619Y-91050952D02*
X121140619Y-91289047D01*
X121140619Y-91289047D02*
X121093000Y-91384285D01*
X121093000Y-91384285D02*
X121045380Y-91431904D01*
X121140619Y-90431904D02*
X120140619Y-90431904D01*
X121140619Y-89860476D02*
X120569190Y-90289047D01*
X120140619Y-89860476D02*
X120712047Y-90431904D01*
X120140619Y-89003333D02*
X120140619Y-89193809D01*
X120140619Y-89193809D02*
X120188238Y-89289047D01*
X120188238Y-89289047D02*
X120235857Y-89336666D01*
X120235857Y-89336666D02*
X120378714Y-89431904D01*
X120378714Y-89431904D02*
X120569190Y-89479523D01*
X120569190Y-89479523D02*
X120950142Y-89479523D01*
X120950142Y-89479523D02*
X121045380Y-89431904D01*
X121045380Y-89431904D02*
X121093000Y-89384285D01*
X121093000Y-89384285D02*
X121140619Y-89289047D01*
X121140619Y-89289047D02*
X121140619Y-89098571D01*
X121140619Y-89098571D02*
X121093000Y-89003333D01*
X121093000Y-89003333D02*
X121045380Y-88955714D01*
X121045380Y-88955714D02*
X120950142Y-88908095D01*
X120950142Y-88908095D02*
X120712047Y-88908095D01*
X120712047Y-88908095D02*
X120616809Y-88955714D01*
X120616809Y-88955714D02*
X120569190Y-89003333D01*
X120569190Y-89003333D02*
X120521571Y-89098571D01*
X120521571Y-89098571D02*
X120521571Y-89289047D01*
X120521571Y-89289047D02*
X120569190Y-89384285D01*
X120569190Y-89384285D02*
X120616809Y-89431904D01*
X120616809Y-89431904D02*
X120712047Y-89479523D01*
D12*
X122933269Y-90289999D02*
X122590412Y-90529999D01*
X122933269Y-90701428D02*
X122213269Y-90701428D01*
X122213269Y-90701428D02*
X122213269Y-90427142D01*
X122213269Y-90427142D02*
X122247555Y-90358571D01*
X122247555Y-90358571D02*
X122281841Y-90324285D01*
X122281841Y-90324285D02*
X122350412Y-90289999D01*
X122350412Y-90289999D02*
X122453269Y-90289999D01*
X122453269Y-90289999D02*
X122521841Y-90324285D01*
X122521841Y-90324285D02*
X122556126Y-90358571D01*
X122556126Y-90358571D02*
X122590412Y-90427142D01*
X122590412Y-90427142D02*
X122590412Y-90701428D01*
X122933269Y-89604285D02*
X122933269Y-90015714D01*
X122933269Y-89809999D02*
X122213269Y-89809999D01*
X122213269Y-89809999D02*
X122316126Y-89878571D01*
X122316126Y-89878571D02*
X122384698Y-89947142D01*
X122384698Y-89947142D02*
X122418984Y-90015714D01*
D10*
X126312943Y-95739419D02*
X126979609Y-95739419D01*
X126979609Y-95739419D02*
X126551038Y-96739419D01*
X127789133Y-96072752D02*
X127789133Y-96739419D01*
X127551038Y-95691800D02*
X127312943Y-96406085D01*
X127312943Y-96406085D02*
X127931990Y-96406085D01*
X128789133Y-96739419D02*
X128312943Y-96739419D01*
X128312943Y-96739419D02*
X128312943Y-95739419D01*
X129074848Y-96691800D02*
X129217705Y-96739419D01*
X129217705Y-96739419D02*
X129455800Y-96739419D01*
X129455800Y-96739419D02*
X129551038Y-96691800D01*
X129551038Y-96691800D02*
X129598657Y-96644180D01*
X129598657Y-96644180D02*
X129646276Y-96548942D01*
X129646276Y-96548942D02*
X129646276Y-96453704D01*
X129646276Y-96453704D02*
X129598657Y-96358466D01*
X129598657Y-96358466D02*
X129551038Y-96310847D01*
X129551038Y-96310847D02*
X129455800Y-96263228D01*
X129455800Y-96263228D02*
X129265324Y-96215609D01*
X129265324Y-96215609D02*
X129170086Y-96167990D01*
X129170086Y-96167990D02*
X129122467Y-96120371D01*
X129122467Y-96120371D02*
X129074848Y-96025133D01*
X129074848Y-96025133D02*
X129074848Y-95929895D01*
X129074848Y-95929895D02*
X129122467Y-95834657D01*
X129122467Y-95834657D02*
X129170086Y-95787038D01*
X129170086Y-95787038D02*
X129265324Y-95739419D01*
X129265324Y-95739419D02*
X129503419Y-95739419D01*
X129503419Y-95739419D02*
X129646276Y-95787038D01*
X129979610Y-95739419D02*
X130598657Y-95739419D01*
X130598657Y-95739419D02*
X130265324Y-96120371D01*
X130265324Y-96120371D02*
X130408181Y-96120371D01*
X130408181Y-96120371D02*
X130503419Y-96167990D01*
X130503419Y-96167990D02*
X130551038Y-96215609D01*
X130551038Y-96215609D02*
X130598657Y-96310847D01*
X130598657Y-96310847D02*
X130598657Y-96548942D01*
X130598657Y-96548942D02*
X130551038Y-96644180D01*
X130551038Y-96644180D02*
X130503419Y-96691800D01*
X130503419Y-96691800D02*
X130408181Y-96739419D01*
X130408181Y-96739419D02*
X130122467Y-96739419D01*
X130122467Y-96739419D02*
X130027229Y-96691800D01*
X130027229Y-96691800D02*
X129979610Y-96644180D01*
X131170086Y-96167990D02*
X131074848Y-96120371D01*
X131074848Y-96120371D02*
X131027229Y-96072752D01*
X131027229Y-96072752D02*
X130979610Y-95977514D01*
X130979610Y-95977514D02*
X130979610Y-95929895D01*
X130979610Y-95929895D02*
X131027229Y-95834657D01*
X131027229Y-95834657D02*
X131074848Y-95787038D01*
X131074848Y-95787038D02*
X131170086Y-95739419D01*
X131170086Y-95739419D02*
X131360562Y-95739419D01*
X131360562Y-95739419D02*
X131455800Y-95787038D01*
X131455800Y-95787038D02*
X131503419Y-95834657D01*
X131503419Y-95834657D02*
X131551038Y-95929895D01*
X131551038Y-95929895D02*
X131551038Y-95977514D01*
X131551038Y-95977514D02*
X131503419Y-96072752D01*
X131503419Y-96072752D02*
X131455800Y-96120371D01*
X131455800Y-96120371D02*
X131360562Y-96167990D01*
X131360562Y-96167990D02*
X131170086Y-96167990D01*
X131170086Y-96167990D02*
X131074848Y-96215609D01*
X131074848Y-96215609D02*
X131027229Y-96263228D01*
X131027229Y-96263228D02*
X130979610Y-96358466D01*
X130979610Y-96358466D02*
X130979610Y-96548942D01*
X130979610Y-96548942D02*
X131027229Y-96644180D01*
X131027229Y-96644180D02*
X131074848Y-96691800D01*
X131074848Y-96691800D02*
X131170086Y-96739419D01*
X131170086Y-96739419D02*
X131360562Y-96739419D01*
X131360562Y-96739419D02*
X131455800Y-96691800D01*
X131455800Y-96691800D02*
X131503419Y-96644180D01*
X131503419Y-96644180D02*
X131551038Y-96548942D01*
X131551038Y-96548942D02*
X131551038Y-96358466D01*
X131551038Y-96358466D02*
X131503419Y-96263228D01*
X131503419Y-96263228D02*
X131455800Y-96215609D01*
X131455800Y-96215609D02*
X131360562Y-96167990D01*
X128193895Y-85789419D02*
X128193895Y-86598942D01*
X128193895Y-86598942D02*
X128241514Y-86694180D01*
X128241514Y-86694180D02*
X128289133Y-86741800D01*
X128289133Y-86741800D02*
X128384371Y-86789419D01*
X128384371Y-86789419D02*
X128574847Y-86789419D01*
X128574847Y-86789419D02*
X128670085Y-86741800D01*
X128670085Y-86741800D02*
X128717704Y-86694180D01*
X128717704Y-86694180D02*
X128765323Y-86598942D01*
X128765323Y-86598942D02*
X128765323Y-85789419D01*
X129670085Y-86122752D02*
X129670085Y-86789419D01*
X129431990Y-85741800D02*
X129193895Y-86456085D01*
X129193895Y-86456085D02*
X129812942Y-86456085D01*
X114748180Y-98270219D02*
X114176752Y-98270219D01*
X114462466Y-98270219D02*
X114462466Y-97270219D01*
X114462466Y-97270219D02*
X114367228Y-97413076D01*
X114367228Y-97413076D02*
X114271990Y-97508314D01*
X114271990Y-97508314D02*
X114176752Y-97555933D01*
X115367228Y-97270219D02*
X115462466Y-97270219D01*
X115462466Y-97270219D02*
X115557704Y-97317838D01*
X115557704Y-97317838D02*
X115605323Y-97365457D01*
X115605323Y-97365457D02*
X115652942Y-97460695D01*
X115652942Y-97460695D02*
X115700561Y-97651171D01*
X115700561Y-97651171D02*
X115700561Y-97889266D01*
X115700561Y-97889266D02*
X115652942Y-98079742D01*
X115652942Y-98079742D02*
X115605323Y-98174980D01*
X115605323Y-98174980D02*
X115557704Y-98222600D01*
X115557704Y-98222600D02*
X115462466Y-98270219D01*
X115462466Y-98270219D02*
X115367228Y-98270219D01*
X115367228Y-98270219D02*
X115271990Y-98222600D01*
X115271990Y-98222600D02*
X115224371Y-98174980D01*
X115224371Y-98174980D02*
X115176752Y-98079742D01*
X115176752Y-98079742D02*
X115129133Y-97889266D01*
X115129133Y-97889266D02*
X115129133Y-97651171D01*
X115129133Y-97651171D02*
X115176752Y-97460695D01*
X115176752Y-97460695D02*
X115224371Y-97365457D01*
X115224371Y-97365457D02*
X115271990Y-97317838D01*
X115271990Y-97317838D02*
X115367228Y-97270219D01*
X116319609Y-97270219D02*
X116414847Y-97270219D01*
X116414847Y-97270219D02*
X116510085Y-97317838D01*
X116510085Y-97317838D02*
X116557704Y-97365457D01*
X116557704Y-97365457D02*
X116605323Y-97460695D01*
X116605323Y-97460695D02*
X116652942Y-97651171D01*
X116652942Y-97651171D02*
X116652942Y-97889266D01*
X116652942Y-97889266D02*
X116605323Y-98079742D01*
X116605323Y-98079742D02*
X116557704Y-98174980D01*
X116557704Y-98174980D02*
X116510085Y-98222600D01*
X116510085Y-98222600D02*
X116414847Y-98270219D01*
X116414847Y-98270219D02*
X116319609Y-98270219D01*
X116319609Y-98270219D02*
X116224371Y-98222600D01*
X116224371Y-98222600D02*
X116176752Y-98174980D01*
X116176752Y-98174980D02*
X116129133Y-98079742D01*
X116129133Y-98079742D02*
X116081514Y-97889266D01*
X116081514Y-97889266D02*
X116081514Y-97651171D01*
X116081514Y-97651171D02*
X116129133Y-97460695D01*
X116129133Y-97460695D02*
X116176752Y-97365457D01*
X116176752Y-97365457D02*
X116224371Y-97317838D01*
X116224371Y-97317838D02*
X116319609Y-97270219D01*
X117081514Y-97603552D02*
X117081514Y-98270219D01*
X117081514Y-97698790D02*
X117129133Y-97651171D01*
X117129133Y-97651171D02*
X117224371Y-97603552D01*
X117224371Y-97603552D02*
X117367228Y-97603552D01*
X117367228Y-97603552D02*
X117462466Y-97651171D01*
X117462466Y-97651171D02*
X117510085Y-97746409D01*
X117510085Y-97746409D02*
X117510085Y-98270219D01*
X118319609Y-97746409D02*
X117986276Y-97746409D01*
X117986276Y-98270219D02*
X117986276Y-97270219D01*
X117986276Y-97270219D02*
X118462466Y-97270219D01*
D11*
X115390466Y-96067240D02*
X115349514Y-96108193D01*
X115349514Y-96108193D02*
X115226656Y-96149145D01*
X115226656Y-96149145D02*
X115144752Y-96149145D01*
X115144752Y-96149145D02*
X115021895Y-96108193D01*
X115021895Y-96108193D02*
X114939990Y-96026288D01*
X114939990Y-96026288D02*
X114899037Y-95944383D01*
X114899037Y-95944383D02*
X114858085Y-95780573D01*
X114858085Y-95780573D02*
X114858085Y-95657716D01*
X114858085Y-95657716D02*
X114899037Y-95493907D01*
X114899037Y-95493907D02*
X114939990Y-95412002D01*
X114939990Y-95412002D02*
X115021895Y-95330097D01*
X115021895Y-95330097D02*
X115144752Y-95289145D01*
X115144752Y-95289145D02*
X115226656Y-95289145D01*
X115226656Y-95289145D02*
X115349514Y-95330097D01*
X115349514Y-95330097D02*
X115390466Y-95371050D01*
X115881895Y-95657716D02*
X115799990Y-95616764D01*
X115799990Y-95616764D02*
X115759037Y-95575812D01*
X115759037Y-95575812D02*
X115718085Y-95493907D01*
X115718085Y-95493907D02*
X115718085Y-95452954D01*
X115718085Y-95452954D02*
X115759037Y-95371050D01*
X115759037Y-95371050D02*
X115799990Y-95330097D01*
X115799990Y-95330097D02*
X115881895Y-95289145D01*
X115881895Y-95289145D02*
X116045704Y-95289145D01*
X116045704Y-95289145D02*
X116127609Y-95330097D01*
X116127609Y-95330097D02*
X116168561Y-95371050D01*
X116168561Y-95371050D02*
X116209514Y-95452954D01*
X116209514Y-95452954D02*
X116209514Y-95493907D01*
X116209514Y-95493907D02*
X116168561Y-95575812D01*
X116168561Y-95575812D02*
X116127609Y-95616764D01*
X116127609Y-95616764D02*
X116045704Y-95657716D01*
X116045704Y-95657716D02*
X115881895Y-95657716D01*
X115881895Y-95657716D02*
X115799990Y-95698669D01*
X115799990Y-95698669D02*
X115759037Y-95739621D01*
X115759037Y-95739621D02*
X115718085Y-95821526D01*
X115718085Y-95821526D02*
X115718085Y-95985335D01*
X115718085Y-95985335D02*
X115759037Y-96067240D01*
X115759037Y-96067240D02*
X115799990Y-96108193D01*
X115799990Y-96108193D02*
X115881895Y-96149145D01*
X115881895Y-96149145D02*
X116045704Y-96149145D01*
X116045704Y-96149145D02*
X116127609Y-96108193D01*
X116127609Y-96108193D02*
X116168561Y-96067240D01*
X116168561Y-96067240D02*
X116209514Y-95985335D01*
X116209514Y-95985335D02*
X116209514Y-95821526D01*
X116209514Y-95821526D02*
X116168561Y-95739621D01*
X116168561Y-95739621D02*
X116127609Y-95698669D01*
X116127609Y-95698669D02*
X116045704Y-95657716D01*
D10*
X140282943Y-117989819D02*
X140949609Y-117989819D01*
X140949609Y-117989819D02*
X140521038Y-118989819D01*
X141759133Y-118323152D02*
X141759133Y-118989819D01*
X141521038Y-117942200D02*
X141282943Y-118656485D01*
X141282943Y-118656485D02*
X141901990Y-118656485D01*
X142759133Y-118989819D02*
X142282943Y-118989819D01*
X142282943Y-118989819D02*
X142282943Y-117989819D01*
X143044848Y-118942200D02*
X143187705Y-118989819D01*
X143187705Y-118989819D02*
X143425800Y-118989819D01*
X143425800Y-118989819D02*
X143521038Y-118942200D01*
X143521038Y-118942200D02*
X143568657Y-118894580D01*
X143568657Y-118894580D02*
X143616276Y-118799342D01*
X143616276Y-118799342D02*
X143616276Y-118704104D01*
X143616276Y-118704104D02*
X143568657Y-118608866D01*
X143568657Y-118608866D02*
X143521038Y-118561247D01*
X143521038Y-118561247D02*
X143425800Y-118513628D01*
X143425800Y-118513628D02*
X143235324Y-118466009D01*
X143235324Y-118466009D02*
X143140086Y-118418390D01*
X143140086Y-118418390D02*
X143092467Y-118370771D01*
X143092467Y-118370771D02*
X143044848Y-118275533D01*
X143044848Y-118275533D02*
X143044848Y-118180295D01*
X143044848Y-118180295D02*
X143092467Y-118085057D01*
X143092467Y-118085057D02*
X143140086Y-118037438D01*
X143140086Y-118037438D02*
X143235324Y-117989819D01*
X143235324Y-117989819D02*
X143473419Y-117989819D01*
X143473419Y-117989819D02*
X143616276Y-118037438D01*
X144568657Y-118989819D02*
X143997229Y-118989819D01*
X144282943Y-118989819D02*
X144282943Y-117989819D01*
X144282943Y-117989819D02*
X144187705Y-118132676D01*
X144187705Y-118132676D02*
X144092467Y-118227914D01*
X144092467Y-118227914D02*
X143997229Y-118275533D01*
X145521038Y-118989819D02*
X144949610Y-118989819D01*
X145235324Y-118989819D02*
X145235324Y-117989819D01*
X145235324Y-117989819D02*
X145140086Y-118132676D01*
X145140086Y-118132676D02*
X145044848Y-118227914D01*
X145044848Y-118227914D02*
X144949610Y-118275533D01*
X141687705Y-108039819D02*
X141687705Y-108849342D01*
X141687705Y-108849342D02*
X141735324Y-108944580D01*
X141735324Y-108944580D02*
X141782943Y-108992200D01*
X141782943Y-108992200D02*
X141878181Y-109039819D01*
X141878181Y-109039819D02*
X142068657Y-109039819D01*
X142068657Y-109039819D02*
X142163895Y-108992200D01*
X142163895Y-108992200D02*
X142211514Y-108944580D01*
X142211514Y-108944580D02*
X142259133Y-108849342D01*
X142259133Y-108849342D02*
X142259133Y-108039819D01*
X143259133Y-109039819D02*
X142687705Y-109039819D01*
X142973419Y-109039819D02*
X142973419Y-108039819D01*
X142973419Y-108039819D02*
X142878181Y-108182676D01*
X142878181Y-108182676D02*
X142782943Y-108277914D01*
X142782943Y-108277914D02*
X142687705Y-108325533D01*
X143878181Y-108039819D02*
X143973419Y-108039819D01*
X143973419Y-108039819D02*
X144068657Y-108087438D01*
X144068657Y-108087438D02*
X144116276Y-108135057D01*
X144116276Y-108135057D02*
X144163895Y-108230295D01*
X144163895Y-108230295D02*
X144211514Y-108420771D01*
X144211514Y-108420771D02*
X144211514Y-108658866D01*
X144211514Y-108658866D02*
X144163895Y-108849342D01*
X144163895Y-108849342D02*
X144116276Y-108944580D01*
X144116276Y-108944580D02*
X144068657Y-108992200D01*
X144068657Y-108992200D02*
X143973419Y-109039819D01*
X143973419Y-109039819D02*
X143878181Y-109039819D01*
X143878181Y-109039819D02*
X143782943Y-108992200D01*
X143782943Y-108992200D02*
X143735324Y-108944580D01*
X143735324Y-108944580D02*
X143687705Y-108849342D01*
X143687705Y-108849342D02*
X143640086Y-108658866D01*
X143640086Y-108658866D02*
X143640086Y-108420771D01*
X143640086Y-108420771D02*
X143687705Y-108230295D01*
X143687705Y-108230295D02*
X143735324Y-108135057D01*
X143735324Y-108135057D02*
X143782943Y-108087438D01*
X143782943Y-108087438D02*
X143878181Y-108039819D01*
X147657619Y-105012619D02*
X147657619Y-105584047D01*
X147657619Y-105298333D02*
X146657619Y-105298333D01*
X146657619Y-105298333D02*
X146800476Y-105393571D01*
X146800476Y-105393571D02*
X146895714Y-105488809D01*
X146895714Y-105488809D02*
X146943333Y-105584047D01*
X146657619Y-104393571D02*
X146657619Y-104298333D01*
X146657619Y-104298333D02*
X146705238Y-104203095D01*
X146705238Y-104203095D02*
X146752857Y-104155476D01*
X146752857Y-104155476D02*
X146848095Y-104107857D01*
X146848095Y-104107857D02*
X147038571Y-104060238D01*
X147038571Y-104060238D02*
X147276666Y-104060238D01*
X147276666Y-104060238D02*
X147467142Y-104107857D01*
X147467142Y-104107857D02*
X147562380Y-104155476D01*
X147562380Y-104155476D02*
X147610000Y-104203095D01*
X147610000Y-104203095D02*
X147657619Y-104298333D01*
X147657619Y-104298333D02*
X147657619Y-104393571D01*
X147657619Y-104393571D02*
X147610000Y-104488809D01*
X147610000Y-104488809D02*
X147562380Y-104536428D01*
X147562380Y-104536428D02*
X147467142Y-104584047D01*
X147467142Y-104584047D02*
X147276666Y-104631666D01*
X147276666Y-104631666D02*
X147038571Y-104631666D01*
X147038571Y-104631666D02*
X146848095Y-104584047D01*
X146848095Y-104584047D02*
X146752857Y-104536428D01*
X146752857Y-104536428D02*
X146705238Y-104488809D01*
X146705238Y-104488809D02*
X146657619Y-104393571D01*
X146657619Y-103441190D02*
X146657619Y-103345952D01*
X146657619Y-103345952D02*
X146705238Y-103250714D01*
X146705238Y-103250714D02*
X146752857Y-103203095D01*
X146752857Y-103203095D02*
X146848095Y-103155476D01*
X146848095Y-103155476D02*
X147038571Y-103107857D01*
X147038571Y-103107857D02*
X147276666Y-103107857D01*
X147276666Y-103107857D02*
X147467142Y-103155476D01*
X147467142Y-103155476D02*
X147562380Y-103203095D01*
X147562380Y-103203095D02*
X147610000Y-103250714D01*
X147610000Y-103250714D02*
X147657619Y-103345952D01*
X147657619Y-103345952D02*
X147657619Y-103441190D01*
X147657619Y-103441190D02*
X147610000Y-103536428D01*
X147610000Y-103536428D02*
X147562380Y-103584047D01*
X147562380Y-103584047D02*
X147467142Y-103631666D01*
X147467142Y-103631666D02*
X147276666Y-103679285D01*
X147276666Y-103679285D02*
X147038571Y-103679285D01*
X147038571Y-103679285D02*
X146848095Y-103631666D01*
X146848095Y-103631666D02*
X146752857Y-103584047D01*
X146752857Y-103584047D02*
X146705238Y-103536428D01*
X146705238Y-103536428D02*
X146657619Y-103441190D01*
X146990952Y-102679285D02*
X147657619Y-102679285D01*
X147086190Y-102679285D02*
X147038571Y-102631666D01*
X147038571Y-102631666D02*
X146990952Y-102536428D01*
X146990952Y-102536428D02*
X146990952Y-102393571D01*
X146990952Y-102393571D02*
X147038571Y-102298333D01*
X147038571Y-102298333D02*
X147133809Y-102250714D01*
X147133809Y-102250714D02*
X147657619Y-102250714D01*
X147133809Y-101441190D02*
X147133809Y-101774523D01*
X147657619Y-101774523D02*
X146657619Y-101774523D01*
X146657619Y-101774523D02*
X146657619Y-101298333D01*
D11*
X149712040Y-104017857D02*
X149752993Y-104058809D01*
X149752993Y-104058809D02*
X149793945Y-104181667D01*
X149793945Y-104181667D02*
X149793945Y-104263571D01*
X149793945Y-104263571D02*
X149752993Y-104386428D01*
X149752993Y-104386428D02*
X149671088Y-104468333D01*
X149671088Y-104468333D02*
X149589183Y-104509286D01*
X149589183Y-104509286D02*
X149425373Y-104550238D01*
X149425373Y-104550238D02*
X149302516Y-104550238D01*
X149302516Y-104550238D02*
X149138707Y-104509286D01*
X149138707Y-104509286D02*
X149056802Y-104468333D01*
X149056802Y-104468333D02*
X148974897Y-104386428D01*
X148974897Y-104386428D02*
X148933945Y-104263571D01*
X148933945Y-104263571D02*
X148933945Y-104181667D01*
X148933945Y-104181667D02*
X148974897Y-104058809D01*
X148974897Y-104058809D02*
X149015850Y-104017857D01*
X149793945Y-103198809D02*
X149793945Y-103690238D01*
X149793945Y-103444524D02*
X148933945Y-103444524D01*
X148933945Y-103444524D02*
X149056802Y-103526428D01*
X149056802Y-103526428D02*
X149138707Y-103608333D01*
X149138707Y-103608333D02*
X149179659Y-103690238D01*
X148933945Y-102666428D02*
X148933945Y-102584523D01*
X148933945Y-102584523D02*
X148974897Y-102502619D01*
X148974897Y-102502619D02*
X149015850Y-102461666D01*
X149015850Y-102461666D02*
X149097754Y-102420714D01*
X149097754Y-102420714D02*
X149261564Y-102379761D01*
X149261564Y-102379761D02*
X149466326Y-102379761D01*
X149466326Y-102379761D02*
X149630135Y-102420714D01*
X149630135Y-102420714D02*
X149712040Y-102461666D01*
X149712040Y-102461666D02*
X149752993Y-102502619D01*
X149752993Y-102502619D02*
X149793945Y-102584523D01*
X149793945Y-102584523D02*
X149793945Y-102666428D01*
X149793945Y-102666428D02*
X149752993Y-102748333D01*
X149752993Y-102748333D02*
X149712040Y-102789285D01*
X149712040Y-102789285D02*
X149630135Y-102830238D01*
X149630135Y-102830238D02*
X149466326Y-102871190D01*
X149466326Y-102871190D02*
X149261564Y-102871190D01*
X149261564Y-102871190D02*
X149097754Y-102830238D01*
X149097754Y-102830238D02*
X149015850Y-102789285D01*
X149015850Y-102789285D02*
X148974897Y-102748333D01*
X148974897Y-102748333D02*
X148933945Y-102666428D01*
D10*
X146836019Y-91455713D02*
X146836019Y-90836666D01*
X146836019Y-90836666D02*
X147216971Y-91169999D01*
X147216971Y-91169999D02*
X147216971Y-91027142D01*
X147216971Y-91027142D02*
X147264590Y-90931904D01*
X147264590Y-90931904D02*
X147312209Y-90884285D01*
X147312209Y-90884285D02*
X147407447Y-90836666D01*
X147407447Y-90836666D02*
X147645542Y-90836666D01*
X147645542Y-90836666D02*
X147740780Y-90884285D01*
X147740780Y-90884285D02*
X147788400Y-90931904D01*
X147788400Y-90931904D02*
X147836019Y-91027142D01*
X147836019Y-91027142D02*
X147836019Y-91312856D01*
X147836019Y-91312856D02*
X147788400Y-91408094D01*
X147788400Y-91408094D02*
X147740780Y-91455713D01*
X146836019Y-90503332D02*
X146836019Y-89884285D01*
X146836019Y-89884285D02*
X147216971Y-90217618D01*
X147216971Y-90217618D02*
X147216971Y-90074761D01*
X147216971Y-90074761D02*
X147264590Y-89979523D01*
X147264590Y-89979523D02*
X147312209Y-89931904D01*
X147312209Y-89931904D02*
X147407447Y-89884285D01*
X147407447Y-89884285D02*
X147645542Y-89884285D01*
X147645542Y-89884285D02*
X147740780Y-89931904D01*
X147740780Y-89931904D02*
X147788400Y-89979523D01*
X147788400Y-89979523D02*
X147836019Y-90074761D01*
X147836019Y-90074761D02*
X147836019Y-90360475D01*
X147836019Y-90360475D02*
X147788400Y-90455713D01*
X147788400Y-90455713D02*
X147740780Y-90503332D01*
X146836019Y-89265237D02*
X146836019Y-89169999D01*
X146836019Y-89169999D02*
X146883638Y-89074761D01*
X146883638Y-89074761D02*
X146931257Y-89027142D01*
X146931257Y-89027142D02*
X147026495Y-88979523D01*
X147026495Y-88979523D02*
X147216971Y-88931904D01*
X147216971Y-88931904D02*
X147455066Y-88931904D01*
X147455066Y-88931904D02*
X147645542Y-88979523D01*
X147645542Y-88979523D02*
X147740780Y-89027142D01*
X147740780Y-89027142D02*
X147788400Y-89074761D01*
X147788400Y-89074761D02*
X147836019Y-89169999D01*
X147836019Y-89169999D02*
X147836019Y-89265237D01*
X147836019Y-89265237D02*
X147788400Y-89360475D01*
X147788400Y-89360475D02*
X147740780Y-89408094D01*
X147740780Y-89408094D02*
X147645542Y-89455713D01*
X147645542Y-89455713D02*
X147455066Y-89503332D01*
X147455066Y-89503332D02*
X147216971Y-89503332D01*
X147216971Y-89503332D02*
X147026495Y-89455713D01*
X147026495Y-89455713D02*
X146931257Y-89408094D01*
X146931257Y-89408094D02*
X146883638Y-89360475D01*
X146883638Y-89360475D02*
X146836019Y-89265237D01*
D12*
X149628669Y-90289999D02*
X149285812Y-90529999D01*
X149628669Y-90701428D02*
X148908669Y-90701428D01*
X148908669Y-90701428D02*
X148908669Y-90427142D01*
X148908669Y-90427142D02*
X148942955Y-90358571D01*
X148942955Y-90358571D02*
X148977241Y-90324285D01*
X148977241Y-90324285D02*
X149045812Y-90289999D01*
X149045812Y-90289999D02*
X149148669Y-90289999D01*
X149148669Y-90289999D02*
X149217241Y-90324285D01*
X149217241Y-90324285D02*
X149251526Y-90358571D01*
X149251526Y-90358571D02*
X149285812Y-90427142D01*
X149285812Y-90427142D02*
X149285812Y-90701428D01*
X148908669Y-90049999D02*
X148908669Y-89604285D01*
X148908669Y-89604285D02*
X149182955Y-89844285D01*
X149182955Y-89844285D02*
X149182955Y-89741428D01*
X149182955Y-89741428D02*
X149217241Y-89672857D01*
X149217241Y-89672857D02*
X149251526Y-89638571D01*
X149251526Y-89638571D02*
X149320098Y-89604285D01*
X149320098Y-89604285D02*
X149491526Y-89604285D01*
X149491526Y-89604285D02*
X149560098Y-89638571D01*
X149560098Y-89638571D02*
X149594384Y-89672857D01*
X149594384Y-89672857D02*
X149628669Y-89741428D01*
X149628669Y-89741428D02*
X149628669Y-89947142D01*
X149628669Y-89947142D02*
X149594384Y-90015714D01*
X149594384Y-90015714D02*
X149560098Y-90049999D01*
D10*
X166971738Y-118149219D02*
X166971738Y-117149219D01*
X166971738Y-117149219D02*
X167305071Y-117863504D01*
X167305071Y-117863504D02*
X167638404Y-117149219D01*
X167638404Y-117149219D02*
X167638404Y-118149219D01*
X168257452Y-118149219D02*
X168162214Y-118101600D01*
X168162214Y-118101600D02*
X168114595Y-118053980D01*
X168114595Y-118053980D02*
X168066976Y-117958742D01*
X168066976Y-117958742D02*
X168066976Y-117673028D01*
X168066976Y-117673028D02*
X168114595Y-117577790D01*
X168114595Y-117577790D02*
X168162214Y-117530171D01*
X168162214Y-117530171D02*
X168257452Y-117482552D01*
X168257452Y-117482552D02*
X168400309Y-117482552D01*
X168400309Y-117482552D02*
X168495547Y-117530171D01*
X168495547Y-117530171D02*
X168543166Y-117577790D01*
X168543166Y-117577790D02*
X168590785Y-117673028D01*
X168590785Y-117673028D02*
X168590785Y-117958742D01*
X168590785Y-117958742D02*
X168543166Y-118053980D01*
X168543166Y-118053980D02*
X168495547Y-118101600D01*
X168495547Y-118101600D02*
X168400309Y-118149219D01*
X168400309Y-118149219D02*
X168257452Y-118149219D01*
X169447928Y-117482552D02*
X169447928Y-118149219D01*
X169019357Y-117482552D02*
X169019357Y-118006361D01*
X169019357Y-118006361D02*
X169066976Y-118101600D01*
X169066976Y-118101600D02*
X169162214Y-118149219D01*
X169162214Y-118149219D02*
X169305071Y-118149219D01*
X169305071Y-118149219D02*
X169400309Y-118101600D01*
X169400309Y-118101600D02*
X169447928Y-118053980D01*
X169924119Y-117482552D02*
X169924119Y-118149219D01*
X169924119Y-117577790D02*
X169971738Y-117530171D01*
X169971738Y-117530171D02*
X170066976Y-117482552D01*
X170066976Y-117482552D02*
X170209833Y-117482552D01*
X170209833Y-117482552D02*
X170305071Y-117530171D01*
X170305071Y-117530171D02*
X170352690Y-117625409D01*
X170352690Y-117625409D02*
X170352690Y-118149219D01*
X170686024Y-117482552D02*
X171066976Y-117482552D01*
X170828881Y-117149219D02*
X170828881Y-118006361D01*
X170828881Y-118006361D02*
X170876500Y-118101600D01*
X170876500Y-118101600D02*
X170971738Y-118149219D01*
X170971738Y-118149219D02*
X171066976Y-118149219D01*
X171400310Y-118149219D02*
X171400310Y-117482552D01*
X171400310Y-117149219D02*
X171352691Y-117196838D01*
X171352691Y-117196838D02*
X171400310Y-117244457D01*
X171400310Y-117244457D02*
X171447929Y-117196838D01*
X171447929Y-117196838D02*
X171400310Y-117149219D01*
X171400310Y-117149219D02*
X171400310Y-117244457D01*
X171876500Y-117482552D02*
X171876500Y-118149219D01*
X171876500Y-117577790D02*
X171924119Y-117530171D01*
X171924119Y-117530171D02*
X172019357Y-117482552D01*
X172019357Y-117482552D02*
X172162214Y-117482552D01*
X172162214Y-117482552D02*
X172257452Y-117530171D01*
X172257452Y-117530171D02*
X172305071Y-117625409D01*
X172305071Y-117625409D02*
X172305071Y-118149219D01*
X173209833Y-117482552D02*
X173209833Y-118292076D01*
X173209833Y-118292076D02*
X173162214Y-118387314D01*
X173162214Y-118387314D02*
X173114595Y-118434933D01*
X173114595Y-118434933D02*
X173019357Y-118482552D01*
X173019357Y-118482552D02*
X172876500Y-118482552D01*
X172876500Y-118482552D02*
X172781262Y-118434933D01*
X173209833Y-118101600D02*
X173114595Y-118149219D01*
X173114595Y-118149219D02*
X172924119Y-118149219D01*
X172924119Y-118149219D02*
X172828881Y-118101600D01*
X172828881Y-118101600D02*
X172781262Y-118053980D01*
X172781262Y-118053980D02*
X172733643Y-117958742D01*
X172733643Y-117958742D02*
X172733643Y-117673028D01*
X172733643Y-117673028D02*
X172781262Y-117577790D01*
X172781262Y-117577790D02*
X172828881Y-117530171D01*
X172828881Y-117530171D02*
X172924119Y-117482552D01*
X172924119Y-117482552D02*
X173114595Y-117482552D01*
X173114595Y-117482552D02*
X173209833Y-117530171D01*
X173686024Y-118149219D02*
X173686024Y-117149219D01*
X173686024Y-117625409D02*
X174257452Y-117625409D01*
X174257452Y-118149219D02*
X174257452Y-117149219D01*
X174876500Y-118149219D02*
X174781262Y-118101600D01*
X174781262Y-118101600D02*
X174733643Y-118053980D01*
X174733643Y-118053980D02*
X174686024Y-117958742D01*
X174686024Y-117958742D02*
X174686024Y-117673028D01*
X174686024Y-117673028D02*
X174733643Y-117577790D01*
X174733643Y-117577790D02*
X174781262Y-117530171D01*
X174781262Y-117530171D02*
X174876500Y-117482552D01*
X174876500Y-117482552D02*
X175019357Y-117482552D01*
X175019357Y-117482552D02*
X175114595Y-117530171D01*
X175114595Y-117530171D02*
X175162214Y-117577790D01*
X175162214Y-117577790D02*
X175209833Y-117673028D01*
X175209833Y-117673028D02*
X175209833Y-117958742D01*
X175209833Y-117958742D02*
X175162214Y-118053980D01*
X175162214Y-118053980D02*
X175114595Y-118101600D01*
X175114595Y-118101600D02*
X175019357Y-118149219D01*
X175019357Y-118149219D02*
X174876500Y-118149219D01*
X175781262Y-118149219D02*
X175686024Y-118101600D01*
X175686024Y-118101600D02*
X175638405Y-118006361D01*
X175638405Y-118006361D02*
X175638405Y-117149219D01*
X176543167Y-118101600D02*
X176447929Y-118149219D01*
X176447929Y-118149219D02*
X176257453Y-118149219D01*
X176257453Y-118149219D02*
X176162215Y-118101600D01*
X176162215Y-118101600D02*
X176114596Y-118006361D01*
X176114596Y-118006361D02*
X176114596Y-117625409D01*
X176114596Y-117625409D02*
X176162215Y-117530171D01*
X176162215Y-117530171D02*
X176257453Y-117482552D01*
X176257453Y-117482552D02*
X176447929Y-117482552D01*
X176447929Y-117482552D02*
X176543167Y-117530171D01*
X176543167Y-117530171D02*
X176590786Y-117625409D01*
X176590786Y-117625409D02*
X176590786Y-117720647D01*
X176590786Y-117720647D02*
X176114596Y-117815885D01*
X176781263Y-118244457D02*
X177543167Y-118244457D01*
X177733644Y-117244457D02*
X177781263Y-117196838D01*
X177781263Y-117196838D02*
X177876501Y-117149219D01*
X177876501Y-117149219D02*
X178114596Y-117149219D01*
X178114596Y-117149219D02*
X178209834Y-117196838D01*
X178209834Y-117196838D02*
X178257453Y-117244457D01*
X178257453Y-117244457D02*
X178305072Y-117339695D01*
X178305072Y-117339695D02*
X178305072Y-117434933D01*
X178305072Y-117434933D02*
X178257453Y-117577790D01*
X178257453Y-117577790D02*
X177686025Y-118149219D01*
X177686025Y-118149219D02*
X178305072Y-118149219D01*
X178733644Y-118053980D02*
X178781263Y-118101600D01*
X178781263Y-118101600D02*
X178733644Y-118149219D01*
X178733644Y-118149219D02*
X178686025Y-118101600D01*
X178686025Y-118101600D02*
X178733644Y-118053980D01*
X178733644Y-118053980D02*
X178733644Y-118149219D01*
X179114596Y-117149219D02*
X179781262Y-117149219D01*
X179781262Y-117149219D02*
X179352691Y-118149219D01*
X180162215Y-118149219D02*
X180162215Y-117482552D01*
X180162215Y-117577790D02*
X180209834Y-117530171D01*
X180209834Y-117530171D02*
X180305072Y-117482552D01*
X180305072Y-117482552D02*
X180447929Y-117482552D01*
X180447929Y-117482552D02*
X180543167Y-117530171D01*
X180543167Y-117530171D02*
X180590786Y-117625409D01*
X180590786Y-117625409D02*
X180590786Y-118149219D01*
X180590786Y-117625409D02*
X180638405Y-117530171D01*
X180638405Y-117530171D02*
X180733643Y-117482552D01*
X180733643Y-117482552D02*
X180876500Y-117482552D01*
X180876500Y-117482552D02*
X180971739Y-117530171D01*
X180971739Y-117530171D02*
X181019358Y-117625409D01*
X181019358Y-117625409D02*
X181019358Y-118149219D01*
X181495548Y-118149219D02*
X181495548Y-117482552D01*
X181495548Y-117577790D02*
X181543167Y-117530171D01*
X181543167Y-117530171D02*
X181638405Y-117482552D01*
X181638405Y-117482552D02*
X181781262Y-117482552D01*
X181781262Y-117482552D02*
X181876500Y-117530171D01*
X181876500Y-117530171D02*
X181924119Y-117625409D01*
X181924119Y-117625409D02*
X181924119Y-118149219D01*
X181924119Y-117625409D02*
X181971738Y-117530171D01*
X181971738Y-117530171D02*
X182066976Y-117482552D01*
X182066976Y-117482552D02*
X182209833Y-117482552D01*
X182209833Y-117482552D02*
X182305072Y-117530171D01*
X182305072Y-117530171D02*
X182352691Y-117625409D01*
X182352691Y-117625409D02*
X182352691Y-118149219D01*
X182590786Y-118244457D02*
X183352690Y-118244457D01*
X183590786Y-118149219D02*
X183590786Y-117149219D01*
X183590786Y-117149219D02*
X183924119Y-117863504D01*
X183924119Y-117863504D02*
X184257452Y-117149219D01*
X184257452Y-117149219D02*
X184257452Y-118149219D01*
X184686024Y-117244457D02*
X184733643Y-117196838D01*
X184733643Y-117196838D02*
X184828881Y-117149219D01*
X184828881Y-117149219D02*
X185066976Y-117149219D01*
X185066976Y-117149219D02*
X185162214Y-117196838D01*
X185162214Y-117196838D02*
X185209833Y-117244457D01*
X185209833Y-117244457D02*
X185257452Y-117339695D01*
X185257452Y-117339695D02*
X185257452Y-117434933D01*
X185257452Y-117434933D02*
X185209833Y-117577790D01*
X185209833Y-117577790D02*
X184638405Y-118149219D01*
X184638405Y-118149219D02*
X185257452Y-118149219D01*
X185686024Y-118053980D02*
X185733643Y-118101600D01*
X185733643Y-118101600D02*
X185686024Y-118149219D01*
X185686024Y-118149219D02*
X185638405Y-118101600D01*
X185638405Y-118101600D02*
X185686024Y-118053980D01*
X185686024Y-118053980D02*
X185686024Y-118149219D01*
X186638404Y-117149219D02*
X186162214Y-117149219D01*
X186162214Y-117149219D02*
X186114595Y-117625409D01*
X186114595Y-117625409D02*
X186162214Y-117577790D01*
X186162214Y-117577790D02*
X186257452Y-117530171D01*
X186257452Y-117530171D02*
X186495547Y-117530171D01*
X186495547Y-117530171D02*
X186590785Y-117577790D01*
X186590785Y-117577790D02*
X186638404Y-117625409D01*
X186638404Y-117625409D02*
X186686023Y-117720647D01*
X186686023Y-117720647D02*
X186686023Y-117958742D01*
X186686023Y-117958742D02*
X186638404Y-118053980D01*
X186638404Y-118053980D02*
X186590785Y-118101600D01*
X186590785Y-118101600D02*
X186495547Y-118149219D01*
X186495547Y-118149219D02*
X186257452Y-118149219D01*
X186257452Y-118149219D02*
X186162214Y-118101600D01*
X186162214Y-118101600D02*
X186114595Y-118053980D01*
X186876500Y-118244457D02*
X187638404Y-118244457D01*
X187876500Y-118149219D02*
X187876500Y-117149219D01*
X187876500Y-117149219D02*
X188114595Y-117149219D01*
X188114595Y-117149219D02*
X188257452Y-117196838D01*
X188257452Y-117196838D02*
X188352690Y-117292076D01*
X188352690Y-117292076D02*
X188400309Y-117387314D01*
X188400309Y-117387314D02*
X188447928Y-117577790D01*
X188447928Y-117577790D02*
X188447928Y-117720647D01*
X188447928Y-117720647D02*
X188400309Y-117911123D01*
X188400309Y-117911123D02*
X188352690Y-118006361D01*
X188352690Y-118006361D02*
X188257452Y-118101600D01*
X188257452Y-118101600D02*
X188114595Y-118149219D01*
X188114595Y-118149219D02*
X187876500Y-118149219D01*
X188876500Y-118149219D02*
X188876500Y-117149219D01*
X189352690Y-118149219D02*
X189352690Y-117149219D01*
X189352690Y-117149219D02*
X189924118Y-118149219D01*
X189924118Y-118149219D02*
X189924118Y-117149219D01*
X190447928Y-118149219D02*
X190638404Y-118149219D01*
X190638404Y-118149219D02*
X190733642Y-118101600D01*
X190733642Y-118101600D02*
X190781261Y-118053980D01*
X190781261Y-118053980D02*
X190876499Y-117911123D01*
X190876499Y-117911123D02*
X190924118Y-117720647D01*
X190924118Y-117720647D02*
X190924118Y-117339695D01*
X190924118Y-117339695D02*
X190876499Y-117244457D01*
X190876499Y-117244457D02*
X190828880Y-117196838D01*
X190828880Y-117196838D02*
X190733642Y-117149219D01*
X190733642Y-117149219D02*
X190543166Y-117149219D01*
X190543166Y-117149219D02*
X190447928Y-117196838D01*
X190447928Y-117196838D02*
X190400309Y-117244457D01*
X190400309Y-117244457D02*
X190352690Y-117339695D01*
X190352690Y-117339695D02*
X190352690Y-117577790D01*
X190352690Y-117577790D02*
X190400309Y-117673028D01*
X190400309Y-117673028D02*
X190447928Y-117720647D01*
X190447928Y-117720647D02*
X190543166Y-117768266D01*
X190543166Y-117768266D02*
X190733642Y-117768266D01*
X190733642Y-117768266D02*
X190828880Y-117720647D01*
X190828880Y-117720647D02*
X190876499Y-117673028D01*
X190876499Y-117673028D02*
X190924118Y-117577790D01*
X191781261Y-117149219D02*
X191590785Y-117149219D01*
X191590785Y-117149219D02*
X191495547Y-117196838D01*
X191495547Y-117196838D02*
X191447928Y-117244457D01*
X191447928Y-117244457D02*
X191352690Y-117387314D01*
X191352690Y-117387314D02*
X191305071Y-117577790D01*
X191305071Y-117577790D02*
X191305071Y-117958742D01*
X191305071Y-117958742D02*
X191352690Y-118053980D01*
X191352690Y-118053980D02*
X191400309Y-118101600D01*
X191400309Y-118101600D02*
X191495547Y-118149219D01*
X191495547Y-118149219D02*
X191686023Y-118149219D01*
X191686023Y-118149219D02*
X191781261Y-118101600D01*
X191781261Y-118101600D02*
X191828880Y-118053980D01*
X191828880Y-118053980D02*
X191876499Y-117958742D01*
X191876499Y-117958742D02*
X191876499Y-117720647D01*
X191876499Y-117720647D02*
X191828880Y-117625409D01*
X191828880Y-117625409D02*
X191781261Y-117577790D01*
X191781261Y-117577790D02*
X191686023Y-117530171D01*
X191686023Y-117530171D02*
X191495547Y-117530171D01*
X191495547Y-117530171D02*
X191400309Y-117577790D01*
X191400309Y-117577790D02*
X191352690Y-117625409D01*
X191352690Y-117625409D02*
X191305071Y-117720647D01*
X192781261Y-117149219D02*
X192305071Y-117149219D01*
X192305071Y-117149219D02*
X192257452Y-117625409D01*
X192257452Y-117625409D02*
X192305071Y-117577790D01*
X192305071Y-117577790D02*
X192400309Y-117530171D01*
X192400309Y-117530171D02*
X192638404Y-117530171D01*
X192638404Y-117530171D02*
X192733642Y-117577790D01*
X192733642Y-117577790D02*
X192781261Y-117625409D01*
X192781261Y-117625409D02*
X192828880Y-117720647D01*
X192828880Y-117720647D02*
X192828880Y-117958742D01*
X192828880Y-117958742D02*
X192781261Y-118053980D01*
X192781261Y-118053980D02*
X192733642Y-118101600D01*
X192733642Y-118101600D02*
X192638404Y-118149219D01*
X192638404Y-118149219D02*
X192400309Y-118149219D01*
X192400309Y-118149219D02*
X192305071Y-118101600D01*
X192305071Y-118101600D02*
X192257452Y-118053980D01*
X178033643Y-114799219D02*
X178033643Y-113799219D01*
X178033643Y-114275409D02*
X178605071Y-114275409D01*
X178605071Y-114799219D02*
X178605071Y-113799219D01*
X179271738Y-113799219D02*
X179462214Y-113799219D01*
X179462214Y-113799219D02*
X179557452Y-113846838D01*
X179557452Y-113846838D02*
X179652690Y-113942076D01*
X179652690Y-113942076D02*
X179700309Y-114132552D01*
X179700309Y-114132552D02*
X179700309Y-114465885D01*
X179700309Y-114465885D02*
X179652690Y-114656361D01*
X179652690Y-114656361D02*
X179557452Y-114751600D01*
X179557452Y-114751600D02*
X179462214Y-114799219D01*
X179462214Y-114799219D02*
X179271738Y-114799219D01*
X179271738Y-114799219D02*
X179176500Y-114751600D01*
X179176500Y-114751600D02*
X179081262Y-114656361D01*
X179081262Y-114656361D02*
X179033643Y-114465885D01*
X179033643Y-114465885D02*
X179033643Y-114132552D01*
X179033643Y-114132552D02*
X179081262Y-113942076D01*
X179081262Y-113942076D02*
X179176500Y-113846838D01*
X179176500Y-113846838D02*
X179271738Y-113799219D01*
X180605071Y-114799219D02*
X180128881Y-114799219D01*
X180128881Y-114799219D02*
X180128881Y-113799219D01*
X180938405Y-114275409D02*
X181271738Y-114275409D01*
X181414595Y-114799219D02*
X180938405Y-114799219D01*
X180938405Y-114799219D02*
X180938405Y-113799219D01*
X180938405Y-113799219D02*
X181414595Y-113799219D01*
X181747929Y-113799219D02*
X182366976Y-113799219D01*
X182366976Y-113799219D02*
X182033643Y-114180171D01*
X182033643Y-114180171D02*
X182176500Y-114180171D01*
X182176500Y-114180171D02*
X182271738Y-114227790D01*
X182271738Y-114227790D02*
X182319357Y-114275409D01*
X182319357Y-114275409D02*
X182366976Y-114370647D01*
X182366976Y-114370647D02*
X182366976Y-114608742D01*
X182366976Y-114608742D02*
X182319357Y-114703980D01*
X182319357Y-114703980D02*
X182271738Y-114751600D01*
X182271738Y-114751600D02*
X182176500Y-114799219D01*
X182176500Y-114799219D02*
X181890786Y-114799219D01*
X181890786Y-114799219D02*
X181795548Y-114751600D01*
X181795548Y-114751600D02*
X181747929Y-114703980D01*
X102363733Y-110959819D02*
X101792305Y-110959819D01*
X102078019Y-110959819D02*
X102078019Y-109959819D01*
X102078019Y-109959819D02*
X101982781Y-110102676D01*
X101982781Y-110102676D02*
X101887543Y-110197914D01*
X101887543Y-110197914D02*
X101792305Y-110245533D01*
X103268495Y-109959819D02*
X102792305Y-109959819D01*
X102792305Y-109959819D02*
X102744686Y-110436009D01*
X102744686Y-110436009D02*
X102792305Y-110388390D01*
X102792305Y-110388390D02*
X102887543Y-110340771D01*
X102887543Y-110340771D02*
X103125638Y-110340771D01*
X103125638Y-110340771D02*
X103220876Y-110388390D01*
X103220876Y-110388390D02*
X103268495Y-110436009D01*
X103268495Y-110436009D02*
X103316114Y-110531247D01*
X103316114Y-110531247D02*
X103316114Y-110769342D01*
X103316114Y-110769342D02*
X103268495Y-110864580D01*
X103268495Y-110864580D02*
X103220876Y-110912200D01*
X103220876Y-110912200D02*
X103125638Y-110959819D01*
X103125638Y-110959819D02*
X102887543Y-110959819D01*
X102887543Y-110959819D02*
X102792305Y-110912200D01*
X102792305Y-110912200D02*
X102744686Y-110864580D01*
X103935162Y-109959819D02*
X104030400Y-109959819D01*
X104030400Y-109959819D02*
X104125638Y-110007438D01*
X104125638Y-110007438D02*
X104173257Y-110055057D01*
X104173257Y-110055057D02*
X104220876Y-110150295D01*
X104220876Y-110150295D02*
X104268495Y-110340771D01*
X104268495Y-110340771D02*
X104268495Y-110578866D01*
X104268495Y-110578866D02*
X104220876Y-110769342D01*
X104220876Y-110769342D02*
X104173257Y-110864580D01*
X104173257Y-110864580D02*
X104125638Y-110912200D01*
X104125638Y-110912200D02*
X104030400Y-110959819D01*
X104030400Y-110959819D02*
X103935162Y-110959819D01*
X103935162Y-110959819D02*
X103839924Y-110912200D01*
X103839924Y-110912200D02*
X103792305Y-110864580D01*
X103792305Y-110864580D02*
X103744686Y-110769342D01*
X103744686Y-110769342D02*
X103697067Y-110578866D01*
X103697067Y-110578866D02*
X103697067Y-110340771D01*
X103697067Y-110340771D02*
X103744686Y-110150295D01*
X103744686Y-110150295D02*
X103792305Y-110055057D01*
X103792305Y-110055057D02*
X103839924Y-110007438D01*
X103839924Y-110007438D02*
X103935162Y-109959819D01*
X105268495Y-110959819D02*
X104935162Y-110483628D01*
X104697067Y-110959819D02*
X104697067Y-109959819D01*
X104697067Y-109959819D02*
X105078019Y-109959819D01*
X105078019Y-109959819D02*
X105173257Y-110007438D01*
X105173257Y-110007438D02*
X105220876Y-110055057D01*
X105220876Y-110055057D02*
X105268495Y-110150295D01*
X105268495Y-110150295D02*
X105268495Y-110293152D01*
X105268495Y-110293152D02*
X105220876Y-110388390D01*
X105220876Y-110388390D02*
X105173257Y-110436009D01*
X105173257Y-110436009D02*
X105078019Y-110483628D01*
X105078019Y-110483628D02*
X104697067Y-110483628D01*
D12*
X103410400Y-108912469D02*
X103170400Y-108569612D01*
X102998971Y-108912469D02*
X102998971Y-108192469D01*
X102998971Y-108192469D02*
X103273257Y-108192469D01*
X103273257Y-108192469D02*
X103341828Y-108226755D01*
X103341828Y-108226755D02*
X103376114Y-108261041D01*
X103376114Y-108261041D02*
X103410400Y-108329612D01*
X103410400Y-108329612D02*
X103410400Y-108432469D01*
X103410400Y-108432469D02*
X103376114Y-108501041D01*
X103376114Y-108501041D02*
X103341828Y-108535326D01*
X103341828Y-108535326D02*
X103273257Y-108569612D01*
X103273257Y-108569612D02*
X102998971Y-108569612D01*
X104061828Y-108192469D02*
X103718971Y-108192469D01*
X103718971Y-108192469D02*
X103684685Y-108535326D01*
X103684685Y-108535326D02*
X103718971Y-108501041D01*
X103718971Y-108501041D02*
X103787543Y-108466755D01*
X103787543Y-108466755D02*
X103958971Y-108466755D01*
X103958971Y-108466755D02*
X104027543Y-108501041D01*
X104027543Y-108501041D02*
X104061828Y-108535326D01*
X104061828Y-108535326D02*
X104096114Y-108603898D01*
X104096114Y-108603898D02*
X104096114Y-108775326D01*
X104096114Y-108775326D02*
X104061828Y-108843898D01*
X104061828Y-108843898D02*
X104027543Y-108878184D01*
X104027543Y-108878184D02*
X103958971Y-108912469D01*
X103958971Y-108912469D02*
X103787543Y-108912469D01*
X103787543Y-108912469D02*
X103718971Y-108878184D01*
X103718971Y-108878184D02*
X103684685Y-108843898D01*
D10*
X102817943Y-91954819D02*
X103484609Y-91954819D01*
X103484609Y-91954819D02*
X103056038Y-92954819D01*
X104294133Y-92288152D02*
X104294133Y-92954819D01*
X104056038Y-91907200D02*
X103817943Y-92621485D01*
X103817943Y-92621485D02*
X104436990Y-92621485D01*
X105294133Y-92954819D02*
X104817943Y-92954819D01*
X104817943Y-92954819D02*
X104817943Y-91954819D01*
X105579848Y-92907200D02*
X105722705Y-92954819D01*
X105722705Y-92954819D02*
X105960800Y-92954819D01*
X105960800Y-92954819D02*
X106056038Y-92907200D01*
X106056038Y-92907200D02*
X106103657Y-92859580D01*
X106103657Y-92859580D02*
X106151276Y-92764342D01*
X106151276Y-92764342D02*
X106151276Y-92669104D01*
X106151276Y-92669104D02*
X106103657Y-92573866D01*
X106103657Y-92573866D02*
X106056038Y-92526247D01*
X106056038Y-92526247D02*
X105960800Y-92478628D01*
X105960800Y-92478628D02*
X105770324Y-92431009D01*
X105770324Y-92431009D02*
X105675086Y-92383390D01*
X105675086Y-92383390D02*
X105627467Y-92335771D01*
X105627467Y-92335771D02*
X105579848Y-92240533D01*
X105579848Y-92240533D02*
X105579848Y-92145295D01*
X105579848Y-92145295D02*
X105627467Y-92050057D01*
X105627467Y-92050057D02*
X105675086Y-92002438D01*
X105675086Y-92002438D02*
X105770324Y-91954819D01*
X105770324Y-91954819D02*
X106008419Y-91954819D01*
X106008419Y-91954819D02*
X106151276Y-92002438D01*
X106484610Y-91954819D02*
X107103657Y-91954819D01*
X107103657Y-91954819D02*
X106770324Y-92335771D01*
X106770324Y-92335771D02*
X106913181Y-92335771D01*
X106913181Y-92335771D02*
X107008419Y-92383390D01*
X107008419Y-92383390D02*
X107056038Y-92431009D01*
X107056038Y-92431009D02*
X107103657Y-92526247D01*
X107103657Y-92526247D02*
X107103657Y-92764342D01*
X107103657Y-92764342D02*
X107056038Y-92859580D01*
X107056038Y-92859580D02*
X107008419Y-92907200D01*
X107008419Y-92907200D02*
X106913181Y-92954819D01*
X106913181Y-92954819D02*
X106627467Y-92954819D01*
X106627467Y-92954819D02*
X106532229Y-92907200D01*
X106532229Y-92907200D02*
X106484610Y-92859580D01*
X107484610Y-92050057D02*
X107532229Y-92002438D01*
X107532229Y-92002438D02*
X107627467Y-91954819D01*
X107627467Y-91954819D02*
X107865562Y-91954819D01*
X107865562Y-91954819D02*
X107960800Y-92002438D01*
X107960800Y-92002438D02*
X108008419Y-92050057D01*
X108008419Y-92050057D02*
X108056038Y-92145295D01*
X108056038Y-92145295D02*
X108056038Y-92240533D01*
X108056038Y-92240533D02*
X108008419Y-92383390D01*
X108008419Y-92383390D02*
X107436991Y-92954819D01*
X107436991Y-92954819D02*
X108056038Y-92954819D01*
X104698895Y-82004819D02*
X104698895Y-82814342D01*
X104698895Y-82814342D02*
X104746514Y-82909580D01*
X104746514Y-82909580D02*
X104794133Y-82957200D01*
X104794133Y-82957200D02*
X104889371Y-83004819D01*
X104889371Y-83004819D02*
X105079847Y-83004819D01*
X105079847Y-83004819D02*
X105175085Y-82957200D01*
X105175085Y-82957200D02*
X105222704Y-82909580D01*
X105222704Y-82909580D02*
X105270323Y-82814342D01*
X105270323Y-82814342D02*
X105270323Y-82004819D01*
X106270323Y-83004819D02*
X105698895Y-83004819D01*
X105984609Y-83004819D02*
X105984609Y-82004819D01*
X105984609Y-82004819D02*
X105889371Y-82147676D01*
X105889371Y-82147676D02*
X105794133Y-82242914D01*
X105794133Y-82242914D02*
X105698895Y-82290533D01*
X128852943Y-117989819D02*
X129519609Y-117989819D01*
X129519609Y-117989819D02*
X129091038Y-118989819D01*
X130329133Y-118323152D02*
X130329133Y-118989819D01*
X130091038Y-117942200D02*
X129852943Y-118656485D01*
X129852943Y-118656485D02*
X130471990Y-118656485D01*
X131329133Y-118989819D02*
X130852943Y-118989819D01*
X130852943Y-118989819D02*
X130852943Y-117989819D01*
X131614848Y-118942200D02*
X131757705Y-118989819D01*
X131757705Y-118989819D02*
X131995800Y-118989819D01*
X131995800Y-118989819D02*
X132091038Y-118942200D01*
X132091038Y-118942200D02*
X132138657Y-118894580D01*
X132138657Y-118894580D02*
X132186276Y-118799342D01*
X132186276Y-118799342D02*
X132186276Y-118704104D01*
X132186276Y-118704104D02*
X132138657Y-118608866D01*
X132138657Y-118608866D02*
X132091038Y-118561247D01*
X132091038Y-118561247D02*
X131995800Y-118513628D01*
X131995800Y-118513628D02*
X131805324Y-118466009D01*
X131805324Y-118466009D02*
X131710086Y-118418390D01*
X131710086Y-118418390D02*
X131662467Y-118370771D01*
X131662467Y-118370771D02*
X131614848Y-118275533D01*
X131614848Y-118275533D02*
X131614848Y-118180295D01*
X131614848Y-118180295D02*
X131662467Y-118085057D01*
X131662467Y-118085057D02*
X131710086Y-118037438D01*
X131710086Y-118037438D02*
X131805324Y-117989819D01*
X131805324Y-117989819D02*
X132043419Y-117989819D01*
X132043419Y-117989819D02*
X132186276Y-118037438D01*
X133138657Y-118989819D02*
X132567229Y-118989819D01*
X132852943Y-118989819D02*
X132852943Y-117989819D01*
X132852943Y-117989819D02*
X132757705Y-118132676D01*
X132757705Y-118132676D02*
X132662467Y-118227914D01*
X132662467Y-118227914D02*
X132567229Y-118275533D01*
X134091038Y-118989819D02*
X133519610Y-118989819D01*
X133805324Y-118989819D02*
X133805324Y-117989819D01*
X133805324Y-117989819D02*
X133710086Y-118132676D01*
X133710086Y-118132676D02*
X133614848Y-118227914D01*
X133614848Y-118227914D02*
X133519610Y-118275533D01*
X130733895Y-108039819D02*
X130733895Y-108849342D01*
X130733895Y-108849342D02*
X130781514Y-108944580D01*
X130781514Y-108944580D02*
X130829133Y-108992200D01*
X130829133Y-108992200D02*
X130924371Y-109039819D01*
X130924371Y-109039819D02*
X131114847Y-109039819D01*
X131114847Y-109039819D02*
X131210085Y-108992200D01*
X131210085Y-108992200D02*
X131257704Y-108944580D01*
X131257704Y-108944580D02*
X131305323Y-108849342D01*
X131305323Y-108849342D02*
X131305323Y-108039819D01*
X131829133Y-109039819D02*
X132019609Y-109039819D01*
X132019609Y-109039819D02*
X132114847Y-108992200D01*
X132114847Y-108992200D02*
X132162466Y-108944580D01*
X132162466Y-108944580D02*
X132257704Y-108801723D01*
X132257704Y-108801723D02*
X132305323Y-108611247D01*
X132305323Y-108611247D02*
X132305323Y-108230295D01*
X132305323Y-108230295D02*
X132257704Y-108135057D01*
X132257704Y-108135057D02*
X132210085Y-108087438D01*
X132210085Y-108087438D02*
X132114847Y-108039819D01*
X132114847Y-108039819D02*
X131924371Y-108039819D01*
X131924371Y-108039819D02*
X131829133Y-108087438D01*
X131829133Y-108087438D02*
X131781514Y-108135057D01*
X131781514Y-108135057D02*
X131733895Y-108230295D01*
X131733895Y-108230295D02*
X131733895Y-108468390D01*
X131733895Y-108468390D02*
X131781514Y-108563628D01*
X131781514Y-108563628D02*
X131829133Y-108611247D01*
X131829133Y-108611247D02*
X131924371Y-108658866D01*
X131924371Y-108658866D02*
X132114847Y-108658866D01*
X132114847Y-108658866D02*
X132210085Y-108611247D01*
X132210085Y-108611247D02*
X132257704Y-108563628D01*
X132257704Y-108563628D02*
X132305323Y-108468390D01*
X147530619Y-82776819D02*
X147530619Y-83348247D01*
X147530619Y-83062533D02*
X146530619Y-83062533D01*
X146530619Y-83062533D02*
X146673476Y-83157771D01*
X146673476Y-83157771D02*
X146768714Y-83253009D01*
X146768714Y-83253009D02*
X146816333Y-83348247D01*
X146530619Y-82157771D02*
X146530619Y-82062533D01*
X146530619Y-82062533D02*
X146578238Y-81967295D01*
X146578238Y-81967295D02*
X146625857Y-81919676D01*
X146625857Y-81919676D02*
X146721095Y-81872057D01*
X146721095Y-81872057D02*
X146911571Y-81824438D01*
X146911571Y-81824438D02*
X147149666Y-81824438D01*
X147149666Y-81824438D02*
X147340142Y-81872057D01*
X147340142Y-81872057D02*
X147435380Y-81919676D01*
X147435380Y-81919676D02*
X147483000Y-81967295D01*
X147483000Y-81967295D02*
X147530619Y-82062533D01*
X147530619Y-82062533D02*
X147530619Y-82157771D01*
X147530619Y-82157771D02*
X147483000Y-82253009D01*
X147483000Y-82253009D02*
X147435380Y-82300628D01*
X147435380Y-82300628D02*
X147340142Y-82348247D01*
X147340142Y-82348247D02*
X147149666Y-82395866D01*
X147149666Y-82395866D02*
X146911571Y-82395866D01*
X146911571Y-82395866D02*
X146721095Y-82348247D01*
X146721095Y-82348247D02*
X146625857Y-82300628D01*
X146625857Y-82300628D02*
X146578238Y-82253009D01*
X146578238Y-82253009D02*
X146530619Y-82157771D01*
X146530619Y-81205390D02*
X146530619Y-81110152D01*
X146530619Y-81110152D02*
X146578238Y-81014914D01*
X146578238Y-81014914D02*
X146625857Y-80967295D01*
X146625857Y-80967295D02*
X146721095Y-80919676D01*
X146721095Y-80919676D02*
X146911571Y-80872057D01*
X146911571Y-80872057D02*
X147149666Y-80872057D01*
X147149666Y-80872057D02*
X147340142Y-80919676D01*
X147340142Y-80919676D02*
X147435380Y-80967295D01*
X147435380Y-80967295D02*
X147483000Y-81014914D01*
X147483000Y-81014914D02*
X147530619Y-81110152D01*
X147530619Y-81110152D02*
X147530619Y-81205390D01*
X147530619Y-81205390D02*
X147483000Y-81300628D01*
X147483000Y-81300628D02*
X147435380Y-81348247D01*
X147435380Y-81348247D02*
X147340142Y-81395866D01*
X147340142Y-81395866D02*
X147149666Y-81443485D01*
X147149666Y-81443485D02*
X146911571Y-81443485D01*
X146911571Y-81443485D02*
X146721095Y-81395866D01*
X146721095Y-81395866D02*
X146625857Y-81348247D01*
X146625857Y-81348247D02*
X146578238Y-81300628D01*
X146578238Y-81300628D02*
X146530619Y-81205390D01*
X146863952Y-80443485D02*
X147530619Y-80443485D01*
X146959190Y-80443485D02*
X146911571Y-80395866D01*
X146911571Y-80395866D02*
X146863952Y-80300628D01*
X146863952Y-80300628D02*
X146863952Y-80157771D01*
X146863952Y-80157771D02*
X146911571Y-80062533D01*
X146911571Y-80062533D02*
X147006809Y-80014914D01*
X147006809Y-80014914D02*
X147530619Y-80014914D01*
X147006809Y-79205390D02*
X147006809Y-79538723D01*
X147530619Y-79538723D02*
X146530619Y-79538723D01*
X146530619Y-79538723D02*
X146530619Y-79062533D01*
D11*
X149585040Y-81372533D02*
X149625993Y-81413485D01*
X149625993Y-81413485D02*
X149666945Y-81536343D01*
X149666945Y-81536343D02*
X149666945Y-81618247D01*
X149666945Y-81618247D02*
X149625993Y-81741104D01*
X149625993Y-81741104D02*
X149544088Y-81823009D01*
X149544088Y-81823009D02*
X149462183Y-81863962D01*
X149462183Y-81863962D02*
X149298373Y-81904914D01*
X149298373Y-81904914D02*
X149175516Y-81904914D01*
X149175516Y-81904914D02*
X149011707Y-81863962D01*
X149011707Y-81863962D02*
X148929802Y-81823009D01*
X148929802Y-81823009D02*
X148847897Y-81741104D01*
X148847897Y-81741104D02*
X148806945Y-81618247D01*
X148806945Y-81618247D02*
X148806945Y-81536343D01*
X148806945Y-81536343D02*
X148847897Y-81413485D01*
X148847897Y-81413485D02*
X148888850Y-81372533D01*
X148806945Y-80594438D02*
X148806945Y-81003962D01*
X148806945Y-81003962D02*
X149216469Y-81044914D01*
X149216469Y-81044914D02*
X149175516Y-81003962D01*
X149175516Y-81003962D02*
X149134564Y-80922057D01*
X149134564Y-80922057D02*
X149134564Y-80717295D01*
X149134564Y-80717295D02*
X149175516Y-80635390D01*
X149175516Y-80635390D02*
X149216469Y-80594438D01*
X149216469Y-80594438D02*
X149298373Y-80553485D01*
X149298373Y-80553485D02*
X149503135Y-80553485D01*
X149503135Y-80553485D02*
X149585040Y-80594438D01*
X149585040Y-80594438D02*
X149625993Y-80635390D01*
X149625993Y-80635390D02*
X149666945Y-80717295D01*
X149666945Y-80717295D02*
X149666945Y-80922057D01*
X149666945Y-80922057D02*
X149625993Y-81003962D01*
X149625993Y-81003962D02*
X149585040Y-81044914D01*
D10*
X103862380Y-72133619D02*
X103290952Y-72133619D01*
X103576666Y-72133619D02*
X103576666Y-71133619D01*
X103576666Y-71133619D02*
X103481428Y-71276476D01*
X103481428Y-71276476D02*
X103386190Y-71371714D01*
X103386190Y-71371714D02*
X103290952Y-71419333D01*
X104481428Y-71133619D02*
X104576666Y-71133619D01*
X104576666Y-71133619D02*
X104671904Y-71181238D01*
X104671904Y-71181238D02*
X104719523Y-71228857D01*
X104719523Y-71228857D02*
X104767142Y-71324095D01*
X104767142Y-71324095D02*
X104814761Y-71514571D01*
X104814761Y-71514571D02*
X104814761Y-71752666D01*
X104814761Y-71752666D02*
X104767142Y-71943142D01*
X104767142Y-71943142D02*
X104719523Y-72038380D01*
X104719523Y-72038380D02*
X104671904Y-72086000D01*
X104671904Y-72086000D02*
X104576666Y-72133619D01*
X104576666Y-72133619D02*
X104481428Y-72133619D01*
X104481428Y-72133619D02*
X104386190Y-72086000D01*
X104386190Y-72086000D02*
X104338571Y-72038380D01*
X104338571Y-72038380D02*
X104290952Y-71943142D01*
X104290952Y-71943142D02*
X104243333Y-71752666D01*
X104243333Y-71752666D02*
X104243333Y-71514571D01*
X104243333Y-71514571D02*
X104290952Y-71324095D01*
X104290952Y-71324095D02*
X104338571Y-71228857D01*
X104338571Y-71228857D02*
X104386190Y-71181238D01*
X104386190Y-71181238D02*
X104481428Y-71133619D01*
X105433809Y-71133619D02*
X105529047Y-71133619D01*
X105529047Y-71133619D02*
X105624285Y-71181238D01*
X105624285Y-71181238D02*
X105671904Y-71228857D01*
X105671904Y-71228857D02*
X105719523Y-71324095D01*
X105719523Y-71324095D02*
X105767142Y-71514571D01*
X105767142Y-71514571D02*
X105767142Y-71752666D01*
X105767142Y-71752666D02*
X105719523Y-71943142D01*
X105719523Y-71943142D02*
X105671904Y-72038380D01*
X105671904Y-72038380D02*
X105624285Y-72086000D01*
X105624285Y-72086000D02*
X105529047Y-72133619D01*
X105529047Y-72133619D02*
X105433809Y-72133619D01*
X105433809Y-72133619D02*
X105338571Y-72086000D01*
X105338571Y-72086000D02*
X105290952Y-72038380D01*
X105290952Y-72038380D02*
X105243333Y-71943142D01*
X105243333Y-71943142D02*
X105195714Y-71752666D01*
X105195714Y-71752666D02*
X105195714Y-71514571D01*
X105195714Y-71514571D02*
X105243333Y-71324095D01*
X105243333Y-71324095D02*
X105290952Y-71228857D01*
X105290952Y-71228857D02*
X105338571Y-71181238D01*
X105338571Y-71181238D02*
X105433809Y-71133619D01*
X106195714Y-71466952D02*
X106195714Y-72133619D01*
X106195714Y-71562190D02*
X106243333Y-71514571D01*
X106243333Y-71514571D02*
X106338571Y-71466952D01*
X106338571Y-71466952D02*
X106481428Y-71466952D01*
X106481428Y-71466952D02*
X106576666Y-71514571D01*
X106576666Y-71514571D02*
X106624285Y-71609809D01*
X106624285Y-71609809D02*
X106624285Y-72133619D01*
X107433809Y-71609809D02*
X107100476Y-71609809D01*
X107100476Y-72133619D02*
X107100476Y-71133619D01*
X107100476Y-71133619D02*
X107576666Y-71133619D01*
D11*
X100995472Y-71540666D02*
X101043092Y-71588285D01*
X101043092Y-71588285D02*
X101090711Y-71731142D01*
X101090711Y-71731142D02*
X101090711Y-71826380D01*
X101090711Y-71826380D02*
X101043092Y-71969237D01*
X101043092Y-71969237D02*
X100947853Y-72064475D01*
X100947853Y-72064475D02*
X100852615Y-72112094D01*
X100852615Y-72112094D02*
X100662139Y-72159713D01*
X100662139Y-72159713D02*
X100519282Y-72159713D01*
X100519282Y-72159713D02*
X100328806Y-72112094D01*
X100328806Y-72112094D02*
X100233568Y-72064475D01*
X100233568Y-72064475D02*
X100138330Y-71969237D01*
X100138330Y-71969237D02*
X100090711Y-71826380D01*
X100090711Y-71826380D02*
X100090711Y-71731142D01*
X100090711Y-71731142D02*
X100138330Y-71588285D01*
X100138330Y-71588285D02*
X100185949Y-71540666D01*
X101090711Y-70588285D02*
X101090711Y-71159713D01*
X101090711Y-70873999D02*
X100090711Y-70873999D01*
X100090711Y-70873999D02*
X100233568Y-70969237D01*
X100233568Y-70969237D02*
X100328806Y-71064475D01*
X100328806Y-71064475D02*
X100376425Y-71159713D01*
D10*
X186161752Y-93859819D02*
X186828418Y-93859819D01*
X186828418Y-93859819D02*
X186399847Y-94859819D01*
X187637942Y-94193152D02*
X187637942Y-94859819D01*
X187399847Y-93812200D02*
X187161752Y-94526485D01*
X187161752Y-94526485D02*
X187780799Y-94526485D01*
X188637942Y-94859819D02*
X188161752Y-94859819D01*
X188161752Y-94859819D02*
X188161752Y-93859819D01*
X188923657Y-94812200D02*
X189066514Y-94859819D01*
X189066514Y-94859819D02*
X189304609Y-94859819D01*
X189304609Y-94859819D02*
X189399847Y-94812200D01*
X189399847Y-94812200D02*
X189447466Y-94764580D01*
X189447466Y-94764580D02*
X189495085Y-94669342D01*
X189495085Y-94669342D02*
X189495085Y-94574104D01*
X189495085Y-94574104D02*
X189447466Y-94478866D01*
X189447466Y-94478866D02*
X189399847Y-94431247D01*
X189399847Y-94431247D02*
X189304609Y-94383628D01*
X189304609Y-94383628D02*
X189114133Y-94336009D01*
X189114133Y-94336009D02*
X189018895Y-94288390D01*
X189018895Y-94288390D02*
X188971276Y-94240771D01*
X188971276Y-94240771D02*
X188923657Y-94145533D01*
X188923657Y-94145533D02*
X188923657Y-94050295D01*
X188923657Y-94050295D02*
X188971276Y-93955057D01*
X188971276Y-93955057D02*
X189018895Y-93907438D01*
X189018895Y-93907438D02*
X189114133Y-93859819D01*
X189114133Y-93859819D02*
X189352228Y-93859819D01*
X189352228Y-93859819D02*
X189495085Y-93907438D01*
X189876038Y-93955057D02*
X189923657Y-93907438D01*
X189923657Y-93907438D02*
X190018895Y-93859819D01*
X190018895Y-93859819D02*
X190256990Y-93859819D01*
X190256990Y-93859819D02*
X190352228Y-93907438D01*
X190352228Y-93907438D02*
X190399847Y-93955057D01*
X190399847Y-93955057D02*
X190447466Y-94050295D01*
X190447466Y-94050295D02*
X190447466Y-94145533D01*
X190447466Y-94145533D02*
X190399847Y-94288390D01*
X190399847Y-94288390D02*
X189828419Y-94859819D01*
X189828419Y-94859819D02*
X190447466Y-94859819D01*
X191304609Y-94193152D02*
X191304609Y-94859819D01*
X191066514Y-93812200D02*
X190828419Y-94526485D01*
X190828419Y-94526485D02*
X191447466Y-94526485D01*
X192304609Y-93859819D02*
X191828419Y-93859819D01*
X191828419Y-93859819D02*
X191780800Y-94336009D01*
X191780800Y-94336009D02*
X191828419Y-94288390D01*
X191828419Y-94288390D02*
X191923657Y-94240771D01*
X191923657Y-94240771D02*
X192161752Y-94240771D01*
X192161752Y-94240771D02*
X192256990Y-94288390D01*
X192256990Y-94288390D02*
X192304609Y-94336009D01*
X192304609Y-94336009D02*
X192352228Y-94431247D01*
X192352228Y-94431247D02*
X192352228Y-94669342D01*
X192352228Y-94669342D02*
X192304609Y-94764580D01*
X192304609Y-94764580D02*
X192256990Y-94812200D01*
X192256990Y-94812200D02*
X192161752Y-94859819D01*
X192161752Y-94859819D02*
X191923657Y-94859819D01*
X191923657Y-94859819D02*
X191828419Y-94812200D01*
X191828419Y-94812200D02*
X191780800Y-94764580D01*
X188518895Y-80099819D02*
X188518895Y-80909342D01*
X188518895Y-80909342D02*
X188566514Y-81004580D01*
X188566514Y-81004580D02*
X188614133Y-81052200D01*
X188614133Y-81052200D02*
X188709371Y-81099819D01*
X188709371Y-81099819D02*
X188899847Y-81099819D01*
X188899847Y-81099819D02*
X188995085Y-81052200D01*
X188995085Y-81052200D02*
X189042704Y-81004580D01*
X189042704Y-81004580D02*
X189090323Y-80909342D01*
X189090323Y-80909342D02*
X189090323Y-80099819D01*
X189518895Y-80195057D02*
X189566514Y-80147438D01*
X189566514Y-80147438D02*
X189661752Y-80099819D01*
X189661752Y-80099819D02*
X189899847Y-80099819D01*
X189899847Y-80099819D02*
X189995085Y-80147438D01*
X189995085Y-80147438D02*
X190042704Y-80195057D01*
X190042704Y-80195057D02*
X190090323Y-80290295D01*
X190090323Y-80290295D02*
X190090323Y-80385533D01*
X190090323Y-80385533D02*
X190042704Y-80528390D01*
X190042704Y-80528390D02*
X189471276Y-81099819D01*
X189471276Y-81099819D02*
X190090323Y-81099819D01*
X132860619Y-90893095D02*
X132860619Y-91369285D01*
X132860619Y-91369285D02*
X133336809Y-91416904D01*
X133336809Y-91416904D02*
X133289190Y-91369285D01*
X133289190Y-91369285D02*
X133241571Y-91274047D01*
X133241571Y-91274047D02*
X133241571Y-91035952D01*
X133241571Y-91035952D02*
X133289190Y-90940714D01*
X133289190Y-90940714D02*
X133336809Y-90893095D01*
X133336809Y-90893095D02*
X133432047Y-90845476D01*
X133432047Y-90845476D02*
X133670142Y-90845476D01*
X133670142Y-90845476D02*
X133765380Y-90893095D01*
X133765380Y-90893095D02*
X133813000Y-90940714D01*
X133813000Y-90940714D02*
X133860619Y-91035952D01*
X133860619Y-91035952D02*
X133860619Y-91274047D01*
X133860619Y-91274047D02*
X133813000Y-91369285D01*
X133813000Y-91369285D02*
X133765380Y-91416904D01*
X133860619Y-90416904D02*
X132860619Y-90416904D01*
X133860619Y-89845476D02*
X133289190Y-90274047D01*
X132860619Y-89845476D02*
X133432047Y-90416904D01*
X132860619Y-88988333D02*
X132860619Y-89178809D01*
X132860619Y-89178809D02*
X132908238Y-89274047D01*
X132908238Y-89274047D02*
X132955857Y-89321666D01*
X132955857Y-89321666D02*
X133098714Y-89416904D01*
X133098714Y-89416904D02*
X133289190Y-89464523D01*
X133289190Y-89464523D02*
X133670142Y-89464523D01*
X133670142Y-89464523D02*
X133765380Y-89416904D01*
X133765380Y-89416904D02*
X133813000Y-89369285D01*
X133813000Y-89369285D02*
X133860619Y-89274047D01*
X133860619Y-89274047D02*
X133860619Y-89083571D01*
X133860619Y-89083571D02*
X133813000Y-88988333D01*
X133813000Y-88988333D02*
X133765380Y-88940714D01*
X133765380Y-88940714D02*
X133670142Y-88893095D01*
X133670142Y-88893095D02*
X133432047Y-88893095D01*
X133432047Y-88893095D02*
X133336809Y-88940714D01*
X133336809Y-88940714D02*
X133289190Y-88988333D01*
X133289190Y-88988333D02*
X133241571Y-89083571D01*
X133241571Y-89083571D02*
X133241571Y-89274047D01*
X133241571Y-89274047D02*
X133289190Y-89369285D01*
X133289190Y-89369285D02*
X133336809Y-89416904D01*
X133336809Y-89416904D02*
X133432047Y-89464523D01*
D12*
X135653269Y-90274999D02*
X135310412Y-90514999D01*
X135653269Y-90686428D02*
X134933269Y-90686428D01*
X134933269Y-90686428D02*
X134933269Y-90412142D01*
X134933269Y-90412142D02*
X134967555Y-90343571D01*
X134967555Y-90343571D02*
X135001841Y-90309285D01*
X135001841Y-90309285D02*
X135070412Y-90274999D01*
X135070412Y-90274999D02*
X135173269Y-90274999D01*
X135173269Y-90274999D02*
X135241841Y-90309285D01*
X135241841Y-90309285D02*
X135276126Y-90343571D01*
X135276126Y-90343571D02*
X135310412Y-90412142D01*
X135310412Y-90412142D02*
X135310412Y-90686428D01*
X135001841Y-90000714D02*
X134967555Y-89966428D01*
X134967555Y-89966428D02*
X134933269Y-89897857D01*
X134933269Y-89897857D02*
X134933269Y-89726428D01*
X134933269Y-89726428D02*
X134967555Y-89657857D01*
X134967555Y-89657857D02*
X135001841Y-89623571D01*
X135001841Y-89623571D02*
X135070412Y-89589285D01*
X135070412Y-89589285D02*
X135138984Y-89589285D01*
X135138984Y-89589285D02*
X135241841Y-89623571D01*
X135241841Y-89623571D02*
X135653269Y-90034999D01*
X135653269Y-90034999D02*
X135653269Y-89589285D01*
D10*
X95912941Y-68304580D02*
X95865322Y-68352200D01*
X95865322Y-68352200D02*
X95722465Y-68399819D01*
X95722465Y-68399819D02*
X95627227Y-68399819D01*
X95627227Y-68399819D02*
X95484370Y-68352200D01*
X95484370Y-68352200D02*
X95389132Y-68256961D01*
X95389132Y-68256961D02*
X95341513Y-68161723D01*
X95341513Y-68161723D02*
X95293894Y-67971247D01*
X95293894Y-67971247D02*
X95293894Y-67828390D01*
X95293894Y-67828390D02*
X95341513Y-67637914D01*
X95341513Y-67637914D02*
X95389132Y-67542676D01*
X95389132Y-67542676D02*
X95484370Y-67447438D01*
X95484370Y-67447438D02*
X95627227Y-67399819D01*
X95627227Y-67399819D02*
X95722465Y-67399819D01*
X95722465Y-67399819D02*
X95865322Y-67447438D01*
X95865322Y-67447438D02*
X95912941Y-67495057D01*
X96484370Y-68399819D02*
X96389132Y-68352200D01*
X96389132Y-68352200D02*
X96341513Y-68304580D01*
X96341513Y-68304580D02*
X96293894Y-68209342D01*
X96293894Y-68209342D02*
X96293894Y-67923628D01*
X96293894Y-67923628D02*
X96341513Y-67828390D01*
X96341513Y-67828390D02*
X96389132Y-67780771D01*
X96389132Y-67780771D02*
X96484370Y-67733152D01*
X96484370Y-67733152D02*
X96627227Y-67733152D01*
X96627227Y-67733152D02*
X96722465Y-67780771D01*
X96722465Y-67780771D02*
X96770084Y-67828390D01*
X96770084Y-67828390D02*
X96817703Y-67923628D01*
X96817703Y-67923628D02*
X96817703Y-68209342D01*
X96817703Y-68209342D02*
X96770084Y-68304580D01*
X96770084Y-68304580D02*
X96722465Y-68352200D01*
X96722465Y-68352200D02*
X96627227Y-68399819D01*
X96627227Y-68399819D02*
X96484370Y-68399819D01*
X97246275Y-67733152D02*
X97246275Y-68399819D01*
X97246275Y-67828390D02*
X97293894Y-67780771D01*
X97293894Y-67780771D02*
X97389132Y-67733152D01*
X97389132Y-67733152D02*
X97531989Y-67733152D01*
X97531989Y-67733152D02*
X97627227Y-67780771D01*
X97627227Y-67780771D02*
X97674846Y-67876009D01*
X97674846Y-67876009D02*
X97674846Y-68399819D01*
X98151037Y-67733152D02*
X98151037Y-68399819D01*
X98151037Y-67828390D02*
X98198656Y-67780771D01*
X98198656Y-67780771D02*
X98293894Y-67733152D01*
X98293894Y-67733152D02*
X98436751Y-67733152D01*
X98436751Y-67733152D02*
X98531989Y-67780771D01*
X98531989Y-67780771D02*
X98579608Y-67876009D01*
X98579608Y-67876009D02*
X98579608Y-68399819D01*
X98817704Y-68495057D02*
X99579608Y-68495057D01*
X100008180Y-67399819D02*
X100103418Y-67399819D01*
X100103418Y-67399819D02*
X100198656Y-67447438D01*
X100198656Y-67447438D02*
X100246275Y-67495057D01*
X100246275Y-67495057D02*
X100293894Y-67590295D01*
X100293894Y-67590295D02*
X100341513Y-67780771D01*
X100341513Y-67780771D02*
X100341513Y-68018866D01*
X100341513Y-68018866D02*
X100293894Y-68209342D01*
X100293894Y-68209342D02*
X100246275Y-68304580D01*
X100246275Y-68304580D02*
X100198656Y-68352200D01*
X100198656Y-68352200D02*
X100103418Y-68399819D01*
X100103418Y-68399819D02*
X100008180Y-68399819D01*
X100008180Y-68399819D02*
X99912942Y-68352200D01*
X99912942Y-68352200D02*
X99865323Y-68304580D01*
X99865323Y-68304580D02*
X99817704Y-68209342D01*
X99817704Y-68209342D02*
X99770085Y-68018866D01*
X99770085Y-68018866D02*
X99770085Y-67780771D01*
X99770085Y-67780771D02*
X99817704Y-67590295D01*
X99817704Y-67590295D02*
X99865323Y-67495057D01*
X99865323Y-67495057D02*
X99912942Y-67447438D01*
X99912942Y-67447438D02*
X100008180Y-67399819D01*
X100722466Y-67495057D02*
X100770085Y-67447438D01*
X100770085Y-67447438D02*
X100865323Y-67399819D01*
X100865323Y-67399819D02*
X101103418Y-67399819D01*
X101103418Y-67399819D02*
X101198656Y-67447438D01*
X101198656Y-67447438D02*
X101246275Y-67495057D01*
X101246275Y-67495057D02*
X101293894Y-67590295D01*
X101293894Y-67590295D02*
X101293894Y-67685533D01*
X101293894Y-67685533D02*
X101246275Y-67828390D01*
X101246275Y-67828390D02*
X100674847Y-68399819D01*
X100674847Y-68399819D02*
X101293894Y-68399819D01*
X101627228Y-68399819D02*
X102151037Y-67733152D01*
X101627228Y-67733152D02*
X102151037Y-68399819D01*
X103055799Y-68399819D02*
X102484371Y-68399819D01*
X102770085Y-68399819D02*
X102770085Y-67399819D01*
X102770085Y-67399819D02*
X102674847Y-67542676D01*
X102674847Y-67542676D02*
X102579609Y-67637914D01*
X102579609Y-67637914D02*
X102484371Y-67685533D01*
X103389133Y-67399819D02*
X104055799Y-67399819D01*
X104055799Y-67399819D02*
X103627228Y-68399819D01*
X104198657Y-68495057D02*
X104960561Y-68495057D01*
X105389133Y-67399819D02*
X105579609Y-67399819D01*
X105579609Y-67399819D02*
X105674847Y-67447438D01*
X105674847Y-67447438D02*
X105770085Y-67542676D01*
X105770085Y-67542676D02*
X105817704Y-67733152D01*
X105817704Y-67733152D02*
X105817704Y-68066485D01*
X105817704Y-68066485D02*
X105770085Y-68256961D01*
X105770085Y-68256961D02*
X105674847Y-68352200D01*
X105674847Y-68352200D02*
X105579609Y-68399819D01*
X105579609Y-68399819D02*
X105389133Y-68399819D01*
X105389133Y-68399819D02*
X105293895Y-68352200D01*
X105293895Y-68352200D02*
X105198657Y-68256961D01*
X105198657Y-68256961D02*
X105151038Y-68066485D01*
X105151038Y-68066485D02*
X105151038Y-67733152D01*
X105151038Y-67733152D02*
X105198657Y-67542676D01*
X105198657Y-67542676D02*
X105293895Y-67447438D01*
X105293895Y-67447438D02*
X105389133Y-67399819D01*
X106674847Y-68399819D02*
X106674847Y-67399819D01*
X106674847Y-68352200D02*
X106579609Y-68399819D01*
X106579609Y-68399819D02*
X106389133Y-68399819D01*
X106389133Y-68399819D02*
X106293895Y-68352200D01*
X106293895Y-68352200D02*
X106246276Y-68304580D01*
X106246276Y-68304580D02*
X106198657Y-68209342D01*
X106198657Y-68209342D02*
X106198657Y-67923628D01*
X106198657Y-67923628D02*
X106246276Y-67828390D01*
X106246276Y-67828390D02*
X106293895Y-67780771D01*
X106293895Y-67780771D02*
X106389133Y-67733152D01*
X106389133Y-67733152D02*
X106579609Y-67733152D01*
X106579609Y-67733152D02*
X106674847Y-67780771D01*
X107579609Y-68399819D02*
X107579609Y-67399819D01*
X107579609Y-68352200D02*
X107484371Y-68399819D01*
X107484371Y-68399819D02*
X107293895Y-68399819D01*
X107293895Y-68399819D02*
X107198657Y-68352200D01*
X107198657Y-68352200D02*
X107151038Y-68304580D01*
X107151038Y-68304580D02*
X107103419Y-68209342D01*
X107103419Y-68209342D02*
X107103419Y-67923628D01*
X107103419Y-67923628D02*
X107151038Y-67828390D01*
X107151038Y-67828390D02*
X107198657Y-67780771D01*
X107198657Y-67780771D02*
X107293895Y-67733152D01*
X107293895Y-67733152D02*
X107484371Y-67733152D01*
X107484371Y-67733152D02*
X107579609Y-67780771D01*
X107817705Y-68495057D02*
X108579609Y-68495057D01*
X108817705Y-67876009D02*
X109151038Y-67876009D01*
X109293895Y-68399819D02*
X108817705Y-68399819D01*
X108817705Y-68399819D02*
X108817705Y-67399819D01*
X108817705Y-67399819D02*
X109293895Y-67399819D01*
X109627229Y-67733152D02*
X109865324Y-68399819D01*
X109865324Y-68399819D02*
X110103419Y-67733152D01*
X110865324Y-68352200D02*
X110770086Y-68399819D01*
X110770086Y-68399819D02*
X110579610Y-68399819D01*
X110579610Y-68399819D02*
X110484372Y-68352200D01*
X110484372Y-68352200D02*
X110436753Y-68256961D01*
X110436753Y-68256961D02*
X110436753Y-67876009D01*
X110436753Y-67876009D02*
X110484372Y-67780771D01*
X110484372Y-67780771D02*
X110579610Y-67733152D01*
X110579610Y-67733152D02*
X110770086Y-67733152D01*
X110770086Y-67733152D02*
X110865324Y-67780771D01*
X110865324Y-67780771D02*
X110912943Y-67876009D01*
X110912943Y-67876009D02*
X110912943Y-67971247D01*
X110912943Y-67971247D02*
X110436753Y-68066485D01*
X111341515Y-67733152D02*
X111341515Y-68399819D01*
X111341515Y-67828390D02*
X111389134Y-67780771D01*
X111389134Y-67780771D02*
X111484372Y-67733152D01*
X111484372Y-67733152D02*
X111627229Y-67733152D01*
X111627229Y-67733152D02*
X111722467Y-67780771D01*
X111722467Y-67780771D02*
X111770086Y-67876009D01*
X111770086Y-67876009D02*
X111770086Y-68399819D01*
X133702466Y-69939819D02*
X133702466Y-70654104D01*
X133702466Y-70654104D02*
X133654847Y-70796961D01*
X133654847Y-70796961D02*
X133559609Y-70892200D01*
X133559609Y-70892200D02*
X133416752Y-70939819D01*
X133416752Y-70939819D02*
X133321514Y-70939819D01*
X134702466Y-70939819D02*
X134131038Y-70939819D01*
X134416752Y-70939819D02*
X134416752Y-69939819D01*
X134416752Y-69939819D02*
X134321514Y-70082676D01*
X134321514Y-70082676D02*
X134226276Y-70177914D01*
X134226276Y-70177914D02*
X134131038Y-70225533D01*
X113089133Y-95764819D02*
X113755799Y-95764819D01*
X113755799Y-95764819D02*
X113327228Y-96764819D01*
X114565323Y-96098152D02*
X114565323Y-96764819D01*
X114327228Y-95717200D02*
X114089133Y-96431485D01*
X114089133Y-96431485D02*
X114708180Y-96431485D01*
X115565323Y-96764819D02*
X115089133Y-96764819D01*
X115089133Y-96764819D02*
X115089133Y-95764819D01*
X115851038Y-96717200D02*
X115993895Y-96764819D01*
X115993895Y-96764819D02*
X116231990Y-96764819D01*
X116231990Y-96764819D02*
X116327228Y-96717200D01*
X116327228Y-96717200D02*
X116374847Y-96669580D01*
X116374847Y-96669580D02*
X116422466Y-96574342D01*
X116422466Y-96574342D02*
X116422466Y-96479104D01*
X116422466Y-96479104D02*
X116374847Y-96383866D01*
X116374847Y-96383866D02*
X116327228Y-96336247D01*
X116327228Y-96336247D02*
X116231990Y-96288628D01*
X116231990Y-96288628D02*
X116041514Y-96241009D01*
X116041514Y-96241009D02*
X115946276Y-96193390D01*
X115946276Y-96193390D02*
X115898657Y-96145771D01*
X115898657Y-96145771D02*
X115851038Y-96050533D01*
X115851038Y-96050533D02*
X115851038Y-95955295D01*
X115851038Y-95955295D02*
X115898657Y-95860057D01*
X115898657Y-95860057D02*
X115946276Y-95812438D01*
X115946276Y-95812438D02*
X116041514Y-95764819D01*
X116041514Y-95764819D02*
X116279609Y-95764819D01*
X116279609Y-95764819D02*
X116422466Y-95812438D01*
X117041514Y-95764819D02*
X117136752Y-95764819D01*
X117136752Y-95764819D02*
X117231990Y-95812438D01*
X117231990Y-95812438D02*
X117279609Y-95860057D01*
X117279609Y-95860057D02*
X117327228Y-95955295D01*
X117327228Y-95955295D02*
X117374847Y-96145771D01*
X117374847Y-96145771D02*
X117374847Y-96383866D01*
X117374847Y-96383866D02*
X117327228Y-96574342D01*
X117327228Y-96574342D02*
X117279609Y-96669580D01*
X117279609Y-96669580D02*
X117231990Y-96717200D01*
X117231990Y-96717200D02*
X117136752Y-96764819D01*
X117136752Y-96764819D02*
X117041514Y-96764819D01*
X117041514Y-96764819D02*
X116946276Y-96717200D01*
X116946276Y-96717200D02*
X116898657Y-96669580D01*
X116898657Y-96669580D02*
X116851038Y-96574342D01*
X116851038Y-96574342D02*
X116803419Y-96383866D01*
X116803419Y-96383866D02*
X116803419Y-96145771D01*
X116803419Y-96145771D02*
X116851038Y-95955295D01*
X116851038Y-95955295D02*
X116898657Y-95860057D01*
X116898657Y-95860057D02*
X116946276Y-95812438D01*
X116946276Y-95812438D02*
X117041514Y-95764819D01*
X117708181Y-95764819D02*
X118374847Y-95764819D01*
X118374847Y-95764819D02*
X117946276Y-96764819D01*
X118755800Y-96764819D02*
X118755800Y-95764819D01*
X118755800Y-95764819D02*
X119327228Y-96764819D01*
X119327228Y-96764819D02*
X119327228Y-95764819D01*
X115493895Y-85814819D02*
X115493895Y-86624342D01*
X115493895Y-86624342D02*
X115541514Y-86719580D01*
X115541514Y-86719580D02*
X115589133Y-86767200D01*
X115589133Y-86767200D02*
X115684371Y-86814819D01*
X115684371Y-86814819D02*
X115874847Y-86814819D01*
X115874847Y-86814819D02*
X115970085Y-86767200D01*
X115970085Y-86767200D02*
X116017704Y-86719580D01*
X116017704Y-86719580D02*
X116065323Y-86624342D01*
X116065323Y-86624342D02*
X116065323Y-85814819D01*
X116446276Y-85814819D02*
X117065323Y-85814819D01*
X117065323Y-85814819D02*
X116731990Y-86195771D01*
X116731990Y-86195771D02*
X116874847Y-86195771D01*
X116874847Y-86195771D02*
X116970085Y-86243390D01*
X116970085Y-86243390D02*
X117017704Y-86291009D01*
X117017704Y-86291009D02*
X117065323Y-86386247D01*
X117065323Y-86386247D02*
X117065323Y-86624342D01*
X117065323Y-86624342D02*
X117017704Y-86719580D01*
X117017704Y-86719580D02*
X116970085Y-86767200D01*
X116970085Y-86767200D02*
X116874847Y-86814819D01*
X116874847Y-86814819D02*
X116589133Y-86814819D01*
X116589133Y-86814819D02*
X116493895Y-86767200D01*
X116493895Y-86767200D02*
X116446276Y-86719580D01*
X153776752Y-98279419D02*
X154443418Y-98279419D01*
X154443418Y-98279419D02*
X154014847Y-99279419D01*
X155252942Y-98612752D02*
X155252942Y-99279419D01*
X155014847Y-98231800D02*
X154776752Y-98946085D01*
X154776752Y-98946085D02*
X155395799Y-98946085D01*
X156252942Y-99279419D02*
X155776752Y-99279419D01*
X155776752Y-99279419D02*
X155776752Y-98279419D01*
X156538657Y-99231800D02*
X156681514Y-99279419D01*
X156681514Y-99279419D02*
X156919609Y-99279419D01*
X156919609Y-99279419D02*
X157014847Y-99231800D01*
X157014847Y-99231800D02*
X157062466Y-99184180D01*
X157062466Y-99184180D02*
X157110085Y-99088942D01*
X157110085Y-99088942D02*
X157110085Y-98993704D01*
X157110085Y-98993704D02*
X157062466Y-98898466D01*
X157062466Y-98898466D02*
X157014847Y-98850847D01*
X157014847Y-98850847D02*
X156919609Y-98803228D01*
X156919609Y-98803228D02*
X156729133Y-98755609D01*
X156729133Y-98755609D02*
X156633895Y-98707990D01*
X156633895Y-98707990D02*
X156586276Y-98660371D01*
X156586276Y-98660371D02*
X156538657Y-98565133D01*
X156538657Y-98565133D02*
X156538657Y-98469895D01*
X156538657Y-98469895D02*
X156586276Y-98374657D01*
X156586276Y-98374657D02*
X156633895Y-98327038D01*
X156633895Y-98327038D02*
X156729133Y-98279419D01*
X156729133Y-98279419D02*
X156967228Y-98279419D01*
X156967228Y-98279419D02*
X157110085Y-98327038D01*
X158062466Y-99279419D02*
X157491038Y-99279419D01*
X157776752Y-99279419D02*
X157776752Y-98279419D01*
X157776752Y-98279419D02*
X157681514Y-98422276D01*
X157681514Y-98422276D02*
X157586276Y-98517514D01*
X157586276Y-98517514D02*
X157491038Y-98565133D01*
X158395800Y-98279419D02*
X159014847Y-98279419D01*
X159014847Y-98279419D02*
X158681514Y-98660371D01*
X158681514Y-98660371D02*
X158824371Y-98660371D01*
X158824371Y-98660371D02*
X158919609Y-98707990D01*
X158919609Y-98707990D02*
X158967228Y-98755609D01*
X158967228Y-98755609D02*
X159014847Y-98850847D01*
X159014847Y-98850847D02*
X159014847Y-99088942D01*
X159014847Y-99088942D02*
X158967228Y-99184180D01*
X158967228Y-99184180D02*
X158919609Y-99231800D01*
X158919609Y-99231800D02*
X158824371Y-99279419D01*
X158824371Y-99279419D02*
X158538657Y-99279419D01*
X158538657Y-99279419D02*
X158443419Y-99231800D01*
X158443419Y-99231800D02*
X158395800Y-99184180D01*
X159348181Y-98279419D02*
X159967228Y-98279419D01*
X159967228Y-98279419D02*
X159633895Y-98660371D01*
X159633895Y-98660371D02*
X159776752Y-98660371D01*
X159776752Y-98660371D02*
X159871990Y-98707990D01*
X159871990Y-98707990D02*
X159919609Y-98755609D01*
X159919609Y-98755609D02*
X159967228Y-98850847D01*
X159967228Y-98850847D02*
X159967228Y-99088942D01*
X159967228Y-99088942D02*
X159919609Y-99184180D01*
X159919609Y-99184180D02*
X159871990Y-99231800D01*
X159871990Y-99231800D02*
X159776752Y-99279419D01*
X159776752Y-99279419D02*
X159491038Y-99279419D01*
X159491038Y-99279419D02*
X159395800Y-99231800D01*
X159395800Y-99231800D02*
X159348181Y-99184180D01*
X156133895Y-87059419D02*
X156133895Y-87868942D01*
X156133895Y-87868942D02*
X156181514Y-87964180D01*
X156181514Y-87964180D02*
X156229133Y-88011800D01*
X156229133Y-88011800D02*
X156324371Y-88059419D01*
X156324371Y-88059419D02*
X156514847Y-88059419D01*
X156514847Y-88059419D02*
X156610085Y-88011800D01*
X156610085Y-88011800D02*
X156657704Y-87964180D01*
X156657704Y-87964180D02*
X156705323Y-87868942D01*
X156705323Y-87868942D02*
X156705323Y-87059419D01*
X157610085Y-87059419D02*
X157419609Y-87059419D01*
X157419609Y-87059419D02*
X157324371Y-87107038D01*
X157324371Y-87107038D02*
X157276752Y-87154657D01*
X157276752Y-87154657D02*
X157181514Y-87297514D01*
X157181514Y-87297514D02*
X157133895Y-87487990D01*
X157133895Y-87487990D02*
X157133895Y-87868942D01*
X157133895Y-87868942D02*
X157181514Y-87964180D01*
X157181514Y-87964180D02*
X157229133Y-88011800D01*
X157229133Y-88011800D02*
X157324371Y-88059419D01*
X157324371Y-88059419D02*
X157514847Y-88059419D01*
X157514847Y-88059419D02*
X157610085Y-88011800D01*
X157610085Y-88011800D02*
X157657704Y-87964180D01*
X157657704Y-87964180D02*
X157705323Y-87868942D01*
X157705323Y-87868942D02*
X157705323Y-87630847D01*
X157705323Y-87630847D02*
X157657704Y-87535609D01*
X157657704Y-87535609D02*
X157610085Y-87487990D01*
X157610085Y-87487990D02*
X157514847Y-87440371D01*
X157514847Y-87440371D02*
X157324371Y-87440371D01*
X157324371Y-87440371D02*
X157229133Y-87487990D01*
X157229133Y-87487990D02*
X157181514Y-87535609D01*
X157181514Y-87535609D02*
X157133895Y-87630847D01*
X163624419Y-82776819D02*
X163624419Y-83348247D01*
X163624419Y-83062533D02*
X162624419Y-83062533D01*
X162624419Y-83062533D02*
X162767276Y-83157771D01*
X162767276Y-83157771D02*
X162862514Y-83253009D01*
X162862514Y-83253009D02*
X162910133Y-83348247D01*
X162624419Y-82157771D02*
X162624419Y-82062533D01*
X162624419Y-82062533D02*
X162672038Y-81967295D01*
X162672038Y-81967295D02*
X162719657Y-81919676D01*
X162719657Y-81919676D02*
X162814895Y-81872057D01*
X162814895Y-81872057D02*
X163005371Y-81824438D01*
X163005371Y-81824438D02*
X163243466Y-81824438D01*
X163243466Y-81824438D02*
X163433942Y-81872057D01*
X163433942Y-81872057D02*
X163529180Y-81919676D01*
X163529180Y-81919676D02*
X163576800Y-81967295D01*
X163576800Y-81967295D02*
X163624419Y-82062533D01*
X163624419Y-82062533D02*
X163624419Y-82157771D01*
X163624419Y-82157771D02*
X163576800Y-82253009D01*
X163576800Y-82253009D02*
X163529180Y-82300628D01*
X163529180Y-82300628D02*
X163433942Y-82348247D01*
X163433942Y-82348247D02*
X163243466Y-82395866D01*
X163243466Y-82395866D02*
X163005371Y-82395866D01*
X163005371Y-82395866D02*
X162814895Y-82348247D01*
X162814895Y-82348247D02*
X162719657Y-82300628D01*
X162719657Y-82300628D02*
X162672038Y-82253009D01*
X162672038Y-82253009D02*
X162624419Y-82157771D01*
X162624419Y-81205390D02*
X162624419Y-81110152D01*
X162624419Y-81110152D02*
X162672038Y-81014914D01*
X162672038Y-81014914D02*
X162719657Y-80967295D01*
X162719657Y-80967295D02*
X162814895Y-80919676D01*
X162814895Y-80919676D02*
X163005371Y-80872057D01*
X163005371Y-80872057D02*
X163243466Y-80872057D01*
X163243466Y-80872057D02*
X163433942Y-80919676D01*
X163433942Y-80919676D02*
X163529180Y-80967295D01*
X163529180Y-80967295D02*
X163576800Y-81014914D01*
X163576800Y-81014914D02*
X163624419Y-81110152D01*
X163624419Y-81110152D02*
X163624419Y-81205390D01*
X163624419Y-81205390D02*
X163576800Y-81300628D01*
X163576800Y-81300628D02*
X163529180Y-81348247D01*
X163529180Y-81348247D02*
X163433942Y-81395866D01*
X163433942Y-81395866D02*
X163243466Y-81443485D01*
X163243466Y-81443485D02*
X163005371Y-81443485D01*
X163005371Y-81443485D02*
X162814895Y-81395866D01*
X162814895Y-81395866D02*
X162719657Y-81348247D01*
X162719657Y-81348247D02*
X162672038Y-81300628D01*
X162672038Y-81300628D02*
X162624419Y-81205390D01*
X162957752Y-80443485D02*
X163624419Y-80443485D01*
X163052990Y-80443485D02*
X163005371Y-80395866D01*
X163005371Y-80395866D02*
X162957752Y-80300628D01*
X162957752Y-80300628D02*
X162957752Y-80157771D01*
X162957752Y-80157771D02*
X163005371Y-80062533D01*
X163005371Y-80062533D02*
X163100609Y-80014914D01*
X163100609Y-80014914D02*
X163624419Y-80014914D01*
X163100609Y-79205390D02*
X163100609Y-79538723D01*
X163624419Y-79538723D02*
X162624419Y-79538723D01*
X162624419Y-79538723D02*
X162624419Y-79062533D01*
D11*
X162875933Y-86415872D02*
X162828314Y-86463492D01*
X162828314Y-86463492D02*
X162685457Y-86511111D01*
X162685457Y-86511111D02*
X162590219Y-86511111D01*
X162590219Y-86511111D02*
X162447362Y-86463492D01*
X162447362Y-86463492D02*
X162352124Y-86368253D01*
X162352124Y-86368253D02*
X162304505Y-86273015D01*
X162304505Y-86273015D02*
X162256886Y-86082539D01*
X162256886Y-86082539D02*
X162256886Y-85939682D01*
X162256886Y-85939682D02*
X162304505Y-85749206D01*
X162304505Y-85749206D02*
X162352124Y-85653968D01*
X162352124Y-85653968D02*
X162447362Y-85558730D01*
X162447362Y-85558730D02*
X162590219Y-85511111D01*
X162590219Y-85511111D02*
X162685457Y-85511111D01*
X162685457Y-85511111D02*
X162828314Y-85558730D01*
X162828314Y-85558730D02*
X162875933Y-85606349D01*
X163733076Y-85511111D02*
X163542600Y-85511111D01*
X163542600Y-85511111D02*
X163447362Y-85558730D01*
X163447362Y-85558730D02*
X163399743Y-85606349D01*
X163399743Y-85606349D02*
X163304505Y-85749206D01*
X163304505Y-85749206D02*
X163256886Y-85939682D01*
X163256886Y-85939682D02*
X163256886Y-86320634D01*
X163256886Y-86320634D02*
X163304505Y-86415872D01*
X163304505Y-86415872D02*
X163352124Y-86463492D01*
X163352124Y-86463492D02*
X163447362Y-86511111D01*
X163447362Y-86511111D02*
X163637838Y-86511111D01*
X163637838Y-86511111D02*
X163733076Y-86463492D01*
X163733076Y-86463492D02*
X163780695Y-86415872D01*
X163780695Y-86415872D02*
X163828314Y-86320634D01*
X163828314Y-86320634D02*
X163828314Y-86082539D01*
X163828314Y-86082539D02*
X163780695Y-85987301D01*
X163780695Y-85987301D02*
X163733076Y-85939682D01*
X163733076Y-85939682D02*
X163637838Y-85892063D01*
X163637838Y-85892063D02*
X163447362Y-85892063D01*
X163447362Y-85892063D02*
X163352124Y-85939682D01*
X163352124Y-85939682D02*
X163304505Y-85987301D01*
X163304505Y-85987301D02*
X163256886Y-86082539D01*
D10*
X196212619Y-73262619D02*
X196212619Y-73834047D01*
X196212619Y-73548333D02*
X195212619Y-73548333D01*
X195212619Y-73548333D02*
X195355476Y-73643571D01*
X195355476Y-73643571D02*
X195450714Y-73738809D01*
X195450714Y-73738809D02*
X195498333Y-73834047D01*
X195212619Y-72643571D02*
X195212619Y-72548333D01*
X195212619Y-72548333D02*
X195260238Y-72453095D01*
X195260238Y-72453095D02*
X195307857Y-72405476D01*
X195307857Y-72405476D02*
X195403095Y-72357857D01*
X195403095Y-72357857D02*
X195593571Y-72310238D01*
X195593571Y-72310238D02*
X195831666Y-72310238D01*
X195831666Y-72310238D02*
X196022142Y-72357857D01*
X196022142Y-72357857D02*
X196117380Y-72405476D01*
X196117380Y-72405476D02*
X196165000Y-72453095D01*
X196165000Y-72453095D02*
X196212619Y-72548333D01*
X196212619Y-72548333D02*
X196212619Y-72643571D01*
X196212619Y-72643571D02*
X196165000Y-72738809D01*
X196165000Y-72738809D02*
X196117380Y-72786428D01*
X196117380Y-72786428D02*
X196022142Y-72834047D01*
X196022142Y-72834047D02*
X195831666Y-72881666D01*
X195831666Y-72881666D02*
X195593571Y-72881666D01*
X195593571Y-72881666D02*
X195403095Y-72834047D01*
X195403095Y-72834047D02*
X195307857Y-72786428D01*
X195307857Y-72786428D02*
X195260238Y-72738809D01*
X195260238Y-72738809D02*
X195212619Y-72643571D01*
X195212619Y-71691190D02*
X195212619Y-71595952D01*
X195212619Y-71595952D02*
X195260238Y-71500714D01*
X195260238Y-71500714D02*
X195307857Y-71453095D01*
X195307857Y-71453095D02*
X195403095Y-71405476D01*
X195403095Y-71405476D02*
X195593571Y-71357857D01*
X195593571Y-71357857D02*
X195831666Y-71357857D01*
X195831666Y-71357857D02*
X196022142Y-71405476D01*
X196022142Y-71405476D02*
X196117380Y-71453095D01*
X196117380Y-71453095D02*
X196165000Y-71500714D01*
X196165000Y-71500714D02*
X196212619Y-71595952D01*
X196212619Y-71595952D02*
X196212619Y-71691190D01*
X196212619Y-71691190D02*
X196165000Y-71786428D01*
X196165000Y-71786428D02*
X196117380Y-71834047D01*
X196117380Y-71834047D02*
X196022142Y-71881666D01*
X196022142Y-71881666D02*
X195831666Y-71929285D01*
X195831666Y-71929285D02*
X195593571Y-71929285D01*
X195593571Y-71929285D02*
X195403095Y-71881666D01*
X195403095Y-71881666D02*
X195307857Y-71834047D01*
X195307857Y-71834047D02*
X195260238Y-71786428D01*
X195260238Y-71786428D02*
X195212619Y-71691190D01*
X195545952Y-70929285D02*
X196212619Y-70929285D01*
X195641190Y-70929285D02*
X195593571Y-70881666D01*
X195593571Y-70881666D02*
X195545952Y-70786428D01*
X195545952Y-70786428D02*
X195545952Y-70643571D01*
X195545952Y-70643571D02*
X195593571Y-70548333D01*
X195593571Y-70548333D02*
X195688809Y-70500714D01*
X195688809Y-70500714D02*
X196212619Y-70500714D01*
X195688809Y-69691190D02*
X195688809Y-70024523D01*
X196212619Y-70024523D02*
X195212619Y-70024523D01*
X195212619Y-70024523D02*
X195212619Y-69548333D01*
D11*
X195337133Y-76814672D02*
X195289514Y-76862292D01*
X195289514Y-76862292D02*
X195146657Y-76909911D01*
X195146657Y-76909911D02*
X195051419Y-76909911D01*
X195051419Y-76909911D02*
X194908562Y-76862292D01*
X194908562Y-76862292D02*
X194813324Y-76767053D01*
X194813324Y-76767053D02*
X194765705Y-76671815D01*
X194765705Y-76671815D02*
X194718086Y-76481339D01*
X194718086Y-76481339D02*
X194718086Y-76338482D01*
X194718086Y-76338482D02*
X194765705Y-76148006D01*
X194765705Y-76148006D02*
X194813324Y-76052768D01*
X194813324Y-76052768D02*
X194908562Y-75957530D01*
X194908562Y-75957530D02*
X195051419Y-75909911D01*
X195051419Y-75909911D02*
X195146657Y-75909911D01*
X195146657Y-75909911D02*
X195289514Y-75957530D01*
X195289514Y-75957530D02*
X195337133Y-76005149D01*
X195718086Y-76005149D02*
X195765705Y-75957530D01*
X195765705Y-75957530D02*
X195860943Y-75909911D01*
X195860943Y-75909911D02*
X196099038Y-75909911D01*
X196099038Y-75909911D02*
X196194276Y-75957530D01*
X196194276Y-75957530D02*
X196241895Y-76005149D01*
X196241895Y-76005149D02*
X196289514Y-76100387D01*
X196289514Y-76100387D02*
X196289514Y-76195625D01*
X196289514Y-76195625D02*
X196241895Y-76338482D01*
X196241895Y-76338482D02*
X195670467Y-76909911D01*
X195670467Y-76909911D02*
X196289514Y-76909911D01*
D10*
X112977943Y-117989819D02*
X113644609Y-117989819D01*
X113644609Y-117989819D02*
X113216038Y-118989819D01*
X114454133Y-118323152D02*
X114454133Y-118989819D01*
X114216038Y-117942200D02*
X113977943Y-118656485D01*
X113977943Y-118656485D02*
X114596990Y-118656485D01*
X115454133Y-118989819D02*
X114977943Y-118989819D01*
X114977943Y-118989819D02*
X114977943Y-117989819D01*
X115739848Y-118942200D02*
X115882705Y-118989819D01*
X115882705Y-118989819D02*
X116120800Y-118989819D01*
X116120800Y-118989819D02*
X116216038Y-118942200D01*
X116216038Y-118942200D02*
X116263657Y-118894580D01*
X116263657Y-118894580D02*
X116311276Y-118799342D01*
X116311276Y-118799342D02*
X116311276Y-118704104D01*
X116311276Y-118704104D02*
X116263657Y-118608866D01*
X116263657Y-118608866D02*
X116216038Y-118561247D01*
X116216038Y-118561247D02*
X116120800Y-118513628D01*
X116120800Y-118513628D02*
X115930324Y-118466009D01*
X115930324Y-118466009D02*
X115835086Y-118418390D01*
X115835086Y-118418390D02*
X115787467Y-118370771D01*
X115787467Y-118370771D02*
X115739848Y-118275533D01*
X115739848Y-118275533D02*
X115739848Y-118180295D01*
X115739848Y-118180295D02*
X115787467Y-118085057D01*
X115787467Y-118085057D02*
X115835086Y-118037438D01*
X115835086Y-118037438D02*
X115930324Y-117989819D01*
X115930324Y-117989819D02*
X116168419Y-117989819D01*
X116168419Y-117989819D02*
X116311276Y-118037438D01*
X117263657Y-118989819D02*
X116692229Y-118989819D01*
X116977943Y-118989819D02*
X116977943Y-117989819D01*
X116977943Y-117989819D02*
X116882705Y-118132676D01*
X116882705Y-118132676D02*
X116787467Y-118227914D01*
X116787467Y-118227914D02*
X116692229Y-118275533D01*
X118120800Y-118323152D02*
X118120800Y-118989819D01*
X117882705Y-117942200D02*
X117644610Y-118656485D01*
X117644610Y-118656485D02*
X118263657Y-118656485D01*
X114858895Y-108039819D02*
X114858895Y-108849342D01*
X114858895Y-108849342D02*
X114906514Y-108944580D01*
X114906514Y-108944580D02*
X114954133Y-108992200D01*
X114954133Y-108992200D02*
X115049371Y-109039819D01*
X115049371Y-109039819D02*
X115239847Y-109039819D01*
X115239847Y-109039819D02*
X115335085Y-108992200D01*
X115335085Y-108992200D02*
X115382704Y-108944580D01*
X115382704Y-108944580D02*
X115430323Y-108849342D01*
X115430323Y-108849342D02*
X115430323Y-108039819D01*
X116049371Y-108468390D02*
X115954133Y-108420771D01*
X115954133Y-108420771D02*
X115906514Y-108373152D01*
X115906514Y-108373152D02*
X115858895Y-108277914D01*
X115858895Y-108277914D02*
X115858895Y-108230295D01*
X115858895Y-108230295D02*
X115906514Y-108135057D01*
X115906514Y-108135057D02*
X115954133Y-108087438D01*
X115954133Y-108087438D02*
X116049371Y-108039819D01*
X116049371Y-108039819D02*
X116239847Y-108039819D01*
X116239847Y-108039819D02*
X116335085Y-108087438D01*
X116335085Y-108087438D02*
X116382704Y-108135057D01*
X116382704Y-108135057D02*
X116430323Y-108230295D01*
X116430323Y-108230295D02*
X116430323Y-108277914D01*
X116430323Y-108277914D02*
X116382704Y-108373152D01*
X116382704Y-108373152D02*
X116335085Y-108420771D01*
X116335085Y-108420771D02*
X116239847Y-108468390D01*
X116239847Y-108468390D02*
X116049371Y-108468390D01*
X116049371Y-108468390D02*
X115954133Y-108516009D01*
X115954133Y-108516009D02*
X115906514Y-108563628D01*
X115906514Y-108563628D02*
X115858895Y-108658866D01*
X115858895Y-108658866D02*
X115858895Y-108849342D01*
X115858895Y-108849342D02*
X115906514Y-108944580D01*
X115906514Y-108944580D02*
X115954133Y-108992200D01*
X115954133Y-108992200D02*
X116049371Y-109039819D01*
X116049371Y-109039819D02*
X116239847Y-109039819D01*
X116239847Y-109039819D02*
X116335085Y-108992200D01*
X116335085Y-108992200D02*
X116382704Y-108944580D01*
X116382704Y-108944580D02*
X116430323Y-108849342D01*
X116430323Y-108849342D02*
X116430323Y-108658866D01*
X116430323Y-108658866D02*
X116382704Y-108563628D01*
X116382704Y-108563628D02*
X116335085Y-108516009D01*
X116335085Y-108516009D02*
X116239847Y-108468390D01*
X110717038Y-113789819D02*
X110717038Y-112789819D01*
X110717038Y-112789819D02*
X111050371Y-113504104D01*
X111050371Y-113504104D02*
X111383704Y-112789819D01*
X111383704Y-112789819D02*
X111383704Y-113789819D01*
X112002752Y-113789819D02*
X111907514Y-113742200D01*
X111907514Y-113742200D02*
X111859895Y-113694580D01*
X111859895Y-113694580D02*
X111812276Y-113599342D01*
X111812276Y-113599342D02*
X111812276Y-113313628D01*
X111812276Y-113313628D02*
X111859895Y-113218390D01*
X111859895Y-113218390D02*
X111907514Y-113170771D01*
X111907514Y-113170771D02*
X112002752Y-113123152D01*
X112002752Y-113123152D02*
X112145609Y-113123152D01*
X112145609Y-113123152D02*
X112240847Y-113170771D01*
X112240847Y-113170771D02*
X112288466Y-113218390D01*
X112288466Y-113218390D02*
X112336085Y-113313628D01*
X112336085Y-113313628D02*
X112336085Y-113599342D01*
X112336085Y-113599342D02*
X112288466Y-113694580D01*
X112288466Y-113694580D02*
X112240847Y-113742200D01*
X112240847Y-113742200D02*
X112145609Y-113789819D01*
X112145609Y-113789819D02*
X112002752Y-113789819D01*
X113193228Y-113123152D02*
X113193228Y-113789819D01*
X112764657Y-113123152D02*
X112764657Y-113646961D01*
X112764657Y-113646961D02*
X112812276Y-113742200D01*
X112812276Y-113742200D02*
X112907514Y-113789819D01*
X112907514Y-113789819D02*
X113050371Y-113789819D01*
X113050371Y-113789819D02*
X113145609Y-113742200D01*
X113145609Y-113742200D02*
X113193228Y-113694580D01*
X113669419Y-113123152D02*
X113669419Y-113789819D01*
X113669419Y-113218390D02*
X113717038Y-113170771D01*
X113717038Y-113170771D02*
X113812276Y-113123152D01*
X113812276Y-113123152D02*
X113955133Y-113123152D01*
X113955133Y-113123152D02*
X114050371Y-113170771D01*
X114050371Y-113170771D02*
X114097990Y-113266009D01*
X114097990Y-113266009D02*
X114097990Y-113789819D01*
X114431324Y-113123152D02*
X114812276Y-113123152D01*
X114574181Y-112789819D02*
X114574181Y-113646961D01*
X114574181Y-113646961D02*
X114621800Y-113742200D01*
X114621800Y-113742200D02*
X114717038Y-113789819D01*
X114717038Y-113789819D02*
X114812276Y-113789819D01*
X115145610Y-113789819D02*
X115145610Y-113123152D01*
X115145610Y-112789819D02*
X115097991Y-112837438D01*
X115097991Y-112837438D02*
X115145610Y-112885057D01*
X115145610Y-112885057D02*
X115193229Y-112837438D01*
X115193229Y-112837438D02*
X115145610Y-112789819D01*
X115145610Y-112789819D02*
X115145610Y-112885057D01*
X115621800Y-113123152D02*
X115621800Y-113789819D01*
X115621800Y-113218390D02*
X115669419Y-113170771D01*
X115669419Y-113170771D02*
X115764657Y-113123152D01*
X115764657Y-113123152D02*
X115907514Y-113123152D01*
X115907514Y-113123152D02*
X116002752Y-113170771D01*
X116002752Y-113170771D02*
X116050371Y-113266009D01*
X116050371Y-113266009D02*
X116050371Y-113789819D01*
X116955133Y-113123152D02*
X116955133Y-113932676D01*
X116955133Y-113932676D02*
X116907514Y-114027914D01*
X116907514Y-114027914D02*
X116859895Y-114075533D01*
X116859895Y-114075533D02*
X116764657Y-114123152D01*
X116764657Y-114123152D02*
X116621800Y-114123152D01*
X116621800Y-114123152D02*
X116526562Y-114075533D01*
X116955133Y-113742200D02*
X116859895Y-113789819D01*
X116859895Y-113789819D02*
X116669419Y-113789819D01*
X116669419Y-113789819D02*
X116574181Y-113742200D01*
X116574181Y-113742200D02*
X116526562Y-113694580D01*
X116526562Y-113694580D02*
X116478943Y-113599342D01*
X116478943Y-113599342D02*
X116478943Y-113313628D01*
X116478943Y-113313628D02*
X116526562Y-113218390D01*
X116526562Y-113218390D02*
X116574181Y-113170771D01*
X116574181Y-113170771D02*
X116669419Y-113123152D01*
X116669419Y-113123152D02*
X116859895Y-113123152D01*
X116859895Y-113123152D02*
X116955133Y-113170771D01*
X117431324Y-113789819D02*
X117431324Y-112789819D01*
X117431324Y-113266009D02*
X118002752Y-113266009D01*
X118002752Y-113789819D02*
X118002752Y-112789819D01*
X118621800Y-113789819D02*
X118526562Y-113742200D01*
X118526562Y-113742200D02*
X118478943Y-113694580D01*
X118478943Y-113694580D02*
X118431324Y-113599342D01*
X118431324Y-113599342D02*
X118431324Y-113313628D01*
X118431324Y-113313628D02*
X118478943Y-113218390D01*
X118478943Y-113218390D02*
X118526562Y-113170771D01*
X118526562Y-113170771D02*
X118621800Y-113123152D01*
X118621800Y-113123152D02*
X118764657Y-113123152D01*
X118764657Y-113123152D02*
X118859895Y-113170771D01*
X118859895Y-113170771D02*
X118907514Y-113218390D01*
X118907514Y-113218390D02*
X118955133Y-113313628D01*
X118955133Y-113313628D02*
X118955133Y-113599342D01*
X118955133Y-113599342D02*
X118907514Y-113694580D01*
X118907514Y-113694580D02*
X118859895Y-113742200D01*
X118859895Y-113742200D02*
X118764657Y-113789819D01*
X118764657Y-113789819D02*
X118621800Y-113789819D01*
X119526562Y-113789819D02*
X119431324Y-113742200D01*
X119431324Y-113742200D02*
X119383705Y-113646961D01*
X119383705Y-113646961D02*
X119383705Y-112789819D01*
X120288467Y-113742200D02*
X120193229Y-113789819D01*
X120193229Y-113789819D02*
X120002753Y-113789819D01*
X120002753Y-113789819D02*
X119907515Y-113742200D01*
X119907515Y-113742200D02*
X119859896Y-113646961D01*
X119859896Y-113646961D02*
X119859896Y-113266009D01*
X119859896Y-113266009D02*
X119907515Y-113170771D01*
X119907515Y-113170771D02*
X120002753Y-113123152D01*
X120002753Y-113123152D02*
X120193229Y-113123152D01*
X120193229Y-113123152D02*
X120288467Y-113170771D01*
X120288467Y-113170771D02*
X120336086Y-113266009D01*
X120336086Y-113266009D02*
X120336086Y-113361247D01*
X120336086Y-113361247D02*
X119859896Y-113456485D01*
X120526563Y-113885057D02*
X121288467Y-113885057D01*
X121478944Y-112885057D02*
X121526563Y-112837438D01*
X121526563Y-112837438D02*
X121621801Y-112789819D01*
X121621801Y-112789819D02*
X121859896Y-112789819D01*
X121859896Y-112789819D02*
X121955134Y-112837438D01*
X121955134Y-112837438D02*
X122002753Y-112885057D01*
X122002753Y-112885057D02*
X122050372Y-112980295D01*
X122050372Y-112980295D02*
X122050372Y-113075533D01*
X122050372Y-113075533D02*
X122002753Y-113218390D01*
X122002753Y-113218390D02*
X121431325Y-113789819D01*
X121431325Y-113789819D02*
X122050372Y-113789819D01*
X122478944Y-113694580D02*
X122526563Y-113742200D01*
X122526563Y-113742200D02*
X122478944Y-113789819D01*
X122478944Y-113789819D02*
X122431325Y-113742200D01*
X122431325Y-113742200D02*
X122478944Y-113694580D01*
X122478944Y-113694580D02*
X122478944Y-113789819D01*
X122859896Y-112789819D02*
X123526562Y-112789819D01*
X123526562Y-112789819D02*
X123097991Y-113789819D01*
X123907515Y-113789819D02*
X123907515Y-113123152D01*
X123907515Y-113218390D02*
X123955134Y-113170771D01*
X123955134Y-113170771D02*
X124050372Y-113123152D01*
X124050372Y-113123152D02*
X124193229Y-113123152D01*
X124193229Y-113123152D02*
X124288467Y-113170771D01*
X124288467Y-113170771D02*
X124336086Y-113266009D01*
X124336086Y-113266009D02*
X124336086Y-113789819D01*
X124336086Y-113266009D02*
X124383705Y-113170771D01*
X124383705Y-113170771D02*
X124478943Y-113123152D01*
X124478943Y-113123152D02*
X124621800Y-113123152D01*
X124621800Y-113123152D02*
X124717039Y-113170771D01*
X124717039Y-113170771D02*
X124764658Y-113266009D01*
X124764658Y-113266009D02*
X124764658Y-113789819D01*
X125240848Y-113789819D02*
X125240848Y-113123152D01*
X125240848Y-113218390D02*
X125288467Y-113170771D01*
X125288467Y-113170771D02*
X125383705Y-113123152D01*
X125383705Y-113123152D02*
X125526562Y-113123152D01*
X125526562Y-113123152D02*
X125621800Y-113170771D01*
X125621800Y-113170771D02*
X125669419Y-113266009D01*
X125669419Y-113266009D02*
X125669419Y-113789819D01*
X125669419Y-113266009D02*
X125717038Y-113170771D01*
X125717038Y-113170771D02*
X125812276Y-113123152D01*
X125812276Y-113123152D02*
X125955133Y-113123152D01*
X125955133Y-113123152D02*
X126050372Y-113170771D01*
X126050372Y-113170771D02*
X126097991Y-113266009D01*
X126097991Y-113266009D02*
X126097991Y-113789819D01*
X126336086Y-113885057D02*
X127097990Y-113885057D01*
X127336086Y-113789819D02*
X127336086Y-112789819D01*
X127336086Y-112789819D02*
X127669419Y-113504104D01*
X127669419Y-113504104D02*
X128002752Y-112789819D01*
X128002752Y-112789819D02*
X128002752Y-113789819D01*
X128431324Y-112885057D02*
X128478943Y-112837438D01*
X128478943Y-112837438D02*
X128574181Y-112789819D01*
X128574181Y-112789819D02*
X128812276Y-112789819D01*
X128812276Y-112789819D02*
X128907514Y-112837438D01*
X128907514Y-112837438D02*
X128955133Y-112885057D01*
X128955133Y-112885057D02*
X129002752Y-112980295D01*
X129002752Y-112980295D02*
X129002752Y-113075533D01*
X129002752Y-113075533D02*
X128955133Y-113218390D01*
X128955133Y-113218390D02*
X128383705Y-113789819D01*
X128383705Y-113789819D02*
X129002752Y-113789819D01*
X129431324Y-113694580D02*
X129478943Y-113742200D01*
X129478943Y-113742200D02*
X129431324Y-113789819D01*
X129431324Y-113789819D02*
X129383705Y-113742200D01*
X129383705Y-113742200D02*
X129431324Y-113694580D01*
X129431324Y-113694580D02*
X129431324Y-113789819D01*
X130383704Y-112789819D02*
X129907514Y-112789819D01*
X129907514Y-112789819D02*
X129859895Y-113266009D01*
X129859895Y-113266009D02*
X129907514Y-113218390D01*
X129907514Y-113218390D02*
X130002752Y-113170771D01*
X130002752Y-113170771D02*
X130240847Y-113170771D01*
X130240847Y-113170771D02*
X130336085Y-113218390D01*
X130336085Y-113218390D02*
X130383704Y-113266009D01*
X130383704Y-113266009D02*
X130431323Y-113361247D01*
X130431323Y-113361247D02*
X130431323Y-113599342D01*
X130431323Y-113599342D02*
X130383704Y-113694580D01*
X130383704Y-113694580D02*
X130336085Y-113742200D01*
X130336085Y-113742200D02*
X130240847Y-113789819D01*
X130240847Y-113789819D02*
X130002752Y-113789819D01*
X130002752Y-113789819D02*
X129907514Y-113742200D01*
X129907514Y-113742200D02*
X129859895Y-113694580D01*
X130621800Y-113885057D02*
X131383704Y-113885057D01*
X131621800Y-113789819D02*
X131621800Y-112789819D01*
X131621800Y-112789819D02*
X131859895Y-112789819D01*
X131859895Y-112789819D02*
X132002752Y-112837438D01*
X132002752Y-112837438D02*
X132097990Y-112932676D01*
X132097990Y-112932676D02*
X132145609Y-113027914D01*
X132145609Y-113027914D02*
X132193228Y-113218390D01*
X132193228Y-113218390D02*
X132193228Y-113361247D01*
X132193228Y-113361247D02*
X132145609Y-113551723D01*
X132145609Y-113551723D02*
X132097990Y-113646961D01*
X132097990Y-113646961D02*
X132002752Y-113742200D01*
X132002752Y-113742200D02*
X131859895Y-113789819D01*
X131859895Y-113789819D02*
X131621800Y-113789819D01*
X132621800Y-113789819D02*
X132621800Y-112789819D01*
X133097990Y-113789819D02*
X133097990Y-112789819D01*
X133097990Y-112789819D02*
X133669418Y-113789819D01*
X133669418Y-113789819D02*
X133669418Y-112789819D01*
X134193228Y-113789819D02*
X134383704Y-113789819D01*
X134383704Y-113789819D02*
X134478942Y-113742200D01*
X134478942Y-113742200D02*
X134526561Y-113694580D01*
X134526561Y-113694580D02*
X134621799Y-113551723D01*
X134621799Y-113551723D02*
X134669418Y-113361247D01*
X134669418Y-113361247D02*
X134669418Y-112980295D01*
X134669418Y-112980295D02*
X134621799Y-112885057D01*
X134621799Y-112885057D02*
X134574180Y-112837438D01*
X134574180Y-112837438D02*
X134478942Y-112789819D01*
X134478942Y-112789819D02*
X134288466Y-112789819D01*
X134288466Y-112789819D02*
X134193228Y-112837438D01*
X134193228Y-112837438D02*
X134145609Y-112885057D01*
X134145609Y-112885057D02*
X134097990Y-112980295D01*
X134097990Y-112980295D02*
X134097990Y-113218390D01*
X134097990Y-113218390D02*
X134145609Y-113313628D01*
X134145609Y-113313628D02*
X134193228Y-113361247D01*
X134193228Y-113361247D02*
X134288466Y-113408866D01*
X134288466Y-113408866D02*
X134478942Y-113408866D01*
X134478942Y-113408866D02*
X134574180Y-113361247D01*
X134574180Y-113361247D02*
X134621799Y-113313628D01*
X134621799Y-113313628D02*
X134669418Y-113218390D01*
X135526561Y-112789819D02*
X135336085Y-112789819D01*
X135336085Y-112789819D02*
X135240847Y-112837438D01*
X135240847Y-112837438D02*
X135193228Y-112885057D01*
X135193228Y-112885057D02*
X135097990Y-113027914D01*
X135097990Y-113027914D02*
X135050371Y-113218390D01*
X135050371Y-113218390D02*
X135050371Y-113599342D01*
X135050371Y-113599342D02*
X135097990Y-113694580D01*
X135097990Y-113694580D02*
X135145609Y-113742200D01*
X135145609Y-113742200D02*
X135240847Y-113789819D01*
X135240847Y-113789819D02*
X135431323Y-113789819D01*
X135431323Y-113789819D02*
X135526561Y-113742200D01*
X135526561Y-113742200D02*
X135574180Y-113694580D01*
X135574180Y-113694580D02*
X135621799Y-113599342D01*
X135621799Y-113599342D02*
X135621799Y-113361247D01*
X135621799Y-113361247D02*
X135574180Y-113266009D01*
X135574180Y-113266009D02*
X135526561Y-113218390D01*
X135526561Y-113218390D02*
X135431323Y-113170771D01*
X135431323Y-113170771D02*
X135240847Y-113170771D01*
X135240847Y-113170771D02*
X135145609Y-113218390D01*
X135145609Y-113218390D02*
X135097990Y-113266009D01*
X135097990Y-113266009D02*
X135050371Y-113361247D01*
X136526561Y-112789819D02*
X136050371Y-112789819D01*
X136050371Y-112789819D02*
X136002752Y-113266009D01*
X136002752Y-113266009D02*
X136050371Y-113218390D01*
X136050371Y-113218390D02*
X136145609Y-113170771D01*
X136145609Y-113170771D02*
X136383704Y-113170771D01*
X136383704Y-113170771D02*
X136478942Y-113218390D01*
X136478942Y-113218390D02*
X136526561Y-113266009D01*
X136526561Y-113266009D02*
X136574180Y-113361247D01*
X136574180Y-113361247D02*
X136574180Y-113599342D01*
X136574180Y-113599342D02*
X136526561Y-113694580D01*
X136526561Y-113694580D02*
X136478942Y-113742200D01*
X136478942Y-113742200D02*
X136383704Y-113789819D01*
X136383704Y-113789819D02*
X136145609Y-113789819D01*
X136145609Y-113789819D02*
X136050371Y-113742200D01*
X136050371Y-113742200D02*
X136002752Y-113694580D01*
X121778943Y-110439819D02*
X121778943Y-109439819D01*
X121778943Y-109916009D02*
X122350371Y-109916009D01*
X122350371Y-110439819D02*
X122350371Y-109439819D01*
X123017038Y-109439819D02*
X123207514Y-109439819D01*
X123207514Y-109439819D02*
X123302752Y-109487438D01*
X123302752Y-109487438D02*
X123397990Y-109582676D01*
X123397990Y-109582676D02*
X123445609Y-109773152D01*
X123445609Y-109773152D02*
X123445609Y-110106485D01*
X123445609Y-110106485D02*
X123397990Y-110296961D01*
X123397990Y-110296961D02*
X123302752Y-110392200D01*
X123302752Y-110392200D02*
X123207514Y-110439819D01*
X123207514Y-110439819D02*
X123017038Y-110439819D01*
X123017038Y-110439819D02*
X122921800Y-110392200D01*
X122921800Y-110392200D02*
X122826562Y-110296961D01*
X122826562Y-110296961D02*
X122778943Y-110106485D01*
X122778943Y-110106485D02*
X122778943Y-109773152D01*
X122778943Y-109773152D02*
X122826562Y-109582676D01*
X122826562Y-109582676D02*
X122921800Y-109487438D01*
X122921800Y-109487438D02*
X123017038Y-109439819D01*
X124350371Y-110439819D02*
X123874181Y-110439819D01*
X123874181Y-110439819D02*
X123874181Y-109439819D01*
X124683705Y-109916009D02*
X125017038Y-109916009D01*
X125159895Y-110439819D02*
X124683705Y-110439819D01*
X124683705Y-110439819D02*
X124683705Y-109439819D01*
X124683705Y-109439819D02*
X125159895Y-109439819D01*
X125540848Y-109535057D02*
X125588467Y-109487438D01*
X125588467Y-109487438D02*
X125683705Y-109439819D01*
X125683705Y-109439819D02*
X125921800Y-109439819D01*
X125921800Y-109439819D02*
X126017038Y-109487438D01*
X126017038Y-109487438D02*
X126064657Y-109535057D01*
X126064657Y-109535057D02*
X126112276Y-109630295D01*
X126112276Y-109630295D02*
X126112276Y-109725533D01*
X126112276Y-109725533D02*
X126064657Y-109868390D01*
X126064657Y-109868390D02*
X125493229Y-110439819D01*
X125493229Y-110439819D02*
X126112276Y-110439819D01*
X135704819Y-83072019D02*
X135704819Y-83643447D01*
X135704819Y-83357733D02*
X134704819Y-83357733D01*
X134704819Y-83357733D02*
X134847676Y-83452971D01*
X134847676Y-83452971D02*
X134942914Y-83548209D01*
X134942914Y-83548209D02*
X134990533Y-83643447D01*
X134704819Y-82452971D02*
X134704819Y-82357733D01*
X134704819Y-82357733D02*
X134752438Y-82262495D01*
X134752438Y-82262495D02*
X134800057Y-82214876D01*
X134800057Y-82214876D02*
X134895295Y-82167257D01*
X134895295Y-82167257D02*
X135085771Y-82119638D01*
X135085771Y-82119638D02*
X135323866Y-82119638D01*
X135323866Y-82119638D02*
X135514342Y-82167257D01*
X135514342Y-82167257D02*
X135609580Y-82214876D01*
X135609580Y-82214876D02*
X135657200Y-82262495D01*
X135657200Y-82262495D02*
X135704819Y-82357733D01*
X135704819Y-82357733D02*
X135704819Y-82452971D01*
X135704819Y-82452971D02*
X135657200Y-82548209D01*
X135657200Y-82548209D02*
X135609580Y-82595828D01*
X135609580Y-82595828D02*
X135514342Y-82643447D01*
X135514342Y-82643447D02*
X135323866Y-82691066D01*
X135323866Y-82691066D02*
X135085771Y-82691066D01*
X135085771Y-82691066D02*
X134895295Y-82643447D01*
X134895295Y-82643447D02*
X134800057Y-82595828D01*
X134800057Y-82595828D02*
X134752438Y-82548209D01*
X134752438Y-82548209D02*
X134704819Y-82452971D01*
X134704819Y-81500590D02*
X134704819Y-81405352D01*
X134704819Y-81405352D02*
X134752438Y-81310114D01*
X134752438Y-81310114D02*
X134800057Y-81262495D01*
X134800057Y-81262495D02*
X134895295Y-81214876D01*
X134895295Y-81214876D02*
X135085771Y-81167257D01*
X135085771Y-81167257D02*
X135323866Y-81167257D01*
X135323866Y-81167257D02*
X135514342Y-81214876D01*
X135514342Y-81214876D02*
X135609580Y-81262495D01*
X135609580Y-81262495D02*
X135657200Y-81310114D01*
X135657200Y-81310114D02*
X135704819Y-81405352D01*
X135704819Y-81405352D02*
X135704819Y-81500590D01*
X135704819Y-81500590D02*
X135657200Y-81595828D01*
X135657200Y-81595828D02*
X135609580Y-81643447D01*
X135609580Y-81643447D02*
X135514342Y-81691066D01*
X135514342Y-81691066D02*
X135323866Y-81738685D01*
X135323866Y-81738685D02*
X135085771Y-81738685D01*
X135085771Y-81738685D02*
X134895295Y-81691066D01*
X134895295Y-81691066D02*
X134800057Y-81643447D01*
X134800057Y-81643447D02*
X134752438Y-81595828D01*
X134752438Y-81595828D02*
X134704819Y-81500590D01*
X135038152Y-80738685D02*
X135704819Y-80738685D01*
X135133390Y-80738685D02*
X135085771Y-80691066D01*
X135085771Y-80691066D02*
X135038152Y-80595828D01*
X135038152Y-80595828D02*
X135038152Y-80452971D01*
X135038152Y-80452971D02*
X135085771Y-80357733D01*
X135085771Y-80357733D02*
X135181009Y-80310114D01*
X135181009Y-80310114D02*
X135704819Y-80310114D01*
X135181009Y-79500590D02*
X135181009Y-79833923D01*
X135704819Y-79833923D02*
X134704819Y-79833923D01*
X134704819Y-79833923D02*
X134704819Y-79357733D01*
D11*
X135083333Y-86203072D02*
X135035714Y-86250692D01*
X135035714Y-86250692D02*
X134892857Y-86298311D01*
X134892857Y-86298311D02*
X134797619Y-86298311D01*
X134797619Y-86298311D02*
X134654762Y-86250692D01*
X134654762Y-86250692D02*
X134559524Y-86155453D01*
X134559524Y-86155453D02*
X134511905Y-86060215D01*
X134511905Y-86060215D02*
X134464286Y-85869739D01*
X134464286Y-85869739D02*
X134464286Y-85726882D01*
X134464286Y-85726882D02*
X134511905Y-85536406D01*
X134511905Y-85536406D02*
X134559524Y-85441168D01*
X134559524Y-85441168D02*
X134654762Y-85345930D01*
X134654762Y-85345930D02*
X134797619Y-85298311D01*
X134797619Y-85298311D02*
X134892857Y-85298311D01*
X134892857Y-85298311D02*
X135035714Y-85345930D01*
X135035714Y-85345930D02*
X135083333Y-85393549D01*
X135940476Y-85631644D02*
X135940476Y-86298311D01*
X135702381Y-85250692D02*
X135464286Y-85964977D01*
X135464286Y-85964977D02*
X136083333Y-85964977D01*
D10*
X94335152Y-106864019D02*
X94335152Y-105864019D01*
X94335152Y-105864019D02*
X94668485Y-106578304D01*
X94668485Y-106578304D02*
X95001818Y-105864019D01*
X95001818Y-105864019D02*
X95001818Y-106864019D01*
X95620866Y-106864019D02*
X95525628Y-106816400D01*
X95525628Y-106816400D02*
X95478009Y-106768780D01*
X95478009Y-106768780D02*
X95430390Y-106673542D01*
X95430390Y-106673542D02*
X95430390Y-106387828D01*
X95430390Y-106387828D02*
X95478009Y-106292590D01*
X95478009Y-106292590D02*
X95525628Y-106244971D01*
X95525628Y-106244971D02*
X95620866Y-106197352D01*
X95620866Y-106197352D02*
X95763723Y-106197352D01*
X95763723Y-106197352D02*
X95858961Y-106244971D01*
X95858961Y-106244971D02*
X95906580Y-106292590D01*
X95906580Y-106292590D02*
X95954199Y-106387828D01*
X95954199Y-106387828D02*
X95954199Y-106673542D01*
X95954199Y-106673542D02*
X95906580Y-106768780D01*
X95906580Y-106768780D02*
X95858961Y-106816400D01*
X95858961Y-106816400D02*
X95763723Y-106864019D01*
X95763723Y-106864019D02*
X95620866Y-106864019D01*
X96811342Y-106197352D02*
X96811342Y-106864019D01*
X96382771Y-106197352D02*
X96382771Y-106721161D01*
X96382771Y-106721161D02*
X96430390Y-106816400D01*
X96430390Y-106816400D02*
X96525628Y-106864019D01*
X96525628Y-106864019D02*
X96668485Y-106864019D01*
X96668485Y-106864019D02*
X96763723Y-106816400D01*
X96763723Y-106816400D02*
X96811342Y-106768780D01*
X97287533Y-106197352D02*
X97287533Y-106864019D01*
X97287533Y-106292590D02*
X97335152Y-106244971D01*
X97335152Y-106244971D02*
X97430390Y-106197352D01*
X97430390Y-106197352D02*
X97573247Y-106197352D01*
X97573247Y-106197352D02*
X97668485Y-106244971D01*
X97668485Y-106244971D02*
X97716104Y-106340209D01*
X97716104Y-106340209D02*
X97716104Y-106864019D01*
X98049438Y-106197352D02*
X98430390Y-106197352D01*
X98192295Y-105864019D02*
X98192295Y-106721161D01*
X98192295Y-106721161D02*
X98239914Y-106816400D01*
X98239914Y-106816400D02*
X98335152Y-106864019D01*
X98335152Y-106864019D02*
X98430390Y-106864019D01*
X98763724Y-106864019D02*
X98763724Y-106197352D01*
X98763724Y-105864019D02*
X98716105Y-105911638D01*
X98716105Y-105911638D02*
X98763724Y-105959257D01*
X98763724Y-105959257D02*
X98811343Y-105911638D01*
X98811343Y-105911638D02*
X98763724Y-105864019D01*
X98763724Y-105864019D02*
X98763724Y-105959257D01*
X99239914Y-106197352D02*
X99239914Y-106864019D01*
X99239914Y-106292590D02*
X99287533Y-106244971D01*
X99287533Y-106244971D02*
X99382771Y-106197352D01*
X99382771Y-106197352D02*
X99525628Y-106197352D01*
X99525628Y-106197352D02*
X99620866Y-106244971D01*
X99620866Y-106244971D02*
X99668485Y-106340209D01*
X99668485Y-106340209D02*
X99668485Y-106864019D01*
X100573247Y-106197352D02*
X100573247Y-107006876D01*
X100573247Y-107006876D02*
X100525628Y-107102114D01*
X100525628Y-107102114D02*
X100478009Y-107149733D01*
X100478009Y-107149733D02*
X100382771Y-107197352D01*
X100382771Y-107197352D02*
X100239914Y-107197352D01*
X100239914Y-107197352D02*
X100144676Y-107149733D01*
X100573247Y-106816400D02*
X100478009Y-106864019D01*
X100478009Y-106864019D02*
X100287533Y-106864019D01*
X100287533Y-106864019D02*
X100192295Y-106816400D01*
X100192295Y-106816400D02*
X100144676Y-106768780D01*
X100144676Y-106768780D02*
X100097057Y-106673542D01*
X100097057Y-106673542D02*
X100097057Y-106387828D01*
X100097057Y-106387828D02*
X100144676Y-106292590D01*
X100144676Y-106292590D02*
X100192295Y-106244971D01*
X100192295Y-106244971D02*
X100287533Y-106197352D01*
X100287533Y-106197352D02*
X100478009Y-106197352D01*
X100478009Y-106197352D02*
X100573247Y-106244971D01*
X101049438Y-106864019D02*
X101049438Y-105864019D01*
X101049438Y-106340209D02*
X101620866Y-106340209D01*
X101620866Y-106864019D02*
X101620866Y-105864019D01*
X102239914Y-106864019D02*
X102144676Y-106816400D01*
X102144676Y-106816400D02*
X102097057Y-106768780D01*
X102097057Y-106768780D02*
X102049438Y-106673542D01*
X102049438Y-106673542D02*
X102049438Y-106387828D01*
X102049438Y-106387828D02*
X102097057Y-106292590D01*
X102097057Y-106292590D02*
X102144676Y-106244971D01*
X102144676Y-106244971D02*
X102239914Y-106197352D01*
X102239914Y-106197352D02*
X102382771Y-106197352D01*
X102382771Y-106197352D02*
X102478009Y-106244971D01*
X102478009Y-106244971D02*
X102525628Y-106292590D01*
X102525628Y-106292590D02*
X102573247Y-106387828D01*
X102573247Y-106387828D02*
X102573247Y-106673542D01*
X102573247Y-106673542D02*
X102525628Y-106768780D01*
X102525628Y-106768780D02*
X102478009Y-106816400D01*
X102478009Y-106816400D02*
X102382771Y-106864019D01*
X102382771Y-106864019D02*
X102239914Y-106864019D01*
X103144676Y-106864019D02*
X103049438Y-106816400D01*
X103049438Y-106816400D02*
X103001819Y-106721161D01*
X103001819Y-106721161D02*
X103001819Y-105864019D01*
X103906581Y-106816400D02*
X103811343Y-106864019D01*
X103811343Y-106864019D02*
X103620867Y-106864019D01*
X103620867Y-106864019D02*
X103525629Y-106816400D01*
X103525629Y-106816400D02*
X103478010Y-106721161D01*
X103478010Y-106721161D02*
X103478010Y-106340209D01*
X103478010Y-106340209D02*
X103525629Y-106244971D01*
X103525629Y-106244971D02*
X103620867Y-106197352D01*
X103620867Y-106197352D02*
X103811343Y-106197352D01*
X103811343Y-106197352D02*
X103906581Y-106244971D01*
X103906581Y-106244971D02*
X103954200Y-106340209D01*
X103954200Y-106340209D02*
X103954200Y-106435447D01*
X103954200Y-106435447D02*
X103478010Y-106530685D01*
X104144677Y-106959257D02*
X104906581Y-106959257D01*
X105573248Y-105864019D02*
X105382772Y-105864019D01*
X105382772Y-105864019D02*
X105287534Y-105911638D01*
X105287534Y-105911638D02*
X105239915Y-105959257D01*
X105239915Y-105959257D02*
X105144677Y-106102114D01*
X105144677Y-106102114D02*
X105097058Y-106292590D01*
X105097058Y-106292590D02*
X105097058Y-106673542D01*
X105097058Y-106673542D02*
X105144677Y-106768780D01*
X105144677Y-106768780D02*
X105192296Y-106816400D01*
X105192296Y-106816400D02*
X105287534Y-106864019D01*
X105287534Y-106864019D02*
X105478010Y-106864019D01*
X105478010Y-106864019D02*
X105573248Y-106816400D01*
X105573248Y-106816400D02*
X105620867Y-106768780D01*
X105620867Y-106768780D02*
X105668486Y-106673542D01*
X105668486Y-106673542D02*
X105668486Y-106435447D01*
X105668486Y-106435447D02*
X105620867Y-106340209D01*
X105620867Y-106340209D02*
X105573248Y-106292590D01*
X105573248Y-106292590D02*
X105478010Y-106244971D01*
X105478010Y-106244971D02*
X105287534Y-106244971D01*
X105287534Y-106244971D02*
X105192296Y-106292590D01*
X105192296Y-106292590D02*
X105144677Y-106340209D01*
X105144677Y-106340209D02*
X105097058Y-106435447D01*
X106097058Y-106768780D02*
X106144677Y-106816400D01*
X106144677Y-106816400D02*
X106097058Y-106864019D01*
X106097058Y-106864019D02*
X106049439Y-106816400D01*
X106049439Y-106816400D02*
X106097058Y-106768780D01*
X106097058Y-106768780D02*
X106097058Y-106864019D01*
X107001819Y-106197352D02*
X107001819Y-106864019D01*
X106763724Y-105816400D02*
X106525629Y-106530685D01*
X106525629Y-106530685D02*
X107144676Y-106530685D01*
X107525629Y-106864019D02*
X107525629Y-106197352D01*
X107525629Y-106292590D02*
X107573248Y-106244971D01*
X107573248Y-106244971D02*
X107668486Y-106197352D01*
X107668486Y-106197352D02*
X107811343Y-106197352D01*
X107811343Y-106197352D02*
X107906581Y-106244971D01*
X107906581Y-106244971D02*
X107954200Y-106340209D01*
X107954200Y-106340209D02*
X107954200Y-106864019D01*
X107954200Y-106340209D02*
X108001819Y-106244971D01*
X108001819Y-106244971D02*
X108097057Y-106197352D01*
X108097057Y-106197352D02*
X108239914Y-106197352D01*
X108239914Y-106197352D02*
X108335153Y-106244971D01*
X108335153Y-106244971D02*
X108382772Y-106340209D01*
X108382772Y-106340209D02*
X108382772Y-106864019D01*
X108858962Y-106864019D02*
X108858962Y-106197352D01*
X108858962Y-106292590D02*
X108906581Y-106244971D01*
X108906581Y-106244971D02*
X109001819Y-106197352D01*
X109001819Y-106197352D02*
X109144676Y-106197352D01*
X109144676Y-106197352D02*
X109239914Y-106244971D01*
X109239914Y-106244971D02*
X109287533Y-106340209D01*
X109287533Y-106340209D02*
X109287533Y-106864019D01*
X109287533Y-106340209D02*
X109335152Y-106244971D01*
X109335152Y-106244971D02*
X109430390Y-106197352D01*
X109430390Y-106197352D02*
X109573247Y-106197352D01*
X109573247Y-106197352D02*
X109668486Y-106244971D01*
X109668486Y-106244971D02*
X109716105Y-106340209D01*
X109716105Y-106340209D02*
X109716105Y-106864019D01*
X109954200Y-106959257D02*
X110716104Y-106959257D01*
X110954200Y-106864019D02*
X110954200Y-105864019D01*
X110954200Y-105864019D02*
X111287533Y-106578304D01*
X111287533Y-106578304D02*
X111620866Y-105864019D01*
X111620866Y-105864019D02*
X111620866Y-106864019D01*
X112525628Y-105864019D02*
X112335152Y-105864019D01*
X112335152Y-105864019D02*
X112239914Y-105911638D01*
X112239914Y-105911638D02*
X112192295Y-105959257D01*
X112192295Y-105959257D02*
X112097057Y-106102114D01*
X112097057Y-106102114D02*
X112049438Y-106292590D01*
X112049438Y-106292590D02*
X112049438Y-106673542D01*
X112049438Y-106673542D02*
X112097057Y-106768780D01*
X112097057Y-106768780D02*
X112144676Y-106816400D01*
X112144676Y-106816400D02*
X112239914Y-106864019D01*
X112239914Y-106864019D02*
X112430390Y-106864019D01*
X112430390Y-106864019D02*
X112525628Y-106816400D01*
X112525628Y-106816400D02*
X112573247Y-106768780D01*
X112573247Y-106768780D02*
X112620866Y-106673542D01*
X112620866Y-106673542D02*
X112620866Y-106435447D01*
X112620866Y-106435447D02*
X112573247Y-106340209D01*
X112573247Y-106340209D02*
X112525628Y-106292590D01*
X112525628Y-106292590D02*
X112430390Y-106244971D01*
X112430390Y-106244971D02*
X112239914Y-106244971D01*
X112239914Y-106244971D02*
X112144676Y-106292590D01*
X112144676Y-106292590D02*
X112097057Y-106340209D01*
X112097057Y-106340209D02*
X112049438Y-106435447D01*
X101311343Y-99464019D02*
X101311343Y-98464019D01*
X101311343Y-98940209D02*
X101882771Y-98940209D01*
X101882771Y-99464019D02*
X101882771Y-98464019D01*
X102549438Y-98464019D02*
X102739914Y-98464019D01*
X102739914Y-98464019D02*
X102835152Y-98511638D01*
X102835152Y-98511638D02*
X102930390Y-98606876D01*
X102930390Y-98606876D02*
X102978009Y-98797352D01*
X102978009Y-98797352D02*
X102978009Y-99130685D01*
X102978009Y-99130685D02*
X102930390Y-99321161D01*
X102930390Y-99321161D02*
X102835152Y-99416400D01*
X102835152Y-99416400D02*
X102739914Y-99464019D01*
X102739914Y-99464019D02*
X102549438Y-99464019D01*
X102549438Y-99464019D02*
X102454200Y-99416400D01*
X102454200Y-99416400D02*
X102358962Y-99321161D01*
X102358962Y-99321161D02*
X102311343Y-99130685D01*
X102311343Y-99130685D02*
X102311343Y-98797352D01*
X102311343Y-98797352D02*
X102358962Y-98606876D01*
X102358962Y-98606876D02*
X102454200Y-98511638D01*
X102454200Y-98511638D02*
X102549438Y-98464019D01*
X103882771Y-99464019D02*
X103406581Y-99464019D01*
X103406581Y-99464019D02*
X103406581Y-98464019D01*
X104216105Y-98940209D02*
X104549438Y-98940209D01*
X104692295Y-99464019D02*
X104216105Y-99464019D01*
X104216105Y-99464019D02*
X104216105Y-98464019D01*
X104216105Y-98464019D02*
X104692295Y-98464019D01*
X105644676Y-99464019D02*
X105073248Y-99464019D01*
X105358962Y-99464019D02*
X105358962Y-98464019D01*
X105358962Y-98464019D02*
X105263724Y-98606876D01*
X105263724Y-98606876D02*
X105168486Y-98702114D01*
X105168486Y-98702114D02*
X105073248Y-98749733D01*
X120860619Y-82787619D02*
X120860619Y-83359047D01*
X120860619Y-83073333D02*
X119860619Y-83073333D01*
X119860619Y-83073333D02*
X120003476Y-83168571D01*
X120003476Y-83168571D02*
X120098714Y-83263809D01*
X120098714Y-83263809D02*
X120146333Y-83359047D01*
X119860619Y-82168571D02*
X119860619Y-82073333D01*
X119860619Y-82073333D02*
X119908238Y-81978095D01*
X119908238Y-81978095D02*
X119955857Y-81930476D01*
X119955857Y-81930476D02*
X120051095Y-81882857D01*
X120051095Y-81882857D02*
X120241571Y-81835238D01*
X120241571Y-81835238D02*
X120479666Y-81835238D01*
X120479666Y-81835238D02*
X120670142Y-81882857D01*
X120670142Y-81882857D02*
X120765380Y-81930476D01*
X120765380Y-81930476D02*
X120813000Y-81978095D01*
X120813000Y-81978095D02*
X120860619Y-82073333D01*
X120860619Y-82073333D02*
X120860619Y-82168571D01*
X120860619Y-82168571D02*
X120813000Y-82263809D01*
X120813000Y-82263809D02*
X120765380Y-82311428D01*
X120765380Y-82311428D02*
X120670142Y-82359047D01*
X120670142Y-82359047D02*
X120479666Y-82406666D01*
X120479666Y-82406666D02*
X120241571Y-82406666D01*
X120241571Y-82406666D02*
X120051095Y-82359047D01*
X120051095Y-82359047D02*
X119955857Y-82311428D01*
X119955857Y-82311428D02*
X119908238Y-82263809D01*
X119908238Y-82263809D02*
X119860619Y-82168571D01*
X119860619Y-81216190D02*
X119860619Y-81120952D01*
X119860619Y-81120952D02*
X119908238Y-81025714D01*
X119908238Y-81025714D02*
X119955857Y-80978095D01*
X119955857Y-80978095D02*
X120051095Y-80930476D01*
X120051095Y-80930476D02*
X120241571Y-80882857D01*
X120241571Y-80882857D02*
X120479666Y-80882857D01*
X120479666Y-80882857D02*
X120670142Y-80930476D01*
X120670142Y-80930476D02*
X120765380Y-80978095D01*
X120765380Y-80978095D02*
X120813000Y-81025714D01*
X120813000Y-81025714D02*
X120860619Y-81120952D01*
X120860619Y-81120952D02*
X120860619Y-81216190D01*
X120860619Y-81216190D02*
X120813000Y-81311428D01*
X120813000Y-81311428D02*
X120765380Y-81359047D01*
X120765380Y-81359047D02*
X120670142Y-81406666D01*
X120670142Y-81406666D02*
X120479666Y-81454285D01*
X120479666Y-81454285D02*
X120241571Y-81454285D01*
X120241571Y-81454285D02*
X120051095Y-81406666D01*
X120051095Y-81406666D02*
X119955857Y-81359047D01*
X119955857Y-81359047D02*
X119908238Y-81311428D01*
X119908238Y-81311428D02*
X119860619Y-81216190D01*
X120193952Y-80454285D02*
X120860619Y-80454285D01*
X120289190Y-80454285D02*
X120241571Y-80406666D01*
X120241571Y-80406666D02*
X120193952Y-80311428D01*
X120193952Y-80311428D02*
X120193952Y-80168571D01*
X120193952Y-80168571D02*
X120241571Y-80073333D01*
X120241571Y-80073333D02*
X120336809Y-80025714D01*
X120336809Y-80025714D02*
X120860619Y-80025714D01*
X120336809Y-79216190D02*
X120336809Y-79549523D01*
X120860619Y-79549523D02*
X119860619Y-79549523D01*
X119860619Y-79549523D02*
X119860619Y-79073333D01*
D11*
X122915040Y-81383333D02*
X122955993Y-81424285D01*
X122955993Y-81424285D02*
X122996945Y-81547143D01*
X122996945Y-81547143D02*
X122996945Y-81629047D01*
X122996945Y-81629047D02*
X122955993Y-81751904D01*
X122955993Y-81751904D02*
X122874088Y-81833809D01*
X122874088Y-81833809D02*
X122792183Y-81874762D01*
X122792183Y-81874762D02*
X122628373Y-81915714D01*
X122628373Y-81915714D02*
X122505516Y-81915714D01*
X122505516Y-81915714D02*
X122341707Y-81874762D01*
X122341707Y-81874762D02*
X122259802Y-81833809D01*
X122259802Y-81833809D02*
X122177897Y-81751904D01*
X122177897Y-81751904D02*
X122136945Y-81629047D01*
X122136945Y-81629047D02*
X122136945Y-81547143D01*
X122136945Y-81547143D02*
X122177897Y-81424285D01*
X122177897Y-81424285D02*
X122218850Y-81383333D01*
X122136945Y-81096666D02*
X122136945Y-80564285D01*
X122136945Y-80564285D02*
X122464564Y-80850952D01*
X122464564Y-80850952D02*
X122464564Y-80728095D01*
X122464564Y-80728095D02*
X122505516Y-80646190D01*
X122505516Y-80646190D02*
X122546469Y-80605238D01*
X122546469Y-80605238D02*
X122628373Y-80564285D01*
X122628373Y-80564285D02*
X122833135Y-80564285D01*
X122833135Y-80564285D02*
X122915040Y-80605238D01*
X122915040Y-80605238D02*
X122955993Y-80646190D01*
X122955993Y-80646190D02*
X122996945Y-80728095D01*
X122996945Y-80728095D02*
X122996945Y-80973809D01*
X122996945Y-80973809D02*
X122955993Y-81055714D01*
X122955993Y-81055714D02*
X122915040Y-81096666D01*
D10*
X139802752Y-98304819D02*
X140469418Y-98304819D01*
X140469418Y-98304819D02*
X140040847Y-99304819D01*
X141278942Y-98638152D02*
X141278942Y-99304819D01*
X141040847Y-98257200D02*
X140802752Y-98971485D01*
X140802752Y-98971485D02*
X141421799Y-98971485D01*
X142278942Y-99304819D02*
X141802752Y-99304819D01*
X141802752Y-99304819D02*
X141802752Y-98304819D01*
X142564657Y-99257200D02*
X142707514Y-99304819D01*
X142707514Y-99304819D02*
X142945609Y-99304819D01*
X142945609Y-99304819D02*
X143040847Y-99257200D01*
X143040847Y-99257200D02*
X143088466Y-99209580D01*
X143088466Y-99209580D02*
X143136085Y-99114342D01*
X143136085Y-99114342D02*
X143136085Y-99019104D01*
X143136085Y-99019104D02*
X143088466Y-98923866D01*
X143088466Y-98923866D02*
X143040847Y-98876247D01*
X143040847Y-98876247D02*
X142945609Y-98828628D01*
X142945609Y-98828628D02*
X142755133Y-98781009D01*
X142755133Y-98781009D02*
X142659895Y-98733390D01*
X142659895Y-98733390D02*
X142612276Y-98685771D01*
X142612276Y-98685771D02*
X142564657Y-98590533D01*
X142564657Y-98590533D02*
X142564657Y-98495295D01*
X142564657Y-98495295D02*
X142612276Y-98400057D01*
X142612276Y-98400057D02*
X142659895Y-98352438D01*
X142659895Y-98352438D02*
X142755133Y-98304819D01*
X142755133Y-98304819D02*
X142993228Y-98304819D01*
X142993228Y-98304819D02*
X143136085Y-98352438D01*
X144088466Y-99304819D02*
X143517038Y-99304819D01*
X143802752Y-99304819D02*
X143802752Y-98304819D01*
X143802752Y-98304819D02*
X143707514Y-98447676D01*
X143707514Y-98447676D02*
X143612276Y-98542914D01*
X143612276Y-98542914D02*
X143517038Y-98590533D01*
X144421800Y-98304819D02*
X145088466Y-98304819D01*
X145088466Y-98304819D02*
X144659895Y-99304819D01*
X145945609Y-98304819D02*
X145469419Y-98304819D01*
X145469419Y-98304819D02*
X145421800Y-98781009D01*
X145421800Y-98781009D02*
X145469419Y-98733390D01*
X145469419Y-98733390D02*
X145564657Y-98685771D01*
X145564657Y-98685771D02*
X145802752Y-98685771D01*
X145802752Y-98685771D02*
X145897990Y-98733390D01*
X145897990Y-98733390D02*
X145945609Y-98781009D01*
X145945609Y-98781009D02*
X145993228Y-98876247D01*
X145993228Y-98876247D02*
X145993228Y-99114342D01*
X145993228Y-99114342D02*
X145945609Y-99209580D01*
X145945609Y-99209580D02*
X145897990Y-99257200D01*
X145897990Y-99257200D02*
X145802752Y-99304819D01*
X145802752Y-99304819D02*
X145564657Y-99304819D01*
X145564657Y-99304819D02*
X145469419Y-99257200D01*
X145469419Y-99257200D02*
X145421800Y-99209580D01*
X142159895Y-87084819D02*
X142159895Y-87894342D01*
X142159895Y-87894342D02*
X142207514Y-87989580D01*
X142207514Y-87989580D02*
X142255133Y-88037200D01*
X142255133Y-88037200D02*
X142350371Y-88084819D01*
X142350371Y-88084819D02*
X142540847Y-88084819D01*
X142540847Y-88084819D02*
X142636085Y-88037200D01*
X142636085Y-88037200D02*
X142683704Y-87989580D01*
X142683704Y-87989580D02*
X142731323Y-87894342D01*
X142731323Y-87894342D02*
X142731323Y-87084819D01*
X143683704Y-87084819D02*
X143207514Y-87084819D01*
X143207514Y-87084819D02*
X143159895Y-87561009D01*
X143159895Y-87561009D02*
X143207514Y-87513390D01*
X143207514Y-87513390D02*
X143302752Y-87465771D01*
X143302752Y-87465771D02*
X143540847Y-87465771D01*
X143540847Y-87465771D02*
X143636085Y-87513390D01*
X143636085Y-87513390D02*
X143683704Y-87561009D01*
X143683704Y-87561009D02*
X143731323Y-87656247D01*
X143731323Y-87656247D02*
X143731323Y-87894342D01*
X143731323Y-87894342D02*
X143683704Y-87989580D01*
X143683704Y-87989580D02*
X143636085Y-88037200D01*
X143636085Y-88037200D02*
X143540847Y-88084819D01*
X143540847Y-88084819D02*
X143302752Y-88084819D01*
X143302752Y-88084819D02*
X143207514Y-88037200D01*
X143207514Y-88037200D02*
X143159895Y-87989580D01*
X129948180Y-98219419D02*
X129376752Y-98219419D01*
X129662466Y-98219419D02*
X129662466Y-97219419D01*
X129662466Y-97219419D02*
X129567228Y-97362276D01*
X129567228Y-97362276D02*
X129471990Y-97457514D01*
X129471990Y-97457514D02*
X129376752Y-97505133D01*
X130567228Y-97219419D02*
X130662466Y-97219419D01*
X130662466Y-97219419D02*
X130757704Y-97267038D01*
X130757704Y-97267038D02*
X130805323Y-97314657D01*
X130805323Y-97314657D02*
X130852942Y-97409895D01*
X130852942Y-97409895D02*
X130900561Y-97600371D01*
X130900561Y-97600371D02*
X130900561Y-97838466D01*
X130900561Y-97838466D02*
X130852942Y-98028942D01*
X130852942Y-98028942D02*
X130805323Y-98124180D01*
X130805323Y-98124180D02*
X130757704Y-98171800D01*
X130757704Y-98171800D02*
X130662466Y-98219419D01*
X130662466Y-98219419D02*
X130567228Y-98219419D01*
X130567228Y-98219419D02*
X130471990Y-98171800D01*
X130471990Y-98171800D02*
X130424371Y-98124180D01*
X130424371Y-98124180D02*
X130376752Y-98028942D01*
X130376752Y-98028942D02*
X130329133Y-97838466D01*
X130329133Y-97838466D02*
X130329133Y-97600371D01*
X130329133Y-97600371D02*
X130376752Y-97409895D01*
X130376752Y-97409895D02*
X130424371Y-97314657D01*
X130424371Y-97314657D02*
X130471990Y-97267038D01*
X130471990Y-97267038D02*
X130567228Y-97219419D01*
X131519609Y-97219419D02*
X131614847Y-97219419D01*
X131614847Y-97219419D02*
X131710085Y-97267038D01*
X131710085Y-97267038D02*
X131757704Y-97314657D01*
X131757704Y-97314657D02*
X131805323Y-97409895D01*
X131805323Y-97409895D02*
X131852942Y-97600371D01*
X131852942Y-97600371D02*
X131852942Y-97838466D01*
X131852942Y-97838466D02*
X131805323Y-98028942D01*
X131805323Y-98028942D02*
X131757704Y-98124180D01*
X131757704Y-98124180D02*
X131710085Y-98171800D01*
X131710085Y-98171800D02*
X131614847Y-98219419D01*
X131614847Y-98219419D02*
X131519609Y-98219419D01*
X131519609Y-98219419D02*
X131424371Y-98171800D01*
X131424371Y-98171800D02*
X131376752Y-98124180D01*
X131376752Y-98124180D02*
X131329133Y-98028942D01*
X131329133Y-98028942D02*
X131281514Y-97838466D01*
X131281514Y-97838466D02*
X131281514Y-97600371D01*
X131281514Y-97600371D02*
X131329133Y-97409895D01*
X131329133Y-97409895D02*
X131376752Y-97314657D01*
X131376752Y-97314657D02*
X131424371Y-97267038D01*
X131424371Y-97267038D02*
X131519609Y-97219419D01*
X132281514Y-97552752D02*
X132281514Y-98219419D01*
X132281514Y-97647990D02*
X132329133Y-97600371D01*
X132329133Y-97600371D02*
X132424371Y-97552752D01*
X132424371Y-97552752D02*
X132567228Y-97552752D01*
X132567228Y-97552752D02*
X132662466Y-97600371D01*
X132662466Y-97600371D02*
X132710085Y-97695609D01*
X132710085Y-97695609D02*
X132710085Y-98219419D01*
X133519609Y-97695609D02*
X133186276Y-97695609D01*
X133186276Y-98219419D02*
X133186276Y-97219419D01*
X133186276Y-97219419D02*
X133662466Y-97219419D01*
D11*
X126903472Y-97804266D02*
X126951092Y-97851885D01*
X126951092Y-97851885D02*
X126998711Y-97994742D01*
X126998711Y-97994742D02*
X126998711Y-98089980D01*
X126998711Y-98089980D02*
X126951092Y-98232837D01*
X126951092Y-98232837D02*
X126855853Y-98328075D01*
X126855853Y-98328075D02*
X126760615Y-98375694D01*
X126760615Y-98375694D02*
X126570139Y-98423313D01*
X126570139Y-98423313D02*
X126427282Y-98423313D01*
X126427282Y-98423313D02*
X126236806Y-98375694D01*
X126236806Y-98375694D02*
X126141568Y-98328075D01*
X126141568Y-98328075D02*
X126046330Y-98232837D01*
X126046330Y-98232837D02*
X125998711Y-98089980D01*
X125998711Y-98089980D02*
X125998711Y-97994742D01*
X125998711Y-97994742D02*
X126046330Y-97851885D01*
X126046330Y-97851885D02*
X126093949Y-97804266D01*
X126998711Y-97328075D02*
X126998711Y-97137599D01*
X126998711Y-97137599D02*
X126951092Y-97042361D01*
X126951092Y-97042361D02*
X126903472Y-96994742D01*
X126903472Y-96994742D02*
X126760615Y-96899504D01*
X126760615Y-96899504D02*
X126570139Y-96851885D01*
X126570139Y-96851885D02*
X126189187Y-96851885D01*
X126189187Y-96851885D02*
X126093949Y-96899504D01*
X126093949Y-96899504D02*
X126046330Y-96947123D01*
X126046330Y-96947123D02*
X125998711Y-97042361D01*
X125998711Y-97042361D02*
X125998711Y-97232837D01*
X125998711Y-97232837D02*
X126046330Y-97328075D01*
X126046330Y-97328075D02*
X126093949Y-97375694D01*
X126093949Y-97375694D02*
X126189187Y-97423313D01*
X126189187Y-97423313D02*
X126427282Y-97423313D01*
X126427282Y-97423313D02*
X126522520Y-97375694D01*
X126522520Y-97375694D02*
X126570139Y-97328075D01*
X126570139Y-97328075D02*
X126617758Y-97232837D01*
X126617758Y-97232837D02*
X126617758Y-97042361D01*
X126617758Y-97042361D02*
X126570139Y-96947123D01*
X126570139Y-96947123D02*
X126522520Y-96899504D01*
X126522520Y-96899504D02*
X126427282Y-96851885D01*
D13*
%TO.C,C7*%
X176150800Y-74610000D02*
X176150800Y-72710000D01*
X176150800Y-72710000D02*
X171850800Y-72710000D01*
X171850800Y-74610000D02*
X176150800Y-74610000D01*
X171850800Y-72710000D02*
X171850800Y-74610000D01*
%TO.C,U7*%
X166675800Y-76565000D02*
X167675800Y-75565000D01*
X166675800Y-111125000D02*
X166675800Y-76565000D01*
X167675800Y-75565000D02*
X181405800Y-75565000D01*
X181405800Y-75565000D02*
X181405800Y-111125000D01*
X181405800Y-111125000D02*
X166675800Y-111125000D01*
%TO.C,R4*%
X99714100Y-106045000D02*
X101724100Y-106045000D01*
X101724100Y-105245000D02*
X101724100Y-106845000D01*
X101724100Y-106845000D02*
X105324100Y-106845000D01*
X105324100Y-105245000D02*
X101724100Y-105245000D01*
X105324100Y-106845000D02*
X105324100Y-105245000D01*
X107334100Y-106045000D02*
X105324100Y-106045000D01*
%TO.C,R1*%
X122605800Y-86360000D02*
X122605800Y-88370000D01*
X123405800Y-88370000D02*
X121805800Y-88370000D01*
X121805800Y-88370000D02*
X121805800Y-91970000D01*
X123405800Y-91970000D02*
X123405800Y-88370000D01*
X121805800Y-91970000D02*
X123405800Y-91970000D01*
X122605800Y-93980000D02*
X122605800Y-91970000D01*
%TO.C,U4*%
X125780800Y-78444600D02*
X126780800Y-77444600D01*
X125780800Y-95224600D02*
X125780800Y-78444600D01*
X126780800Y-77444600D02*
X132130800Y-77444600D01*
X132130800Y-77444600D02*
X132130800Y-95224600D01*
X132130800Y-95224600D02*
X125780800Y-95224600D01*
%TO.C,C8*%
X118445800Y-98740000D02*
X118445800Y-96840000D01*
X118445800Y-96840000D02*
X114145800Y-96840000D01*
X114145800Y-98740000D02*
X118445800Y-98740000D01*
X114145800Y-96840000D02*
X114145800Y-98740000D01*
%TO.C,U10*%
X139750800Y-100695000D02*
X140750800Y-99695000D01*
X139750800Y-117475000D02*
X139750800Y-100695000D01*
X140750800Y-99695000D02*
X146100800Y-99695000D01*
X146100800Y-99695000D02*
X146100800Y-117475000D01*
X146100800Y-117475000D02*
X139750800Y-117475000D01*
%TO.C,C10*%
X150352800Y-101315000D02*
X148452800Y-101315000D01*
X148452800Y-101315000D02*
X148452800Y-105615000D01*
X150352800Y-105615000D02*
X150352800Y-101315000D01*
X148452800Y-105615000D02*
X150352800Y-105615000D01*
%TO.C,R3*%
X149301200Y-86360000D02*
X149301200Y-88370000D01*
X150101200Y-88370000D02*
X148501200Y-88370000D01*
X148501200Y-88370000D02*
X148501200Y-91970000D01*
X150101200Y-91970000D02*
X150101200Y-88370000D01*
X148501200Y-91970000D02*
X150101200Y-91970000D01*
X149301200Y-93980000D02*
X149301200Y-91970000D01*
%TO.C,R5*%
X99720400Y-108585000D02*
X101730400Y-108585000D01*
X101730400Y-107785000D02*
X101730400Y-109385000D01*
X101730400Y-109385000D02*
X105330400Y-109385000D01*
X105330400Y-107785000D02*
X101730400Y-107785000D01*
X105330400Y-109385000D02*
X105330400Y-107785000D01*
X107340400Y-108585000D02*
X105330400Y-108585000D01*
%TO.C,U1*%
X102285800Y-74660000D02*
X103285800Y-73660000D01*
X102285800Y-91440000D02*
X102285800Y-74660000D01*
X103285800Y-73660000D02*
X108635800Y-73660000D01*
X108635800Y-73660000D02*
X108635800Y-91440000D01*
X108635800Y-91440000D02*
X102285800Y-91440000D01*
%TO.C,U9*%
X128320800Y-100695000D02*
X129320800Y-99695000D01*
X128320800Y-117475000D02*
X128320800Y-100695000D01*
X129320800Y-99695000D02*
X134670800Y-99695000D01*
X134670800Y-99695000D02*
X134670800Y-117475000D01*
X134670800Y-117475000D02*
X128320800Y-117475000D01*
%TO.C,C5*%
X150225800Y-79079200D02*
X148325800Y-79079200D01*
X148325800Y-79079200D02*
X148325800Y-83379200D01*
X150225800Y-83379200D02*
X150225800Y-79079200D01*
X148325800Y-83379200D02*
X150225800Y-83379200D01*
%TO.C,C1*%
X107650800Y-72705000D02*
X107650800Y-70805000D01*
X107650800Y-70805000D02*
X103350800Y-70805000D01*
X103350800Y-72705000D02*
X107650800Y-72705000D01*
X103350800Y-70805000D02*
X103350800Y-72705000D01*
%TO.C,U2*%
X186105800Y-68945000D02*
X187105800Y-67945000D01*
X186105800Y-93345000D02*
X186105800Y-68945000D01*
X187105800Y-67945000D02*
X192455800Y-67945000D01*
X192455800Y-67945000D02*
X192455800Y-93345000D01*
X192455800Y-93345000D02*
X186105800Y-93345000D01*
%TO.C,R2*%
X135325800Y-86345000D02*
X135325800Y-88355000D01*
X136125800Y-88355000D02*
X134525800Y-88355000D01*
X134525800Y-88355000D02*
X134525800Y-91955000D01*
X136125800Y-91955000D02*
X136125800Y-88355000D01*
X134525800Y-91955000D02*
X136125800Y-91955000D01*
X135325800Y-93965000D02*
X135325800Y-91955000D01*
%TO.C,J1*%
X113715800Y-73025000D02*
X112445800Y-71755000D01*
X155625800Y-73025000D02*
X113715800Y-73025000D01*
X112445800Y-71755000D02*
X112445800Y-67945000D01*
X112445800Y-67945000D02*
X155625800Y-67945000D01*
X155625800Y-67945000D02*
X155625800Y-73025000D01*
%TO.C,U3*%
X113080800Y-78470000D02*
X114080800Y-77470000D01*
X113080800Y-95250000D02*
X113080800Y-78470000D01*
X114080800Y-77470000D02*
X119430800Y-77470000D01*
X119430800Y-77470000D02*
X119430800Y-95250000D01*
X119430800Y-95250000D02*
X113080800Y-95250000D01*
%TO.C,U6*%
X153720800Y-78444600D02*
X154720800Y-77444600D01*
X153720800Y-97764600D02*
X153720800Y-78444600D01*
X154720800Y-77444600D02*
X160070800Y-77444600D01*
X160070800Y-77444600D02*
X160070800Y-97764600D01*
X160070800Y-97764600D02*
X153720800Y-97764600D01*
%TO.C,C6*%
X164195800Y-79079200D02*
X162295800Y-79079200D01*
X162295800Y-79079200D02*
X162295800Y-83379200D01*
X164195800Y-83379200D02*
X164195800Y-79079200D01*
X162295800Y-83379200D02*
X164195800Y-83379200D01*
%TO.C,C2*%
X196580800Y-69565000D02*
X194680800Y-69565000D01*
X194680800Y-69565000D02*
X194680800Y-73865000D01*
X196580800Y-73865000D02*
X196580800Y-69565000D01*
X194680800Y-73865000D02*
X196580800Y-73865000D01*
%TO.C,U8*%
X112445800Y-100695000D02*
X113445800Y-99695000D01*
X112445800Y-117475000D02*
X112445800Y-100695000D01*
X113445800Y-99695000D02*
X118795800Y-99695000D01*
X118795800Y-99695000D02*
X118795800Y-117475000D01*
X118795800Y-117475000D02*
X112445800Y-117475000D01*
%TO.C,C4*%
X136250800Y-79055000D02*
X134350800Y-79055000D01*
X134350800Y-79055000D02*
X134350800Y-83355000D01*
X136250800Y-83355000D02*
X136250800Y-79055000D01*
X134350800Y-83355000D02*
X136250800Y-83355000D01*
%TO.C,C3*%
X123555800Y-79090000D02*
X121655800Y-79090000D01*
X121655800Y-79090000D02*
X121655800Y-83390000D01*
X123555800Y-83390000D02*
X123555800Y-79090000D01*
X121655800Y-83390000D02*
X123555800Y-83390000D01*
%TO.C,U5*%
X139746800Y-78470000D02*
X140746800Y-77470000D01*
X139746800Y-97790000D02*
X139746800Y-78470000D01*
X140746800Y-77470000D02*
X146096800Y-77470000D01*
X146096800Y-77470000D02*
X146096800Y-97790000D01*
X146096800Y-97790000D02*
X139746800Y-97790000D01*
%TO.C,C9*%
X133685800Y-98740000D02*
X133685800Y-96840000D01*
X133685800Y-96840000D02*
X129385800Y-96840000D01*
X129385800Y-98740000D02*
X133685800Y-98740000D01*
X129385800Y-96840000D02*
X129385800Y-98740000D01*
%TD*%
M02*
