%TF.GenerationSoftware,KiCad,Pcbnew,7.0.9*%
%TF.CreationDate,2024-02-01T17:21:03-03:00*%
%TF.ProjectId,HB720-Cart_dos2,48423732-302d-4436-9172-745f646f7332,1*%
%TF.SameCoordinates,Original*%
%TF.FileFunction,Profile,NP*%
%FSLAX46Y46*%
G04 Gerber Fmt 4.6, Leading zero omitted, Abs format (unit mm)*
G04 Created by KiCad (PCBNEW 7.0.9) date 2024-02-01 17:21:03*
%MOMM*%
%LPD*%
G01*
G04 APERTURE LIST*
%TA.AperFunction,Profile*%
%ADD10C,0.150000*%
%TD*%
G04 APERTURE END LIST*
D10*
X97510600Y-67106800D02*
X97510600Y-111683800D01*
X197561200Y-67106800D02*
X97510600Y-67106800D01*
X197561200Y-120777000D02*
X197561200Y-67106800D01*
X185245800Y-120777000D02*
X197561200Y-120777000D01*
X185245800Y-130545000D02*
X185245800Y-120777000D01*
X183871863Y-131927600D02*
X185254463Y-130545000D01*
X121063000Y-131927600D02*
X183871863Y-131927600D01*
X121063000Y-131927600D02*
X119705800Y-130545000D01*
X119705800Y-120777000D02*
X119705800Y-130545000D01*
X107391200Y-120777000D02*
X119705800Y-120777000D01*
X107391200Y-111683800D02*
X107391200Y-120777000D01*
X97510600Y-111683800D02*
X107391200Y-111683800D01*
X107391200Y-120777000D02*
X107391200Y-111683800D01*
X119705800Y-130545000D02*
X121063000Y-131927600D01*
X119705800Y-130545000D02*
X119705800Y-120777000D01*
X183871863Y-131927600D02*
X185245800Y-130545000D01*
X185245800Y-120777000D02*
X197561200Y-120777000D01*
X125121800Y-109980600D02*
G75*
G03*
X125121800Y-109980600I-1500000J0D01*
G01*
X97510600Y-111683800D02*
X97510600Y-67106800D01*
X181382800Y-114325400D02*
G75*
G03*
X181382800Y-114325400I-1500000J0D01*
G01*
X119705800Y-120777000D02*
X107391200Y-120777000D01*
X106554200Y-99009200D02*
G75*
G03*
X106554200Y-99009200I-3100000J0D01*
G01*
X183871863Y-131927600D02*
X121051200Y-131927600D01*
X97510600Y-67106800D02*
X197561200Y-67106800D01*
X197561200Y-67106800D02*
X197561200Y-120777000D01*
X97510600Y-111683800D02*
X107391200Y-111683800D01*
X193117400Y-98640600D02*
G75*
G03*
X193117400Y-98640600I-3100000J0D01*
G01*
X185245800Y-120777000D02*
X185245800Y-130545000D01*
M02*
