%TF.GenerationSoftware,KiCad,Pcbnew,7.0.9*%
%TF.CreationDate,2024-02-01T17:21:03-03:00*%
%TF.ProjectId,HB720-Cart_dos2,48423732-302d-4436-9172-745f646f7332,1*%
%TF.SameCoordinates,Original*%
%TF.FileFunction,Soldermask,Bot*%
%TF.FilePolarity,Negative*%
%FSLAX46Y46*%
G04 Gerber Fmt 4.6, Leading zero omitted, Abs format (unit mm)*
G04 Created by KiCad (PCBNEW 7.0.9) date 2024-02-01 17:21:03*
%MOMM*%
%LPD*%
G01*
G04 APERTURE LIST*
%ADD10R,1.500000X11.000000*%
%ADD11C,1.600000*%
%ADD12R,1.600000X1.600000*%
%ADD13O,1.600000X1.600000*%
%ADD14C,1.400000*%
%ADD15O,1.400000X1.400000*%
%ADD16C,2.700000*%
%ADD17R,1.700000X1.700000*%
%ADD18O,1.700000X1.700000*%
%ADD19C,6.400000*%
G04 APERTURE END LIST*
D10*
%TO.C,P1*%
X182956200Y-126212600D03*
X180416200Y-126212600D03*
X177876200Y-126212600D03*
X175336200Y-126212600D03*
X172796200Y-126212600D03*
X170256200Y-126212600D03*
X167716200Y-126212600D03*
X165176200Y-126212600D03*
X162636200Y-126212600D03*
X160096200Y-126212600D03*
X157556200Y-126212600D03*
X155016200Y-126212600D03*
X152476200Y-126212600D03*
X149936200Y-126212600D03*
X147396200Y-126212600D03*
X144856200Y-126212600D03*
X142316200Y-126212600D03*
X139776200Y-126212600D03*
X137236200Y-126212600D03*
X134696200Y-126212600D03*
X132156200Y-126212600D03*
X129616200Y-126212600D03*
X127076200Y-126212600D03*
X124536200Y-126212600D03*
X121996200Y-126212600D03*
%TD*%
D11*
%TO.C,C7*%
X176500800Y-73660000D03*
X171500800Y-73660000D03*
%TD*%
D12*
%TO.C,U7*%
X166420800Y-76835000D03*
D13*
X166420800Y-79375000D03*
X166420800Y-81915000D03*
X166420800Y-84455000D03*
X166420800Y-86995000D03*
X166420800Y-89535000D03*
X166420800Y-92075000D03*
X166420800Y-94615000D03*
X166420800Y-97155000D03*
X166420800Y-99695000D03*
X166420800Y-102235000D03*
X166420800Y-104775000D03*
X166420800Y-107315000D03*
X166420800Y-109855000D03*
X181660800Y-109855000D03*
X181660800Y-107315000D03*
X181660800Y-104775000D03*
X181660800Y-102235000D03*
X181660800Y-99695000D03*
X181660800Y-97155000D03*
X181660800Y-94615000D03*
X181660800Y-92075000D03*
X181660800Y-89535000D03*
X181660800Y-86995000D03*
X181660800Y-84455000D03*
X181660800Y-81915000D03*
X181660800Y-79375000D03*
X181660800Y-76835000D03*
%TD*%
D14*
%TO.C,R4*%
X99714100Y-106680000D03*
D15*
X107334100Y-106680000D03*
%TD*%
D14*
%TO.C,R1*%
X122605800Y-86360000D03*
D15*
X122605800Y-93980000D03*
%TD*%
D12*
%TO.C,U4*%
X125145800Y-78714600D03*
D13*
X125145800Y-81254600D03*
X125145800Y-83794600D03*
X125145800Y-86334600D03*
X125145800Y-88874600D03*
X125145800Y-91414600D03*
X125145800Y-93954600D03*
X132765800Y-93954600D03*
X132765800Y-91414600D03*
X132765800Y-88874600D03*
X132765800Y-86334600D03*
X132765800Y-83794600D03*
X132765800Y-81254600D03*
X132765800Y-78714600D03*
%TD*%
D11*
%TO.C,C8*%
X118795800Y-97790000D03*
X113795800Y-97790000D03*
%TD*%
D12*
%TO.C,U10*%
X139115800Y-100965000D03*
D13*
X139115800Y-103505000D03*
X139115800Y-106045000D03*
X139115800Y-108585000D03*
X139115800Y-111125000D03*
X139115800Y-113665000D03*
X139115800Y-116205000D03*
X146735800Y-116205000D03*
X146735800Y-113665000D03*
X146735800Y-111125000D03*
X146735800Y-108585000D03*
X146735800Y-106045000D03*
X146735800Y-103505000D03*
X146735800Y-100965000D03*
%TD*%
D11*
%TO.C,C10*%
X149402800Y-100965000D03*
X149402800Y-105965000D03*
%TD*%
D14*
%TO.C,R3*%
X149301200Y-86360000D03*
D15*
X149301200Y-93980000D03*
%TD*%
D16*
%TO.C,HOLE3*%
X179876500Y-114344400D03*
%TD*%
D14*
%TO.C,R5*%
X99745800Y-109220000D03*
D15*
X107365800Y-109220000D03*
%TD*%
D12*
%TO.C,U1*%
X101650800Y-74930000D03*
D13*
X101650800Y-77470000D03*
X101650800Y-80010000D03*
X101650800Y-82550000D03*
X101650800Y-85090000D03*
X101650800Y-87630000D03*
X101650800Y-90170000D03*
X109270800Y-90170000D03*
X109270800Y-87630000D03*
X109270800Y-85090000D03*
X109270800Y-82550000D03*
X109270800Y-80010000D03*
X109270800Y-77470000D03*
X109270800Y-74930000D03*
%TD*%
D12*
%TO.C,U9*%
X127685800Y-100965000D03*
D13*
X127685800Y-103505000D03*
X127685800Y-106045000D03*
X127685800Y-108585000D03*
X127685800Y-111125000D03*
X127685800Y-113665000D03*
X127685800Y-116205000D03*
X135305800Y-116205000D03*
X135305800Y-113665000D03*
X135305800Y-111125000D03*
X135305800Y-108585000D03*
X135305800Y-106045000D03*
X135305800Y-103505000D03*
X135305800Y-100965000D03*
%TD*%
D11*
%TO.C,C5*%
X149275800Y-78729200D03*
X149275800Y-83729200D03*
%TD*%
%TO.C,C1*%
X108000800Y-71755000D03*
X103000800Y-71755000D03*
%TD*%
D12*
%TO.C,U6*%
X151805800Y-78745000D03*
D13*
X151805800Y-81285000D03*
X151805800Y-83825000D03*
X151805800Y-86365000D03*
X151805800Y-88905000D03*
X151805800Y-91445000D03*
X151805800Y-93985000D03*
X151805800Y-96525000D03*
X151805800Y-99065000D03*
X151805800Y-101605000D03*
X159425800Y-101605000D03*
X159425800Y-99065000D03*
X159425800Y-96525000D03*
X159425800Y-93985000D03*
X159425800Y-91445000D03*
X159425800Y-88905000D03*
X159425800Y-86365000D03*
X159425800Y-83825000D03*
X159425800Y-81285000D03*
X159425800Y-78745000D03*
%TD*%
D14*
%TO.C,R2*%
X135325800Y-86345000D03*
D15*
X135325800Y-93965000D03*
%TD*%
D17*
%TO.C,J1*%
X113715800Y-71755000D03*
D18*
X113715800Y-69215000D03*
X116255800Y-71755000D03*
X116255800Y-69215000D03*
X118795800Y-71755000D03*
X118795800Y-69215000D03*
X121335800Y-71755000D03*
X121335800Y-69215000D03*
X123875800Y-71755000D03*
X123875800Y-69215000D03*
X126415800Y-71755000D03*
X126415800Y-69215000D03*
X128955800Y-71755000D03*
X128955800Y-69215000D03*
X131495800Y-71755000D03*
X131495800Y-69215000D03*
X134035800Y-71755000D03*
X134035800Y-69215000D03*
X136575800Y-71755000D03*
X136575800Y-69215000D03*
X139115800Y-71755000D03*
X139115800Y-69215000D03*
X141655800Y-71755000D03*
X141655800Y-69215000D03*
X144195800Y-71755000D03*
X144195800Y-69215000D03*
X146735800Y-71755000D03*
X146735800Y-69215000D03*
X149275800Y-71755000D03*
X149275800Y-69215000D03*
X151815800Y-71755000D03*
X151815800Y-69215000D03*
X154355800Y-71755000D03*
X154355800Y-69215000D03*
%TD*%
D12*
%TO.C,U3*%
X112445800Y-78740000D03*
D13*
X112445800Y-81280000D03*
X112445800Y-83820000D03*
X112445800Y-86360000D03*
X112445800Y-88900000D03*
X112445800Y-91440000D03*
X112445800Y-93980000D03*
X120065800Y-93980000D03*
X120065800Y-91440000D03*
X120065800Y-88900000D03*
X120065800Y-86360000D03*
X120065800Y-83820000D03*
X120065800Y-81280000D03*
X120065800Y-78740000D03*
%TD*%
D12*
%TO.C,U2*%
X184835800Y-70485000D03*
D13*
X184835800Y-73025000D03*
X184835800Y-75565000D03*
X184835800Y-78105000D03*
X184835800Y-80645000D03*
X184835800Y-83185000D03*
X184835800Y-85725000D03*
X184835800Y-88265000D03*
X192455800Y-88265000D03*
X192455800Y-85725000D03*
X192455800Y-83185000D03*
X192455800Y-80645000D03*
X192455800Y-78105000D03*
X192455800Y-75565000D03*
X192455800Y-73025000D03*
X192455800Y-70485000D03*
%TD*%
D11*
%TO.C,C2*%
X194995800Y-70525000D03*
X194995800Y-75525000D03*
%TD*%
%TO.C,C6*%
X161975800Y-78780000D03*
X161975800Y-83780000D03*
%TD*%
D12*
%TO.C,U8*%
X111810800Y-100965000D03*
D13*
X111810800Y-103505000D03*
X111810800Y-106045000D03*
X111810800Y-108585000D03*
X111810800Y-111125000D03*
X111810800Y-113665000D03*
X111810800Y-116205000D03*
X119430800Y-116205000D03*
X119430800Y-113665000D03*
X119430800Y-111125000D03*
X119430800Y-108585000D03*
X119430800Y-106045000D03*
X119430800Y-103505000D03*
X119430800Y-100965000D03*
%TD*%
D16*
%TO.C,HOLE2*%
X123621800Y-109985000D03*
%TD*%
D11*
%TO.C,C4*%
X135300800Y-78705000D03*
X135300800Y-83705000D03*
%TD*%
D19*
%TO.C,HOLE1*%
X103454200Y-99009200D03*
%TD*%
D11*
%TO.C,C3*%
X122605800Y-78740000D03*
X122605800Y-83740000D03*
%TD*%
D12*
%TO.C,U5*%
X139111800Y-78740000D03*
D13*
X139111800Y-81280000D03*
X139111800Y-83820000D03*
X139111800Y-86360000D03*
X139111800Y-88900000D03*
X139111800Y-91440000D03*
X139111800Y-93980000D03*
X139111800Y-96520000D03*
X146731800Y-96520000D03*
X146731800Y-93980000D03*
X146731800Y-91440000D03*
X146731800Y-88900000D03*
X146731800Y-86360000D03*
X146731800Y-83820000D03*
X146731800Y-81280000D03*
X146731800Y-78740000D03*
%TD*%
D11*
%TO.C,C9*%
X134035800Y-97790000D03*
X129035800Y-97790000D03*
%TD*%
D19*
%TO.C,HOLE4*%
X190036500Y-98621800D03*
%TD*%
M02*
