%TF.GenerationSoftware,KiCad,Pcbnew,7.0.9*%
%TF.CreationDate,2024-01-19T22:05:45-03:00*%
%TF.ProjectId,HB720-Cart_dos2,48423732-302d-4436-9172-745f646f7332,V1.0.0*%
%TF.SameCoordinates,Original*%
%TF.FileFunction,Other,User*%
%FSLAX46Y46*%
G04 Gerber Fmt 4.6, Leading zero omitted, Abs format (unit mm)*
G04 Created by KiCad (PCBNEW 7.0.9) date 2024-01-19 22:05:45*
%MOMM*%
%LPD*%
G01*
G04 APERTURE LIST*
%ADD10C,0.050000*%
G04 APERTURE END LIST*
D10*
%TO.C,C7*%
X177550800Y-74860000D02*
X177550800Y-72460000D01*
X177550800Y-72460000D02*
X170450800Y-72460000D01*
X170450800Y-74860000D02*
X177550800Y-74860000D01*
X170450800Y-72460000D02*
X170450800Y-74860000D01*
%TO.C,U7*%
X165370800Y-75285000D02*
X165370800Y-111385000D01*
X165370800Y-111385000D02*
X182720800Y-111385000D01*
X182720800Y-75285000D02*
X165370800Y-75285000D01*
X182720800Y-111385000D02*
X182720800Y-75285000D01*
%TO.C,R4*%
X98764100Y-104995000D02*
X98764100Y-107095000D01*
X98764100Y-107095000D02*
X108284100Y-107095000D01*
X108284100Y-104995000D02*
X98764100Y-104995000D01*
X108284100Y-107095000D02*
X108284100Y-104995000D01*
%TO.C,R1*%
X123655800Y-85410000D02*
X121555800Y-85410000D01*
X121555800Y-85410000D02*
X121555800Y-94930000D01*
X123655800Y-94930000D02*
X123655800Y-85410000D01*
X121555800Y-94930000D02*
X123655800Y-94930000D01*
%TO.C,U4*%
X124045800Y-77164600D02*
X124045800Y-95514600D01*
X124045800Y-95514600D02*
X133845800Y-95514600D01*
X133845800Y-77164600D02*
X124045800Y-77164600D01*
X133845800Y-95514600D02*
X133845800Y-77164600D01*
%TO.C,C8*%
X119845800Y-98990000D02*
X119845800Y-96590000D01*
X119845800Y-96590000D02*
X112745800Y-96590000D01*
X112745800Y-98990000D02*
X119845800Y-98990000D01*
X112745800Y-96590000D02*
X112745800Y-98990000D01*
%TO.C,U10*%
X138015800Y-99415000D02*
X138015800Y-117765000D01*
X138015800Y-117765000D02*
X147815800Y-117765000D01*
X147815800Y-99415000D02*
X138015800Y-99415000D01*
X147815800Y-117765000D02*
X147815800Y-99415000D01*
%TO.C,C10*%
X150602800Y-99915000D02*
X148202800Y-99915000D01*
X148202800Y-99915000D02*
X148202800Y-107015000D01*
X150602800Y-107015000D02*
X150602800Y-99915000D01*
X148202800Y-107015000D02*
X150602800Y-107015000D01*
%TO.C,R3*%
X150351200Y-85410000D02*
X148251200Y-85410000D01*
X148251200Y-85410000D02*
X148251200Y-94930000D01*
X150351200Y-94930000D02*
X150351200Y-85410000D01*
X148251200Y-94930000D02*
X150351200Y-94930000D01*
%TO.C,HOLE3*%
X182476500Y-114344400D02*
G75*
G03*
X182476500Y-114344400I-2600000J0D01*
G01*
%TO.C,R5*%
X98770400Y-107535000D02*
X98770400Y-109635000D01*
X98770400Y-109635000D02*
X108290400Y-109635000D01*
X108290400Y-107535000D02*
X98770400Y-107535000D01*
X108290400Y-109635000D02*
X108290400Y-107535000D01*
%TO.C,U1*%
X100550800Y-73380000D02*
X100550800Y-91730000D01*
X100550800Y-91730000D02*
X110350800Y-91730000D01*
X110350800Y-73380000D02*
X100550800Y-73380000D01*
X110350800Y-91730000D02*
X110350800Y-73380000D01*
%TO.C,U9*%
X126585800Y-99415000D02*
X126585800Y-117765000D01*
X126585800Y-117765000D02*
X136385800Y-117765000D01*
X136385800Y-99415000D02*
X126585800Y-99415000D01*
X136385800Y-117765000D02*
X136385800Y-99415000D01*
%TO.C,C5*%
X150475800Y-77679200D02*
X148075800Y-77679200D01*
X148075800Y-77679200D02*
X148075800Y-84779200D01*
X150475800Y-84779200D02*
X150475800Y-77679200D01*
X148075800Y-84779200D02*
X150475800Y-84779200D01*
%TO.C,C1*%
X109050800Y-72955000D02*
X109050800Y-70555000D01*
X109050800Y-70555000D02*
X101950800Y-70555000D01*
X101950800Y-72955000D02*
X109050800Y-72955000D01*
X101950800Y-70555000D02*
X101950800Y-72955000D01*
%TO.C,U2*%
X184370800Y-67665000D02*
X184370800Y-93615000D01*
X184370800Y-93615000D02*
X194170800Y-93615000D01*
X194170800Y-67665000D02*
X184370800Y-67665000D01*
X194170800Y-93615000D02*
X194170800Y-67665000D01*
%TO.C,R2*%
X136375800Y-85395000D02*
X134275800Y-85395000D01*
X134275800Y-85395000D02*
X134275800Y-94915000D01*
X136375800Y-94915000D02*
X136375800Y-85395000D01*
X134275800Y-94915000D02*
X136375800Y-94915000D01*
%TO.C,J1*%
X111915800Y-73555000D02*
X156165800Y-73555000D01*
X156165800Y-73555000D02*
X156165800Y-67405000D01*
X111915800Y-67405000D02*
X111915800Y-73555000D01*
X156165800Y-67405000D02*
X111915800Y-67405000D01*
%TO.C,U3*%
X111345800Y-77190000D02*
X111345800Y-95540000D01*
X111345800Y-95540000D02*
X121145800Y-95540000D01*
X121145800Y-77190000D02*
X111345800Y-77190000D01*
X121145800Y-95540000D02*
X121145800Y-77190000D01*
%TO.C,U6*%
X151985800Y-77164600D02*
X151985800Y-98014600D01*
X151985800Y-98014600D02*
X161785800Y-98014600D01*
X161785800Y-77164600D02*
X151985800Y-77164600D01*
X161785800Y-98014600D02*
X161785800Y-77164600D01*
%TO.C,C6*%
X164445800Y-77679200D02*
X162045800Y-77679200D01*
X162045800Y-77679200D02*
X162045800Y-84779200D01*
X164445800Y-84779200D02*
X164445800Y-77679200D01*
X162045800Y-84779200D02*
X164445800Y-84779200D01*
%TO.C,C2*%
X196830800Y-68165000D02*
X194430800Y-68165000D01*
X194430800Y-68165000D02*
X194430800Y-75265000D01*
X196830800Y-75265000D02*
X196830800Y-68165000D01*
X194430800Y-75265000D02*
X196830800Y-75265000D01*
%TO.C,U8*%
X110710800Y-99415000D02*
X110710800Y-117765000D01*
X110710800Y-117765000D02*
X120510800Y-117765000D01*
X120510800Y-99415000D02*
X110710800Y-99415000D01*
X120510800Y-117765000D02*
X120510800Y-99415000D01*
%TO.C,HOLE2*%
X126221800Y-109985000D02*
G75*
G03*
X126221800Y-109985000I-2600000J0D01*
G01*
%TO.C,C4*%
X136500800Y-77655000D02*
X134100800Y-77655000D01*
X134100800Y-77655000D02*
X134100800Y-84755000D01*
X136500800Y-84755000D02*
X136500800Y-77655000D01*
X134100800Y-84755000D02*
X136500800Y-84755000D01*
%TO.C,HOLE1*%
X110104200Y-99009200D02*
G75*
G03*
X110104200Y-99009200I-6650000J0D01*
G01*
%TO.C,C3*%
X123805800Y-77690000D02*
X121405800Y-77690000D01*
X121405800Y-77690000D02*
X121405800Y-84790000D01*
X123805800Y-84790000D02*
X123805800Y-77690000D01*
X121405800Y-84790000D02*
X123805800Y-84790000D01*
%TO.C,U5*%
X138011800Y-77190000D02*
X138011800Y-98040000D01*
X138011800Y-98040000D02*
X147811800Y-98040000D01*
X147811800Y-77190000D02*
X138011800Y-77190000D01*
X147811800Y-98040000D02*
X147811800Y-77190000D01*
%TO.C,C9*%
X135085800Y-98990000D02*
X135085800Y-96590000D01*
X135085800Y-96590000D02*
X127985800Y-96590000D01*
X127985800Y-98990000D02*
X135085800Y-98990000D01*
X127985800Y-96590000D02*
X127985800Y-98990000D01*
%TD*%
M02*
