%TF.GenerationSoftware,KiCad,Pcbnew,7.0.9*%
%TF.CreationDate,2024-01-11T00:16:29-03:00*%
%TF.ProjectId,HB-3600_FDC,48422d33-3630-4305-9f46-44432e6b6963,V1.0.0*%
%TF.SameCoordinates,Original*%
%TF.FileFunction,Soldermask,Bot*%
%TF.FilePolarity,Negative*%
%FSLAX46Y46*%
G04 Gerber Fmt 4.6, Leading zero omitted, Abs format (unit mm)*
G04 Created by KiCad (PCBNEW 7.0.9) date 2024-01-11 00:16:29*
%MOMM*%
%LPD*%
G01*
G04 APERTURE LIST*
G04 Aperture macros list*
%AMRoundRect*
0 Rectangle with rounded corners*
0 $1 Rounding radius*
0 $2 $3 $4 $5 $6 $7 $8 $9 X,Y pos of 4 corners*
0 Add a 4 corners polygon primitive as box body*
4,1,4,$2,$3,$4,$5,$6,$7,$8,$9,$2,$3,0*
0 Add four circle primitives for the rounded corners*
1,1,$1+$1,$2,$3*
1,1,$1+$1,$4,$5*
1,1,$1+$1,$6,$7*
1,1,$1+$1,$8,$9*
0 Add four rect primitives between the rounded corners*
20,1,$1+$1,$2,$3,$4,$5,0*
20,1,$1+$1,$4,$5,$6,$7,0*
20,1,$1+$1,$6,$7,$8,$9,0*
20,1,$1+$1,$8,$9,$2,$3,0*%
G04 Aperture macros list end*
%ADD10R,1.600000X1.600000*%
%ADD11O,1.600000X1.600000*%
%ADD12C,3.200000*%
%ADD13C,1.400000*%
%ADD14O,1.400000X1.400000*%
%ADD15R,1.000000X1.000000*%
%ADD16C,1.440000*%
%ADD17C,1.600000*%
%ADD18C,2.000000*%
%ADD19C,1.500000*%
%ADD20RoundRect,0.250000X-0.620000X-0.845000X0.620000X-0.845000X0.620000X0.845000X-0.620000X0.845000X0*%
%ADD21O,1.740000X2.190000*%
%ADD22R,1.600000X11.000000*%
%ADD23R,1.300000X11.000000*%
%ADD24R,1.700000X1.700000*%
%ADD25O,1.700000X1.700000*%
G04 APERTURE END LIST*
D10*
%TO.C,U14*%
X91440000Y-116840000D03*
D11*
X93980000Y-116840000D03*
X96520000Y-116840000D03*
X99060000Y-116840000D03*
X101600000Y-116840000D03*
X104140000Y-116840000D03*
X106680000Y-116840000D03*
X106680000Y-109220000D03*
X104140000Y-109220000D03*
X101600000Y-109220000D03*
X99060000Y-109220000D03*
X96520000Y-109220000D03*
X93980000Y-109220000D03*
X91440000Y-109220000D03*
%TD*%
D10*
%TO.C,U5*%
X139065000Y-82550000D03*
D11*
X141605000Y-82550000D03*
X144145000Y-82550000D03*
X146685000Y-82550000D03*
X149225000Y-82550000D03*
X151765000Y-82550000D03*
X154305000Y-82550000D03*
X154305000Y-74930000D03*
X151765000Y-74930000D03*
X149225000Y-74930000D03*
X146685000Y-74930000D03*
X144145000Y-74930000D03*
X141605000Y-74930000D03*
X139065000Y-74930000D03*
%TD*%
D10*
%TO.C,U12*%
X139700000Y-107950000D03*
D11*
X142240000Y-107950000D03*
X144780000Y-107950000D03*
X147320000Y-107950000D03*
X149860000Y-107950000D03*
X152400000Y-107950000D03*
X154940000Y-107950000D03*
X154940000Y-100330000D03*
X152400000Y-100330000D03*
X149860000Y-100330000D03*
X147320000Y-100330000D03*
X144780000Y-100330000D03*
X142240000Y-100330000D03*
X139700000Y-100330000D03*
%TD*%
D12*
%TO.C,HOLE1*%
X89940000Y-59230000D03*
%TD*%
D13*
%TO.C,R2*%
X95250000Y-64770000D03*
D14*
X95250000Y-57150000D03*
%TD*%
D10*
%TO.C,U3*%
X163195000Y-67945000D03*
D11*
X165735000Y-67945000D03*
X168275000Y-67945000D03*
X170815000Y-67945000D03*
X173355000Y-67945000D03*
X175895000Y-67945000D03*
X178435000Y-67945000D03*
X178435000Y-60325000D03*
X175895000Y-60325000D03*
X173355000Y-60325000D03*
X170815000Y-60325000D03*
X168275000Y-60325000D03*
X165735000Y-60325000D03*
X163195000Y-60325000D03*
%TD*%
D15*
%TO.C,TP3*%
X119380000Y-94615000D03*
%TD*%
D13*
%TO.C,RBD8*%
X205740000Y-88900000D03*
D14*
X205740000Y-96520000D03*
%TD*%
D10*
%TO.C,U2*%
X136525000Y-67945000D03*
D11*
X139065000Y-67945000D03*
X141605000Y-67945000D03*
X144145000Y-67945000D03*
X146685000Y-67945000D03*
X149225000Y-67945000D03*
X151765000Y-67945000D03*
X154305000Y-67945000D03*
X154305000Y-60325000D03*
X151765000Y-60325000D03*
X149225000Y-60325000D03*
X146685000Y-60325000D03*
X144145000Y-60325000D03*
X141605000Y-60325000D03*
X139065000Y-60325000D03*
X136525000Y-60325000D03*
%TD*%
D10*
%TO.C,U9*%
X164465000Y-101625400D03*
D11*
X167005000Y-101625400D03*
X169545000Y-101625400D03*
X172085000Y-101625400D03*
X174625000Y-101625400D03*
X177165000Y-101625400D03*
X179705000Y-101625400D03*
X179705000Y-94005400D03*
X177165000Y-94005400D03*
X174625000Y-94005400D03*
X172085000Y-94005400D03*
X169545000Y-94005400D03*
X167005000Y-94005400D03*
X164465000Y-94005400D03*
%TD*%
D13*
%TO.C,RBC3*%
X170180000Y-107950000D03*
D14*
X170180000Y-115570000D03*
%TD*%
D16*
%TO.C,RV1*%
X83820000Y-98425000D03*
X78740000Y-100965000D03*
X83820000Y-103505000D03*
%TD*%
D13*
%TO.C,RBD5*%
X198120000Y-88900000D03*
D14*
X198120000Y-96520000D03*
%TD*%
D17*
%TO.C,C19*%
X149265000Y-57150000D03*
X144265000Y-57150000D03*
%TD*%
D13*
%TO.C,RBF4*%
X121920000Y-109220000D03*
D14*
X121920000Y-116840000D03*
%TD*%
D13*
%TO.C,RBD3*%
X193040000Y-88900000D03*
D14*
X193040000Y-96520000D03*
%TD*%
D13*
%TO.C,RBD9*%
X208280000Y-88900000D03*
D14*
X208280000Y-96520000D03*
%TD*%
D18*
%TO.C,CV1*%
X269234833Y-255843000D03*
X274734833Y-255843000D03*
%TD*%
%TO.C,CV1*%
X118150000Y-74276400D03*
X118150000Y-68776400D03*
%TD*%
D13*
%TO.C,RBD6*%
X200660000Y-88900000D03*
D14*
X200660000Y-96520000D03*
%TD*%
D17*
%TO.C,C15*%
X136525000Y-113705000D03*
X136525000Y-118705000D03*
%TD*%
D15*
%TO.C,TP2*%
X127000000Y-74295000D03*
%TD*%
D19*
%TO.C,Y1*%
X86360000Y-71120000D03*
X91260000Y-71120000D03*
%TD*%
D13*
%TO.C,R6*%
X161264600Y-91440000D03*
D14*
X161264600Y-83820000D03*
%TD*%
D17*
%TO.C,C12*%
X135890000Y-101600000D03*
X135890000Y-106600000D03*
%TD*%
D13*
%TO.C,RBC2*%
X167640000Y-107950000D03*
D14*
X167640000Y-115570000D03*
%TD*%
D17*
%TO.C,C16*%
X78740000Y-63420000D03*
X78740000Y-58420000D03*
%TD*%
D10*
%TO.C,U10*%
X91440000Y-104775000D03*
D11*
X93980000Y-104775000D03*
X96520000Y-104775000D03*
X99060000Y-104775000D03*
X101600000Y-104775000D03*
X104140000Y-104775000D03*
X106680000Y-104775000D03*
X106680000Y-97155000D03*
X104140000Y-97155000D03*
X101600000Y-97155000D03*
X99060000Y-97155000D03*
X96520000Y-97155000D03*
X93980000Y-97155000D03*
X91440000Y-97155000D03*
%TD*%
D10*
%TO.C,U4*%
X81280000Y-92075000D03*
D11*
X83820000Y-92075000D03*
X86360000Y-92075000D03*
X88900000Y-92075000D03*
X91440000Y-92075000D03*
X93980000Y-92075000D03*
X96520000Y-92075000D03*
X99060000Y-92075000D03*
X101600000Y-92075000D03*
X104140000Y-92075000D03*
X106680000Y-92075000D03*
X109220000Y-92075000D03*
X111760000Y-92075000D03*
X114300000Y-92075000D03*
X116840000Y-92075000D03*
X119380000Y-92075000D03*
X121920000Y-92075000D03*
X124460000Y-92075000D03*
X127000000Y-92075000D03*
X129540000Y-92075000D03*
X129540000Y-76835000D03*
X127000000Y-76835000D03*
X124460000Y-76835000D03*
X121920000Y-76835000D03*
X119380000Y-76835000D03*
X116840000Y-76835000D03*
X114300000Y-76835000D03*
X111760000Y-76835000D03*
X109220000Y-76835000D03*
X106680000Y-76835000D03*
X104140000Y-76835000D03*
X101600000Y-76835000D03*
X99060000Y-76835000D03*
X96520000Y-76835000D03*
X93980000Y-76835000D03*
X91440000Y-76835000D03*
X88900000Y-76835000D03*
X86360000Y-76835000D03*
X83820000Y-76835000D03*
X81280000Y-76835000D03*
%TD*%
D17*
%TO.C,C5*%
X135890000Y-76200000D03*
X135890000Y-81200000D03*
%TD*%
%TO.C,C11*%
X110490000Y-99060000D03*
X110490000Y-104060000D03*
%TD*%
%TO.C,C1*%
X98425000Y-59690000D03*
X98425000Y-64690000D03*
%TD*%
D10*
%TO.C,U7*%
X187960000Y-81280000D03*
D11*
X190500000Y-81280000D03*
X193040000Y-81280000D03*
X195580000Y-81280000D03*
X198120000Y-81280000D03*
X200660000Y-81280000D03*
X203200000Y-81280000D03*
X205740000Y-81280000D03*
X208280000Y-81280000D03*
X210820000Y-81280000D03*
X210820000Y-73660000D03*
X208280000Y-73660000D03*
X205740000Y-73660000D03*
X203200000Y-73660000D03*
X200660000Y-73660000D03*
X198120000Y-73660000D03*
X195580000Y-73660000D03*
X193040000Y-73660000D03*
X190500000Y-73660000D03*
X187960000Y-73660000D03*
%TD*%
D17*
%TO.C,C14*%
X87630000Y-115490000D03*
X87630000Y-110490000D03*
%TD*%
D13*
%TO.C,RBC5*%
X175260000Y-107950000D03*
D14*
X175260000Y-115570000D03*
%TD*%
D10*
%TO.C,U11*%
X114300000Y-104775000D03*
D11*
X116840000Y-104775000D03*
X119380000Y-104775000D03*
X121920000Y-104775000D03*
X124460000Y-104775000D03*
X127000000Y-104775000D03*
X129540000Y-104775000D03*
X129540000Y-97155000D03*
X127000000Y-97155000D03*
X124460000Y-97155000D03*
X121920000Y-97155000D03*
X119380000Y-97155000D03*
X116840000Y-97155000D03*
X114300000Y-97155000D03*
%TD*%
D10*
%TO.C,D1*%
X129540000Y-66040000D03*
D11*
X129540000Y-58420000D03*
%TD*%
D13*
%TO.C,RBF5*%
X124460000Y-109220000D03*
D14*
X124460000Y-116840000D03*
%TD*%
D11*
%TO.C,U13*%
X187960000Y-104114600D03*
X190500000Y-104114600D03*
X193040000Y-104114600D03*
X195580000Y-104114600D03*
X198120000Y-104114600D03*
X200660000Y-104114600D03*
X203200000Y-104114600D03*
X205740000Y-104114600D03*
X208280000Y-104114600D03*
X210820000Y-104114600D03*
X210820000Y-111734600D03*
X208280000Y-111734600D03*
X205740000Y-111734600D03*
X203200000Y-111734600D03*
X200660000Y-111734600D03*
X198120000Y-111734600D03*
X195580000Y-111734600D03*
X193040000Y-111734600D03*
X190500000Y-111734600D03*
D10*
X187960000Y-111734600D03*
%TD*%
D13*
%TO.C,R7*%
X158750000Y-102870000D03*
D14*
X158750000Y-110490000D03*
%TD*%
D13*
%TO.C,RBD4*%
X195580000Y-88900000D03*
D14*
X195580000Y-96520000D03*
%TD*%
D13*
%TO.C,RBF6*%
X127000000Y-109220000D03*
D14*
X127000000Y-116840000D03*
%TD*%
D10*
%TO.C,C21*%
X209550000Y-60960000D03*
D17*
X212050000Y-60960000D03*
%TD*%
D13*
%TO.C,RBF1*%
X114300000Y-109220000D03*
D14*
X114300000Y-116840000D03*
%TD*%
D20*
%TO.C,CN3*%
X189230000Y-58420000D03*
D21*
X191770000Y-58420000D03*
%TD*%
D13*
%TO.C,R4*%
X157226000Y-67945000D03*
D14*
X157226000Y-60325000D03*
%TD*%
D15*
%TO.C,TP1*%
X109220000Y-74295000D03*
%TD*%
D13*
%TO.C,RBD2*%
X190500000Y-88900000D03*
D14*
X190500000Y-96520000D03*
%TD*%
D17*
%TO.C,C8*%
X133985000Y-88940000D03*
X133985000Y-93940000D03*
%TD*%
D12*
%TO.C,HOLE2*%
X208991200Y-118180000D03*
%TD*%
D13*
%TO.C,RBC4*%
X172720000Y-107950000D03*
D14*
X172720000Y-115570000D03*
%TD*%
D17*
%TO.C,C7*%
X184785000Y-74853800D03*
X184785000Y-79853800D03*
%TD*%
D13*
%TO.C,RBC6*%
X177800000Y-107950000D03*
D14*
X177800000Y-115570000D03*
%TD*%
D13*
%TO.C,RBD1*%
X187960000Y-88900000D03*
D14*
X187960000Y-96520000D03*
%TD*%
D10*
%TO.C,D2*%
X184150000Y-71120000D03*
D11*
X184150000Y-63500000D03*
%TD*%
D10*
%TO.C,U1*%
X101600000Y-66040000D03*
D11*
X104140000Y-66040000D03*
X106680000Y-66040000D03*
X109220000Y-66040000D03*
X111760000Y-66040000D03*
X114300000Y-66040000D03*
X116840000Y-66040000D03*
X116840000Y-58420000D03*
X114300000Y-58420000D03*
X111760000Y-58420000D03*
X109220000Y-58420000D03*
X106680000Y-58420000D03*
X104140000Y-58420000D03*
X101600000Y-58420000D03*
%TD*%
D13*
%TO.C,R8*%
X161290000Y-110515400D03*
D14*
X161290000Y-102895400D03*
%TD*%
D12*
%TO.C,HOLE3*%
X200012700Y-58953900D03*
%TD*%
D13*
%TO.C,RBD7*%
X203200000Y-88900000D03*
D14*
X203200000Y-96520000D03*
%TD*%
D10*
%TO.C,U6*%
X164465000Y-82550000D03*
D11*
X167005000Y-82550000D03*
X169545000Y-82550000D03*
X172085000Y-82550000D03*
X174625000Y-82550000D03*
X177165000Y-82550000D03*
X179705000Y-82550000D03*
X179705000Y-74930000D03*
X177165000Y-74930000D03*
X174625000Y-74930000D03*
X172085000Y-74930000D03*
X169545000Y-74930000D03*
X167005000Y-74930000D03*
X164465000Y-74930000D03*
%TD*%
D17*
%TO.C,C2*%
X133350000Y-61391800D03*
X133350000Y-66391800D03*
%TD*%
D13*
%TO.C,RBC1*%
X165074600Y-107950000D03*
D14*
X165074600Y-115570000D03*
%TD*%
D10*
%TO.C,U15*%
X139700000Y-120015000D03*
D11*
X142240000Y-120015000D03*
X144780000Y-120015000D03*
X147320000Y-120015000D03*
X149860000Y-120015000D03*
X152400000Y-120015000D03*
X154940000Y-120015000D03*
X154940000Y-112395000D03*
X152400000Y-112395000D03*
X149860000Y-112395000D03*
X147320000Y-112395000D03*
X144780000Y-112395000D03*
X142240000Y-112395000D03*
X139700000Y-112395000D03*
%TD*%
D17*
%TO.C,C10*%
X88265000Y-98505000D03*
X88265000Y-103505000D03*
%TD*%
D18*
%TO.C,C18*%
X125095000Y-57785000D03*
X125095000Y-67785000D03*
%TD*%
D13*
%TO.C,R5*%
X181610000Y-71120000D03*
D14*
X181610000Y-63500000D03*
%TD*%
D22*
%TO.C,CN2*%
X83375500Y-128270000D03*
D23*
X85725000Y-128257300D03*
X88709500Y-128270000D03*
D22*
X90995500Y-128270000D03*
X93535500Y-128270000D03*
X96075500Y-128270000D03*
X98615500Y-128270000D03*
X101155500Y-128270000D03*
X103695500Y-128270000D03*
X106235500Y-128270000D03*
X108775500Y-128270000D03*
X111315500Y-128270000D03*
X113855500Y-128270000D03*
X116395500Y-128270000D03*
X118935500Y-128270000D03*
X121475500Y-128270000D03*
X124015500Y-128270000D03*
%TD*%
D13*
%TO.C,R1*%
X81915000Y-64770000D03*
D14*
X81915000Y-57150000D03*
%TD*%
D17*
%TO.C,C17*%
X78740000Y-72390000D03*
X78740000Y-67390000D03*
%TD*%
%TO.C,C4*%
X77470000Y-82550000D03*
X77470000Y-87550000D03*
%TD*%
D13*
%TO.C,RBC7*%
X180340000Y-107950000D03*
D14*
X180340000Y-115570000D03*
%TD*%
D10*
%TO.C,U8*%
X137160000Y-95250000D03*
D11*
X139700000Y-95250000D03*
X142240000Y-95250000D03*
X144780000Y-95250000D03*
X147320000Y-95250000D03*
X149860000Y-95250000D03*
X152400000Y-95250000D03*
X154940000Y-95250000D03*
X154940000Y-87630000D03*
X152400000Y-87630000D03*
X149860000Y-87630000D03*
X147320000Y-87630000D03*
X144780000Y-87630000D03*
X142240000Y-87630000D03*
X139700000Y-87630000D03*
X137160000Y-87630000D03*
%TD*%
D13*
%TO.C,RBF3*%
X119380000Y-109220000D03*
D14*
X119380000Y-116840000D03*
%TD*%
D13*
%TO.C,RBD10*%
X210820000Y-88900000D03*
D14*
X210820000Y-96520000D03*
%TD*%
D13*
%TO.C,R3*%
X120650000Y-58420000D03*
D14*
X120650000Y-66040000D03*
%TD*%
D17*
%TO.C,C6*%
X161290000Y-75565000D03*
X161290000Y-80565000D03*
%TD*%
D12*
%TO.C,HOLE4*%
X80975200Y-118200000D03*
%TD*%
D17*
%TO.C,C9*%
X161264600Y-94589600D03*
X161264600Y-99589600D03*
%TD*%
D24*
%TO.C,CN1*%
X170180000Y-129540000D03*
D25*
X170180000Y-127000000D03*
X172720000Y-129540000D03*
X172720000Y-127000000D03*
X175260000Y-129540000D03*
X175260000Y-127000000D03*
X177800000Y-129540000D03*
X177800000Y-127000000D03*
X180340000Y-129540000D03*
X180340000Y-127000000D03*
X182880000Y-129540000D03*
X182880000Y-127000000D03*
X185420000Y-129540000D03*
X185420000Y-127000000D03*
X187960000Y-129540000D03*
X187960000Y-127000000D03*
X190500000Y-129540000D03*
X190500000Y-127000000D03*
X193040000Y-129540000D03*
X193040000Y-127000000D03*
X195580000Y-129540000D03*
X195580000Y-127000000D03*
X198120000Y-129540000D03*
X198120000Y-127000000D03*
X200660000Y-129540000D03*
X200660000Y-127000000D03*
X203200000Y-129540000D03*
X203200000Y-127000000D03*
X205740000Y-129540000D03*
X205740000Y-127000000D03*
X208280000Y-129540000D03*
X208280000Y-127000000D03*
X210820000Y-129540000D03*
X210820000Y-127000000D03*
%TD*%
D10*
%TO.C,C20*%
X183515000Y-60285000D03*
D17*
X183515000Y-57785000D03*
%TD*%
%TO.C,C13*%
X184785000Y-105410000D03*
X184785000Y-110410000D03*
%TD*%
D13*
%TO.C,RBF2*%
X116840000Y-109220000D03*
D14*
X116840000Y-116840000D03*
%TD*%
D17*
%TO.C,C3*%
X160020000Y-61595000D03*
X160020000Y-66595000D03*
%TD*%
M02*
